%TF.GenerationSoftware,KiCad,Pcbnew,8.0.5*%
%TF.CreationDate,2024-10-02T17:20:21+02:00*%
%TF.ProjectId,vaucasy-pcb,76617563-6173-4792-9d70-63622e6b6963,rev?*%
%TF.SameCoordinates,Original*%
%TF.FileFunction,Soldermask,Top*%
%TF.FilePolarity,Negative*%
%FSLAX46Y46*%
G04 Gerber Fmt 4.6, Leading zero omitted, Abs format (unit mm)*
G04 Created by KiCad (PCBNEW 8.0.5) date 2024-10-02 17:20:21*
%MOMM*%
%LPD*%
G01*
G04 APERTURE LIST*
G04 Aperture macros list*
%AMRoundRect*
0 Rectangle with rounded corners*
0 $1 Rounding radius*
0 $2 $3 $4 $5 $6 $7 $8 $9 X,Y pos of 4 corners*
0 Add a 4 corners polygon primitive as box body*
4,1,4,$2,$3,$4,$5,$6,$7,$8,$9,$2,$3,0*
0 Add four circle primitives for the rounded corners*
1,1,$1+$1,$2,$3*
1,1,$1+$1,$4,$5*
1,1,$1+$1,$6,$7*
1,1,$1+$1,$8,$9*
0 Add four rect primitives between the rounded corners*
20,1,$1+$1,$2,$3,$4,$5,0*
20,1,$1+$1,$4,$5,$6,$7,0*
20,1,$1+$1,$6,$7,$8,$9,0*
20,1,$1+$1,$8,$9,$2,$3,0*%
G04 Aperture macros list end*
%ADD10RoundRect,0.150000X0.150000X-0.512500X0.150000X0.512500X-0.150000X0.512500X-0.150000X-0.512500X0*%
%ADD11RoundRect,0.135000X-0.185000X0.135000X-0.185000X-0.135000X0.185000X-0.135000X0.185000X0.135000X0*%
%ADD12RoundRect,0.075000X0.075000X-0.700000X0.075000X0.700000X-0.075000X0.700000X-0.075000X-0.700000X0*%
%ADD13RoundRect,0.075000X0.700000X-0.075000X0.700000X0.075000X-0.700000X0.075000X-0.700000X-0.075000X0*%
%ADD14RoundRect,0.140000X-0.140000X-0.170000X0.140000X-0.170000X0.140000X0.170000X-0.140000X0.170000X0*%
%ADD15C,2.000000*%
%ADD16R,2.000000X3.200000*%
%ADD17R,2.000000X2.000000*%
%ADD18O,1.700000X1.700000*%
%ADD19R,1.700000X1.700000*%
%ADD20RoundRect,0.140000X-0.170000X0.140000X-0.170000X-0.140000X0.170000X-0.140000X0.170000X0.140000X0*%
%ADD21C,1.900000*%
%ADD22C,3.050000*%
%ADD23C,5.050000*%
%ADD24C,1.600000*%
%ADD25RoundRect,0.135000X0.185000X-0.135000X0.185000X0.135000X-0.185000X0.135000X-0.185000X-0.135000X0*%
%ADD26RoundRect,0.140000X0.170000X-0.140000X0.170000X0.140000X-0.170000X0.140000X-0.170000X-0.140000X0*%
%ADD27RoundRect,0.135000X0.135000X0.185000X-0.135000X0.185000X-0.135000X-0.185000X0.135000X-0.185000X0*%
%ADD28RoundRect,0.150000X-0.150000X0.512500X-0.150000X-0.512500X0.150000X-0.512500X0.150000X0.512500X0*%
%ADD29RoundRect,0.135000X-0.135000X-0.185000X0.135000X-0.185000X0.135000X0.185000X-0.135000X0.185000X0*%
%ADD30RoundRect,0.140000X0.140000X0.170000X-0.140000X0.170000X-0.140000X-0.170000X0.140000X-0.170000X0*%
%ADD31RoundRect,0.250000X0.375000X0.625000X-0.375000X0.625000X-0.375000X-0.625000X0.375000X-0.625000X0*%
%ADD32RoundRect,0.225000X-0.225000X-0.250000X0.225000X-0.250000X0.225000X0.250000X-0.225000X0.250000X0*%
%ADD33O,1.000000X1.800000*%
%ADD34O,1.000000X2.100000*%
%ADD35RoundRect,0.150000X0.150000X0.425000X-0.150000X0.425000X-0.150000X-0.425000X0.150000X-0.425000X0*%
%ADD36RoundRect,0.075000X0.075000X0.500000X-0.075000X0.500000X-0.075000X-0.500000X0.075000X-0.500000X0*%
%ADD37C,0.650000*%
%ADD38RoundRect,0.225000X-0.250000X0.225000X-0.250000X-0.225000X0.250000X-0.225000X0.250000X0.225000X0*%
%ADD39R,1.400000X1.200000*%
%ADD40C,0.900000*%
%ADD41O,2.000000X1.600000*%
%ADD42C,0.800000*%
G04 APERTURE END LIST*
D10*
%TO.C,U3*%
X167350000Y-53382500D03*
X169250000Y-53382500D03*
X168300000Y-51107500D03*
%TD*%
D11*
%TO.C,R10*%
X160675000Y-82190000D03*
X160675000Y-83210000D03*
%TD*%
D12*
%TO.C,U1*%
X161250000Y-69775000D03*
X161750000Y-69775000D03*
X162250000Y-69775000D03*
X162750000Y-69775000D03*
X163250000Y-69775000D03*
X163750000Y-69775000D03*
X164250000Y-69775000D03*
X164750000Y-69775000D03*
X165250000Y-69775000D03*
X165750000Y-69775000D03*
X166250000Y-69775000D03*
X166750000Y-69775000D03*
X167250000Y-69775000D03*
X167750000Y-69775000D03*
X168250000Y-69775000D03*
X168750000Y-69775000D03*
D13*
X170675000Y-67850000D03*
X170675000Y-67350000D03*
X170675000Y-66850000D03*
X170675000Y-66350000D03*
X170675000Y-65850000D03*
X170675000Y-65350000D03*
X170675000Y-64850000D03*
X170675000Y-64350000D03*
X170675000Y-63850000D03*
X170675000Y-63350000D03*
X170675000Y-62850000D03*
X170675000Y-62350000D03*
X170675000Y-61850000D03*
X170675000Y-61350000D03*
X170675000Y-60850000D03*
X170675000Y-60350000D03*
D12*
X168750000Y-58425000D03*
X168250000Y-58425000D03*
X167750000Y-58425000D03*
X167250000Y-58425000D03*
X166750000Y-58425000D03*
X166250000Y-58425000D03*
X165750000Y-58425000D03*
X165250000Y-58425000D03*
X164750000Y-58425000D03*
X164250000Y-58425000D03*
X163750000Y-58425000D03*
X163250000Y-58425000D03*
X162750000Y-58425000D03*
X162250000Y-58425000D03*
X161750000Y-58425000D03*
X161250000Y-58425000D03*
D13*
X159325000Y-60350000D03*
X159325000Y-60850000D03*
X159325000Y-61350000D03*
X159325000Y-61850000D03*
X159325000Y-62350000D03*
X159325000Y-62850000D03*
X159325000Y-63350000D03*
X159325000Y-63850000D03*
X159325000Y-64350000D03*
X159325000Y-64850000D03*
X159325000Y-65350000D03*
X159325000Y-65850000D03*
X159325000Y-66350000D03*
X159325000Y-66850000D03*
X159325000Y-67350000D03*
X159325000Y-67850000D03*
%TD*%
D14*
%TO.C,C11*%
X164980000Y-73100000D03*
X164020000Y-73100000D03*
%TD*%
D15*
%TO.C,SW3*%
X105015000Y-102200000D03*
X110015000Y-102200000D03*
D16*
X113115000Y-109200000D03*
X101915000Y-109200000D03*
D15*
X107515000Y-116700000D03*
X110015000Y-116700000D03*
D17*
X105015000Y-116700000D03*
%TD*%
D18*
%TO.C,J5*%
X171300000Y-88575000D03*
X168760000Y-88575000D03*
X166220000Y-88575000D03*
X163680000Y-88575000D03*
X161140000Y-88575000D03*
D19*
X158600000Y-88575000D03*
%TD*%
%TO.C,J4*%
X177055000Y-131800000D03*
D18*
X179595000Y-131800000D03*
X182135000Y-131800000D03*
X184675000Y-131800000D03*
X187215000Y-131800000D03*
%TD*%
D20*
%TO.C,C5*%
X157775000Y-68380000D03*
X157775000Y-67420000D03*
%TD*%
D21*
%TO.C,S5*%
X113000000Y-39350000D03*
D22*
X112500000Y-35550000D03*
D23*
X107500000Y-39350000D03*
D22*
X107500000Y-33450000D03*
D24*
X102500000Y-44500000D03*
D21*
X102000000Y-39350000D03*
%TD*%
%TO.C,S27*%
X131000000Y-78850000D03*
D22*
X130500000Y-75050000D03*
D23*
X125500000Y-78850000D03*
D22*
X125500000Y-72950000D03*
D24*
X120500000Y-84000000D03*
D21*
X120000000Y-78850000D03*
%TD*%
D14*
%TO.C,C14*%
X108135000Y-119450000D03*
X109095000Y-119450000D03*
%TD*%
D21*
%TO.C,S3*%
X77000000Y-47350000D03*
D22*
X76500000Y-43550000D03*
D23*
X71500000Y-47350000D03*
D22*
X71500000Y-41450000D03*
D24*
X66500000Y-52500000D03*
D21*
X66000000Y-47350000D03*
%TD*%
%TO.C,S19*%
X59000000Y-81350000D03*
D22*
X58500000Y-77550000D03*
D23*
X53500000Y-81350000D03*
D22*
X53500000Y-75450000D03*
D24*
X48500000Y-86500000D03*
D21*
X48000000Y-81350000D03*
%TD*%
D11*
%TO.C,R7*%
X110115000Y-119440000D03*
X110115000Y-120460000D03*
%TD*%
D21*
%TO.C,S28*%
X131000000Y-95850000D03*
D22*
X130500000Y-92050000D03*
D23*
X125500000Y-95850000D03*
D22*
X125500000Y-89950000D03*
D24*
X120500000Y-101000000D03*
D21*
X120000000Y-95850000D03*
%TD*%
%TO.C,S7*%
X149000000Y-48350000D03*
D22*
X148500000Y-44550000D03*
D23*
X143500000Y-48350000D03*
D22*
X143500000Y-42450000D03*
D24*
X138500000Y-53500000D03*
D21*
X138000000Y-48350000D03*
%TD*%
%TO.C,S30*%
X149000000Y-99350000D03*
D22*
X148500000Y-95550000D03*
D23*
X143500000Y-99350000D03*
D22*
X143500000Y-93450000D03*
D24*
X138500000Y-104500000D03*
D21*
X138000000Y-99350000D03*
%TD*%
%TO.C,S14*%
X131000000Y-61850000D03*
D22*
X130500000Y-58050000D03*
D23*
X125500000Y-61850000D03*
D22*
X125500000Y-55950000D03*
D24*
X120500000Y-67000000D03*
D21*
X120000000Y-61850000D03*
%TD*%
D14*
%TO.C,C9*%
X167340000Y-49395000D03*
X168300000Y-49395000D03*
%TD*%
D21*
%TO.C,S6*%
X131000000Y-44850000D03*
D22*
X130500000Y-41050000D03*
D23*
X125500000Y-44850000D03*
D22*
X125500000Y-38950000D03*
D24*
X120500000Y-50000000D03*
D21*
X120000000Y-44850000D03*
%TD*%
D19*
%TO.C,J2*%
X168730000Y-84950000D03*
D18*
X166190000Y-84950000D03*
X163650000Y-84950000D03*
X161110000Y-84950000D03*
%TD*%
D21*
%TO.C,S15*%
X149000000Y-65350000D03*
D22*
X148500000Y-61550000D03*
D23*
X143500000Y-65350000D03*
D22*
X143500000Y-59450000D03*
D24*
X138500000Y-70500000D03*
D21*
X138000000Y-65350000D03*
%TD*%
%TO.C,S29*%
X149000000Y-82350000D03*
D22*
X148500000Y-78550000D03*
D23*
X143500000Y-82350000D03*
D22*
X143500000Y-76450000D03*
D24*
X138500000Y-87500000D03*
D21*
X138000000Y-82350000D03*
%TD*%
%TO.C,S22*%
X77000000Y-98350000D03*
D22*
X76500000Y-94550000D03*
D23*
X71500000Y-98350000D03*
D22*
X71500000Y-92450000D03*
D24*
X66500000Y-103500000D03*
D21*
X66000000Y-98350000D03*
%TD*%
%TO.C,S26*%
X113000000Y-90350000D03*
D22*
X112500000Y-86550000D03*
D23*
X107500000Y-90350000D03*
D22*
X107500000Y-84450000D03*
D24*
X102500000Y-95500000D03*
D21*
X102000000Y-90350000D03*
%TD*%
%TO.C,S23*%
X95000000Y-77350000D03*
D22*
X94500000Y-73550000D03*
D23*
X89500000Y-77350000D03*
D22*
X89500000Y-71450000D03*
D24*
X84500000Y-82500000D03*
D21*
X84000000Y-77350000D03*
%TD*%
D25*
%TO.C,R8*%
X105115000Y-120460000D03*
X105115000Y-119440000D03*
%TD*%
D26*
%TO.C,C1*%
X161025000Y-72255000D03*
X161025000Y-71295000D03*
%TD*%
D21*
%TO.C,S1*%
X41000000Y-47350000D03*
D22*
X40500000Y-43550000D03*
D23*
X35500000Y-47350000D03*
D22*
X35500000Y-41450000D03*
D24*
X30500000Y-52500000D03*
D21*
X30000000Y-47350000D03*
%TD*%
%TO.C,S13*%
X113000000Y-56350000D03*
D22*
X112500000Y-52550000D03*
D23*
X107500000Y-56350000D03*
D22*
X107500000Y-50450000D03*
D24*
X102500000Y-61500000D03*
D21*
X102000000Y-56350000D03*
%TD*%
%TO.C,S9*%
X41000000Y-64350000D03*
D22*
X40500000Y-60550000D03*
D23*
X35500000Y-64350000D03*
D22*
X35500000Y-58450000D03*
D24*
X30500000Y-69500000D03*
D21*
X30000000Y-64350000D03*
%TD*%
D27*
%TO.C,R13*%
X182815000Y-128300000D03*
X181795000Y-128300000D03*
%TD*%
D21*
%TO.C,S4*%
X95000000Y-43350000D03*
D22*
X94500000Y-39550000D03*
D23*
X89500000Y-43350000D03*
D22*
X89500000Y-37450000D03*
D24*
X84500000Y-48500000D03*
D21*
X84000000Y-43350000D03*
%TD*%
D28*
%TO.C,U2*%
X163950000Y-47320000D03*
X163000000Y-47320000D03*
X162050000Y-47320000D03*
X162050000Y-49595000D03*
X163000000Y-49595000D03*
X163950000Y-49595000D03*
%TD*%
D29*
%TO.C,R2*%
X172360000Y-74800000D03*
X171340000Y-74800000D03*
%TD*%
D21*
%TO.C,S10*%
X59000000Y-64350000D03*
D22*
X58500000Y-60550000D03*
D23*
X53500000Y-64350000D03*
D22*
X53500000Y-58450000D03*
D24*
X48500000Y-69500000D03*
D21*
X48000000Y-64350000D03*
%TD*%
D29*
%TO.C,R4*%
X159990000Y-41075000D03*
X161010000Y-41075000D03*
%TD*%
D30*
%TO.C,C17*%
X175370000Y-72300000D03*
X176330000Y-72300000D03*
%TD*%
D31*
%TO.C,F1*%
X168220000Y-44245000D03*
X165420000Y-44245000D03*
%TD*%
D21*
%TO.C,S11*%
X77000000Y-64350000D03*
D22*
X76500000Y-60550000D03*
D23*
X71500000Y-64350000D03*
D22*
X71500000Y-58450000D03*
D24*
X66500000Y-69500000D03*
D21*
X66000000Y-64350000D03*
%TD*%
D32*
%TO.C,C6*%
X171475000Y-58050000D03*
X169925000Y-58050000D03*
%TD*%
D26*
%TO.C,C2*%
X172250000Y-66640000D03*
X172250000Y-67600000D03*
%TD*%
D21*
%TO.C,S17*%
X41000000Y-81350000D03*
D22*
X40500000Y-77550000D03*
D23*
X35500000Y-81350000D03*
D22*
X35500000Y-75450000D03*
D24*
X30500000Y-86500000D03*
D21*
X30000000Y-81350000D03*
%TD*%
D14*
%TO.C,C8*%
X167870000Y-54895000D03*
X168830000Y-54895000D03*
%TD*%
D21*
%TO.C,S24*%
X95000000Y-94350000D03*
D22*
X94500000Y-90550000D03*
D23*
X89500000Y-94350000D03*
D22*
X89500000Y-88450000D03*
D24*
X84500000Y-99500000D03*
D21*
X84000000Y-94350000D03*
%TD*%
%TO.C,S31*%
X165329362Y-150533021D03*
D22*
X167662814Y-147492462D03*
D23*
X161440274Y-146643934D03*
D22*
X165612204Y-142472004D03*
D24*
X154263140Y-146750000D03*
D21*
X157551186Y-142754847D03*
%TD*%
D27*
%TO.C,R14*%
X180325000Y-128300000D03*
X179305000Y-128300000D03*
%TD*%
D30*
%TO.C,C3*%
X170745000Y-59425000D03*
X171705000Y-59425000D03*
%TD*%
D14*
%TO.C,C10*%
X162980000Y-73100000D03*
X162020000Y-73100000D03*
%TD*%
%TO.C,C13*%
X167500000Y-71325000D03*
X166540000Y-71325000D03*
%TD*%
D27*
%TO.C,R3*%
X165835000Y-41075000D03*
X164815000Y-41075000D03*
%TD*%
D21*
%TO.C,S2*%
X59000000Y-47350000D03*
D22*
X58500000Y-43550000D03*
D23*
X53500000Y-47350000D03*
D22*
X53500000Y-41450000D03*
D24*
X48500000Y-52500000D03*
D21*
X48000000Y-47350000D03*
%TD*%
%TO.C,S20*%
X59000000Y-98350000D03*
D22*
X58500000Y-94550000D03*
D23*
X53500000Y-98350000D03*
D22*
X53500000Y-92450000D03*
D24*
X48500000Y-103500000D03*
D21*
X48000000Y-98350000D03*
%TD*%
%TO.C,S8*%
X130825732Y-127173505D03*
D22*
X131326282Y-123373577D03*
D23*
X125513140Y-125750000D03*
D22*
X127040172Y-120051038D03*
D24*
X119350593Y-129430423D03*
D21*
X120200548Y-124326495D03*
%TD*%
D14*
%TO.C,C15*%
X106135000Y-119450000D03*
X107095000Y-119450000D03*
%TD*%
D33*
%TO.C,J1*%
X158680000Y-34500000D03*
D34*
X158680000Y-38680000D03*
D33*
X167320000Y-34500000D03*
D34*
X167320000Y-38680000D03*
D35*
X166200000Y-39255000D03*
X165400000Y-39255000D03*
D36*
X164750000Y-39255000D03*
X163750000Y-39255000D03*
X162250000Y-39255000D03*
X161250000Y-39255000D03*
D35*
X160600000Y-39255000D03*
X159800000Y-39255000D03*
X159800000Y-39255000D03*
X160600000Y-39255000D03*
D36*
X161750000Y-39255000D03*
X162750000Y-39255000D03*
X163250000Y-39255000D03*
X164250000Y-39255000D03*
D35*
X165400000Y-39255000D03*
X166200000Y-39255000D03*
D37*
X160110000Y-38180000D03*
X165890000Y-38180000D03*
%TD*%
D38*
%TO.C,C12*%
X172500000Y-62475000D03*
X172500000Y-60925000D03*
%TD*%
D21*
%TO.C,S25*%
X113000000Y-73350000D03*
D22*
X112500000Y-69550000D03*
D23*
X107500000Y-73350000D03*
D22*
X107500000Y-67450000D03*
D24*
X102500000Y-78500000D03*
D21*
X102000000Y-73350000D03*
%TD*%
%TO.C,S12*%
X95000000Y-60350000D03*
D22*
X94500000Y-56550000D03*
D23*
X89500000Y-60350000D03*
D22*
X89500000Y-54450000D03*
D24*
X84500000Y-65500000D03*
D21*
X84000000Y-60350000D03*
%TD*%
D30*
%TO.C,C7*%
X171370000Y-73700000D03*
X172330000Y-73700000D03*
%TD*%
%TO.C,C4*%
X160970000Y-56875000D03*
X161930000Y-56875000D03*
%TD*%
D25*
%TO.C,R9*%
X163675000Y-83210000D03*
X163675000Y-82190000D03*
%TD*%
D21*
%TO.C,S21*%
X77000000Y-81350000D03*
D22*
X76500000Y-77550000D03*
D23*
X71500000Y-81350000D03*
D22*
X71500000Y-75450000D03*
D24*
X66500000Y-86500000D03*
D21*
X66000000Y-81350000D03*
%TD*%
%TO.C,S16*%
X149526280Y-136750000D03*
D22*
X150993268Y-133209104D03*
D23*
X144763140Y-134000000D03*
D22*
X147713140Y-128890450D03*
D24*
X137858013Y-135960031D03*
D21*
X140000000Y-131250000D03*
%TD*%
D39*
%TO.C,Y1*%
X162400000Y-74550000D03*
X164600000Y-74550000D03*
X164600000Y-76250000D03*
X162400000Y-76250000D03*
%TD*%
D21*
%TO.C,S18*%
X41000000Y-98350000D03*
D22*
X40500000Y-94550000D03*
D23*
X35500000Y-98350000D03*
D22*
X35500000Y-92450000D03*
D24*
X30500000Y-103500000D03*
D21*
X30000000Y-98350000D03*
%TD*%
D40*
%TO.C,SW1*%
X198905000Y-78450000D03*
X198905000Y-75450000D03*
%TD*%
D41*
%TO.C,U4*%
X223437500Y-92075000D03*
X220437500Y-92075000D03*
X216437500Y-92075000D03*
X215337500Y-96675000D03*
D42*
X225037500Y-94375000D03*
X218037500Y-94375000D03*
%TD*%
D19*
%TO.C,J6*%
X196400000Y-58775000D03*
D18*
X196400000Y-56235000D03*
X196400000Y-53695000D03*
X196400000Y-51155000D03*
%TD*%
M02*
