%TF.GenerationSoftware,KiCad,Pcbnew,8.0.5*%
%TF.CreationDate,2024-10-02T17:20:21+02:00*%
%TF.ProjectId,vaucasy-pcb,76617563-6173-4792-9d70-63622e6b6963,rev?*%
%TF.SameCoordinates,Original*%
%TF.FileFunction,Soldermask,Bot*%
%TF.FilePolarity,Negative*%
%FSLAX46Y46*%
G04 Gerber Fmt 4.6, Leading zero omitted, Abs format (unit mm)*
G04 Created by KiCad (PCBNEW 8.0.5) date 2024-10-02 17:20:21*
%MOMM*%
%LPD*%
G01*
G04 APERTURE LIST*
G04 Aperture macros list*
%AMRoundRect*
0 Rectangle with rounded corners*
0 $1 Rounding radius*
0 $2 $3 $4 $5 $6 $7 $8 $9 X,Y pos of 4 corners*
0 Add a 4 corners polygon primitive as box body*
4,1,4,$2,$3,$4,$5,$6,$7,$8,$9,$2,$3,0*
0 Add four circle primitives for the rounded corners*
1,1,$1+$1,$2,$3*
1,1,$1+$1,$4,$5*
1,1,$1+$1,$6,$7*
1,1,$1+$1,$8,$9*
0 Add four rect primitives between the rounded corners*
20,1,$1+$1,$2,$3,$4,$5,0*
20,1,$1+$1,$4,$5,$6,$7,0*
20,1,$1+$1,$6,$7,$8,$9,0*
20,1,$1+$1,$8,$9,$2,$3,0*%
G04 Aperture macros list end*
%ADD10C,2.000000*%
%ADD11R,2.000000X3.200000*%
%ADD12R,2.000000X2.000000*%
%ADD13O,1.700000X1.700000*%
%ADD14R,1.700000X1.700000*%
%ADD15RoundRect,0.250000X-1.025000X-1.000000X1.025000X-1.000000X1.025000X1.000000X-1.025000X1.000000X0*%
%ADD16C,1.900000*%
%ADD17C,3.050000*%
%ADD18C,5.050000*%
%ADD19C,1.600000*%
%ADD20RoundRect,0.250000X-1.431891X0.017678X0.017678X-1.431891X1.431891X-0.017678X-0.017678X1.431891X0*%
%ADD21RoundRect,0.250000X-1.248893X-0.700636X0.731255X-1.231215X1.248893X0.700636X-0.731255X1.231215X0*%
%ADD22O,1.000000X1.800000*%
%ADD23O,1.000000X2.100000*%
%ADD24C,0.650000*%
%ADD25RoundRect,0.250000X-1.387676X-0.353525X0.387676X-1.378525X1.387676X0.353525X-0.387676X1.378525X0*%
%ADD26RoundRect,0.225000X0.375000X-0.225000X0.375000X0.225000X-0.375000X0.225000X-0.375000X-0.225000X0*%
%ADD27R,1.000000X1.700000*%
%ADD28R,1.500000X0.700000*%
%ADD29R,0.800000X1.000000*%
%ADD30C,0.900000*%
%ADD31RoundRect,0.135000X0.135000X0.185000X-0.135000X0.185000X-0.135000X-0.185000X0.135000X-0.185000X0*%
%ADD32RoundRect,0.135000X0.185000X-0.135000X0.185000X0.135000X-0.185000X0.135000X-0.185000X-0.135000X0*%
%ADD33O,2.000000X1.600000*%
%ADD34C,0.800000*%
%ADD35RoundRect,0.140000X-0.170000X0.140000X-0.170000X-0.140000X0.170000X-0.140000X0.170000X0.140000X0*%
G04 APERTURE END LIST*
D10*
%TO.C,SW3*%
X105015000Y-102200000D03*
X110015000Y-102200000D03*
D11*
X113115000Y-109200000D03*
X101915000Y-109200000D03*
D10*
X107515000Y-116700000D03*
X110015000Y-116700000D03*
D12*
X105015000Y-116700000D03*
%TD*%
D13*
%TO.C,J5*%
X171300000Y-88575000D03*
X168760000Y-88575000D03*
X166220000Y-88575000D03*
X163680000Y-88575000D03*
X161140000Y-88575000D03*
D14*
X158600000Y-88575000D03*
%TD*%
%TO.C,J4*%
X177055000Y-131800000D03*
D13*
X179595000Y-131800000D03*
X182135000Y-131800000D03*
X184675000Y-131800000D03*
X187215000Y-131800000D03*
%TD*%
D15*
%TO.C,S5*%
X116000000Y-35550000D03*
X104000000Y-33350000D03*
D16*
X113000000Y-39350000D03*
D17*
X112500000Y-35550000D03*
D18*
X107500000Y-39350000D03*
D17*
X107500000Y-33450000D03*
D19*
X102500000Y-44500000D03*
D16*
X102000000Y-39350000D03*
%TD*%
D15*
%TO.C,S27*%
X134000000Y-75050000D03*
X122000000Y-72850000D03*
D16*
X131000000Y-78850000D03*
D17*
X130500000Y-75050000D03*
D18*
X125500000Y-78850000D03*
D17*
X125500000Y-72950000D03*
D19*
X120500000Y-84000000D03*
D16*
X120000000Y-78850000D03*
%TD*%
D15*
%TO.C,S3*%
X80000000Y-43550000D03*
X68000000Y-41350000D03*
D16*
X77000000Y-47350000D03*
D17*
X76500000Y-43550000D03*
D18*
X71500000Y-47350000D03*
D17*
X71500000Y-41450000D03*
D19*
X66500000Y-52500000D03*
D16*
X66000000Y-47350000D03*
%TD*%
D15*
%TO.C,S19*%
X62000000Y-77550000D03*
X50000000Y-75350000D03*
D16*
X59000000Y-81350000D03*
D17*
X58500000Y-77550000D03*
D18*
X53500000Y-81350000D03*
D17*
X53500000Y-75450000D03*
D19*
X48500000Y-86500000D03*
D16*
X48000000Y-81350000D03*
%TD*%
D15*
%TO.C,S28*%
X134000000Y-92050000D03*
X122000000Y-89850000D03*
D16*
X131000000Y-95850000D03*
D17*
X130500000Y-92050000D03*
D18*
X125500000Y-95850000D03*
D17*
X125500000Y-89950000D03*
D19*
X120500000Y-101000000D03*
D16*
X120000000Y-95850000D03*
%TD*%
D15*
%TO.C,S7*%
X152000000Y-44550000D03*
X140000000Y-42350000D03*
D16*
X149000000Y-48350000D03*
D17*
X148500000Y-44550000D03*
D18*
X143500000Y-48350000D03*
D17*
X143500000Y-42450000D03*
D19*
X138500000Y-53500000D03*
D16*
X138000000Y-48350000D03*
%TD*%
D15*
%TO.C,S30*%
X152000000Y-95550000D03*
X140000000Y-93350000D03*
D16*
X149000000Y-99350000D03*
D17*
X148500000Y-95550000D03*
D18*
X143500000Y-99350000D03*
D17*
X143500000Y-93450000D03*
D19*
X138500000Y-104500000D03*
D16*
X138000000Y-99350000D03*
%TD*%
D15*
%TO.C,S14*%
X134000000Y-58050000D03*
X122000000Y-55850000D03*
D16*
X131000000Y-61850000D03*
D17*
X130500000Y-58050000D03*
D18*
X125500000Y-61850000D03*
D17*
X125500000Y-55950000D03*
D19*
X120500000Y-67000000D03*
D16*
X120000000Y-61850000D03*
%TD*%
D15*
%TO.C,S6*%
X134000000Y-41050000D03*
X122000000Y-38850000D03*
D16*
X131000000Y-44850000D03*
D17*
X130500000Y-41050000D03*
D18*
X125500000Y-44850000D03*
D17*
X125500000Y-38950000D03*
D19*
X120500000Y-50000000D03*
D16*
X120000000Y-44850000D03*
%TD*%
D14*
%TO.C,J2*%
X168730000Y-84950000D03*
D13*
X166190000Y-84950000D03*
X163650000Y-84950000D03*
X161110000Y-84950000D03*
%TD*%
D15*
%TO.C,S15*%
X152000000Y-61550000D03*
X140000000Y-59350000D03*
D16*
X149000000Y-65350000D03*
D17*
X148500000Y-61550000D03*
D18*
X143500000Y-65350000D03*
D17*
X143500000Y-59450000D03*
D19*
X138500000Y-70500000D03*
D16*
X138000000Y-65350000D03*
%TD*%
D15*
%TO.C,S29*%
X152000000Y-78550000D03*
X140000000Y-76350000D03*
D16*
X149000000Y-82350000D03*
D17*
X148500000Y-78550000D03*
D18*
X143500000Y-82350000D03*
D17*
X143500000Y-76450000D03*
D19*
X138500000Y-87500000D03*
D16*
X138000000Y-82350000D03*
%TD*%
D15*
%TO.C,S22*%
X80000000Y-94550000D03*
X68000000Y-92350000D03*
D16*
X77000000Y-98350000D03*
D17*
X76500000Y-94550000D03*
D18*
X71500000Y-98350000D03*
D17*
X71500000Y-92450000D03*
D19*
X66500000Y-103500000D03*
D16*
X66000000Y-98350000D03*
%TD*%
D15*
%TO.C,S26*%
X116000000Y-86550000D03*
X104000000Y-84350000D03*
D16*
X113000000Y-90350000D03*
D17*
X112500000Y-86550000D03*
D18*
X107500000Y-90350000D03*
D17*
X107500000Y-84450000D03*
D19*
X102500000Y-95500000D03*
D16*
X102000000Y-90350000D03*
%TD*%
D15*
%TO.C,S23*%
X98000000Y-73550000D03*
X86000000Y-71350000D03*
D16*
X95000000Y-77350000D03*
D17*
X94500000Y-73550000D03*
D18*
X89500000Y-77350000D03*
D17*
X89500000Y-71450000D03*
D19*
X84500000Y-82500000D03*
D16*
X84000000Y-77350000D03*
%TD*%
D15*
%TO.C,S1*%
X44000000Y-43550000D03*
X32000000Y-41350000D03*
D16*
X41000000Y-47350000D03*
D17*
X40500000Y-43550000D03*
D18*
X35500000Y-47350000D03*
D17*
X35500000Y-41450000D03*
D19*
X30500000Y-52500000D03*
D16*
X30000000Y-47350000D03*
%TD*%
D15*
%TO.C,S13*%
X116000000Y-52550000D03*
X104000000Y-50350000D03*
D16*
X113000000Y-56350000D03*
D17*
X112500000Y-52550000D03*
D18*
X107500000Y-56350000D03*
D17*
X107500000Y-50450000D03*
D19*
X102500000Y-61500000D03*
D16*
X102000000Y-56350000D03*
%TD*%
D15*
%TO.C,S9*%
X44000000Y-60550000D03*
X32000000Y-58350000D03*
D16*
X41000000Y-64350000D03*
D17*
X40500000Y-60550000D03*
D18*
X35500000Y-64350000D03*
D17*
X35500000Y-58450000D03*
D19*
X30500000Y-69500000D03*
D16*
X30000000Y-64350000D03*
%TD*%
D15*
%TO.C,S4*%
X98000000Y-39550000D03*
X86000000Y-37350000D03*
D16*
X95000000Y-43350000D03*
D17*
X94500000Y-39550000D03*
D18*
X89500000Y-43350000D03*
D17*
X89500000Y-37450000D03*
D19*
X84500000Y-48500000D03*
D16*
X84000000Y-43350000D03*
%TD*%
D15*
%TO.C,S10*%
X62000000Y-60550000D03*
X50000000Y-58350000D03*
D16*
X59000000Y-64350000D03*
D17*
X58500000Y-60550000D03*
D18*
X53500000Y-64350000D03*
D17*
X53500000Y-58450000D03*
D19*
X48500000Y-69500000D03*
D16*
X48000000Y-64350000D03*
%TD*%
D15*
%TO.C,S11*%
X80000000Y-60550000D03*
X68000000Y-58350000D03*
D16*
X77000000Y-64350000D03*
D17*
X76500000Y-60550000D03*
D18*
X71500000Y-64350000D03*
D17*
X71500000Y-58450000D03*
D19*
X66500000Y-69500000D03*
D16*
X66000000Y-64350000D03*
%TD*%
D15*
%TO.C,S17*%
X44000000Y-77550000D03*
X32000000Y-75350000D03*
D16*
X41000000Y-81350000D03*
D17*
X40500000Y-77550000D03*
D18*
X35500000Y-81350000D03*
D17*
X35500000Y-75450000D03*
D19*
X30500000Y-86500000D03*
D16*
X30000000Y-81350000D03*
%TD*%
D15*
%TO.C,S24*%
X98000000Y-90550000D03*
X86000000Y-88350000D03*
D16*
X95000000Y-94350000D03*
D17*
X94500000Y-90550000D03*
D18*
X89500000Y-94350000D03*
D17*
X89500000Y-88450000D03*
D19*
X84500000Y-99500000D03*
D16*
X84000000Y-94350000D03*
%TD*%
D20*
%TO.C,S31*%
X170137688Y-149967335D03*
X163208041Y-139926420D03*
D16*
X165329362Y-150533021D03*
D17*
X167662814Y-147492462D03*
D18*
X161440274Y-146643934D03*
D17*
X165612204Y-142472004D03*
D19*
X154263140Y-146750000D03*
D16*
X157551186Y-142754847D03*
%TD*%
D15*
%TO.C,S2*%
X62000000Y-43550000D03*
X50000000Y-41350000D03*
D16*
X59000000Y-47350000D03*
D17*
X58500000Y-43550000D03*
D18*
X53500000Y-47350000D03*
D17*
X53500000Y-41450000D03*
D19*
X48500000Y-52500000D03*
D16*
X48000000Y-47350000D03*
%TD*%
D15*
%TO.C,S20*%
X62000000Y-94550000D03*
X50000000Y-92350000D03*
D16*
X59000000Y-98350000D03*
D17*
X58500000Y-94550000D03*
D18*
X53500000Y-98350000D03*
D17*
X53500000Y-92450000D03*
D19*
X48500000Y-103500000D03*
D16*
X48000000Y-98350000D03*
%TD*%
D21*
%TO.C,S8*%
X134707022Y-124279444D03*
X123685314Y-119048579D03*
D16*
X130825732Y-127173505D03*
D17*
X131326282Y-123373577D03*
D18*
X125513140Y-125750000D03*
D17*
X127040172Y-120051038D03*
D19*
X119350593Y-129430423D03*
D16*
X120200548Y-124326495D03*
%TD*%
D22*
%TO.C,J1*%
X158680000Y-34500000D03*
D23*
X158680000Y-38680000D03*
D22*
X167320000Y-34500000D03*
D23*
X167320000Y-38680000D03*
D24*
X160110000Y-38180000D03*
X165890000Y-38180000D03*
%TD*%
D15*
%TO.C,S25*%
X116000000Y-69550000D03*
X104000000Y-67350000D03*
D16*
X113000000Y-73350000D03*
D17*
X112500000Y-69550000D03*
D18*
X107500000Y-73350000D03*
D17*
X107500000Y-67450000D03*
D19*
X102500000Y-78500000D03*
D16*
X102000000Y-73350000D03*
%TD*%
D15*
%TO.C,S12*%
X98000000Y-56550000D03*
X86000000Y-54350000D03*
D16*
X95000000Y-60350000D03*
D17*
X94500000Y-56550000D03*
D18*
X89500000Y-60350000D03*
D17*
X89500000Y-54450000D03*
D19*
X84500000Y-65500000D03*
D16*
X84000000Y-60350000D03*
%TD*%
D15*
%TO.C,S21*%
X80000000Y-77550000D03*
X68000000Y-75350000D03*
D16*
X77000000Y-81350000D03*
D17*
X76500000Y-77550000D03*
D18*
X71500000Y-81350000D03*
D17*
X71500000Y-75450000D03*
D19*
X66500000Y-86500000D03*
D16*
X66000000Y-81350000D03*
%TD*%
D25*
%TO.C,S16*%
X154024356Y-134959103D03*
X144732051Y-127053848D03*
D16*
X149526280Y-136750000D03*
D17*
X150993268Y-133209104D03*
D18*
X144763140Y-134000000D03*
D17*
X147713140Y-128890450D03*
D19*
X137858013Y-135960031D03*
D16*
X140000000Y-131250000D03*
%TD*%
D15*
%TO.C,S18*%
X44000000Y-94550000D03*
X32000000Y-92350000D03*
D16*
X41000000Y-98350000D03*
D17*
X40500000Y-94550000D03*
D18*
X35500000Y-98350000D03*
D17*
X35500000Y-92450000D03*
D19*
X30500000Y-103500000D03*
D16*
X30000000Y-98350000D03*
%TD*%
D26*
%TO.C,D19*%
X59500000Y-87500000D03*
X59500000Y-84200000D03*
%TD*%
D27*
%TO.C,SW2*%
X187675000Y-73820000D03*
X187675000Y-80120000D03*
X191475000Y-73820000D03*
X191475000Y-80120000D03*
%TD*%
D26*
%TO.C,D9*%
X41500000Y-70500000D03*
X41500000Y-67200000D03*
%TD*%
%TO.C,D15*%
X149500000Y-71500000D03*
X149500000Y-68200000D03*
%TD*%
%TO.C,D8*%
X129825000Y-133650000D03*
X129825000Y-130350000D03*
%TD*%
%TO.C,D17*%
X41500000Y-87500000D03*
X41500000Y-84200000D03*
%TD*%
%TO.C,D18*%
X41500000Y-104350000D03*
X41500000Y-101050000D03*
%TD*%
%TO.C,D14*%
X131500000Y-68000000D03*
X131500000Y-64700000D03*
%TD*%
%TO.C,D12*%
X95500000Y-66500000D03*
X95500000Y-63200000D03*
%TD*%
%TO.C,D24*%
X95500000Y-100500000D03*
X95500000Y-97200000D03*
%TD*%
%TO.C,D26*%
X113500000Y-96500000D03*
X113500000Y-93200000D03*
%TD*%
%TO.C,D13*%
X113500000Y-62500000D03*
X113500000Y-59200000D03*
%TD*%
%TO.C,D6*%
X131500000Y-50850000D03*
X131500000Y-47550000D03*
%TD*%
D28*
%TO.C,SW1*%
X197145000Y-79200000D03*
X197145000Y-77700000D03*
X197145000Y-74700000D03*
D29*
X197795000Y-80600000D03*
X200005000Y-80600000D03*
D30*
X198905000Y-78450000D03*
X198905000Y-75450000D03*
D29*
X197795000Y-73300000D03*
X200005000Y-73300000D03*
%TD*%
D31*
%TO.C,R6*%
X113135000Y-101950000D03*
X112115000Y-101950000D03*
%TD*%
D26*
%TO.C,D22*%
X77500000Y-104500000D03*
X77500000Y-101200000D03*
%TD*%
%TO.C,D30*%
X149500000Y-105500000D03*
X149500000Y-102200000D03*
%TD*%
%TO.C,D2*%
X59500000Y-53500000D03*
X59500000Y-50200000D03*
%TD*%
D32*
%TO.C,R1*%
X195075000Y-77470000D03*
X195075000Y-76450000D03*
%TD*%
D26*
%TO.C,D16*%
X147025000Y-142675000D03*
X147025000Y-139375000D03*
%TD*%
%TO.C,D7*%
X149500000Y-54500000D03*
X149500000Y-51200000D03*
%TD*%
%TO.C,D29*%
X149500000Y-88500000D03*
X149500000Y-85200000D03*
%TD*%
%TO.C,D25*%
X113500000Y-79500000D03*
X113500000Y-76200000D03*
%TD*%
%TO.C,D33*%
X102115000Y-105100000D03*
X102115000Y-101800000D03*
%TD*%
%TO.C,D11*%
X77500000Y-70500000D03*
X77500000Y-67200000D03*
%TD*%
%TO.C,D27*%
X131500000Y-85000000D03*
X131500000Y-81700000D03*
%TD*%
%TO.C,D5*%
X113500000Y-45350000D03*
X113500000Y-42050000D03*
%TD*%
%TO.C,D3*%
X77500000Y-53500000D03*
X77500000Y-50200000D03*
%TD*%
%TO.C,D20*%
X59500000Y-104500000D03*
X59500000Y-101200000D03*
%TD*%
%TO.C,D23*%
X95500000Y-83500000D03*
X95500000Y-80200000D03*
%TD*%
%TO.C,D31*%
X161500000Y-155650000D03*
X161500000Y-152350000D03*
%TD*%
D33*
%TO.C,U4*%
X223437500Y-92075000D03*
X220437500Y-92075000D03*
X216437500Y-92075000D03*
X215337500Y-96675000D03*
D34*
X225037500Y-94375000D03*
X218037500Y-94375000D03*
%TD*%
D26*
%TO.C,D21*%
X77500000Y-87500000D03*
X77500000Y-84200000D03*
%TD*%
%TO.C,D1*%
X41500000Y-53500000D03*
X41500000Y-50200000D03*
%TD*%
D35*
%TO.C,C16*%
X113115000Y-103470000D03*
X113115000Y-104430000D03*
%TD*%
D26*
%TO.C,D28*%
X131500000Y-102000000D03*
X131500000Y-98700000D03*
%TD*%
%TO.C,D10*%
X59500000Y-70500000D03*
X59500000Y-67200000D03*
%TD*%
%TO.C,D4*%
X95500000Y-49350000D03*
X95500000Y-46050000D03*
%TD*%
D14*
%TO.C,J6*%
X196400000Y-58775000D03*
D13*
X196400000Y-56235000D03*
X196400000Y-53695000D03*
X196400000Y-51155000D03*
%TD*%
M02*
