%TF.GenerationSoftware,KiCad,Pcbnew,8.0.5*%
%TF.CreationDate,2024-10-02T17:20:21+02:00*%
%TF.ProjectId,vaucasy-pcb,76617563-6173-4792-9d70-63622e6b6963,rev?*%
%TF.SameCoordinates,Original*%
%TF.FileFunction,Legend,Top*%
%TF.FilePolarity,Positive*%
%FSLAX46Y46*%
G04 Gerber Fmt 4.6, Leading zero omitted, Abs format (unit mm)*
G04 Created by KiCad (PCBNEW 8.0.5) date 2024-10-02 17:20:21*
%MOMM*%
%LPD*%
G01*
G04 APERTURE LIST*
%ADD10C,0.100000*%
%ADD11C,0.150000*%
%ADD12C,0.120000*%
G04 APERTURE END LIST*
D10*
X169535000Y-111500000D02*
X194535000Y-111500000D01*
X194535000Y-133500000D01*
X169535000Y-133500000D01*
X169535000Y-111500000D01*
D11*
X170238095Y-51704819D02*
X170238095Y-52514342D01*
X170238095Y-52514342D02*
X170285714Y-52609580D01*
X170285714Y-52609580D02*
X170333333Y-52657200D01*
X170333333Y-52657200D02*
X170428571Y-52704819D01*
X170428571Y-52704819D02*
X170619047Y-52704819D01*
X170619047Y-52704819D02*
X170714285Y-52657200D01*
X170714285Y-52657200D02*
X170761904Y-52609580D01*
X170761904Y-52609580D02*
X170809523Y-52514342D01*
X170809523Y-52514342D02*
X170809523Y-51704819D01*
X171190476Y-51704819D02*
X171809523Y-51704819D01*
X171809523Y-51704819D02*
X171476190Y-52085771D01*
X171476190Y-52085771D02*
X171619047Y-52085771D01*
X171619047Y-52085771D02*
X171714285Y-52133390D01*
X171714285Y-52133390D02*
X171761904Y-52181009D01*
X171761904Y-52181009D02*
X171809523Y-52276247D01*
X171809523Y-52276247D02*
X171809523Y-52514342D01*
X171809523Y-52514342D02*
X171761904Y-52609580D01*
X171761904Y-52609580D02*
X171714285Y-52657200D01*
X171714285Y-52657200D02*
X171619047Y-52704819D01*
X171619047Y-52704819D02*
X171333333Y-52704819D01*
X171333333Y-52704819D02*
X171238095Y-52657200D01*
X171238095Y-52657200D02*
X171190476Y-52609580D01*
X158032142Y-83154819D02*
X157698809Y-82678628D01*
X157460714Y-83154819D02*
X157460714Y-82154819D01*
X157460714Y-82154819D02*
X157841666Y-82154819D01*
X157841666Y-82154819D02*
X157936904Y-82202438D01*
X157936904Y-82202438D02*
X157984523Y-82250057D01*
X157984523Y-82250057D02*
X158032142Y-82345295D01*
X158032142Y-82345295D02*
X158032142Y-82488152D01*
X158032142Y-82488152D02*
X157984523Y-82583390D01*
X157984523Y-82583390D02*
X157936904Y-82631009D01*
X157936904Y-82631009D02*
X157841666Y-82678628D01*
X157841666Y-82678628D02*
X157460714Y-82678628D01*
X158984523Y-83154819D02*
X158413095Y-83154819D01*
X158698809Y-83154819D02*
X158698809Y-82154819D01*
X158698809Y-82154819D02*
X158603571Y-82297676D01*
X158603571Y-82297676D02*
X158508333Y-82392914D01*
X158508333Y-82392914D02*
X158413095Y-82440533D01*
X159603571Y-82154819D02*
X159698809Y-82154819D01*
X159698809Y-82154819D02*
X159794047Y-82202438D01*
X159794047Y-82202438D02*
X159841666Y-82250057D01*
X159841666Y-82250057D02*
X159889285Y-82345295D01*
X159889285Y-82345295D02*
X159936904Y-82535771D01*
X159936904Y-82535771D02*
X159936904Y-82773866D01*
X159936904Y-82773866D02*
X159889285Y-82964342D01*
X159889285Y-82964342D02*
X159841666Y-83059580D01*
X159841666Y-83059580D02*
X159794047Y-83107200D01*
X159794047Y-83107200D02*
X159698809Y-83154819D01*
X159698809Y-83154819D02*
X159603571Y-83154819D01*
X159603571Y-83154819D02*
X159508333Y-83107200D01*
X159508333Y-83107200D02*
X159460714Y-83059580D01*
X159460714Y-83059580D02*
X159413095Y-82964342D01*
X159413095Y-82964342D02*
X159365476Y-82773866D01*
X159365476Y-82773866D02*
X159365476Y-82535771D01*
X159365476Y-82535771D02*
X159413095Y-82345295D01*
X159413095Y-82345295D02*
X159460714Y-82250057D01*
X159460714Y-82250057D02*
X159508333Y-82202438D01*
X159508333Y-82202438D02*
X159603571Y-82154819D01*
X164163095Y-63554819D02*
X164163095Y-64364342D01*
X164163095Y-64364342D02*
X164210714Y-64459580D01*
X164210714Y-64459580D02*
X164258333Y-64507200D01*
X164258333Y-64507200D02*
X164353571Y-64554819D01*
X164353571Y-64554819D02*
X164544047Y-64554819D01*
X164544047Y-64554819D02*
X164639285Y-64507200D01*
X164639285Y-64507200D02*
X164686904Y-64459580D01*
X164686904Y-64459580D02*
X164734523Y-64364342D01*
X164734523Y-64364342D02*
X164734523Y-63554819D01*
X165734523Y-64554819D02*
X165163095Y-64554819D01*
X165448809Y-64554819D02*
X165448809Y-63554819D01*
X165448809Y-63554819D02*
X165353571Y-63697676D01*
X165353571Y-63697676D02*
X165258333Y-63792914D01*
X165258333Y-63792914D02*
X165163095Y-63840533D01*
X166232142Y-73459580D02*
X166184523Y-73507200D01*
X166184523Y-73507200D02*
X166041666Y-73554819D01*
X166041666Y-73554819D02*
X165946428Y-73554819D01*
X165946428Y-73554819D02*
X165803571Y-73507200D01*
X165803571Y-73507200D02*
X165708333Y-73411961D01*
X165708333Y-73411961D02*
X165660714Y-73316723D01*
X165660714Y-73316723D02*
X165613095Y-73126247D01*
X165613095Y-73126247D02*
X165613095Y-72983390D01*
X165613095Y-72983390D02*
X165660714Y-72792914D01*
X165660714Y-72792914D02*
X165708333Y-72697676D01*
X165708333Y-72697676D02*
X165803571Y-72602438D01*
X165803571Y-72602438D02*
X165946428Y-72554819D01*
X165946428Y-72554819D02*
X166041666Y-72554819D01*
X166041666Y-72554819D02*
X166184523Y-72602438D01*
X166184523Y-72602438D02*
X166232142Y-72650057D01*
X167184523Y-73554819D02*
X166613095Y-73554819D01*
X166898809Y-73554819D02*
X166898809Y-72554819D01*
X166898809Y-72554819D02*
X166803571Y-72697676D01*
X166803571Y-72697676D02*
X166708333Y-72792914D01*
X166708333Y-72792914D02*
X166613095Y-72840533D01*
X168136904Y-73554819D02*
X167565476Y-73554819D01*
X167851190Y-73554819D02*
X167851190Y-72554819D01*
X167851190Y-72554819D02*
X167755952Y-72697676D01*
X167755952Y-72697676D02*
X167660714Y-72792914D01*
X167660714Y-72792914D02*
X167565476Y-72840533D01*
X100722200Y-115233332D02*
X100769819Y-115090475D01*
X100769819Y-115090475D02*
X100769819Y-114852380D01*
X100769819Y-114852380D02*
X100722200Y-114757142D01*
X100722200Y-114757142D02*
X100674580Y-114709523D01*
X100674580Y-114709523D02*
X100579342Y-114661904D01*
X100579342Y-114661904D02*
X100484104Y-114661904D01*
X100484104Y-114661904D02*
X100388866Y-114709523D01*
X100388866Y-114709523D02*
X100341247Y-114757142D01*
X100341247Y-114757142D02*
X100293628Y-114852380D01*
X100293628Y-114852380D02*
X100246009Y-115042856D01*
X100246009Y-115042856D02*
X100198390Y-115138094D01*
X100198390Y-115138094D02*
X100150771Y-115185713D01*
X100150771Y-115185713D02*
X100055533Y-115233332D01*
X100055533Y-115233332D02*
X99960295Y-115233332D01*
X99960295Y-115233332D02*
X99865057Y-115185713D01*
X99865057Y-115185713D02*
X99817438Y-115138094D01*
X99817438Y-115138094D02*
X99769819Y-115042856D01*
X99769819Y-115042856D02*
X99769819Y-114804761D01*
X99769819Y-114804761D02*
X99817438Y-114661904D01*
X99769819Y-114328570D02*
X100769819Y-114090475D01*
X100769819Y-114090475D02*
X100055533Y-113899999D01*
X100055533Y-113899999D02*
X100769819Y-113709523D01*
X100769819Y-113709523D02*
X99769819Y-113471428D01*
X99769819Y-113185713D02*
X99769819Y-112566666D01*
X99769819Y-112566666D02*
X100150771Y-112899999D01*
X100150771Y-112899999D02*
X100150771Y-112757142D01*
X100150771Y-112757142D02*
X100198390Y-112661904D01*
X100198390Y-112661904D02*
X100246009Y-112614285D01*
X100246009Y-112614285D02*
X100341247Y-112566666D01*
X100341247Y-112566666D02*
X100579342Y-112566666D01*
X100579342Y-112566666D02*
X100674580Y-112614285D01*
X100674580Y-112614285D02*
X100722200Y-112661904D01*
X100722200Y-112661904D02*
X100769819Y-112757142D01*
X100769819Y-112757142D02*
X100769819Y-113042856D01*
X100769819Y-113042856D02*
X100722200Y-113138094D01*
X100722200Y-113138094D02*
X100674580Y-113185713D01*
X174179819Y-132133333D02*
X174894104Y-132133333D01*
X174894104Y-132133333D02*
X175036961Y-132180952D01*
X175036961Y-132180952D02*
X175132200Y-132276190D01*
X175132200Y-132276190D02*
X175179819Y-132419047D01*
X175179819Y-132419047D02*
X175179819Y-132514285D01*
X174513152Y-131228571D02*
X175179819Y-131228571D01*
X174132200Y-131466666D02*
X174846485Y-131704761D01*
X174846485Y-131704761D02*
X174846485Y-131085714D01*
X156108333Y-68259580D02*
X156060714Y-68307200D01*
X156060714Y-68307200D02*
X155917857Y-68354819D01*
X155917857Y-68354819D02*
X155822619Y-68354819D01*
X155822619Y-68354819D02*
X155679762Y-68307200D01*
X155679762Y-68307200D02*
X155584524Y-68211961D01*
X155584524Y-68211961D02*
X155536905Y-68116723D01*
X155536905Y-68116723D02*
X155489286Y-67926247D01*
X155489286Y-67926247D02*
X155489286Y-67783390D01*
X155489286Y-67783390D02*
X155536905Y-67592914D01*
X155536905Y-67592914D02*
X155584524Y-67497676D01*
X155584524Y-67497676D02*
X155679762Y-67402438D01*
X155679762Y-67402438D02*
X155822619Y-67354819D01*
X155822619Y-67354819D02*
X155917857Y-67354819D01*
X155917857Y-67354819D02*
X156060714Y-67402438D01*
X156060714Y-67402438D02*
X156108333Y-67450057D01*
X157013095Y-67354819D02*
X156536905Y-67354819D01*
X156536905Y-67354819D02*
X156489286Y-67831009D01*
X156489286Y-67831009D02*
X156536905Y-67783390D01*
X156536905Y-67783390D02*
X156632143Y-67735771D01*
X156632143Y-67735771D02*
X156870238Y-67735771D01*
X156870238Y-67735771D02*
X156965476Y-67783390D01*
X156965476Y-67783390D02*
X157013095Y-67831009D01*
X157013095Y-67831009D02*
X157060714Y-67926247D01*
X157060714Y-67926247D02*
X157060714Y-68164342D01*
X157060714Y-68164342D02*
X157013095Y-68259580D01*
X157013095Y-68259580D02*
X156965476Y-68307200D01*
X156965476Y-68307200D02*
X156870238Y-68354819D01*
X156870238Y-68354819D02*
X156632143Y-68354819D01*
X156632143Y-68354819D02*
X156536905Y-68307200D01*
X156536905Y-68307200D02*
X156489286Y-68259580D01*
X106738095Y-30757200D02*
X106880952Y-30804819D01*
X106880952Y-30804819D02*
X107119047Y-30804819D01*
X107119047Y-30804819D02*
X107214285Y-30757200D01*
X107214285Y-30757200D02*
X107261904Y-30709580D01*
X107261904Y-30709580D02*
X107309523Y-30614342D01*
X107309523Y-30614342D02*
X107309523Y-30519104D01*
X107309523Y-30519104D02*
X107261904Y-30423866D01*
X107261904Y-30423866D02*
X107214285Y-30376247D01*
X107214285Y-30376247D02*
X107119047Y-30328628D01*
X107119047Y-30328628D02*
X106928571Y-30281009D01*
X106928571Y-30281009D02*
X106833333Y-30233390D01*
X106833333Y-30233390D02*
X106785714Y-30185771D01*
X106785714Y-30185771D02*
X106738095Y-30090533D01*
X106738095Y-30090533D02*
X106738095Y-29995295D01*
X106738095Y-29995295D02*
X106785714Y-29900057D01*
X106785714Y-29900057D02*
X106833333Y-29852438D01*
X106833333Y-29852438D02*
X106928571Y-29804819D01*
X106928571Y-29804819D02*
X107166666Y-29804819D01*
X107166666Y-29804819D02*
X107309523Y-29852438D01*
X108214285Y-29804819D02*
X107738095Y-29804819D01*
X107738095Y-29804819D02*
X107690476Y-30281009D01*
X107690476Y-30281009D02*
X107738095Y-30233390D01*
X107738095Y-30233390D02*
X107833333Y-30185771D01*
X107833333Y-30185771D02*
X108071428Y-30185771D01*
X108071428Y-30185771D02*
X108166666Y-30233390D01*
X108166666Y-30233390D02*
X108214285Y-30281009D01*
X108214285Y-30281009D02*
X108261904Y-30376247D01*
X108261904Y-30376247D02*
X108261904Y-30614342D01*
X108261904Y-30614342D02*
X108214285Y-30709580D01*
X108214285Y-30709580D02*
X108166666Y-30757200D01*
X108166666Y-30757200D02*
X108071428Y-30804819D01*
X108071428Y-30804819D02*
X107833333Y-30804819D01*
X107833333Y-30804819D02*
X107738095Y-30757200D01*
X107738095Y-30757200D02*
X107690476Y-30709580D01*
X124261905Y-70257200D02*
X124404762Y-70304819D01*
X124404762Y-70304819D02*
X124642857Y-70304819D01*
X124642857Y-70304819D02*
X124738095Y-70257200D01*
X124738095Y-70257200D02*
X124785714Y-70209580D01*
X124785714Y-70209580D02*
X124833333Y-70114342D01*
X124833333Y-70114342D02*
X124833333Y-70019104D01*
X124833333Y-70019104D02*
X124785714Y-69923866D01*
X124785714Y-69923866D02*
X124738095Y-69876247D01*
X124738095Y-69876247D02*
X124642857Y-69828628D01*
X124642857Y-69828628D02*
X124452381Y-69781009D01*
X124452381Y-69781009D02*
X124357143Y-69733390D01*
X124357143Y-69733390D02*
X124309524Y-69685771D01*
X124309524Y-69685771D02*
X124261905Y-69590533D01*
X124261905Y-69590533D02*
X124261905Y-69495295D01*
X124261905Y-69495295D02*
X124309524Y-69400057D01*
X124309524Y-69400057D02*
X124357143Y-69352438D01*
X124357143Y-69352438D02*
X124452381Y-69304819D01*
X124452381Y-69304819D02*
X124690476Y-69304819D01*
X124690476Y-69304819D02*
X124833333Y-69352438D01*
X125214286Y-69400057D02*
X125261905Y-69352438D01*
X125261905Y-69352438D02*
X125357143Y-69304819D01*
X125357143Y-69304819D02*
X125595238Y-69304819D01*
X125595238Y-69304819D02*
X125690476Y-69352438D01*
X125690476Y-69352438D02*
X125738095Y-69400057D01*
X125738095Y-69400057D02*
X125785714Y-69495295D01*
X125785714Y-69495295D02*
X125785714Y-69590533D01*
X125785714Y-69590533D02*
X125738095Y-69733390D01*
X125738095Y-69733390D02*
X125166667Y-70304819D01*
X125166667Y-70304819D02*
X125785714Y-70304819D01*
X126119048Y-69304819D02*
X126785714Y-69304819D01*
X126785714Y-69304819D02*
X126357143Y-70304819D01*
X108974580Y-122092857D02*
X109022200Y-122140476D01*
X109022200Y-122140476D02*
X109069819Y-122283333D01*
X109069819Y-122283333D02*
X109069819Y-122378571D01*
X109069819Y-122378571D02*
X109022200Y-122521428D01*
X109022200Y-122521428D02*
X108926961Y-122616666D01*
X108926961Y-122616666D02*
X108831723Y-122664285D01*
X108831723Y-122664285D02*
X108641247Y-122711904D01*
X108641247Y-122711904D02*
X108498390Y-122711904D01*
X108498390Y-122711904D02*
X108307914Y-122664285D01*
X108307914Y-122664285D02*
X108212676Y-122616666D01*
X108212676Y-122616666D02*
X108117438Y-122521428D01*
X108117438Y-122521428D02*
X108069819Y-122378571D01*
X108069819Y-122378571D02*
X108069819Y-122283333D01*
X108069819Y-122283333D02*
X108117438Y-122140476D01*
X108117438Y-122140476D02*
X108165057Y-122092857D01*
X109069819Y-121140476D02*
X109069819Y-121711904D01*
X109069819Y-121426190D02*
X108069819Y-121426190D01*
X108069819Y-121426190D02*
X108212676Y-121521428D01*
X108212676Y-121521428D02*
X108307914Y-121616666D01*
X108307914Y-121616666D02*
X108355533Y-121711904D01*
X108403152Y-120283333D02*
X109069819Y-120283333D01*
X108022200Y-120521428D02*
X108736485Y-120759523D01*
X108736485Y-120759523D02*
X108736485Y-120140476D01*
X70738095Y-38757200D02*
X70880952Y-38804819D01*
X70880952Y-38804819D02*
X71119047Y-38804819D01*
X71119047Y-38804819D02*
X71214285Y-38757200D01*
X71214285Y-38757200D02*
X71261904Y-38709580D01*
X71261904Y-38709580D02*
X71309523Y-38614342D01*
X71309523Y-38614342D02*
X71309523Y-38519104D01*
X71309523Y-38519104D02*
X71261904Y-38423866D01*
X71261904Y-38423866D02*
X71214285Y-38376247D01*
X71214285Y-38376247D02*
X71119047Y-38328628D01*
X71119047Y-38328628D02*
X70928571Y-38281009D01*
X70928571Y-38281009D02*
X70833333Y-38233390D01*
X70833333Y-38233390D02*
X70785714Y-38185771D01*
X70785714Y-38185771D02*
X70738095Y-38090533D01*
X70738095Y-38090533D02*
X70738095Y-37995295D01*
X70738095Y-37995295D02*
X70785714Y-37900057D01*
X70785714Y-37900057D02*
X70833333Y-37852438D01*
X70833333Y-37852438D02*
X70928571Y-37804819D01*
X70928571Y-37804819D02*
X71166666Y-37804819D01*
X71166666Y-37804819D02*
X71309523Y-37852438D01*
X71642857Y-37804819D02*
X72261904Y-37804819D01*
X72261904Y-37804819D02*
X71928571Y-38185771D01*
X71928571Y-38185771D02*
X72071428Y-38185771D01*
X72071428Y-38185771D02*
X72166666Y-38233390D01*
X72166666Y-38233390D02*
X72214285Y-38281009D01*
X72214285Y-38281009D02*
X72261904Y-38376247D01*
X72261904Y-38376247D02*
X72261904Y-38614342D01*
X72261904Y-38614342D02*
X72214285Y-38709580D01*
X72214285Y-38709580D02*
X72166666Y-38757200D01*
X72166666Y-38757200D02*
X72071428Y-38804819D01*
X72071428Y-38804819D02*
X71785714Y-38804819D01*
X71785714Y-38804819D02*
X71690476Y-38757200D01*
X71690476Y-38757200D02*
X71642857Y-38709580D01*
X52261905Y-72757200D02*
X52404762Y-72804819D01*
X52404762Y-72804819D02*
X52642857Y-72804819D01*
X52642857Y-72804819D02*
X52738095Y-72757200D01*
X52738095Y-72757200D02*
X52785714Y-72709580D01*
X52785714Y-72709580D02*
X52833333Y-72614342D01*
X52833333Y-72614342D02*
X52833333Y-72519104D01*
X52833333Y-72519104D02*
X52785714Y-72423866D01*
X52785714Y-72423866D02*
X52738095Y-72376247D01*
X52738095Y-72376247D02*
X52642857Y-72328628D01*
X52642857Y-72328628D02*
X52452381Y-72281009D01*
X52452381Y-72281009D02*
X52357143Y-72233390D01*
X52357143Y-72233390D02*
X52309524Y-72185771D01*
X52309524Y-72185771D02*
X52261905Y-72090533D01*
X52261905Y-72090533D02*
X52261905Y-71995295D01*
X52261905Y-71995295D02*
X52309524Y-71900057D01*
X52309524Y-71900057D02*
X52357143Y-71852438D01*
X52357143Y-71852438D02*
X52452381Y-71804819D01*
X52452381Y-71804819D02*
X52690476Y-71804819D01*
X52690476Y-71804819D02*
X52833333Y-71852438D01*
X53785714Y-72804819D02*
X53214286Y-72804819D01*
X53500000Y-72804819D02*
X53500000Y-71804819D01*
X53500000Y-71804819D02*
X53404762Y-71947676D01*
X53404762Y-71947676D02*
X53309524Y-72042914D01*
X53309524Y-72042914D02*
X53214286Y-72090533D01*
X54261905Y-72804819D02*
X54452381Y-72804819D01*
X54452381Y-72804819D02*
X54547619Y-72757200D01*
X54547619Y-72757200D02*
X54595238Y-72709580D01*
X54595238Y-72709580D02*
X54690476Y-72566723D01*
X54690476Y-72566723D02*
X54738095Y-72376247D01*
X54738095Y-72376247D02*
X54738095Y-71995295D01*
X54738095Y-71995295D02*
X54690476Y-71900057D01*
X54690476Y-71900057D02*
X54642857Y-71852438D01*
X54642857Y-71852438D02*
X54547619Y-71804819D01*
X54547619Y-71804819D02*
X54357143Y-71804819D01*
X54357143Y-71804819D02*
X54261905Y-71852438D01*
X54261905Y-71852438D02*
X54214286Y-71900057D01*
X54214286Y-71900057D02*
X54166667Y-71995295D01*
X54166667Y-71995295D02*
X54166667Y-72233390D01*
X54166667Y-72233390D02*
X54214286Y-72328628D01*
X54214286Y-72328628D02*
X54261905Y-72376247D01*
X54261905Y-72376247D02*
X54357143Y-72423866D01*
X54357143Y-72423866D02*
X54547619Y-72423866D01*
X54547619Y-72423866D02*
X54642857Y-72376247D01*
X54642857Y-72376247D02*
X54690476Y-72328628D01*
X54690476Y-72328628D02*
X54738095Y-72233390D01*
X111739819Y-120116666D02*
X111263628Y-120449999D01*
X111739819Y-120688094D02*
X110739819Y-120688094D01*
X110739819Y-120688094D02*
X110739819Y-120307142D01*
X110739819Y-120307142D02*
X110787438Y-120211904D01*
X110787438Y-120211904D02*
X110835057Y-120164285D01*
X110835057Y-120164285D02*
X110930295Y-120116666D01*
X110930295Y-120116666D02*
X111073152Y-120116666D01*
X111073152Y-120116666D02*
X111168390Y-120164285D01*
X111168390Y-120164285D02*
X111216009Y-120211904D01*
X111216009Y-120211904D02*
X111263628Y-120307142D01*
X111263628Y-120307142D02*
X111263628Y-120688094D01*
X110739819Y-119783332D02*
X110739819Y-119116666D01*
X110739819Y-119116666D02*
X111739819Y-119545237D01*
X124261905Y-87257200D02*
X124404762Y-87304819D01*
X124404762Y-87304819D02*
X124642857Y-87304819D01*
X124642857Y-87304819D02*
X124738095Y-87257200D01*
X124738095Y-87257200D02*
X124785714Y-87209580D01*
X124785714Y-87209580D02*
X124833333Y-87114342D01*
X124833333Y-87114342D02*
X124833333Y-87019104D01*
X124833333Y-87019104D02*
X124785714Y-86923866D01*
X124785714Y-86923866D02*
X124738095Y-86876247D01*
X124738095Y-86876247D02*
X124642857Y-86828628D01*
X124642857Y-86828628D02*
X124452381Y-86781009D01*
X124452381Y-86781009D02*
X124357143Y-86733390D01*
X124357143Y-86733390D02*
X124309524Y-86685771D01*
X124309524Y-86685771D02*
X124261905Y-86590533D01*
X124261905Y-86590533D02*
X124261905Y-86495295D01*
X124261905Y-86495295D02*
X124309524Y-86400057D01*
X124309524Y-86400057D02*
X124357143Y-86352438D01*
X124357143Y-86352438D02*
X124452381Y-86304819D01*
X124452381Y-86304819D02*
X124690476Y-86304819D01*
X124690476Y-86304819D02*
X124833333Y-86352438D01*
X125214286Y-86400057D02*
X125261905Y-86352438D01*
X125261905Y-86352438D02*
X125357143Y-86304819D01*
X125357143Y-86304819D02*
X125595238Y-86304819D01*
X125595238Y-86304819D02*
X125690476Y-86352438D01*
X125690476Y-86352438D02*
X125738095Y-86400057D01*
X125738095Y-86400057D02*
X125785714Y-86495295D01*
X125785714Y-86495295D02*
X125785714Y-86590533D01*
X125785714Y-86590533D02*
X125738095Y-86733390D01*
X125738095Y-86733390D02*
X125166667Y-87304819D01*
X125166667Y-87304819D02*
X125785714Y-87304819D01*
X126357143Y-86733390D02*
X126261905Y-86685771D01*
X126261905Y-86685771D02*
X126214286Y-86638152D01*
X126214286Y-86638152D02*
X126166667Y-86542914D01*
X126166667Y-86542914D02*
X126166667Y-86495295D01*
X126166667Y-86495295D02*
X126214286Y-86400057D01*
X126214286Y-86400057D02*
X126261905Y-86352438D01*
X126261905Y-86352438D02*
X126357143Y-86304819D01*
X126357143Y-86304819D02*
X126547619Y-86304819D01*
X126547619Y-86304819D02*
X126642857Y-86352438D01*
X126642857Y-86352438D02*
X126690476Y-86400057D01*
X126690476Y-86400057D02*
X126738095Y-86495295D01*
X126738095Y-86495295D02*
X126738095Y-86542914D01*
X126738095Y-86542914D02*
X126690476Y-86638152D01*
X126690476Y-86638152D02*
X126642857Y-86685771D01*
X126642857Y-86685771D02*
X126547619Y-86733390D01*
X126547619Y-86733390D02*
X126357143Y-86733390D01*
X126357143Y-86733390D02*
X126261905Y-86781009D01*
X126261905Y-86781009D02*
X126214286Y-86828628D01*
X126214286Y-86828628D02*
X126166667Y-86923866D01*
X126166667Y-86923866D02*
X126166667Y-87114342D01*
X126166667Y-87114342D02*
X126214286Y-87209580D01*
X126214286Y-87209580D02*
X126261905Y-87257200D01*
X126261905Y-87257200D02*
X126357143Y-87304819D01*
X126357143Y-87304819D02*
X126547619Y-87304819D01*
X126547619Y-87304819D02*
X126642857Y-87257200D01*
X126642857Y-87257200D02*
X126690476Y-87209580D01*
X126690476Y-87209580D02*
X126738095Y-87114342D01*
X126738095Y-87114342D02*
X126738095Y-86923866D01*
X126738095Y-86923866D02*
X126690476Y-86828628D01*
X126690476Y-86828628D02*
X126642857Y-86781009D01*
X126642857Y-86781009D02*
X126547619Y-86733390D01*
X142738095Y-39757200D02*
X142880952Y-39804819D01*
X142880952Y-39804819D02*
X143119047Y-39804819D01*
X143119047Y-39804819D02*
X143214285Y-39757200D01*
X143214285Y-39757200D02*
X143261904Y-39709580D01*
X143261904Y-39709580D02*
X143309523Y-39614342D01*
X143309523Y-39614342D02*
X143309523Y-39519104D01*
X143309523Y-39519104D02*
X143261904Y-39423866D01*
X143261904Y-39423866D02*
X143214285Y-39376247D01*
X143214285Y-39376247D02*
X143119047Y-39328628D01*
X143119047Y-39328628D02*
X142928571Y-39281009D01*
X142928571Y-39281009D02*
X142833333Y-39233390D01*
X142833333Y-39233390D02*
X142785714Y-39185771D01*
X142785714Y-39185771D02*
X142738095Y-39090533D01*
X142738095Y-39090533D02*
X142738095Y-38995295D01*
X142738095Y-38995295D02*
X142785714Y-38900057D01*
X142785714Y-38900057D02*
X142833333Y-38852438D01*
X142833333Y-38852438D02*
X142928571Y-38804819D01*
X142928571Y-38804819D02*
X143166666Y-38804819D01*
X143166666Y-38804819D02*
X143309523Y-38852438D01*
X143642857Y-38804819D02*
X144309523Y-38804819D01*
X144309523Y-38804819D02*
X143880952Y-39804819D01*
X142261905Y-90757200D02*
X142404762Y-90804819D01*
X142404762Y-90804819D02*
X142642857Y-90804819D01*
X142642857Y-90804819D02*
X142738095Y-90757200D01*
X142738095Y-90757200D02*
X142785714Y-90709580D01*
X142785714Y-90709580D02*
X142833333Y-90614342D01*
X142833333Y-90614342D02*
X142833333Y-90519104D01*
X142833333Y-90519104D02*
X142785714Y-90423866D01*
X142785714Y-90423866D02*
X142738095Y-90376247D01*
X142738095Y-90376247D02*
X142642857Y-90328628D01*
X142642857Y-90328628D02*
X142452381Y-90281009D01*
X142452381Y-90281009D02*
X142357143Y-90233390D01*
X142357143Y-90233390D02*
X142309524Y-90185771D01*
X142309524Y-90185771D02*
X142261905Y-90090533D01*
X142261905Y-90090533D02*
X142261905Y-89995295D01*
X142261905Y-89995295D02*
X142309524Y-89900057D01*
X142309524Y-89900057D02*
X142357143Y-89852438D01*
X142357143Y-89852438D02*
X142452381Y-89804819D01*
X142452381Y-89804819D02*
X142690476Y-89804819D01*
X142690476Y-89804819D02*
X142833333Y-89852438D01*
X143166667Y-89804819D02*
X143785714Y-89804819D01*
X143785714Y-89804819D02*
X143452381Y-90185771D01*
X143452381Y-90185771D02*
X143595238Y-90185771D01*
X143595238Y-90185771D02*
X143690476Y-90233390D01*
X143690476Y-90233390D02*
X143738095Y-90281009D01*
X143738095Y-90281009D02*
X143785714Y-90376247D01*
X143785714Y-90376247D02*
X143785714Y-90614342D01*
X143785714Y-90614342D02*
X143738095Y-90709580D01*
X143738095Y-90709580D02*
X143690476Y-90757200D01*
X143690476Y-90757200D02*
X143595238Y-90804819D01*
X143595238Y-90804819D02*
X143309524Y-90804819D01*
X143309524Y-90804819D02*
X143214286Y-90757200D01*
X143214286Y-90757200D02*
X143166667Y-90709580D01*
X144404762Y-89804819D02*
X144500000Y-89804819D01*
X144500000Y-89804819D02*
X144595238Y-89852438D01*
X144595238Y-89852438D02*
X144642857Y-89900057D01*
X144642857Y-89900057D02*
X144690476Y-89995295D01*
X144690476Y-89995295D02*
X144738095Y-90185771D01*
X144738095Y-90185771D02*
X144738095Y-90423866D01*
X144738095Y-90423866D02*
X144690476Y-90614342D01*
X144690476Y-90614342D02*
X144642857Y-90709580D01*
X144642857Y-90709580D02*
X144595238Y-90757200D01*
X144595238Y-90757200D02*
X144500000Y-90804819D01*
X144500000Y-90804819D02*
X144404762Y-90804819D01*
X144404762Y-90804819D02*
X144309524Y-90757200D01*
X144309524Y-90757200D02*
X144261905Y-90709580D01*
X144261905Y-90709580D02*
X144214286Y-90614342D01*
X144214286Y-90614342D02*
X144166667Y-90423866D01*
X144166667Y-90423866D02*
X144166667Y-90185771D01*
X144166667Y-90185771D02*
X144214286Y-89995295D01*
X144214286Y-89995295D02*
X144261905Y-89900057D01*
X144261905Y-89900057D02*
X144309524Y-89852438D01*
X144309524Y-89852438D02*
X144404762Y-89804819D01*
X124261905Y-53257200D02*
X124404762Y-53304819D01*
X124404762Y-53304819D02*
X124642857Y-53304819D01*
X124642857Y-53304819D02*
X124738095Y-53257200D01*
X124738095Y-53257200D02*
X124785714Y-53209580D01*
X124785714Y-53209580D02*
X124833333Y-53114342D01*
X124833333Y-53114342D02*
X124833333Y-53019104D01*
X124833333Y-53019104D02*
X124785714Y-52923866D01*
X124785714Y-52923866D02*
X124738095Y-52876247D01*
X124738095Y-52876247D02*
X124642857Y-52828628D01*
X124642857Y-52828628D02*
X124452381Y-52781009D01*
X124452381Y-52781009D02*
X124357143Y-52733390D01*
X124357143Y-52733390D02*
X124309524Y-52685771D01*
X124309524Y-52685771D02*
X124261905Y-52590533D01*
X124261905Y-52590533D02*
X124261905Y-52495295D01*
X124261905Y-52495295D02*
X124309524Y-52400057D01*
X124309524Y-52400057D02*
X124357143Y-52352438D01*
X124357143Y-52352438D02*
X124452381Y-52304819D01*
X124452381Y-52304819D02*
X124690476Y-52304819D01*
X124690476Y-52304819D02*
X124833333Y-52352438D01*
X125785714Y-53304819D02*
X125214286Y-53304819D01*
X125500000Y-53304819D02*
X125500000Y-52304819D01*
X125500000Y-52304819D02*
X125404762Y-52447676D01*
X125404762Y-52447676D02*
X125309524Y-52542914D01*
X125309524Y-52542914D02*
X125214286Y-52590533D01*
X126642857Y-52638152D02*
X126642857Y-53304819D01*
X126404762Y-52257200D02*
X126166667Y-52971485D01*
X126166667Y-52971485D02*
X126785714Y-52971485D01*
X169583333Y-49784580D02*
X169535714Y-49832200D01*
X169535714Y-49832200D02*
X169392857Y-49879819D01*
X169392857Y-49879819D02*
X169297619Y-49879819D01*
X169297619Y-49879819D02*
X169154762Y-49832200D01*
X169154762Y-49832200D02*
X169059524Y-49736961D01*
X169059524Y-49736961D02*
X169011905Y-49641723D01*
X169011905Y-49641723D02*
X168964286Y-49451247D01*
X168964286Y-49451247D02*
X168964286Y-49308390D01*
X168964286Y-49308390D02*
X169011905Y-49117914D01*
X169011905Y-49117914D02*
X169059524Y-49022676D01*
X169059524Y-49022676D02*
X169154762Y-48927438D01*
X169154762Y-48927438D02*
X169297619Y-48879819D01*
X169297619Y-48879819D02*
X169392857Y-48879819D01*
X169392857Y-48879819D02*
X169535714Y-48927438D01*
X169535714Y-48927438D02*
X169583333Y-48975057D01*
X170059524Y-49879819D02*
X170250000Y-49879819D01*
X170250000Y-49879819D02*
X170345238Y-49832200D01*
X170345238Y-49832200D02*
X170392857Y-49784580D01*
X170392857Y-49784580D02*
X170488095Y-49641723D01*
X170488095Y-49641723D02*
X170535714Y-49451247D01*
X170535714Y-49451247D02*
X170535714Y-49070295D01*
X170535714Y-49070295D02*
X170488095Y-48975057D01*
X170488095Y-48975057D02*
X170440476Y-48927438D01*
X170440476Y-48927438D02*
X170345238Y-48879819D01*
X170345238Y-48879819D02*
X170154762Y-48879819D01*
X170154762Y-48879819D02*
X170059524Y-48927438D01*
X170059524Y-48927438D02*
X170011905Y-48975057D01*
X170011905Y-48975057D02*
X169964286Y-49070295D01*
X169964286Y-49070295D02*
X169964286Y-49308390D01*
X169964286Y-49308390D02*
X170011905Y-49403628D01*
X170011905Y-49403628D02*
X170059524Y-49451247D01*
X170059524Y-49451247D02*
X170154762Y-49498866D01*
X170154762Y-49498866D02*
X170345238Y-49498866D01*
X170345238Y-49498866D02*
X170440476Y-49451247D01*
X170440476Y-49451247D02*
X170488095Y-49403628D01*
X170488095Y-49403628D02*
X170535714Y-49308390D01*
X124738095Y-36257200D02*
X124880952Y-36304819D01*
X124880952Y-36304819D02*
X125119047Y-36304819D01*
X125119047Y-36304819D02*
X125214285Y-36257200D01*
X125214285Y-36257200D02*
X125261904Y-36209580D01*
X125261904Y-36209580D02*
X125309523Y-36114342D01*
X125309523Y-36114342D02*
X125309523Y-36019104D01*
X125309523Y-36019104D02*
X125261904Y-35923866D01*
X125261904Y-35923866D02*
X125214285Y-35876247D01*
X125214285Y-35876247D02*
X125119047Y-35828628D01*
X125119047Y-35828628D02*
X124928571Y-35781009D01*
X124928571Y-35781009D02*
X124833333Y-35733390D01*
X124833333Y-35733390D02*
X124785714Y-35685771D01*
X124785714Y-35685771D02*
X124738095Y-35590533D01*
X124738095Y-35590533D02*
X124738095Y-35495295D01*
X124738095Y-35495295D02*
X124785714Y-35400057D01*
X124785714Y-35400057D02*
X124833333Y-35352438D01*
X124833333Y-35352438D02*
X124928571Y-35304819D01*
X124928571Y-35304819D02*
X125166666Y-35304819D01*
X125166666Y-35304819D02*
X125309523Y-35352438D01*
X126166666Y-35304819D02*
X125976190Y-35304819D01*
X125976190Y-35304819D02*
X125880952Y-35352438D01*
X125880952Y-35352438D02*
X125833333Y-35400057D01*
X125833333Y-35400057D02*
X125738095Y-35542914D01*
X125738095Y-35542914D02*
X125690476Y-35733390D01*
X125690476Y-35733390D02*
X125690476Y-36114342D01*
X125690476Y-36114342D02*
X125738095Y-36209580D01*
X125738095Y-36209580D02*
X125785714Y-36257200D01*
X125785714Y-36257200D02*
X125880952Y-36304819D01*
X125880952Y-36304819D02*
X126071428Y-36304819D01*
X126071428Y-36304819D02*
X126166666Y-36257200D01*
X126166666Y-36257200D02*
X126214285Y-36209580D01*
X126214285Y-36209580D02*
X126261904Y-36114342D01*
X126261904Y-36114342D02*
X126261904Y-35876247D01*
X126261904Y-35876247D02*
X126214285Y-35781009D01*
X126214285Y-35781009D02*
X126166666Y-35733390D01*
X126166666Y-35733390D02*
X126071428Y-35685771D01*
X126071428Y-35685771D02*
X125880952Y-35685771D01*
X125880952Y-35685771D02*
X125785714Y-35733390D01*
X125785714Y-35733390D02*
X125738095Y-35781009D01*
X125738095Y-35781009D02*
X125690476Y-35876247D01*
X142261905Y-56757200D02*
X142404762Y-56804819D01*
X142404762Y-56804819D02*
X142642857Y-56804819D01*
X142642857Y-56804819D02*
X142738095Y-56757200D01*
X142738095Y-56757200D02*
X142785714Y-56709580D01*
X142785714Y-56709580D02*
X142833333Y-56614342D01*
X142833333Y-56614342D02*
X142833333Y-56519104D01*
X142833333Y-56519104D02*
X142785714Y-56423866D01*
X142785714Y-56423866D02*
X142738095Y-56376247D01*
X142738095Y-56376247D02*
X142642857Y-56328628D01*
X142642857Y-56328628D02*
X142452381Y-56281009D01*
X142452381Y-56281009D02*
X142357143Y-56233390D01*
X142357143Y-56233390D02*
X142309524Y-56185771D01*
X142309524Y-56185771D02*
X142261905Y-56090533D01*
X142261905Y-56090533D02*
X142261905Y-55995295D01*
X142261905Y-55995295D02*
X142309524Y-55900057D01*
X142309524Y-55900057D02*
X142357143Y-55852438D01*
X142357143Y-55852438D02*
X142452381Y-55804819D01*
X142452381Y-55804819D02*
X142690476Y-55804819D01*
X142690476Y-55804819D02*
X142833333Y-55852438D01*
X143785714Y-56804819D02*
X143214286Y-56804819D01*
X143500000Y-56804819D02*
X143500000Y-55804819D01*
X143500000Y-55804819D02*
X143404762Y-55947676D01*
X143404762Y-55947676D02*
X143309524Y-56042914D01*
X143309524Y-56042914D02*
X143214286Y-56090533D01*
X144690476Y-55804819D02*
X144214286Y-55804819D01*
X144214286Y-55804819D02*
X144166667Y-56281009D01*
X144166667Y-56281009D02*
X144214286Y-56233390D01*
X144214286Y-56233390D02*
X144309524Y-56185771D01*
X144309524Y-56185771D02*
X144547619Y-56185771D01*
X144547619Y-56185771D02*
X144642857Y-56233390D01*
X144642857Y-56233390D02*
X144690476Y-56281009D01*
X144690476Y-56281009D02*
X144738095Y-56376247D01*
X144738095Y-56376247D02*
X144738095Y-56614342D01*
X144738095Y-56614342D02*
X144690476Y-56709580D01*
X144690476Y-56709580D02*
X144642857Y-56757200D01*
X144642857Y-56757200D02*
X144547619Y-56804819D01*
X144547619Y-56804819D02*
X144309524Y-56804819D01*
X144309524Y-56804819D02*
X144214286Y-56757200D01*
X144214286Y-56757200D02*
X144166667Y-56709580D01*
X142261905Y-73757200D02*
X142404762Y-73804819D01*
X142404762Y-73804819D02*
X142642857Y-73804819D01*
X142642857Y-73804819D02*
X142738095Y-73757200D01*
X142738095Y-73757200D02*
X142785714Y-73709580D01*
X142785714Y-73709580D02*
X142833333Y-73614342D01*
X142833333Y-73614342D02*
X142833333Y-73519104D01*
X142833333Y-73519104D02*
X142785714Y-73423866D01*
X142785714Y-73423866D02*
X142738095Y-73376247D01*
X142738095Y-73376247D02*
X142642857Y-73328628D01*
X142642857Y-73328628D02*
X142452381Y-73281009D01*
X142452381Y-73281009D02*
X142357143Y-73233390D01*
X142357143Y-73233390D02*
X142309524Y-73185771D01*
X142309524Y-73185771D02*
X142261905Y-73090533D01*
X142261905Y-73090533D02*
X142261905Y-72995295D01*
X142261905Y-72995295D02*
X142309524Y-72900057D01*
X142309524Y-72900057D02*
X142357143Y-72852438D01*
X142357143Y-72852438D02*
X142452381Y-72804819D01*
X142452381Y-72804819D02*
X142690476Y-72804819D01*
X142690476Y-72804819D02*
X142833333Y-72852438D01*
X143214286Y-72900057D02*
X143261905Y-72852438D01*
X143261905Y-72852438D02*
X143357143Y-72804819D01*
X143357143Y-72804819D02*
X143595238Y-72804819D01*
X143595238Y-72804819D02*
X143690476Y-72852438D01*
X143690476Y-72852438D02*
X143738095Y-72900057D01*
X143738095Y-72900057D02*
X143785714Y-72995295D01*
X143785714Y-72995295D02*
X143785714Y-73090533D01*
X143785714Y-73090533D02*
X143738095Y-73233390D01*
X143738095Y-73233390D02*
X143166667Y-73804819D01*
X143166667Y-73804819D02*
X143785714Y-73804819D01*
X144261905Y-73804819D02*
X144452381Y-73804819D01*
X144452381Y-73804819D02*
X144547619Y-73757200D01*
X144547619Y-73757200D02*
X144595238Y-73709580D01*
X144595238Y-73709580D02*
X144690476Y-73566723D01*
X144690476Y-73566723D02*
X144738095Y-73376247D01*
X144738095Y-73376247D02*
X144738095Y-72995295D01*
X144738095Y-72995295D02*
X144690476Y-72900057D01*
X144690476Y-72900057D02*
X144642857Y-72852438D01*
X144642857Y-72852438D02*
X144547619Y-72804819D01*
X144547619Y-72804819D02*
X144357143Y-72804819D01*
X144357143Y-72804819D02*
X144261905Y-72852438D01*
X144261905Y-72852438D02*
X144214286Y-72900057D01*
X144214286Y-72900057D02*
X144166667Y-72995295D01*
X144166667Y-72995295D02*
X144166667Y-73233390D01*
X144166667Y-73233390D02*
X144214286Y-73328628D01*
X144214286Y-73328628D02*
X144261905Y-73376247D01*
X144261905Y-73376247D02*
X144357143Y-73423866D01*
X144357143Y-73423866D02*
X144547619Y-73423866D01*
X144547619Y-73423866D02*
X144642857Y-73376247D01*
X144642857Y-73376247D02*
X144690476Y-73328628D01*
X144690476Y-73328628D02*
X144738095Y-73233390D01*
X70261905Y-89757200D02*
X70404762Y-89804819D01*
X70404762Y-89804819D02*
X70642857Y-89804819D01*
X70642857Y-89804819D02*
X70738095Y-89757200D01*
X70738095Y-89757200D02*
X70785714Y-89709580D01*
X70785714Y-89709580D02*
X70833333Y-89614342D01*
X70833333Y-89614342D02*
X70833333Y-89519104D01*
X70833333Y-89519104D02*
X70785714Y-89423866D01*
X70785714Y-89423866D02*
X70738095Y-89376247D01*
X70738095Y-89376247D02*
X70642857Y-89328628D01*
X70642857Y-89328628D02*
X70452381Y-89281009D01*
X70452381Y-89281009D02*
X70357143Y-89233390D01*
X70357143Y-89233390D02*
X70309524Y-89185771D01*
X70309524Y-89185771D02*
X70261905Y-89090533D01*
X70261905Y-89090533D02*
X70261905Y-88995295D01*
X70261905Y-88995295D02*
X70309524Y-88900057D01*
X70309524Y-88900057D02*
X70357143Y-88852438D01*
X70357143Y-88852438D02*
X70452381Y-88804819D01*
X70452381Y-88804819D02*
X70690476Y-88804819D01*
X70690476Y-88804819D02*
X70833333Y-88852438D01*
X71214286Y-88900057D02*
X71261905Y-88852438D01*
X71261905Y-88852438D02*
X71357143Y-88804819D01*
X71357143Y-88804819D02*
X71595238Y-88804819D01*
X71595238Y-88804819D02*
X71690476Y-88852438D01*
X71690476Y-88852438D02*
X71738095Y-88900057D01*
X71738095Y-88900057D02*
X71785714Y-88995295D01*
X71785714Y-88995295D02*
X71785714Y-89090533D01*
X71785714Y-89090533D02*
X71738095Y-89233390D01*
X71738095Y-89233390D02*
X71166667Y-89804819D01*
X71166667Y-89804819D02*
X71785714Y-89804819D01*
X72166667Y-88900057D02*
X72214286Y-88852438D01*
X72214286Y-88852438D02*
X72309524Y-88804819D01*
X72309524Y-88804819D02*
X72547619Y-88804819D01*
X72547619Y-88804819D02*
X72642857Y-88852438D01*
X72642857Y-88852438D02*
X72690476Y-88900057D01*
X72690476Y-88900057D02*
X72738095Y-88995295D01*
X72738095Y-88995295D02*
X72738095Y-89090533D01*
X72738095Y-89090533D02*
X72690476Y-89233390D01*
X72690476Y-89233390D02*
X72119048Y-89804819D01*
X72119048Y-89804819D02*
X72738095Y-89804819D01*
X106261905Y-81757200D02*
X106404762Y-81804819D01*
X106404762Y-81804819D02*
X106642857Y-81804819D01*
X106642857Y-81804819D02*
X106738095Y-81757200D01*
X106738095Y-81757200D02*
X106785714Y-81709580D01*
X106785714Y-81709580D02*
X106833333Y-81614342D01*
X106833333Y-81614342D02*
X106833333Y-81519104D01*
X106833333Y-81519104D02*
X106785714Y-81423866D01*
X106785714Y-81423866D02*
X106738095Y-81376247D01*
X106738095Y-81376247D02*
X106642857Y-81328628D01*
X106642857Y-81328628D02*
X106452381Y-81281009D01*
X106452381Y-81281009D02*
X106357143Y-81233390D01*
X106357143Y-81233390D02*
X106309524Y-81185771D01*
X106309524Y-81185771D02*
X106261905Y-81090533D01*
X106261905Y-81090533D02*
X106261905Y-80995295D01*
X106261905Y-80995295D02*
X106309524Y-80900057D01*
X106309524Y-80900057D02*
X106357143Y-80852438D01*
X106357143Y-80852438D02*
X106452381Y-80804819D01*
X106452381Y-80804819D02*
X106690476Y-80804819D01*
X106690476Y-80804819D02*
X106833333Y-80852438D01*
X107214286Y-80900057D02*
X107261905Y-80852438D01*
X107261905Y-80852438D02*
X107357143Y-80804819D01*
X107357143Y-80804819D02*
X107595238Y-80804819D01*
X107595238Y-80804819D02*
X107690476Y-80852438D01*
X107690476Y-80852438D02*
X107738095Y-80900057D01*
X107738095Y-80900057D02*
X107785714Y-80995295D01*
X107785714Y-80995295D02*
X107785714Y-81090533D01*
X107785714Y-81090533D02*
X107738095Y-81233390D01*
X107738095Y-81233390D02*
X107166667Y-81804819D01*
X107166667Y-81804819D02*
X107785714Y-81804819D01*
X108642857Y-80804819D02*
X108452381Y-80804819D01*
X108452381Y-80804819D02*
X108357143Y-80852438D01*
X108357143Y-80852438D02*
X108309524Y-80900057D01*
X108309524Y-80900057D02*
X108214286Y-81042914D01*
X108214286Y-81042914D02*
X108166667Y-81233390D01*
X108166667Y-81233390D02*
X108166667Y-81614342D01*
X108166667Y-81614342D02*
X108214286Y-81709580D01*
X108214286Y-81709580D02*
X108261905Y-81757200D01*
X108261905Y-81757200D02*
X108357143Y-81804819D01*
X108357143Y-81804819D02*
X108547619Y-81804819D01*
X108547619Y-81804819D02*
X108642857Y-81757200D01*
X108642857Y-81757200D02*
X108690476Y-81709580D01*
X108690476Y-81709580D02*
X108738095Y-81614342D01*
X108738095Y-81614342D02*
X108738095Y-81376247D01*
X108738095Y-81376247D02*
X108690476Y-81281009D01*
X108690476Y-81281009D02*
X108642857Y-81233390D01*
X108642857Y-81233390D02*
X108547619Y-81185771D01*
X108547619Y-81185771D02*
X108357143Y-81185771D01*
X108357143Y-81185771D02*
X108261905Y-81233390D01*
X108261905Y-81233390D02*
X108214286Y-81281009D01*
X108214286Y-81281009D02*
X108166667Y-81376247D01*
X88261905Y-68757200D02*
X88404762Y-68804819D01*
X88404762Y-68804819D02*
X88642857Y-68804819D01*
X88642857Y-68804819D02*
X88738095Y-68757200D01*
X88738095Y-68757200D02*
X88785714Y-68709580D01*
X88785714Y-68709580D02*
X88833333Y-68614342D01*
X88833333Y-68614342D02*
X88833333Y-68519104D01*
X88833333Y-68519104D02*
X88785714Y-68423866D01*
X88785714Y-68423866D02*
X88738095Y-68376247D01*
X88738095Y-68376247D02*
X88642857Y-68328628D01*
X88642857Y-68328628D02*
X88452381Y-68281009D01*
X88452381Y-68281009D02*
X88357143Y-68233390D01*
X88357143Y-68233390D02*
X88309524Y-68185771D01*
X88309524Y-68185771D02*
X88261905Y-68090533D01*
X88261905Y-68090533D02*
X88261905Y-67995295D01*
X88261905Y-67995295D02*
X88309524Y-67900057D01*
X88309524Y-67900057D02*
X88357143Y-67852438D01*
X88357143Y-67852438D02*
X88452381Y-67804819D01*
X88452381Y-67804819D02*
X88690476Y-67804819D01*
X88690476Y-67804819D02*
X88833333Y-67852438D01*
X89214286Y-67900057D02*
X89261905Y-67852438D01*
X89261905Y-67852438D02*
X89357143Y-67804819D01*
X89357143Y-67804819D02*
X89595238Y-67804819D01*
X89595238Y-67804819D02*
X89690476Y-67852438D01*
X89690476Y-67852438D02*
X89738095Y-67900057D01*
X89738095Y-67900057D02*
X89785714Y-67995295D01*
X89785714Y-67995295D02*
X89785714Y-68090533D01*
X89785714Y-68090533D02*
X89738095Y-68233390D01*
X89738095Y-68233390D02*
X89166667Y-68804819D01*
X89166667Y-68804819D02*
X89785714Y-68804819D01*
X90119048Y-67804819D02*
X90738095Y-67804819D01*
X90738095Y-67804819D02*
X90404762Y-68185771D01*
X90404762Y-68185771D02*
X90547619Y-68185771D01*
X90547619Y-68185771D02*
X90642857Y-68233390D01*
X90642857Y-68233390D02*
X90690476Y-68281009D01*
X90690476Y-68281009D02*
X90738095Y-68376247D01*
X90738095Y-68376247D02*
X90738095Y-68614342D01*
X90738095Y-68614342D02*
X90690476Y-68709580D01*
X90690476Y-68709580D02*
X90642857Y-68757200D01*
X90642857Y-68757200D02*
X90547619Y-68804819D01*
X90547619Y-68804819D02*
X90261905Y-68804819D01*
X90261905Y-68804819D02*
X90166667Y-68757200D01*
X90166667Y-68757200D02*
X90119048Y-68709580D01*
X104069819Y-120116666D02*
X103593628Y-120449999D01*
X104069819Y-120688094D02*
X103069819Y-120688094D01*
X103069819Y-120688094D02*
X103069819Y-120307142D01*
X103069819Y-120307142D02*
X103117438Y-120211904D01*
X103117438Y-120211904D02*
X103165057Y-120164285D01*
X103165057Y-120164285D02*
X103260295Y-120116666D01*
X103260295Y-120116666D02*
X103403152Y-120116666D01*
X103403152Y-120116666D02*
X103498390Y-120164285D01*
X103498390Y-120164285D02*
X103546009Y-120211904D01*
X103546009Y-120211904D02*
X103593628Y-120307142D01*
X103593628Y-120307142D02*
X103593628Y-120688094D01*
X103498390Y-119545237D02*
X103450771Y-119640475D01*
X103450771Y-119640475D02*
X103403152Y-119688094D01*
X103403152Y-119688094D02*
X103307914Y-119735713D01*
X103307914Y-119735713D02*
X103260295Y-119735713D01*
X103260295Y-119735713D02*
X103165057Y-119688094D01*
X103165057Y-119688094D02*
X103117438Y-119640475D01*
X103117438Y-119640475D02*
X103069819Y-119545237D01*
X103069819Y-119545237D02*
X103069819Y-119354761D01*
X103069819Y-119354761D02*
X103117438Y-119259523D01*
X103117438Y-119259523D02*
X103165057Y-119211904D01*
X103165057Y-119211904D02*
X103260295Y-119164285D01*
X103260295Y-119164285D02*
X103307914Y-119164285D01*
X103307914Y-119164285D02*
X103403152Y-119211904D01*
X103403152Y-119211904D02*
X103450771Y-119259523D01*
X103450771Y-119259523D02*
X103498390Y-119354761D01*
X103498390Y-119354761D02*
X103498390Y-119545237D01*
X103498390Y-119545237D02*
X103546009Y-119640475D01*
X103546009Y-119640475D02*
X103593628Y-119688094D01*
X103593628Y-119688094D02*
X103688866Y-119735713D01*
X103688866Y-119735713D02*
X103879342Y-119735713D01*
X103879342Y-119735713D02*
X103974580Y-119688094D01*
X103974580Y-119688094D02*
X104022200Y-119640475D01*
X104022200Y-119640475D02*
X104069819Y-119545237D01*
X104069819Y-119545237D02*
X104069819Y-119354761D01*
X104069819Y-119354761D02*
X104022200Y-119259523D01*
X104022200Y-119259523D02*
X103974580Y-119211904D01*
X103974580Y-119211904D02*
X103879342Y-119164285D01*
X103879342Y-119164285D02*
X103688866Y-119164285D01*
X103688866Y-119164285D02*
X103593628Y-119211904D01*
X103593628Y-119211904D02*
X103546009Y-119259523D01*
X103546009Y-119259523D02*
X103498390Y-119354761D01*
X159483333Y-72134580D02*
X159435714Y-72182200D01*
X159435714Y-72182200D02*
X159292857Y-72229819D01*
X159292857Y-72229819D02*
X159197619Y-72229819D01*
X159197619Y-72229819D02*
X159054762Y-72182200D01*
X159054762Y-72182200D02*
X158959524Y-72086961D01*
X158959524Y-72086961D02*
X158911905Y-71991723D01*
X158911905Y-71991723D02*
X158864286Y-71801247D01*
X158864286Y-71801247D02*
X158864286Y-71658390D01*
X158864286Y-71658390D02*
X158911905Y-71467914D01*
X158911905Y-71467914D02*
X158959524Y-71372676D01*
X158959524Y-71372676D02*
X159054762Y-71277438D01*
X159054762Y-71277438D02*
X159197619Y-71229819D01*
X159197619Y-71229819D02*
X159292857Y-71229819D01*
X159292857Y-71229819D02*
X159435714Y-71277438D01*
X159435714Y-71277438D02*
X159483333Y-71325057D01*
X160435714Y-72229819D02*
X159864286Y-72229819D01*
X160150000Y-72229819D02*
X160150000Y-71229819D01*
X160150000Y-71229819D02*
X160054762Y-71372676D01*
X160054762Y-71372676D02*
X159959524Y-71467914D01*
X159959524Y-71467914D02*
X159864286Y-71515533D01*
X34738095Y-38757200D02*
X34880952Y-38804819D01*
X34880952Y-38804819D02*
X35119047Y-38804819D01*
X35119047Y-38804819D02*
X35214285Y-38757200D01*
X35214285Y-38757200D02*
X35261904Y-38709580D01*
X35261904Y-38709580D02*
X35309523Y-38614342D01*
X35309523Y-38614342D02*
X35309523Y-38519104D01*
X35309523Y-38519104D02*
X35261904Y-38423866D01*
X35261904Y-38423866D02*
X35214285Y-38376247D01*
X35214285Y-38376247D02*
X35119047Y-38328628D01*
X35119047Y-38328628D02*
X34928571Y-38281009D01*
X34928571Y-38281009D02*
X34833333Y-38233390D01*
X34833333Y-38233390D02*
X34785714Y-38185771D01*
X34785714Y-38185771D02*
X34738095Y-38090533D01*
X34738095Y-38090533D02*
X34738095Y-37995295D01*
X34738095Y-37995295D02*
X34785714Y-37900057D01*
X34785714Y-37900057D02*
X34833333Y-37852438D01*
X34833333Y-37852438D02*
X34928571Y-37804819D01*
X34928571Y-37804819D02*
X35166666Y-37804819D01*
X35166666Y-37804819D02*
X35309523Y-37852438D01*
X36261904Y-38804819D02*
X35690476Y-38804819D01*
X35976190Y-38804819D02*
X35976190Y-37804819D01*
X35976190Y-37804819D02*
X35880952Y-37947676D01*
X35880952Y-37947676D02*
X35785714Y-38042914D01*
X35785714Y-38042914D02*
X35690476Y-38090533D01*
X106261905Y-47757200D02*
X106404762Y-47804819D01*
X106404762Y-47804819D02*
X106642857Y-47804819D01*
X106642857Y-47804819D02*
X106738095Y-47757200D01*
X106738095Y-47757200D02*
X106785714Y-47709580D01*
X106785714Y-47709580D02*
X106833333Y-47614342D01*
X106833333Y-47614342D02*
X106833333Y-47519104D01*
X106833333Y-47519104D02*
X106785714Y-47423866D01*
X106785714Y-47423866D02*
X106738095Y-47376247D01*
X106738095Y-47376247D02*
X106642857Y-47328628D01*
X106642857Y-47328628D02*
X106452381Y-47281009D01*
X106452381Y-47281009D02*
X106357143Y-47233390D01*
X106357143Y-47233390D02*
X106309524Y-47185771D01*
X106309524Y-47185771D02*
X106261905Y-47090533D01*
X106261905Y-47090533D02*
X106261905Y-46995295D01*
X106261905Y-46995295D02*
X106309524Y-46900057D01*
X106309524Y-46900057D02*
X106357143Y-46852438D01*
X106357143Y-46852438D02*
X106452381Y-46804819D01*
X106452381Y-46804819D02*
X106690476Y-46804819D01*
X106690476Y-46804819D02*
X106833333Y-46852438D01*
X107785714Y-47804819D02*
X107214286Y-47804819D01*
X107500000Y-47804819D02*
X107500000Y-46804819D01*
X107500000Y-46804819D02*
X107404762Y-46947676D01*
X107404762Y-46947676D02*
X107309524Y-47042914D01*
X107309524Y-47042914D02*
X107214286Y-47090533D01*
X108119048Y-46804819D02*
X108738095Y-46804819D01*
X108738095Y-46804819D02*
X108404762Y-47185771D01*
X108404762Y-47185771D02*
X108547619Y-47185771D01*
X108547619Y-47185771D02*
X108642857Y-47233390D01*
X108642857Y-47233390D02*
X108690476Y-47281009D01*
X108690476Y-47281009D02*
X108738095Y-47376247D01*
X108738095Y-47376247D02*
X108738095Y-47614342D01*
X108738095Y-47614342D02*
X108690476Y-47709580D01*
X108690476Y-47709580D02*
X108642857Y-47757200D01*
X108642857Y-47757200D02*
X108547619Y-47804819D01*
X108547619Y-47804819D02*
X108261905Y-47804819D01*
X108261905Y-47804819D02*
X108166667Y-47757200D01*
X108166667Y-47757200D02*
X108119048Y-47709580D01*
X34738095Y-55757200D02*
X34880952Y-55804819D01*
X34880952Y-55804819D02*
X35119047Y-55804819D01*
X35119047Y-55804819D02*
X35214285Y-55757200D01*
X35214285Y-55757200D02*
X35261904Y-55709580D01*
X35261904Y-55709580D02*
X35309523Y-55614342D01*
X35309523Y-55614342D02*
X35309523Y-55519104D01*
X35309523Y-55519104D02*
X35261904Y-55423866D01*
X35261904Y-55423866D02*
X35214285Y-55376247D01*
X35214285Y-55376247D02*
X35119047Y-55328628D01*
X35119047Y-55328628D02*
X34928571Y-55281009D01*
X34928571Y-55281009D02*
X34833333Y-55233390D01*
X34833333Y-55233390D02*
X34785714Y-55185771D01*
X34785714Y-55185771D02*
X34738095Y-55090533D01*
X34738095Y-55090533D02*
X34738095Y-54995295D01*
X34738095Y-54995295D02*
X34785714Y-54900057D01*
X34785714Y-54900057D02*
X34833333Y-54852438D01*
X34833333Y-54852438D02*
X34928571Y-54804819D01*
X34928571Y-54804819D02*
X35166666Y-54804819D01*
X35166666Y-54804819D02*
X35309523Y-54852438D01*
X35785714Y-55804819D02*
X35976190Y-55804819D01*
X35976190Y-55804819D02*
X36071428Y-55757200D01*
X36071428Y-55757200D02*
X36119047Y-55709580D01*
X36119047Y-55709580D02*
X36214285Y-55566723D01*
X36214285Y-55566723D02*
X36261904Y-55376247D01*
X36261904Y-55376247D02*
X36261904Y-54995295D01*
X36261904Y-54995295D02*
X36214285Y-54900057D01*
X36214285Y-54900057D02*
X36166666Y-54852438D01*
X36166666Y-54852438D02*
X36071428Y-54804819D01*
X36071428Y-54804819D02*
X35880952Y-54804819D01*
X35880952Y-54804819D02*
X35785714Y-54852438D01*
X35785714Y-54852438D02*
X35738095Y-54900057D01*
X35738095Y-54900057D02*
X35690476Y-54995295D01*
X35690476Y-54995295D02*
X35690476Y-55233390D01*
X35690476Y-55233390D02*
X35738095Y-55328628D01*
X35738095Y-55328628D02*
X35785714Y-55376247D01*
X35785714Y-55376247D02*
X35880952Y-55423866D01*
X35880952Y-55423866D02*
X36071428Y-55423866D01*
X36071428Y-55423866D02*
X36166666Y-55376247D01*
X36166666Y-55376247D02*
X36214285Y-55328628D01*
X36214285Y-55328628D02*
X36261904Y-55233390D01*
X184492142Y-128754819D02*
X184158809Y-128278628D01*
X183920714Y-128754819D02*
X183920714Y-127754819D01*
X183920714Y-127754819D02*
X184301666Y-127754819D01*
X184301666Y-127754819D02*
X184396904Y-127802438D01*
X184396904Y-127802438D02*
X184444523Y-127850057D01*
X184444523Y-127850057D02*
X184492142Y-127945295D01*
X184492142Y-127945295D02*
X184492142Y-128088152D01*
X184492142Y-128088152D02*
X184444523Y-128183390D01*
X184444523Y-128183390D02*
X184396904Y-128231009D01*
X184396904Y-128231009D02*
X184301666Y-128278628D01*
X184301666Y-128278628D02*
X183920714Y-128278628D01*
X185444523Y-128754819D02*
X184873095Y-128754819D01*
X185158809Y-128754819D02*
X185158809Y-127754819D01*
X185158809Y-127754819D02*
X185063571Y-127897676D01*
X185063571Y-127897676D02*
X184968333Y-127992914D01*
X184968333Y-127992914D02*
X184873095Y-128040533D01*
X185777857Y-127754819D02*
X186396904Y-127754819D01*
X186396904Y-127754819D02*
X186063571Y-128135771D01*
X186063571Y-128135771D02*
X186206428Y-128135771D01*
X186206428Y-128135771D02*
X186301666Y-128183390D01*
X186301666Y-128183390D02*
X186349285Y-128231009D01*
X186349285Y-128231009D02*
X186396904Y-128326247D01*
X186396904Y-128326247D02*
X186396904Y-128564342D01*
X186396904Y-128564342D02*
X186349285Y-128659580D01*
X186349285Y-128659580D02*
X186301666Y-128707200D01*
X186301666Y-128707200D02*
X186206428Y-128754819D01*
X186206428Y-128754819D02*
X185920714Y-128754819D01*
X185920714Y-128754819D02*
X185825476Y-128707200D01*
X185825476Y-128707200D02*
X185777857Y-128659580D01*
X88738095Y-34757200D02*
X88880952Y-34804819D01*
X88880952Y-34804819D02*
X89119047Y-34804819D01*
X89119047Y-34804819D02*
X89214285Y-34757200D01*
X89214285Y-34757200D02*
X89261904Y-34709580D01*
X89261904Y-34709580D02*
X89309523Y-34614342D01*
X89309523Y-34614342D02*
X89309523Y-34519104D01*
X89309523Y-34519104D02*
X89261904Y-34423866D01*
X89261904Y-34423866D02*
X89214285Y-34376247D01*
X89214285Y-34376247D02*
X89119047Y-34328628D01*
X89119047Y-34328628D02*
X88928571Y-34281009D01*
X88928571Y-34281009D02*
X88833333Y-34233390D01*
X88833333Y-34233390D02*
X88785714Y-34185771D01*
X88785714Y-34185771D02*
X88738095Y-34090533D01*
X88738095Y-34090533D02*
X88738095Y-33995295D01*
X88738095Y-33995295D02*
X88785714Y-33900057D01*
X88785714Y-33900057D02*
X88833333Y-33852438D01*
X88833333Y-33852438D02*
X88928571Y-33804819D01*
X88928571Y-33804819D02*
X89166666Y-33804819D01*
X89166666Y-33804819D02*
X89309523Y-33852438D01*
X90166666Y-34138152D02*
X90166666Y-34804819D01*
X89928571Y-33757200D02*
X89690476Y-34471485D01*
X89690476Y-34471485D02*
X90309523Y-34471485D01*
X159388095Y-47829819D02*
X159388095Y-48639342D01*
X159388095Y-48639342D02*
X159435714Y-48734580D01*
X159435714Y-48734580D02*
X159483333Y-48782200D01*
X159483333Y-48782200D02*
X159578571Y-48829819D01*
X159578571Y-48829819D02*
X159769047Y-48829819D01*
X159769047Y-48829819D02*
X159864285Y-48782200D01*
X159864285Y-48782200D02*
X159911904Y-48734580D01*
X159911904Y-48734580D02*
X159959523Y-48639342D01*
X159959523Y-48639342D02*
X159959523Y-47829819D01*
X160388095Y-47925057D02*
X160435714Y-47877438D01*
X160435714Y-47877438D02*
X160530952Y-47829819D01*
X160530952Y-47829819D02*
X160769047Y-47829819D01*
X160769047Y-47829819D02*
X160864285Y-47877438D01*
X160864285Y-47877438D02*
X160911904Y-47925057D01*
X160911904Y-47925057D02*
X160959523Y-48020295D01*
X160959523Y-48020295D02*
X160959523Y-48115533D01*
X160959523Y-48115533D02*
X160911904Y-48258390D01*
X160911904Y-48258390D02*
X160340476Y-48829819D01*
X160340476Y-48829819D02*
X160959523Y-48829819D01*
X173683333Y-75254819D02*
X173350000Y-74778628D01*
X173111905Y-75254819D02*
X173111905Y-74254819D01*
X173111905Y-74254819D02*
X173492857Y-74254819D01*
X173492857Y-74254819D02*
X173588095Y-74302438D01*
X173588095Y-74302438D02*
X173635714Y-74350057D01*
X173635714Y-74350057D02*
X173683333Y-74445295D01*
X173683333Y-74445295D02*
X173683333Y-74588152D01*
X173683333Y-74588152D02*
X173635714Y-74683390D01*
X173635714Y-74683390D02*
X173588095Y-74731009D01*
X173588095Y-74731009D02*
X173492857Y-74778628D01*
X173492857Y-74778628D02*
X173111905Y-74778628D01*
X174064286Y-74350057D02*
X174111905Y-74302438D01*
X174111905Y-74302438D02*
X174207143Y-74254819D01*
X174207143Y-74254819D02*
X174445238Y-74254819D01*
X174445238Y-74254819D02*
X174540476Y-74302438D01*
X174540476Y-74302438D02*
X174588095Y-74350057D01*
X174588095Y-74350057D02*
X174635714Y-74445295D01*
X174635714Y-74445295D02*
X174635714Y-74540533D01*
X174635714Y-74540533D02*
X174588095Y-74683390D01*
X174588095Y-74683390D02*
X174016667Y-75254819D01*
X174016667Y-75254819D02*
X174635714Y-75254819D01*
X52261905Y-55757200D02*
X52404762Y-55804819D01*
X52404762Y-55804819D02*
X52642857Y-55804819D01*
X52642857Y-55804819D02*
X52738095Y-55757200D01*
X52738095Y-55757200D02*
X52785714Y-55709580D01*
X52785714Y-55709580D02*
X52833333Y-55614342D01*
X52833333Y-55614342D02*
X52833333Y-55519104D01*
X52833333Y-55519104D02*
X52785714Y-55423866D01*
X52785714Y-55423866D02*
X52738095Y-55376247D01*
X52738095Y-55376247D02*
X52642857Y-55328628D01*
X52642857Y-55328628D02*
X52452381Y-55281009D01*
X52452381Y-55281009D02*
X52357143Y-55233390D01*
X52357143Y-55233390D02*
X52309524Y-55185771D01*
X52309524Y-55185771D02*
X52261905Y-55090533D01*
X52261905Y-55090533D02*
X52261905Y-54995295D01*
X52261905Y-54995295D02*
X52309524Y-54900057D01*
X52309524Y-54900057D02*
X52357143Y-54852438D01*
X52357143Y-54852438D02*
X52452381Y-54804819D01*
X52452381Y-54804819D02*
X52690476Y-54804819D01*
X52690476Y-54804819D02*
X52833333Y-54852438D01*
X53785714Y-55804819D02*
X53214286Y-55804819D01*
X53500000Y-55804819D02*
X53500000Y-54804819D01*
X53500000Y-54804819D02*
X53404762Y-54947676D01*
X53404762Y-54947676D02*
X53309524Y-55042914D01*
X53309524Y-55042914D02*
X53214286Y-55090533D01*
X54404762Y-54804819D02*
X54500000Y-54804819D01*
X54500000Y-54804819D02*
X54595238Y-54852438D01*
X54595238Y-54852438D02*
X54642857Y-54900057D01*
X54642857Y-54900057D02*
X54690476Y-54995295D01*
X54690476Y-54995295D02*
X54738095Y-55185771D01*
X54738095Y-55185771D02*
X54738095Y-55423866D01*
X54738095Y-55423866D02*
X54690476Y-55614342D01*
X54690476Y-55614342D02*
X54642857Y-55709580D01*
X54642857Y-55709580D02*
X54595238Y-55757200D01*
X54595238Y-55757200D02*
X54500000Y-55804819D01*
X54500000Y-55804819D02*
X54404762Y-55804819D01*
X54404762Y-55804819D02*
X54309524Y-55757200D01*
X54309524Y-55757200D02*
X54261905Y-55709580D01*
X54261905Y-55709580D02*
X54214286Y-55614342D01*
X54214286Y-55614342D02*
X54166667Y-55423866D01*
X54166667Y-55423866D02*
X54166667Y-55185771D01*
X54166667Y-55185771D02*
X54214286Y-54995295D01*
X54214286Y-54995295D02*
X54261905Y-54900057D01*
X54261905Y-54900057D02*
X54309524Y-54852438D01*
X54309524Y-54852438D02*
X54404762Y-54804819D01*
X158333333Y-41529819D02*
X158000000Y-41053628D01*
X157761905Y-41529819D02*
X157761905Y-40529819D01*
X157761905Y-40529819D02*
X158142857Y-40529819D01*
X158142857Y-40529819D02*
X158238095Y-40577438D01*
X158238095Y-40577438D02*
X158285714Y-40625057D01*
X158285714Y-40625057D02*
X158333333Y-40720295D01*
X158333333Y-40720295D02*
X158333333Y-40863152D01*
X158333333Y-40863152D02*
X158285714Y-40958390D01*
X158285714Y-40958390D02*
X158238095Y-41006009D01*
X158238095Y-41006009D02*
X158142857Y-41053628D01*
X158142857Y-41053628D02*
X157761905Y-41053628D01*
X159190476Y-40863152D02*
X159190476Y-41529819D01*
X158952381Y-40482200D02*
X158714286Y-41196485D01*
X158714286Y-41196485D02*
X159333333Y-41196485D01*
X176209580Y-70942857D02*
X176257200Y-70990476D01*
X176257200Y-70990476D02*
X176304819Y-71133333D01*
X176304819Y-71133333D02*
X176304819Y-71228571D01*
X176304819Y-71228571D02*
X176257200Y-71371428D01*
X176257200Y-71371428D02*
X176161961Y-71466666D01*
X176161961Y-71466666D02*
X176066723Y-71514285D01*
X176066723Y-71514285D02*
X175876247Y-71561904D01*
X175876247Y-71561904D02*
X175733390Y-71561904D01*
X175733390Y-71561904D02*
X175542914Y-71514285D01*
X175542914Y-71514285D02*
X175447676Y-71466666D01*
X175447676Y-71466666D02*
X175352438Y-71371428D01*
X175352438Y-71371428D02*
X175304819Y-71228571D01*
X175304819Y-71228571D02*
X175304819Y-71133333D01*
X175304819Y-71133333D02*
X175352438Y-70990476D01*
X175352438Y-70990476D02*
X175400057Y-70942857D01*
X176304819Y-69990476D02*
X176304819Y-70561904D01*
X176304819Y-70276190D02*
X175304819Y-70276190D01*
X175304819Y-70276190D02*
X175447676Y-70371428D01*
X175447676Y-70371428D02*
X175542914Y-70466666D01*
X175542914Y-70466666D02*
X175590533Y-70561904D01*
X175304819Y-69657142D02*
X175304819Y-68990476D01*
X175304819Y-68990476D02*
X176304819Y-69419047D01*
X166486666Y-45996009D02*
X166153333Y-45996009D01*
X166153333Y-46519819D02*
X166153333Y-45519819D01*
X166153333Y-45519819D02*
X166629523Y-45519819D01*
X167534285Y-46519819D02*
X166962857Y-46519819D01*
X167248571Y-46519819D02*
X167248571Y-45519819D01*
X167248571Y-45519819D02*
X167153333Y-45662676D01*
X167153333Y-45662676D02*
X167058095Y-45757914D01*
X167058095Y-45757914D02*
X166962857Y-45805533D01*
X70261905Y-55757200D02*
X70404762Y-55804819D01*
X70404762Y-55804819D02*
X70642857Y-55804819D01*
X70642857Y-55804819D02*
X70738095Y-55757200D01*
X70738095Y-55757200D02*
X70785714Y-55709580D01*
X70785714Y-55709580D02*
X70833333Y-55614342D01*
X70833333Y-55614342D02*
X70833333Y-55519104D01*
X70833333Y-55519104D02*
X70785714Y-55423866D01*
X70785714Y-55423866D02*
X70738095Y-55376247D01*
X70738095Y-55376247D02*
X70642857Y-55328628D01*
X70642857Y-55328628D02*
X70452381Y-55281009D01*
X70452381Y-55281009D02*
X70357143Y-55233390D01*
X70357143Y-55233390D02*
X70309524Y-55185771D01*
X70309524Y-55185771D02*
X70261905Y-55090533D01*
X70261905Y-55090533D02*
X70261905Y-54995295D01*
X70261905Y-54995295D02*
X70309524Y-54900057D01*
X70309524Y-54900057D02*
X70357143Y-54852438D01*
X70357143Y-54852438D02*
X70452381Y-54804819D01*
X70452381Y-54804819D02*
X70690476Y-54804819D01*
X70690476Y-54804819D02*
X70833333Y-54852438D01*
X71785714Y-55804819D02*
X71214286Y-55804819D01*
X71500000Y-55804819D02*
X71500000Y-54804819D01*
X71500000Y-54804819D02*
X71404762Y-54947676D01*
X71404762Y-54947676D02*
X71309524Y-55042914D01*
X71309524Y-55042914D02*
X71214286Y-55090533D01*
X72738095Y-55804819D02*
X72166667Y-55804819D01*
X72452381Y-55804819D02*
X72452381Y-54804819D01*
X72452381Y-54804819D02*
X72357143Y-54947676D01*
X72357143Y-54947676D02*
X72261905Y-55042914D01*
X72261905Y-55042914D02*
X72166667Y-55090533D01*
X170533333Y-57059580D02*
X170485714Y-57107200D01*
X170485714Y-57107200D02*
X170342857Y-57154819D01*
X170342857Y-57154819D02*
X170247619Y-57154819D01*
X170247619Y-57154819D02*
X170104762Y-57107200D01*
X170104762Y-57107200D02*
X170009524Y-57011961D01*
X170009524Y-57011961D02*
X169961905Y-56916723D01*
X169961905Y-56916723D02*
X169914286Y-56726247D01*
X169914286Y-56726247D02*
X169914286Y-56583390D01*
X169914286Y-56583390D02*
X169961905Y-56392914D01*
X169961905Y-56392914D02*
X170009524Y-56297676D01*
X170009524Y-56297676D02*
X170104762Y-56202438D01*
X170104762Y-56202438D02*
X170247619Y-56154819D01*
X170247619Y-56154819D02*
X170342857Y-56154819D01*
X170342857Y-56154819D02*
X170485714Y-56202438D01*
X170485714Y-56202438D02*
X170533333Y-56250057D01*
X171390476Y-56154819D02*
X171200000Y-56154819D01*
X171200000Y-56154819D02*
X171104762Y-56202438D01*
X171104762Y-56202438D02*
X171057143Y-56250057D01*
X171057143Y-56250057D02*
X170961905Y-56392914D01*
X170961905Y-56392914D02*
X170914286Y-56583390D01*
X170914286Y-56583390D02*
X170914286Y-56964342D01*
X170914286Y-56964342D02*
X170961905Y-57059580D01*
X170961905Y-57059580D02*
X171009524Y-57107200D01*
X171009524Y-57107200D02*
X171104762Y-57154819D01*
X171104762Y-57154819D02*
X171295238Y-57154819D01*
X171295238Y-57154819D02*
X171390476Y-57107200D01*
X171390476Y-57107200D02*
X171438095Y-57059580D01*
X171438095Y-57059580D02*
X171485714Y-56964342D01*
X171485714Y-56964342D02*
X171485714Y-56726247D01*
X171485714Y-56726247D02*
X171438095Y-56631009D01*
X171438095Y-56631009D02*
X171390476Y-56583390D01*
X171390476Y-56583390D02*
X171295238Y-56535771D01*
X171295238Y-56535771D02*
X171104762Y-56535771D01*
X171104762Y-56535771D02*
X171009524Y-56583390D01*
X171009524Y-56583390D02*
X170961905Y-56631009D01*
X170961905Y-56631009D02*
X170914286Y-56726247D01*
X173583333Y-67479580D02*
X173535714Y-67527200D01*
X173535714Y-67527200D02*
X173392857Y-67574819D01*
X173392857Y-67574819D02*
X173297619Y-67574819D01*
X173297619Y-67574819D02*
X173154762Y-67527200D01*
X173154762Y-67527200D02*
X173059524Y-67431961D01*
X173059524Y-67431961D02*
X173011905Y-67336723D01*
X173011905Y-67336723D02*
X172964286Y-67146247D01*
X172964286Y-67146247D02*
X172964286Y-67003390D01*
X172964286Y-67003390D02*
X173011905Y-66812914D01*
X173011905Y-66812914D02*
X173059524Y-66717676D01*
X173059524Y-66717676D02*
X173154762Y-66622438D01*
X173154762Y-66622438D02*
X173297619Y-66574819D01*
X173297619Y-66574819D02*
X173392857Y-66574819D01*
X173392857Y-66574819D02*
X173535714Y-66622438D01*
X173535714Y-66622438D02*
X173583333Y-66670057D01*
X173964286Y-66670057D02*
X174011905Y-66622438D01*
X174011905Y-66622438D02*
X174107143Y-66574819D01*
X174107143Y-66574819D02*
X174345238Y-66574819D01*
X174345238Y-66574819D02*
X174440476Y-66622438D01*
X174440476Y-66622438D02*
X174488095Y-66670057D01*
X174488095Y-66670057D02*
X174535714Y-66765295D01*
X174535714Y-66765295D02*
X174535714Y-66860533D01*
X174535714Y-66860533D02*
X174488095Y-67003390D01*
X174488095Y-67003390D02*
X173916667Y-67574819D01*
X173916667Y-67574819D02*
X174535714Y-67574819D01*
X34261905Y-72757200D02*
X34404762Y-72804819D01*
X34404762Y-72804819D02*
X34642857Y-72804819D01*
X34642857Y-72804819D02*
X34738095Y-72757200D01*
X34738095Y-72757200D02*
X34785714Y-72709580D01*
X34785714Y-72709580D02*
X34833333Y-72614342D01*
X34833333Y-72614342D02*
X34833333Y-72519104D01*
X34833333Y-72519104D02*
X34785714Y-72423866D01*
X34785714Y-72423866D02*
X34738095Y-72376247D01*
X34738095Y-72376247D02*
X34642857Y-72328628D01*
X34642857Y-72328628D02*
X34452381Y-72281009D01*
X34452381Y-72281009D02*
X34357143Y-72233390D01*
X34357143Y-72233390D02*
X34309524Y-72185771D01*
X34309524Y-72185771D02*
X34261905Y-72090533D01*
X34261905Y-72090533D02*
X34261905Y-71995295D01*
X34261905Y-71995295D02*
X34309524Y-71900057D01*
X34309524Y-71900057D02*
X34357143Y-71852438D01*
X34357143Y-71852438D02*
X34452381Y-71804819D01*
X34452381Y-71804819D02*
X34690476Y-71804819D01*
X34690476Y-71804819D02*
X34833333Y-71852438D01*
X35785714Y-72804819D02*
X35214286Y-72804819D01*
X35500000Y-72804819D02*
X35500000Y-71804819D01*
X35500000Y-71804819D02*
X35404762Y-71947676D01*
X35404762Y-71947676D02*
X35309524Y-72042914D01*
X35309524Y-72042914D02*
X35214286Y-72090533D01*
X36119048Y-71804819D02*
X36785714Y-71804819D01*
X36785714Y-71804819D02*
X36357143Y-72804819D01*
X170158333Y-55459580D02*
X170110714Y-55507200D01*
X170110714Y-55507200D02*
X169967857Y-55554819D01*
X169967857Y-55554819D02*
X169872619Y-55554819D01*
X169872619Y-55554819D02*
X169729762Y-55507200D01*
X169729762Y-55507200D02*
X169634524Y-55411961D01*
X169634524Y-55411961D02*
X169586905Y-55316723D01*
X169586905Y-55316723D02*
X169539286Y-55126247D01*
X169539286Y-55126247D02*
X169539286Y-54983390D01*
X169539286Y-54983390D02*
X169586905Y-54792914D01*
X169586905Y-54792914D02*
X169634524Y-54697676D01*
X169634524Y-54697676D02*
X169729762Y-54602438D01*
X169729762Y-54602438D02*
X169872619Y-54554819D01*
X169872619Y-54554819D02*
X169967857Y-54554819D01*
X169967857Y-54554819D02*
X170110714Y-54602438D01*
X170110714Y-54602438D02*
X170158333Y-54650057D01*
X170729762Y-54983390D02*
X170634524Y-54935771D01*
X170634524Y-54935771D02*
X170586905Y-54888152D01*
X170586905Y-54888152D02*
X170539286Y-54792914D01*
X170539286Y-54792914D02*
X170539286Y-54745295D01*
X170539286Y-54745295D02*
X170586905Y-54650057D01*
X170586905Y-54650057D02*
X170634524Y-54602438D01*
X170634524Y-54602438D02*
X170729762Y-54554819D01*
X170729762Y-54554819D02*
X170920238Y-54554819D01*
X170920238Y-54554819D02*
X171015476Y-54602438D01*
X171015476Y-54602438D02*
X171063095Y-54650057D01*
X171063095Y-54650057D02*
X171110714Y-54745295D01*
X171110714Y-54745295D02*
X171110714Y-54792914D01*
X171110714Y-54792914D02*
X171063095Y-54888152D01*
X171063095Y-54888152D02*
X171015476Y-54935771D01*
X171015476Y-54935771D02*
X170920238Y-54983390D01*
X170920238Y-54983390D02*
X170729762Y-54983390D01*
X170729762Y-54983390D02*
X170634524Y-55031009D01*
X170634524Y-55031009D02*
X170586905Y-55078628D01*
X170586905Y-55078628D02*
X170539286Y-55173866D01*
X170539286Y-55173866D02*
X170539286Y-55364342D01*
X170539286Y-55364342D02*
X170586905Y-55459580D01*
X170586905Y-55459580D02*
X170634524Y-55507200D01*
X170634524Y-55507200D02*
X170729762Y-55554819D01*
X170729762Y-55554819D02*
X170920238Y-55554819D01*
X170920238Y-55554819D02*
X171015476Y-55507200D01*
X171015476Y-55507200D02*
X171063095Y-55459580D01*
X171063095Y-55459580D02*
X171110714Y-55364342D01*
X171110714Y-55364342D02*
X171110714Y-55173866D01*
X171110714Y-55173866D02*
X171063095Y-55078628D01*
X171063095Y-55078628D02*
X171015476Y-55031009D01*
X171015476Y-55031009D02*
X170920238Y-54983390D01*
X88261905Y-85757200D02*
X88404762Y-85804819D01*
X88404762Y-85804819D02*
X88642857Y-85804819D01*
X88642857Y-85804819D02*
X88738095Y-85757200D01*
X88738095Y-85757200D02*
X88785714Y-85709580D01*
X88785714Y-85709580D02*
X88833333Y-85614342D01*
X88833333Y-85614342D02*
X88833333Y-85519104D01*
X88833333Y-85519104D02*
X88785714Y-85423866D01*
X88785714Y-85423866D02*
X88738095Y-85376247D01*
X88738095Y-85376247D02*
X88642857Y-85328628D01*
X88642857Y-85328628D02*
X88452381Y-85281009D01*
X88452381Y-85281009D02*
X88357143Y-85233390D01*
X88357143Y-85233390D02*
X88309524Y-85185771D01*
X88309524Y-85185771D02*
X88261905Y-85090533D01*
X88261905Y-85090533D02*
X88261905Y-84995295D01*
X88261905Y-84995295D02*
X88309524Y-84900057D01*
X88309524Y-84900057D02*
X88357143Y-84852438D01*
X88357143Y-84852438D02*
X88452381Y-84804819D01*
X88452381Y-84804819D02*
X88690476Y-84804819D01*
X88690476Y-84804819D02*
X88833333Y-84852438D01*
X89214286Y-84900057D02*
X89261905Y-84852438D01*
X89261905Y-84852438D02*
X89357143Y-84804819D01*
X89357143Y-84804819D02*
X89595238Y-84804819D01*
X89595238Y-84804819D02*
X89690476Y-84852438D01*
X89690476Y-84852438D02*
X89738095Y-84900057D01*
X89738095Y-84900057D02*
X89785714Y-84995295D01*
X89785714Y-84995295D02*
X89785714Y-85090533D01*
X89785714Y-85090533D02*
X89738095Y-85233390D01*
X89738095Y-85233390D02*
X89166667Y-85804819D01*
X89166667Y-85804819D02*
X89785714Y-85804819D01*
X90642857Y-85138152D02*
X90642857Y-85804819D01*
X90404762Y-84757200D02*
X90166667Y-85471485D01*
X90166667Y-85471485D02*
X90785714Y-85471485D01*
X166640835Y-139692441D02*
X166708179Y-139827128D01*
X166708179Y-139827128D02*
X166876538Y-139995487D01*
X166876538Y-139995487D02*
X166977553Y-140029159D01*
X166977553Y-140029159D02*
X167044896Y-140029159D01*
X167044896Y-140029159D02*
X167145912Y-139995487D01*
X167145912Y-139995487D02*
X167213255Y-139928143D01*
X167213255Y-139928143D02*
X167246927Y-139827128D01*
X167246927Y-139827128D02*
X167246927Y-139759785D01*
X167246927Y-139759785D02*
X167213255Y-139658769D01*
X167213255Y-139658769D02*
X167112240Y-139490411D01*
X167112240Y-139490411D02*
X167078568Y-139389395D01*
X167078568Y-139389395D02*
X167078568Y-139322052D01*
X167078568Y-139322052D02*
X167112240Y-139221037D01*
X167112240Y-139221037D02*
X167179583Y-139153693D01*
X167179583Y-139153693D02*
X167280599Y-139120021D01*
X167280599Y-139120021D02*
X167347942Y-139120021D01*
X167347942Y-139120021D02*
X167448957Y-139153693D01*
X167448957Y-139153693D02*
X167617316Y-139322052D01*
X167617316Y-139322052D02*
X167684660Y-139456739D01*
X167954034Y-139658769D02*
X168391766Y-140096502D01*
X168391766Y-140096502D02*
X167886690Y-140130174D01*
X167886690Y-140130174D02*
X167987705Y-140231189D01*
X167987705Y-140231189D02*
X168021377Y-140332204D01*
X168021377Y-140332204D02*
X168021377Y-140399548D01*
X168021377Y-140399548D02*
X167987705Y-140500563D01*
X167987705Y-140500563D02*
X167819347Y-140668922D01*
X167819347Y-140668922D02*
X167718331Y-140702594D01*
X167718331Y-140702594D02*
X167650988Y-140702594D01*
X167650988Y-140702594D02*
X167549973Y-140668922D01*
X167549973Y-140668922D02*
X167347942Y-140466891D01*
X167347942Y-140466891D02*
X167314270Y-140365876D01*
X167314270Y-140365876D02*
X167314270Y-140298533D01*
X168358095Y-141477044D02*
X167954034Y-141072983D01*
X168156064Y-141275014D02*
X168863171Y-140567907D01*
X168863171Y-140567907D02*
X168694812Y-140601579D01*
X168694812Y-140601579D02*
X168560125Y-140601579D01*
X168560125Y-140601579D02*
X168459110Y-140567907D01*
X176492142Y-128754819D02*
X176158809Y-128278628D01*
X175920714Y-128754819D02*
X175920714Y-127754819D01*
X175920714Y-127754819D02*
X176301666Y-127754819D01*
X176301666Y-127754819D02*
X176396904Y-127802438D01*
X176396904Y-127802438D02*
X176444523Y-127850057D01*
X176444523Y-127850057D02*
X176492142Y-127945295D01*
X176492142Y-127945295D02*
X176492142Y-128088152D01*
X176492142Y-128088152D02*
X176444523Y-128183390D01*
X176444523Y-128183390D02*
X176396904Y-128231009D01*
X176396904Y-128231009D02*
X176301666Y-128278628D01*
X176301666Y-128278628D02*
X175920714Y-128278628D01*
X177444523Y-128754819D02*
X176873095Y-128754819D01*
X177158809Y-128754819D02*
X177158809Y-127754819D01*
X177158809Y-127754819D02*
X177063571Y-127897676D01*
X177063571Y-127897676D02*
X176968333Y-127992914D01*
X176968333Y-127992914D02*
X176873095Y-128040533D01*
X178301666Y-128088152D02*
X178301666Y-128754819D01*
X178063571Y-127707200D02*
X177825476Y-128421485D01*
X177825476Y-128421485D02*
X178444523Y-128421485D01*
X172933333Y-59909580D02*
X172885714Y-59957200D01*
X172885714Y-59957200D02*
X172742857Y-60004819D01*
X172742857Y-60004819D02*
X172647619Y-60004819D01*
X172647619Y-60004819D02*
X172504762Y-59957200D01*
X172504762Y-59957200D02*
X172409524Y-59861961D01*
X172409524Y-59861961D02*
X172361905Y-59766723D01*
X172361905Y-59766723D02*
X172314286Y-59576247D01*
X172314286Y-59576247D02*
X172314286Y-59433390D01*
X172314286Y-59433390D02*
X172361905Y-59242914D01*
X172361905Y-59242914D02*
X172409524Y-59147676D01*
X172409524Y-59147676D02*
X172504762Y-59052438D01*
X172504762Y-59052438D02*
X172647619Y-59004819D01*
X172647619Y-59004819D02*
X172742857Y-59004819D01*
X172742857Y-59004819D02*
X172885714Y-59052438D01*
X172885714Y-59052438D02*
X172933333Y-59100057D01*
X173266667Y-59004819D02*
X173885714Y-59004819D01*
X173885714Y-59004819D02*
X173552381Y-59385771D01*
X173552381Y-59385771D02*
X173695238Y-59385771D01*
X173695238Y-59385771D02*
X173790476Y-59433390D01*
X173790476Y-59433390D02*
X173838095Y-59481009D01*
X173838095Y-59481009D02*
X173885714Y-59576247D01*
X173885714Y-59576247D02*
X173885714Y-59814342D01*
X173885714Y-59814342D02*
X173838095Y-59909580D01*
X173838095Y-59909580D02*
X173790476Y-59957200D01*
X173790476Y-59957200D02*
X173695238Y-60004819D01*
X173695238Y-60004819D02*
X173409524Y-60004819D01*
X173409524Y-60004819D02*
X173314286Y-59957200D01*
X173314286Y-59957200D02*
X173266667Y-59909580D01*
X158532142Y-73534580D02*
X158484523Y-73582200D01*
X158484523Y-73582200D02*
X158341666Y-73629819D01*
X158341666Y-73629819D02*
X158246428Y-73629819D01*
X158246428Y-73629819D02*
X158103571Y-73582200D01*
X158103571Y-73582200D02*
X158008333Y-73486961D01*
X158008333Y-73486961D02*
X157960714Y-73391723D01*
X157960714Y-73391723D02*
X157913095Y-73201247D01*
X157913095Y-73201247D02*
X157913095Y-73058390D01*
X157913095Y-73058390D02*
X157960714Y-72867914D01*
X157960714Y-72867914D02*
X158008333Y-72772676D01*
X158008333Y-72772676D02*
X158103571Y-72677438D01*
X158103571Y-72677438D02*
X158246428Y-72629819D01*
X158246428Y-72629819D02*
X158341666Y-72629819D01*
X158341666Y-72629819D02*
X158484523Y-72677438D01*
X158484523Y-72677438D02*
X158532142Y-72725057D01*
X159484523Y-73629819D02*
X158913095Y-73629819D01*
X159198809Y-73629819D02*
X159198809Y-72629819D01*
X159198809Y-72629819D02*
X159103571Y-72772676D01*
X159103571Y-72772676D02*
X159008333Y-72867914D01*
X159008333Y-72867914D02*
X158913095Y-72915533D01*
X160103571Y-72629819D02*
X160198809Y-72629819D01*
X160198809Y-72629819D02*
X160294047Y-72677438D01*
X160294047Y-72677438D02*
X160341666Y-72725057D01*
X160341666Y-72725057D02*
X160389285Y-72820295D01*
X160389285Y-72820295D02*
X160436904Y-73010771D01*
X160436904Y-73010771D02*
X160436904Y-73248866D01*
X160436904Y-73248866D02*
X160389285Y-73439342D01*
X160389285Y-73439342D02*
X160341666Y-73534580D01*
X160341666Y-73534580D02*
X160294047Y-73582200D01*
X160294047Y-73582200D02*
X160198809Y-73629819D01*
X160198809Y-73629819D02*
X160103571Y-73629819D01*
X160103571Y-73629819D02*
X160008333Y-73582200D01*
X160008333Y-73582200D02*
X159960714Y-73534580D01*
X159960714Y-73534580D02*
X159913095Y-73439342D01*
X159913095Y-73439342D02*
X159865476Y-73248866D01*
X159865476Y-73248866D02*
X159865476Y-73010771D01*
X159865476Y-73010771D02*
X159913095Y-72820295D01*
X159913095Y-72820295D02*
X159960714Y-72725057D01*
X159960714Y-72725057D02*
X160008333Y-72677438D01*
X160008333Y-72677438D02*
X160103571Y-72629819D01*
X168732142Y-71859580D02*
X168684523Y-71907200D01*
X168684523Y-71907200D02*
X168541666Y-71954819D01*
X168541666Y-71954819D02*
X168446428Y-71954819D01*
X168446428Y-71954819D02*
X168303571Y-71907200D01*
X168303571Y-71907200D02*
X168208333Y-71811961D01*
X168208333Y-71811961D02*
X168160714Y-71716723D01*
X168160714Y-71716723D02*
X168113095Y-71526247D01*
X168113095Y-71526247D02*
X168113095Y-71383390D01*
X168113095Y-71383390D02*
X168160714Y-71192914D01*
X168160714Y-71192914D02*
X168208333Y-71097676D01*
X168208333Y-71097676D02*
X168303571Y-71002438D01*
X168303571Y-71002438D02*
X168446428Y-70954819D01*
X168446428Y-70954819D02*
X168541666Y-70954819D01*
X168541666Y-70954819D02*
X168684523Y-71002438D01*
X168684523Y-71002438D02*
X168732142Y-71050057D01*
X169684523Y-71954819D02*
X169113095Y-71954819D01*
X169398809Y-71954819D02*
X169398809Y-70954819D01*
X169398809Y-70954819D02*
X169303571Y-71097676D01*
X169303571Y-71097676D02*
X169208333Y-71192914D01*
X169208333Y-71192914D02*
X169113095Y-71240533D01*
X170017857Y-70954819D02*
X170636904Y-70954819D01*
X170636904Y-70954819D02*
X170303571Y-71335771D01*
X170303571Y-71335771D02*
X170446428Y-71335771D01*
X170446428Y-71335771D02*
X170541666Y-71383390D01*
X170541666Y-71383390D02*
X170589285Y-71431009D01*
X170589285Y-71431009D02*
X170636904Y-71526247D01*
X170636904Y-71526247D02*
X170636904Y-71764342D01*
X170636904Y-71764342D02*
X170589285Y-71859580D01*
X170589285Y-71859580D02*
X170541666Y-71907200D01*
X170541666Y-71907200D02*
X170446428Y-71954819D01*
X170446428Y-71954819D02*
X170160714Y-71954819D01*
X170160714Y-71954819D02*
X170065476Y-71907200D01*
X170065476Y-71907200D02*
X170017857Y-71859580D01*
X167158333Y-41529819D02*
X166825000Y-41053628D01*
X166586905Y-41529819D02*
X166586905Y-40529819D01*
X166586905Y-40529819D02*
X166967857Y-40529819D01*
X166967857Y-40529819D02*
X167063095Y-40577438D01*
X167063095Y-40577438D02*
X167110714Y-40625057D01*
X167110714Y-40625057D02*
X167158333Y-40720295D01*
X167158333Y-40720295D02*
X167158333Y-40863152D01*
X167158333Y-40863152D02*
X167110714Y-40958390D01*
X167110714Y-40958390D02*
X167063095Y-41006009D01*
X167063095Y-41006009D02*
X166967857Y-41053628D01*
X166967857Y-41053628D02*
X166586905Y-41053628D01*
X167491667Y-40529819D02*
X168110714Y-40529819D01*
X168110714Y-40529819D02*
X167777381Y-40910771D01*
X167777381Y-40910771D02*
X167920238Y-40910771D01*
X167920238Y-40910771D02*
X168015476Y-40958390D01*
X168015476Y-40958390D02*
X168063095Y-41006009D01*
X168063095Y-41006009D02*
X168110714Y-41101247D01*
X168110714Y-41101247D02*
X168110714Y-41339342D01*
X168110714Y-41339342D02*
X168063095Y-41434580D01*
X168063095Y-41434580D02*
X168015476Y-41482200D01*
X168015476Y-41482200D02*
X167920238Y-41529819D01*
X167920238Y-41529819D02*
X167634524Y-41529819D01*
X167634524Y-41529819D02*
X167539286Y-41482200D01*
X167539286Y-41482200D02*
X167491667Y-41434580D01*
X52738095Y-38757200D02*
X52880952Y-38804819D01*
X52880952Y-38804819D02*
X53119047Y-38804819D01*
X53119047Y-38804819D02*
X53214285Y-38757200D01*
X53214285Y-38757200D02*
X53261904Y-38709580D01*
X53261904Y-38709580D02*
X53309523Y-38614342D01*
X53309523Y-38614342D02*
X53309523Y-38519104D01*
X53309523Y-38519104D02*
X53261904Y-38423866D01*
X53261904Y-38423866D02*
X53214285Y-38376247D01*
X53214285Y-38376247D02*
X53119047Y-38328628D01*
X53119047Y-38328628D02*
X52928571Y-38281009D01*
X52928571Y-38281009D02*
X52833333Y-38233390D01*
X52833333Y-38233390D02*
X52785714Y-38185771D01*
X52785714Y-38185771D02*
X52738095Y-38090533D01*
X52738095Y-38090533D02*
X52738095Y-37995295D01*
X52738095Y-37995295D02*
X52785714Y-37900057D01*
X52785714Y-37900057D02*
X52833333Y-37852438D01*
X52833333Y-37852438D02*
X52928571Y-37804819D01*
X52928571Y-37804819D02*
X53166666Y-37804819D01*
X53166666Y-37804819D02*
X53309523Y-37852438D01*
X53690476Y-37900057D02*
X53738095Y-37852438D01*
X53738095Y-37852438D02*
X53833333Y-37804819D01*
X53833333Y-37804819D02*
X54071428Y-37804819D01*
X54071428Y-37804819D02*
X54166666Y-37852438D01*
X54166666Y-37852438D02*
X54214285Y-37900057D01*
X54214285Y-37900057D02*
X54261904Y-37995295D01*
X54261904Y-37995295D02*
X54261904Y-38090533D01*
X54261904Y-38090533D02*
X54214285Y-38233390D01*
X54214285Y-38233390D02*
X53642857Y-38804819D01*
X53642857Y-38804819D02*
X54261904Y-38804819D01*
X52261905Y-89757200D02*
X52404762Y-89804819D01*
X52404762Y-89804819D02*
X52642857Y-89804819D01*
X52642857Y-89804819D02*
X52738095Y-89757200D01*
X52738095Y-89757200D02*
X52785714Y-89709580D01*
X52785714Y-89709580D02*
X52833333Y-89614342D01*
X52833333Y-89614342D02*
X52833333Y-89519104D01*
X52833333Y-89519104D02*
X52785714Y-89423866D01*
X52785714Y-89423866D02*
X52738095Y-89376247D01*
X52738095Y-89376247D02*
X52642857Y-89328628D01*
X52642857Y-89328628D02*
X52452381Y-89281009D01*
X52452381Y-89281009D02*
X52357143Y-89233390D01*
X52357143Y-89233390D02*
X52309524Y-89185771D01*
X52309524Y-89185771D02*
X52261905Y-89090533D01*
X52261905Y-89090533D02*
X52261905Y-88995295D01*
X52261905Y-88995295D02*
X52309524Y-88900057D01*
X52309524Y-88900057D02*
X52357143Y-88852438D01*
X52357143Y-88852438D02*
X52452381Y-88804819D01*
X52452381Y-88804819D02*
X52690476Y-88804819D01*
X52690476Y-88804819D02*
X52833333Y-88852438D01*
X53214286Y-88900057D02*
X53261905Y-88852438D01*
X53261905Y-88852438D02*
X53357143Y-88804819D01*
X53357143Y-88804819D02*
X53595238Y-88804819D01*
X53595238Y-88804819D02*
X53690476Y-88852438D01*
X53690476Y-88852438D02*
X53738095Y-88900057D01*
X53738095Y-88900057D02*
X53785714Y-88995295D01*
X53785714Y-88995295D02*
X53785714Y-89090533D01*
X53785714Y-89090533D02*
X53738095Y-89233390D01*
X53738095Y-89233390D02*
X53166667Y-89804819D01*
X53166667Y-89804819D02*
X53785714Y-89804819D01*
X54404762Y-88804819D02*
X54500000Y-88804819D01*
X54500000Y-88804819D02*
X54595238Y-88852438D01*
X54595238Y-88852438D02*
X54642857Y-88900057D01*
X54642857Y-88900057D02*
X54690476Y-88995295D01*
X54690476Y-88995295D02*
X54738095Y-89185771D01*
X54738095Y-89185771D02*
X54738095Y-89423866D01*
X54738095Y-89423866D02*
X54690476Y-89614342D01*
X54690476Y-89614342D02*
X54642857Y-89709580D01*
X54642857Y-89709580D02*
X54595238Y-89757200D01*
X54595238Y-89757200D02*
X54500000Y-89804819D01*
X54500000Y-89804819D02*
X54404762Y-89804819D01*
X54404762Y-89804819D02*
X54309524Y-89757200D01*
X54309524Y-89757200D02*
X54261905Y-89709580D01*
X54261905Y-89709580D02*
X54214286Y-89614342D01*
X54214286Y-89614342D02*
X54166667Y-89423866D01*
X54166667Y-89423866D02*
X54166667Y-89185771D01*
X54166667Y-89185771D02*
X54214286Y-88995295D01*
X54214286Y-88995295D02*
X54261905Y-88900057D01*
X54261905Y-88900057D02*
X54309524Y-88852438D01*
X54309524Y-88852438D02*
X54404762Y-88804819D01*
X127001176Y-117252798D02*
X127126841Y-117335769D01*
X127126841Y-117335769D02*
X127356823Y-117397392D01*
X127356823Y-117397392D02*
X127461141Y-117376045D01*
X127461141Y-117376045D02*
X127519462Y-117342373D01*
X127519462Y-117342373D02*
X127590108Y-117262705D01*
X127590108Y-117262705D02*
X127614757Y-117170712D01*
X127614757Y-117170712D02*
X127593410Y-117066395D01*
X127593410Y-117066395D02*
X127559738Y-117008073D01*
X127559738Y-117008073D02*
X127480070Y-116937428D01*
X127480070Y-116937428D02*
X127308409Y-116842132D01*
X127308409Y-116842132D02*
X127228741Y-116771486D01*
X127228741Y-116771486D02*
X127195069Y-116713165D01*
X127195069Y-116713165D02*
X127173722Y-116608847D01*
X127173722Y-116608847D02*
X127198371Y-116516855D01*
X127198371Y-116516855D02*
X127269017Y-116437186D01*
X127269017Y-116437186D02*
X127327338Y-116403515D01*
X127327338Y-116403515D02*
X127431656Y-116382168D01*
X127431656Y-116382168D02*
X127661638Y-116443791D01*
X127661638Y-116443791D02*
X127787303Y-116526762D01*
X128240663Y-117042630D02*
X128160995Y-116971984D01*
X128160995Y-116971984D02*
X128127323Y-116913663D01*
X128127323Y-116913663D02*
X128105976Y-116809345D01*
X128105976Y-116809345D02*
X128118301Y-116763349D01*
X128118301Y-116763349D02*
X128188947Y-116683681D01*
X128188947Y-116683681D02*
X128247268Y-116650009D01*
X128247268Y-116650009D02*
X128351585Y-116628662D01*
X128351585Y-116628662D02*
X128535571Y-116677961D01*
X128535571Y-116677961D02*
X128615240Y-116748607D01*
X128615240Y-116748607D02*
X128648911Y-116806928D01*
X128648911Y-116806928D02*
X128670258Y-116911245D01*
X128670258Y-116911245D02*
X128657934Y-116957242D01*
X128657934Y-116957242D02*
X128587288Y-117036910D01*
X128587288Y-117036910D02*
X128528967Y-117070582D01*
X128528967Y-117070582D02*
X128424649Y-117091929D01*
X128424649Y-117091929D02*
X128240663Y-117042630D01*
X128240663Y-117042630D02*
X128136345Y-117063977D01*
X128136345Y-117063977D02*
X128078024Y-117097649D01*
X128078024Y-117097649D02*
X128007378Y-117177317D01*
X128007378Y-117177317D02*
X127958079Y-117361303D01*
X127958079Y-117361303D02*
X127979426Y-117465621D01*
X127979426Y-117465621D02*
X128013098Y-117523942D01*
X128013098Y-117523942D02*
X128092766Y-117594588D01*
X128092766Y-117594588D02*
X128276752Y-117643887D01*
X128276752Y-117643887D02*
X128381070Y-117622540D01*
X128381070Y-117622540D02*
X128439391Y-117588868D01*
X128439391Y-117588868D02*
X128510037Y-117509200D01*
X128510037Y-117509200D02*
X128559336Y-117325214D01*
X128559336Y-117325214D02*
X128537989Y-117220896D01*
X128537989Y-117220896D02*
X128504317Y-117162575D01*
X128504317Y-117162575D02*
X128424649Y-117091929D01*
X106974580Y-122092857D02*
X107022200Y-122140476D01*
X107022200Y-122140476D02*
X107069819Y-122283333D01*
X107069819Y-122283333D02*
X107069819Y-122378571D01*
X107069819Y-122378571D02*
X107022200Y-122521428D01*
X107022200Y-122521428D02*
X106926961Y-122616666D01*
X106926961Y-122616666D02*
X106831723Y-122664285D01*
X106831723Y-122664285D02*
X106641247Y-122711904D01*
X106641247Y-122711904D02*
X106498390Y-122711904D01*
X106498390Y-122711904D02*
X106307914Y-122664285D01*
X106307914Y-122664285D02*
X106212676Y-122616666D01*
X106212676Y-122616666D02*
X106117438Y-122521428D01*
X106117438Y-122521428D02*
X106069819Y-122378571D01*
X106069819Y-122378571D02*
X106069819Y-122283333D01*
X106069819Y-122283333D02*
X106117438Y-122140476D01*
X106117438Y-122140476D02*
X106165057Y-122092857D01*
X107069819Y-121140476D02*
X107069819Y-121711904D01*
X107069819Y-121426190D02*
X106069819Y-121426190D01*
X106069819Y-121426190D02*
X106212676Y-121521428D01*
X106212676Y-121521428D02*
X106307914Y-121616666D01*
X106307914Y-121616666D02*
X106355533Y-121711904D01*
X106069819Y-120235714D02*
X106069819Y-120711904D01*
X106069819Y-120711904D02*
X106546009Y-120759523D01*
X106546009Y-120759523D02*
X106498390Y-120711904D01*
X106498390Y-120711904D02*
X106450771Y-120616666D01*
X106450771Y-120616666D02*
X106450771Y-120378571D01*
X106450771Y-120378571D02*
X106498390Y-120283333D01*
X106498390Y-120283333D02*
X106546009Y-120235714D01*
X106546009Y-120235714D02*
X106641247Y-120188095D01*
X106641247Y-120188095D02*
X106879342Y-120188095D01*
X106879342Y-120188095D02*
X106974580Y-120235714D01*
X106974580Y-120235714D02*
X107022200Y-120283333D01*
X107022200Y-120283333D02*
X107069819Y-120378571D01*
X107069819Y-120378571D02*
X107069819Y-120616666D01*
X107069819Y-120616666D02*
X107022200Y-120711904D01*
X107022200Y-120711904D02*
X106974580Y-120759523D01*
X156166666Y-35029819D02*
X156166666Y-35744104D01*
X156166666Y-35744104D02*
X156119047Y-35886961D01*
X156119047Y-35886961D02*
X156023809Y-35982200D01*
X156023809Y-35982200D02*
X155880952Y-36029819D01*
X155880952Y-36029819D02*
X155785714Y-36029819D01*
X157166666Y-36029819D02*
X156595238Y-36029819D01*
X156880952Y-36029819D02*
X156880952Y-35029819D01*
X156880952Y-35029819D02*
X156785714Y-35172676D01*
X156785714Y-35172676D02*
X156690476Y-35267914D01*
X156690476Y-35267914D02*
X156595238Y-35315533D01*
X174309580Y-62317857D02*
X174357200Y-62365476D01*
X174357200Y-62365476D02*
X174404819Y-62508333D01*
X174404819Y-62508333D02*
X174404819Y-62603571D01*
X174404819Y-62603571D02*
X174357200Y-62746428D01*
X174357200Y-62746428D02*
X174261961Y-62841666D01*
X174261961Y-62841666D02*
X174166723Y-62889285D01*
X174166723Y-62889285D02*
X173976247Y-62936904D01*
X173976247Y-62936904D02*
X173833390Y-62936904D01*
X173833390Y-62936904D02*
X173642914Y-62889285D01*
X173642914Y-62889285D02*
X173547676Y-62841666D01*
X173547676Y-62841666D02*
X173452438Y-62746428D01*
X173452438Y-62746428D02*
X173404819Y-62603571D01*
X173404819Y-62603571D02*
X173404819Y-62508333D01*
X173404819Y-62508333D02*
X173452438Y-62365476D01*
X173452438Y-62365476D02*
X173500057Y-62317857D01*
X174404819Y-61365476D02*
X174404819Y-61936904D01*
X174404819Y-61651190D02*
X173404819Y-61651190D01*
X173404819Y-61651190D02*
X173547676Y-61746428D01*
X173547676Y-61746428D02*
X173642914Y-61841666D01*
X173642914Y-61841666D02*
X173690533Y-61936904D01*
X173500057Y-60984523D02*
X173452438Y-60936904D01*
X173452438Y-60936904D02*
X173404819Y-60841666D01*
X173404819Y-60841666D02*
X173404819Y-60603571D01*
X173404819Y-60603571D02*
X173452438Y-60508333D01*
X173452438Y-60508333D02*
X173500057Y-60460714D01*
X173500057Y-60460714D02*
X173595295Y-60413095D01*
X173595295Y-60413095D02*
X173690533Y-60413095D01*
X173690533Y-60413095D02*
X173833390Y-60460714D01*
X173833390Y-60460714D02*
X174404819Y-61032142D01*
X174404819Y-61032142D02*
X174404819Y-60413095D01*
X106261905Y-64757200D02*
X106404762Y-64804819D01*
X106404762Y-64804819D02*
X106642857Y-64804819D01*
X106642857Y-64804819D02*
X106738095Y-64757200D01*
X106738095Y-64757200D02*
X106785714Y-64709580D01*
X106785714Y-64709580D02*
X106833333Y-64614342D01*
X106833333Y-64614342D02*
X106833333Y-64519104D01*
X106833333Y-64519104D02*
X106785714Y-64423866D01*
X106785714Y-64423866D02*
X106738095Y-64376247D01*
X106738095Y-64376247D02*
X106642857Y-64328628D01*
X106642857Y-64328628D02*
X106452381Y-64281009D01*
X106452381Y-64281009D02*
X106357143Y-64233390D01*
X106357143Y-64233390D02*
X106309524Y-64185771D01*
X106309524Y-64185771D02*
X106261905Y-64090533D01*
X106261905Y-64090533D02*
X106261905Y-63995295D01*
X106261905Y-63995295D02*
X106309524Y-63900057D01*
X106309524Y-63900057D02*
X106357143Y-63852438D01*
X106357143Y-63852438D02*
X106452381Y-63804819D01*
X106452381Y-63804819D02*
X106690476Y-63804819D01*
X106690476Y-63804819D02*
X106833333Y-63852438D01*
X107214286Y-63900057D02*
X107261905Y-63852438D01*
X107261905Y-63852438D02*
X107357143Y-63804819D01*
X107357143Y-63804819D02*
X107595238Y-63804819D01*
X107595238Y-63804819D02*
X107690476Y-63852438D01*
X107690476Y-63852438D02*
X107738095Y-63900057D01*
X107738095Y-63900057D02*
X107785714Y-63995295D01*
X107785714Y-63995295D02*
X107785714Y-64090533D01*
X107785714Y-64090533D02*
X107738095Y-64233390D01*
X107738095Y-64233390D02*
X107166667Y-64804819D01*
X107166667Y-64804819D02*
X107785714Y-64804819D01*
X108690476Y-63804819D02*
X108214286Y-63804819D01*
X108214286Y-63804819D02*
X108166667Y-64281009D01*
X108166667Y-64281009D02*
X108214286Y-64233390D01*
X108214286Y-64233390D02*
X108309524Y-64185771D01*
X108309524Y-64185771D02*
X108547619Y-64185771D01*
X108547619Y-64185771D02*
X108642857Y-64233390D01*
X108642857Y-64233390D02*
X108690476Y-64281009D01*
X108690476Y-64281009D02*
X108738095Y-64376247D01*
X108738095Y-64376247D02*
X108738095Y-64614342D01*
X108738095Y-64614342D02*
X108690476Y-64709580D01*
X108690476Y-64709580D02*
X108642857Y-64757200D01*
X108642857Y-64757200D02*
X108547619Y-64804819D01*
X108547619Y-64804819D02*
X108309524Y-64804819D01*
X108309524Y-64804819D02*
X108214286Y-64757200D01*
X108214286Y-64757200D02*
X108166667Y-64709580D01*
X88261905Y-51757200D02*
X88404762Y-51804819D01*
X88404762Y-51804819D02*
X88642857Y-51804819D01*
X88642857Y-51804819D02*
X88738095Y-51757200D01*
X88738095Y-51757200D02*
X88785714Y-51709580D01*
X88785714Y-51709580D02*
X88833333Y-51614342D01*
X88833333Y-51614342D02*
X88833333Y-51519104D01*
X88833333Y-51519104D02*
X88785714Y-51423866D01*
X88785714Y-51423866D02*
X88738095Y-51376247D01*
X88738095Y-51376247D02*
X88642857Y-51328628D01*
X88642857Y-51328628D02*
X88452381Y-51281009D01*
X88452381Y-51281009D02*
X88357143Y-51233390D01*
X88357143Y-51233390D02*
X88309524Y-51185771D01*
X88309524Y-51185771D02*
X88261905Y-51090533D01*
X88261905Y-51090533D02*
X88261905Y-50995295D01*
X88261905Y-50995295D02*
X88309524Y-50900057D01*
X88309524Y-50900057D02*
X88357143Y-50852438D01*
X88357143Y-50852438D02*
X88452381Y-50804819D01*
X88452381Y-50804819D02*
X88690476Y-50804819D01*
X88690476Y-50804819D02*
X88833333Y-50852438D01*
X89785714Y-51804819D02*
X89214286Y-51804819D01*
X89500000Y-51804819D02*
X89500000Y-50804819D01*
X89500000Y-50804819D02*
X89404762Y-50947676D01*
X89404762Y-50947676D02*
X89309524Y-51042914D01*
X89309524Y-51042914D02*
X89214286Y-51090533D01*
X90166667Y-50900057D02*
X90214286Y-50852438D01*
X90214286Y-50852438D02*
X90309524Y-50804819D01*
X90309524Y-50804819D02*
X90547619Y-50804819D01*
X90547619Y-50804819D02*
X90642857Y-50852438D01*
X90642857Y-50852438D02*
X90690476Y-50900057D01*
X90690476Y-50900057D02*
X90738095Y-50995295D01*
X90738095Y-50995295D02*
X90738095Y-51090533D01*
X90738095Y-51090533D02*
X90690476Y-51233390D01*
X90690476Y-51233390D02*
X90119048Y-51804819D01*
X90119048Y-51804819D02*
X90738095Y-51804819D01*
X169663333Y-74309580D02*
X169615714Y-74357200D01*
X169615714Y-74357200D02*
X169472857Y-74404819D01*
X169472857Y-74404819D02*
X169377619Y-74404819D01*
X169377619Y-74404819D02*
X169234762Y-74357200D01*
X169234762Y-74357200D02*
X169139524Y-74261961D01*
X169139524Y-74261961D02*
X169091905Y-74166723D01*
X169091905Y-74166723D02*
X169044286Y-73976247D01*
X169044286Y-73976247D02*
X169044286Y-73833390D01*
X169044286Y-73833390D02*
X169091905Y-73642914D01*
X169091905Y-73642914D02*
X169139524Y-73547676D01*
X169139524Y-73547676D02*
X169234762Y-73452438D01*
X169234762Y-73452438D02*
X169377619Y-73404819D01*
X169377619Y-73404819D02*
X169472857Y-73404819D01*
X169472857Y-73404819D02*
X169615714Y-73452438D01*
X169615714Y-73452438D02*
X169663333Y-73500057D01*
X169996667Y-73404819D02*
X170663333Y-73404819D01*
X170663333Y-73404819D02*
X170234762Y-74404819D01*
X159358333Y-57234580D02*
X159310714Y-57282200D01*
X159310714Y-57282200D02*
X159167857Y-57329819D01*
X159167857Y-57329819D02*
X159072619Y-57329819D01*
X159072619Y-57329819D02*
X158929762Y-57282200D01*
X158929762Y-57282200D02*
X158834524Y-57186961D01*
X158834524Y-57186961D02*
X158786905Y-57091723D01*
X158786905Y-57091723D02*
X158739286Y-56901247D01*
X158739286Y-56901247D02*
X158739286Y-56758390D01*
X158739286Y-56758390D02*
X158786905Y-56567914D01*
X158786905Y-56567914D02*
X158834524Y-56472676D01*
X158834524Y-56472676D02*
X158929762Y-56377438D01*
X158929762Y-56377438D02*
X159072619Y-56329819D01*
X159072619Y-56329819D02*
X159167857Y-56329819D01*
X159167857Y-56329819D02*
X159310714Y-56377438D01*
X159310714Y-56377438D02*
X159358333Y-56425057D01*
X160215476Y-56663152D02*
X160215476Y-57329819D01*
X159977381Y-56282200D02*
X159739286Y-56996485D01*
X159739286Y-56996485D02*
X160358333Y-56996485D01*
X165008333Y-83154819D02*
X164675000Y-82678628D01*
X164436905Y-83154819D02*
X164436905Y-82154819D01*
X164436905Y-82154819D02*
X164817857Y-82154819D01*
X164817857Y-82154819D02*
X164913095Y-82202438D01*
X164913095Y-82202438D02*
X164960714Y-82250057D01*
X164960714Y-82250057D02*
X165008333Y-82345295D01*
X165008333Y-82345295D02*
X165008333Y-82488152D01*
X165008333Y-82488152D02*
X164960714Y-82583390D01*
X164960714Y-82583390D02*
X164913095Y-82631009D01*
X164913095Y-82631009D02*
X164817857Y-82678628D01*
X164817857Y-82678628D02*
X164436905Y-82678628D01*
X165484524Y-83154819D02*
X165675000Y-83154819D01*
X165675000Y-83154819D02*
X165770238Y-83107200D01*
X165770238Y-83107200D02*
X165817857Y-83059580D01*
X165817857Y-83059580D02*
X165913095Y-82916723D01*
X165913095Y-82916723D02*
X165960714Y-82726247D01*
X165960714Y-82726247D02*
X165960714Y-82345295D01*
X165960714Y-82345295D02*
X165913095Y-82250057D01*
X165913095Y-82250057D02*
X165865476Y-82202438D01*
X165865476Y-82202438D02*
X165770238Y-82154819D01*
X165770238Y-82154819D02*
X165579762Y-82154819D01*
X165579762Y-82154819D02*
X165484524Y-82202438D01*
X165484524Y-82202438D02*
X165436905Y-82250057D01*
X165436905Y-82250057D02*
X165389286Y-82345295D01*
X165389286Y-82345295D02*
X165389286Y-82583390D01*
X165389286Y-82583390D02*
X165436905Y-82678628D01*
X165436905Y-82678628D02*
X165484524Y-82726247D01*
X165484524Y-82726247D02*
X165579762Y-82773866D01*
X165579762Y-82773866D02*
X165770238Y-82773866D01*
X165770238Y-82773866D02*
X165865476Y-82726247D01*
X165865476Y-82726247D02*
X165913095Y-82678628D01*
X165913095Y-82678628D02*
X165960714Y-82583390D01*
X70261905Y-72757200D02*
X70404762Y-72804819D01*
X70404762Y-72804819D02*
X70642857Y-72804819D01*
X70642857Y-72804819D02*
X70738095Y-72757200D01*
X70738095Y-72757200D02*
X70785714Y-72709580D01*
X70785714Y-72709580D02*
X70833333Y-72614342D01*
X70833333Y-72614342D02*
X70833333Y-72519104D01*
X70833333Y-72519104D02*
X70785714Y-72423866D01*
X70785714Y-72423866D02*
X70738095Y-72376247D01*
X70738095Y-72376247D02*
X70642857Y-72328628D01*
X70642857Y-72328628D02*
X70452381Y-72281009D01*
X70452381Y-72281009D02*
X70357143Y-72233390D01*
X70357143Y-72233390D02*
X70309524Y-72185771D01*
X70309524Y-72185771D02*
X70261905Y-72090533D01*
X70261905Y-72090533D02*
X70261905Y-71995295D01*
X70261905Y-71995295D02*
X70309524Y-71900057D01*
X70309524Y-71900057D02*
X70357143Y-71852438D01*
X70357143Y-71852438D02*
X70452381Y-71804819D01*
X70452381Y-71804819D02*
X70690476Y-71804819D01*
X70690476Y-71804819D02*
X70833333Y-71852438D01*
X71214286Y-71900057D02*
X71261905Y-71852438D01*
X71261905Y-71852438D02*
X71357143Y-71804819D01*
X71357143Y-71804819D02*
X71595238Y-71804819D01*
X71595238Y-71804819D02*
X71690476Y-71852438D01*
X71690476Y-71852438D02*
X71738095Y-71900057D01*
X71738095Y-71900057D02*
X71785714Y-71995295D01*
X71785714Y-71995295D02*
X71785714Y-72090533D01*
X71785714Y-72090533D02*
X71738095Y-72233390D01*
X71738095Y-72233390D02*
X71166667Y-72804819D01*
X71166667Y-72804819D02*
X71785714Y-72804819D01*
X72738095Y-72804819D02*
X72166667Y-72804819D01*
X72452381Y-72804819D02*
X72452381Y-71804819D01*
X72452381Y-71804819D02*
X72357143Y-71947676D01*
X72357143Y-71947676D02*
X72261905Y-72042914D01*
X72261905Y-72042914D02*
X72166667Y-72090533D01*
X147987318Y-125939370D02*
X148087226Y-126052038D01*
X148087226Y-126052038D02*
X148293423Y-126171085D01*
X148293423Y-126171085D02*
X148399711Y-126177465D01*
X148399711Y-126177465D02*
X148464760Y-126160035D01*
X148464760Y-126160035D02*
X148553618Y-126101366D01*
X148553618Y-126101366D02*
X148601237Y-126018887D01*
X148601237Y-126018887D02*
X148607617Y-125912599D01*
X148607617Y-125912599D02*
X148590187Y-125847550D01*
X148590187Y-125847550D02*
X148531518Y-125758692D01*
X148531518Y-125758692D02*
X148390370Y-125622215D01*
X148390370Y-125622215D02*
X148331701Y-125533356D01*
X148331701Y-125533356D02*
X148314272Y-125468308D01*
X148314272Y-125468308D02*
X148320651Y-125362019D01*
X148320651Y-125362019D02*
X148368270Y-125279541D01*
X148368270Y-125279541D02*
X148457129Y-125220872D01*
X148457129Y-125220872D02*
X148522178Y-125203442D01*
X148522178Y-125203442D02*
X148628466Y-125209822D01*
X148628466Y-125209822D02*
X148834662Y-125328869D01*
X148834662Y-125328869D02*
X148934571Y-125441537D01*
X149283166Y-126742514D02*
X148788295Y-126456799D01*
X149035730Y-126599657D02*
X149535730Y-125733631D01*
X149535730Y-125733631D02*
X149381823Y-125809730D01*
X149381823Y-125809730D02*
X149251726Y-125844590D01*
X149251726Y-125844590D02*
X149145437Y-125838210D01*
X150525474Y-126305060D02*
X150360517Y-126209822D01*
X150360517Y-126209822D02*
X150254228Y-126203442D01*
X150254228Y-126203442D02*
X150189180Y-126220872D01*
X150189180Y-126220872D02*
X150035272Y-126296971D01*
X150035272Y-126296971D02*
X149898795Y-126438118D01*
X149898795Y-126438118D02*
X149708319Y-126768033D01*
X149708319Y-126768033D02*
X149701939Y-126874321D01*
X149701939Y-126874321D02*
X149719369Y-126939370D01*
X149719369Y-126939370D02*
X149778038Y-127028228D01*
X149778038Y-127028228D02*
X149942995Y-127123466D01*
X149942995Y-127123466D02*
X150049283Y-127129846D01*
X150049283Y-127129846D02*
X150114332Y-127112416D01*
X150114332Y-127112416D02*
X150203190Y-127053747D01*
X150203190Y-127053747D02*
X150322238Y-126847550D01*
X150322238Y-126847550D02*
X150328618Y-126741262D01*
X150328618Y-126741262D02*
X150311188Y-126676214D01*
X150311188Y-126676214D02*
X150252519Y-126587355D01*
X150252519Y-126587355D02*
X150087562Y-126492117D01*
X150087562Y-126492117D02*
X149981274Y-126485737D01*
X149981274Y-126485737D02*
X149916225Y-126503167D01*
X149916225Y-126503167D02*
X149827366Y-126561836D01*
X159598809Y-75628628D02*
X159598809Y-76104819D01*
X159265476Y-75104819D02*
X159598809Y-75628628D01*
X159598809Y-75628628D02*
X159932142Y-75104819D01*
X160789285Y-76104819D02*
X160217857Y-76104819D01*
X160503571Y-76104819D02*
X160503571Y-75104819D01*
X160503571Y-75104819D02*
X160408333Y-75247676D01*
X160408333Y-75247676D02*
X160313095Y-75342914D01*
X160313095Y-75342914D02*
X160217857Y-75390533D01*
X34261905Y-89757200D02*
X34404762Y-89804819D01*
X34404762Y-89804819D02*
X34642857Y-89804819D01*
X34642857Y-89804819D02*
X34738095Y-89757200D01*
X34738095Y-89757200D02*
X34785714Y-89709580D01*
X34785714Y-89709580D02*
X34833333Y-89614342D01*
X34833333Y-89614342D02*
X34833333Y-89519104D01*
X34833333Y-89519104D02*
X34785714Y-89423866D01*
X34785714Y-89423866D02*
X34738095Y-89376247D01*
X34738095Y-89376247D02*
X34642857Y-89328628D01*
X34642857Y-89328628D02*
X34452381Y-89281009D01*
X34452381Y-89281009D02*
X34357143Y-89233390D01*
X34357143Y-89233390D02*
X34309524Y-89185771D01*
X34309524Y-89185771D02*
X34261905Y-89090533D01*
X34261905Y-89090533D02*
X34261905Y-88995295D01*
X34261905Y-88995295D02*
X34309524Y-88900057D01*
X34309524Y-88900057D02*
X34357143Y-88852438D01*
X34357143Y-88852438D02*
X34452381Y-88804819D01*
X34452381Y-88804819D02*
X34690476Y-88804819D01*
X34690476Y-88804819D02*
X34833333Y-88852438D01*
X35785714Y-89804819D02*
X35214286Y-89804819D01*
X35500000Y-89804819D02*
X35500000Y-88804819D01*
X35500000Y-88804819D02*
X35404762Y-88947676D01*
X35404762Y-88947676D02*
X35309524Y-89042914D01*
X35309524Y-89042914D02*
X35214286Y-89090533D01*
X36357143Y-89233390D02*
X36261905Y-89185771D01*
X36261905Y-89185771D02*
X36214286Y-89138152D01*
X36214286Y-89138152D02*
X36166667Y-89042914D01*
X36166667Y-89042914D02*
X36166667Y-88995295D01*
X36166667Y-88995295D02*
X36214286Y-88900057D01*
X36214286Y-88900057D02*
X36261905Y-88852438D01*
X36261905Y-88852438D02*
X36357143Y-88804819D01*
X36357143Y-88804819D02*
X36547619Y-88804819D01*
X36547619Y-88804819D02*
X36642857Y-88852438D01*
X36642857Y-88852438D02*
X36690476Y-88900057D01*
X36690476Y-88900057D02*
X36738095Y-88995295D01*
X36738095Y-88995295D02*
X36738095Y-89042914D01*
X36738095Y-89042914D02*
X36690476Y-89138152D01*
X36690476Y-89138152D02*
X36642857Y-89185771D01*
X36642857Y-89185771D02*
X36547619Y-89233390D01*
X36547619Y-89233390D02*
X36357143Y-89233390D01*
X36357143Y-89233390D02*
X36261905Y-89281009D01*
X36261905Y-89281009D02*
X36214286Y-89328628D01*
X36214286Y-89328628D02*
X36166667Y-89423866D01*
X36166667Y-89423866D02*
X36166667Y-89614342D01*
X36166667Y-89614342D02*
X36214286Y-89709580D01*
X36214286Y-89709580D02*
X36261905Y-89757200D01*
X36261905Y-89757200D02*
X36357143Y-89804819D01*
X36357143Y-89804819D02*
X36547619Y-89804819D01*
X36547619Y-89804819D02*
X36642857Y-89757200D01*
X36642857Y-89757200D02*
X36690476Y-89709580D01*
X36690476Y-89709580D02*
X36738095Y-89614342D01*
X36738095Y-89614342D02*
X36738095Y-89423866D01*
X36738095Y-89423866D02*
X36690476Y-89328628D01*
X36690476Y-89328628D02*
X36642857Y-89281009D01*
X36642857Y-89281009D02*
X36547619Y-89233390D01*
D12*
%TO.C,U3*%
X166740000Y-52245000D02*
X166740000Y-51445000D01*
X166740000Y-52245000D02*
X166740000Y-53045000D01*
X169860000Y-52245000D02*
X169860000Y-51445000D01*
X169860000Y-52245000D02*
X169860000Y-53045000D01*
X166790000Y-53545000D02*
X166460000Y-53785000D01*
X166460000Y-53305000D01*
X166790000Y-53545000D01*
G36*
X166790000Y-53545000D02*
G01*
X166460000Y-53785000D01*
X166460000Y-53305000D01*
X166790000Y-53545000D01*
G37*
%TO.C,R10*%
X160295000Y-82546359D02*
X160295000Y-82853641D01*
X161055000Y-82546359D02*
X161055000Y-82853641D01*
%TO.C,U1*%
X159890000Y-58990000D02*
X160840000Y-58990000D01*
X159890000Y-59940000D02*
X159890000Y-58990000D01*
X159890000Y-68260000D02*
X159890000Y-69210000D01*
X159890000Y-69210000D02*
X160840000Y-69210000D01*
X170110000Y-58990000D02*
X169160000Y-58990000D01*
X170110000Y-59940000D02*
X170110000Y-58990000D01*
X170110000Y-68260000D02*
X170110000Y-69210000D01*
X170110000Y-69210000D02*
X169160000Y-69210000D01*
X160840000Y-69825000D02*
X160370000Y-70165000D01*
X160370000Y-69485000D01*
X160840000Y-69825000D01*
G36*
X160840000Y-69825000D02*
G01*
X160370000Y-70165000D01*
X160370000Y-69485000D01*
X160840000Y-69825000D01*
G37*
%TO.C,C11*%
X164392164Y-73460000D02*
X164607836Y-73460000D01*
X164392164Y-72740000D02*
X164607836Y-72740000D01*
%TO.C,SW3*%
X110515000Y-109200000D02*
G75*
G02*
X104515000Y-109200000I-3000000J0D01*
G01*
X104515000Y-109200000D02*
G75*
G02*
X110515000Y-109200000I3000000J0D01*
G01*
X103415000Y-117000000D02*
X103415000Y-116400000D01*
X103715000Y-116700000D02*
X103415000Y-117000000D01*
X103415000Y-116400000D02*
X103715000Y-116700000D01*
X101615000Y-115300000D02*
X113415000Y-115300000D01*
X101615000Y-111200000D02*
X101615000Y-115300000D01*
X113415000Y-111200000D02*
X113415000Y-115300000D01*
X107515000Y-109700000D02*
X107515000Y-108700000D01*
X107015000Y-109200000D02*
X108015000Y-109200000D01*
X101615000Y-107200000D02*
X101615000Y-103100000D01*
X101615000Y-103100000D02*
X104015000Y-103100000D01*
X106215000Y-103100000D02*
X108815000Y-103100000D01*
X111015000Y-103100000D02*
X113415000Y-103100000D01*
X113415000Y-103100000D02*
X113415000Y-107200000D01*
%TO.C,J4*%
X175725000Y-133130000D02*
X175725000Y-131800000D01*
X177055000Y-133130000D02*
X175725000Y-133130000D01*
X178325000Y-130470000D02*
X188545000Y-130470000D01*
X178325000Y-133130000D02*
X178325000Y-130470000D01*
X178325000Y-133130000D02*
X188545000Y-133130000D01*
X188545000Y-133130000D02*
X188545000Y-130470000D01*
%TO.C,C5*%
X158135000Y-67792164D02*
X158135000Y-68007836D01*
X157415000Y-67792164D02*
X157415000Y-68007836D01*
%TO.C,S5*%
X115100000Y-46950000D02*
X115100000Y-31750000D01*
X115100000Y-31750000D02*
X99900000Y-31750000D01*
X99900000Y-46950000D02*
X115100000Y-46950000D01*
X99900000Y-31750000D02*
X99900000Y-46950000D01*
%TO.C,S27*%
X133100000Y-86450000D02*
X133100000Y-71250000D01*
X133100000Y-71250000D02*
X117900000Y-71250000D01*
X117900000Y-86450000D02*
X133100000Y-86450000D01*
X117900000Y-71250000D02*
X117900000Y-86450000D01*
%TO.C,C14*%
X108507164Y-119090000D02*
X108722836Y-119090000D01*
X108507164Y-119810000D02*
X108722836Y-119810000D01*
%TO.C,S3*%
X79100000Y-54950000D02*
X79100000Y-39750000D01*
X79100000Y-39750000D02*
X63900000Y-39750000D01*
X63900000Y-54950000D02*
X79100000Y-54950000D01*
X63900000Y-39750000D02*
X63900000Y-54950000D01*
%TO.C,S19*%
X61100000Y-88950000D02*
X61100000Y-73750000D01*
X61100000Y-73750000D02*
X45900000Y-73750000D01*
X45900000Y-88950000D02*
X61100000Y-88950000D01*
X45900000Y-73750000D02*
X45900000Y-88950000D01*
%TO.C,R7*%
X110495000Y-119796359D02*
X110495000Y-120103641D01*
X109735000Y-119796359D02*
X109735000Y-120103641D01*
%TO.C,S28*%
X133100000Y-103450000D02*
X133100000Y-88250000D01*
X133100000Y-88250000D02*
X117900000Y-88250000D01*
X117900000Y-103450000D02*
X133100000Y-103450000D01*
X117900000Y-88250000D02*
X117900000Y-103450000D01*
%TO.C,S7*%
X151100000Y-55950000D02*
X151100000Y-40750000D01*
X151100000Y-40750000D02*
X135900000Y-40750000D01*
X135900000Y-55950000D02*
X151100000Y-55950000D01*
X135900000Y-40750000D02*
X135900000Y-55950000D01*
%TO.C,S30*%
X151100000Y-106950000D02*
X151100000Y-91750000D01*
X151100000Y-91750000D02*
X135900000Y-91750000D01*
X135900000Y-106950000D02*
X151100000Y-106950000D01*
X135900000Y-91750000D02*
X135900000Y-106950000D01*
%TO.C,S14*%
X133100000Y-69450000D02*
X133100000Y-54250000D01*
X133100000Y-54250000D02*
X117900000Y-54250000D01*
X117900000Y-69450000D02*
X133100000Y-69450000D01*
X117900000Y-54250000D02*
X117900000Y-69450000D01*
%TO.C,C9*%
X167712164Y-49035000D02*
X167927836Y-49035000D01*
X167712164Y-49755000D02*
X167927836Y-49755000D01*
%TO.C,S6*%
X133100000Y-52450000D02*
X133100000Y-37250000D01*
X133100000Y-37250000D02*
X117900000Y-37250000D01*
X117900000Y-52450000D02*
X133100000Y-52450000D01*
X117900000Y-37250000D02*
X117900000Y-52450000D01*
%TO.C,S15*%
X151100000Y-72950000D02*
X151100000Y-57750000D01*
X151100000Y-57750000D02*
X135900000Y-57750000D01*
X135900000Y-72950000D02*
X151100000Y-72950000D01*
X135900000Y-57750000D02*
X135900000Y-72950000D01*
%TO.C,S29*%
X151100000Y-89950000D02*
X151100000Y-74750000D01*
X151100000Y-74750000D02*
X135900000Y-74750000D01*
X135900000Y-89950000D02*
X151100000Y-89950000D01*
X135900000Y-74750000D02*
X135900000Y-89950000D01*
%TO.C,S22*%
X79100000Y-105950000D02*
X79100000Y-90750000D01*
X79100000Y-90750000D02*
X63900000Y-90750000D01*
X63900000Y-105950000D02*
X79100000Y-105950000D01*
X63900000Y-90750000D02*
X63900000Y-105950000D01*
%TO.C,S26*%
X115100000Y-97950000D02*
X115100000Y-82750000D01*
X115100000Y-82750000D02*
X99900000Y-82750000D01*
X99900000Y-97950000D02*
X115100000Y-97950000D01*
X99900000Y-82750000D02*
X99900000Y-97950000D01*
%TO.C,S23*%
X97100000Y-84950000D02*
X97100000Y-69750000D01*
X97100000Y-69750000D02*
X81900000Y-69750000D01*
X81900000Y-84950000D02*
X97100000Y-84950000D01*
X81900000Y-69750000D02*
X81900000Y-84950000D01*
%TO.C,R8*%
X105495000Y-120103641D02*
X105495000Y-119796359D01*
X104735000Y-120103641D02*
X104735000Y-119796359D01*
%TO.C,C1*%
X160665000Y-71882836D02*
X160665000Y-71667164D01*
X161385000Y-71882836D02*
X161385000Y-71667164D01*
%TO.C,S1*%
X43100000Y-54950000D02*
X43100000Y-39750000D01*
X43100000Y-39750000D02*
X27900000Y-39750000D01*
X27900000Y-54950000D02*
X43100000Y-54950000D01*
X27900000Y-39750000D02*
X27900000Y-54950000D01*
%TO.C,S13*%
X115100000Y-63950000D02*
X115100000Y-48750000D01*
X115100000Y-48750000D02*
X99900000Y-48750000D01*
X99900000Y-63950000D02*
X115100000Y-63950000D01*
X99900000Y-48750000D02*
X99900000Y-63950000D01*
%TO.C,S9*%
X43100000Y-71950000D02*
X43100000Y-56750000D01*
X43100000Y-56750000D02*
X27900000Y-56750000D01*
X27900000Y-71950000D02*
X43100000Y-71950000D01*
X27900000Y-56750000D02*
X27900000Y-71950000D01*
%TO.C,R13*%
X182458641Y-127920000D02*
X182151359Y-127920000D01*
X182458641Y-128680000D02*
X182151359Y-128680000D01*
%TO.C,S4*%
X97100000Y-50950000D02*
X97100000Y-35750000D01*
X97100000Y-35750000D02*
X81900000Y-35750000D01*
X81900000Y-50950000D02*
X97100000Y-50950000D01*
X81900000Y-35750000D02*
X81900000Y-50950000D01*
%TO.C,U2*%
X161440000Y-48457500D02*
X161440000Y-47657500D01*
X161440000Y-48457500D02*
X161440000Y-49257500D01*
X164560000Y-48457500D02*
X164560000Y-47657500D01*
X164560000Y-48457500D02*
X164560000Y-49257500D01*
X164840000Y-47397500D02*
X164510000Y-47157500D01*
X164840000Y-46917500D01*
X164840000Y-47397500D01*
G36*
X164840000Y-47397500D02*
G01*
X164510000Y-47157500D01*
X164840000Y-46917500D01*
X164840000Y-47397500D01*
G37*
%TO.C,R2*%
X171696359Y-74420000D02*
X172003641Y-74420000D01*
X171696359Y-75180000D02*
X172003641Y-75180000D01*
%TO.C,S10*%
X61100000Y-71950000D02*
X61100000Y-56750000D01*
X61100000Y-56750000D02*
X45900000Y-56750000D01*
X45900000Y-71950000D02*
X61100000Y-71950000D01*
X45900000Y-56750000D02*
X45900000Y-71950000D01*
%TO.C,R4*%
X160346359Y-40695000D02*
X160653641Y-40695000D01*
X160346359Y-41455000D02*
X160653641Y-41455000D01*
%TO.C,C17*%
X175957836Y-72660000D02*
X175742164Y-72660000D01*
X175957836Y-71940000D02*
X175742164Y-71940000D01*
%TO.C,F1*%
X167422064Y-43335000D02*
X166217936Y-43335000D01*
X167422064Y-45155000D02*
X166217936Y-45155000D01*
%TO.C,S11*%
X79100000Y-71950000D02*
X79100000Y-56750000D01*
X79100000Y-56750000D02*
X63900000Y-56750000D01*
X63900000Y-71950000D02*
X79100000Y-71950000D01*
X63900000Y-56750000D02*
X63900000Y-71950000D01*
%TO.C,C6*%
X170559420Y-57540000D02*
X170840580Y-57540000D01*
X170559420Y-58560000D02*
X170840580Y-58560000D01*
%TO.C,C2*%
X172610000Y-67227836D02*
X172610000Y-67012164D01*
X171890000Y-67227836D02*
X171890000Y-67012164D01*
%TO.C,S17*%
X43100000Y-88950000D02*
X43100000Y-73750000D01*
X43100000Y-73750000D02*
X27900000Y-73750000D01*
X27900000Y-88950000D02*
X43100000Y-88950000D01*
X27900000Y-73750000D02*
X27900000Y-88950000D01*
%TO.C,C8*%
X168242164Y-54535000D02*
X168457836Y-54535000D01*
X168242164Y-55255000D02*
X168457836Y-55255000D01*
%TO.C,S24*%
X97100000Y-101950000D02*
X97100000Y-86750000D01*
X97100000Y-86750000D02*
X81900000Y-86750000D01*
X81900000Y-101950000D02*
X97100000Y-101950000D01*
X81900000Y-86750000D02*
X81900000Y-101950000D01*
%TO.C,S31*%
X172188297Y-146643934D02*
X161440274Y-135895911D01*
X161440274Y-157391957D02*
X172188297Y-146643934D01*
X161440274Y-135895911D02*
X150692251Y-146643934D01*
X150692251Y-146643934D02*
X161440274Y-157391957D01*
%TO.C,R14*%
X179968641Y-127920000D02*
X179661359Y-127920000D01*
X179968641Y-128680000D02*
X179661359Y-128680000D01*
%TO.C,C3*%
X171332836Y-59065000D02*
X171117164Y-59065000D01*
X171332836Y-59785000D02*
X171117164Y-59785000D01*
%TO.C,C10*%
X162392164Y-72740000D02*
X162607836Y-72740000D01*
X162392164Y-73460000D02*
X162607836Y-73460000D01*
%TO.C,C13*%
X166912164Y-71685000D02*
X167127836Y-71685000D01*
X166912164Y-70965000D02*
X167127836Y-70965000D01*
%TO.C,R3*%
X165478641Y-40695000D02*
X165171359Y-40695000D01*
X165478641Y-41455000D02*
X165171359Y-41455000D01*
%TO.C,S2*%
X61100000Y-54950000D02*
X61100000Y-39750000D01*
X61100000Y-39750000D02*
X45900000Y-39750000D01*
X45900000Y-54950000D02*
X61100000Y-54950000D01*
X45900000Y-39750000D02*
X45900000Y-54950000D01*
%TO.C,S20*%
X61100000Y-105950000D02*
X61100000Y-90750000D01*
X61100000Y-90750000D02*
X45900000Y-90750000D01*
X45900000Y-105950000D02*
X61100000Y-105950000D01*
X45900000Y-90750000D02*
X45900000Y-105950000D01*
%TO.C,S8*%
X134821201Y-120375989D02*
X120139129Y-116441939D01*
X130887151Y-135058061D02*
X134821201Y-120375989D01*
X120139129Y-116441939D02*
X116205079Y-131124011D01*
X116205079Y-131124011D02*
X130887151Y-135058061D01*
%TO.C,C15*%
X106507164Y-119090000D02*
X106722836Y-119090000D01*
X106507164Y-119810000D02*
X106722836Y-119810000D01*
%TO.C,J1*%
X167670000Y-35675000D02*
X167670000Y-37375000D01*
X158330000Y-35675000D02*
X158330000Y-37375000D01*
%TO.C,C12*%
X173010000Y-61559420D02*
X173010000Y-61840580D01*
X171990000Y-61559420D02*
X171990000Y-61840580D01*
%TO.C,S25*%
X115100000Y-80950000D02*
X115100000Y-65750000D01*
X115100000Y-65750000D02*
X99900000Y-65750000D01*
X99900000Y-80950000D02*
X115100000Y-80950000D01*
X99900000Y-65750000D02*
X99900000Y-80950000D01*
%TO.C,S12*%
X97100000Y-67950000D02*
X97100000Y-52750000D01*
X97100000Y-52750000D02*
X81900000Y-52750000D01*
X81900000Y-67950000D02*
X97100000Y-67950000D01*
X81900000Y-52750000D02*
X81900000Y-67950000D01*
%TO.C,C7*%
X171957836Y-74060000D02*
X171742164Y-74060000D01*
X171957836Y-73340000D02*
X171742164Y-73340000D01*
%TO.C,C4*%
X161557836Y-57235000D02*
X161342164Y-57235000D01*
X161557836Y-56515000D02*
X161342164Y-56515000D01*
%TO.C,R9*%
X163295000Y-82853641D02*
X163295000Y-82546359D01*
X164055000Y-82853641D02*
X164055000Y-82546359D01*
%TO.C,S21*%
X79100000Y-88950000D02*
X79100000Y-73750000D01*
X79100000Y-73750000D02*
X63900000Y-73750000D01*
X63900000Y-88950000D02*
X79100000Y-88950000D01*
X63900000Y-73750000D02*
X63900000Y-88950000D01*
%TO.C,S16*%
X155144933Y-131218207D02*
X141981347Y-123618207D01*
X147544933Y-144381793D02*
X155144933Y-131218207D01*
X141981347Y-123618207D02*
X134381347Y-136781793D01*
X134381347Y-136781793D02*
X147544933Y-144381793D01*
%TO.C,Y1*%
X161500000Y-77050000D02*
X165500000Y-77050000D01*
X161500000Y-73750000D02*
X161500000Y-77050000D01*
%TO.C,S18*%
X43100000Y-105950000D02*
X43100000Y-90750000D01*
X43100000Y-90750000D02*
X27900000Y-90750000D01*
X27900000Y-105950000D02*
X43100000Y-105950000D01*
X27900000Y-90750000D02*
X27900000Y-105950000D01*
%TD*%
M02*
