%TF.GenerationSoftware,KiCad,Pcbnew,8.0.5*%
%TF.CreationDate,2024-10-02T17:20:21+02:00*%
%TF.ProjectId,vaucasy-pcb,76617563-6173-4792-9d70-63622e6b6963,rev?*%
%TF.SameCoordinates,Original*%
%TF.FileFunction,Legend,Bot*%
%TF.FilePolarity,Positive*%
%FSLAX46Y46*%
G04 Gerber Fmt 4.6, Leading zero omitted, Abs format (unit mm)*
G04 Created by KiCad (PCBNEW 8.0.5) date 2024-10-02 17:20:21*
%MOMM*%
%LPD*%
G01*
G04 APERTURE LIST*
%ADD10C,0.100000*%
%ADD11C,0.150000*%
%ADD12C,0.120000*%
G04 APERTURE END LIST*
D10*
X156425000Y-77675000D02*
X173425000Y-77675000D01*
X173425000Y-40675000D01*
X156425000Y-40675000D01*
X156425000Y-77675000D01*
D11*
X155284819Y-83861666D02*
X155999104Y-83861666D01*
X155999104Y-83861666D02*
X156141961Y-83814047D01*
X156141961Y-83814047D02*
X156237200Y-83718809D01*
X156237200Y-83718809D02*
X156284819Y-83575952D01*
X156284819Y-83575952D02*
X156284819Y-83480714D01*
X155284819Y-84814047D02*
X155284819Y-84337857D01*
X155284819Y-84337857D02*
X155761009Y-84290238D01*
X155761009Y-84290238D02*
X155713390Y-84337857D01*
X155713390Y-84337857D02*
X155665771Y-84433095D01*
X155665771Y-84433095D02*
X155665771Y-84671190D01*
X155665771Y-84671190D02*
X155713390Y-84766428D01*
X155713390Y-84766428D02*
X155761009Y-84814047D01*
X155761009Y-84814047D02*
X155856247Y-84861666D01*
X155856247Y-84861666D02*
X156094342Y-84861666D01*
X156094342Y-84861666D02*
X156189580Y-84814047D01*
X156189580Y-84814047D02*
X156237200Y-84766428D01*
X156237200Y-84766428D02*
X156284819Y-84671190D01*
X156284819Y-84671190D02*
X156284819Y-84433095D01*
X156284819Y-84433095D02*
X156237200Y-84337857D01*
X156237200Y-84337857D02*
X156189580Y-84290238D01*
X199908332Y-71857200D02*
X199765475Y-71904819D01*
X199765475Y-71904819D02*
X199527380Y-71904819D01*
X199527380Y-71904819D02*
X199432142Y-71857200D01*
X199432142Y-71857200D02*
X199384523Y-71809580D01*
X199384523Y-71809580D02*
X199336904Y-71714342D01*
X199336904Y-71714342D02*
X199336904Y-71619104D01*
X199336904Y-71619104D02*
X199384523Y-71523866D01*
X199384523Y-71523866D02*
X199432142Y-71476247D01*
X199432142Y-71476247D02*
X199527380Y-71428628D01*
X199527380Y-71428628D02*
X199717856Y-71381009D01*
X199717856Y-71381009D02*
X199813094Y-71333390D01*
X199813094Y-71333390D02*
X199860713Y-71285771D01*
X199860713Y-71285771D02*
X199908332Y-71190533D01*
X199908332Y-71190533D02*
X199908332Y-71095295D01*
X199908332Y-71095295D02*
X199860713Y-71000057D01*
X199860713Y-71000057D02*
X199813094Y-70952438D01*
X199813094Y-70952438D02*
X199717856Y-70904819D01*
X199717856Y-70904819D02*
X199479761Y-70904819D01*
X199479761Y-70904819D02*
X199336904Y-70952438D01*
X199003570Y-70904819D02*
X198765475Y-71904819D01*
X198765475Y-71904819D02*
X198574999Y-71190533D01*
X198574999Y-71190533D02*
X198384523Y-71904819D01*
X198384523Y-71904819D02*
X198146428Y-70904819D01*
X197241666Y-71904819D02*
X197813094Y-71904819D01*
X197527380Y-71904819D02*
X197527380Y-70904819D01*
X197527380Y-70904819D02*
X197622618Y-71047676D01*
X197622618Y-71047676D02*
X197717856Y-71142914D01*
X197717856Y-71142914D02*
X197813094Y-71190533D01*
X112791666Y-101234819D02*
X113124999Y-100758628D01*
X113363094Y-101234819D02*
X113363094Y-100234819D01*
X113363094Y-100234819D02*
X112982142Y-100234819D01*
X112982142Y-100234819D02*
X112886904Y-100282438D01*
X112886904Y-100282438D02*
X112839285Y-100330057D01*
X112839285Y-100330057D02*
X112791666Y-100425295D01*
X112791666Y-100425295D02*
X112791666Y-100568152D01*
X112791666Y-100568152D02*
X112839285Y-100663390D01*
X112839285Y-100663390D02*
X112886904Y-100711009D01*
X112886904Y-100711009D02*
X112982142Y-100758628D01*
X112982142Y-100758628D02*
X113363094Y-100758628D01*
X111934523Y-100234819D02*
X112124999Y-100234819D01*
X112124999Y-100234819D02*
X112220237Y-100282438D01*
X112220237Y-100282438D02*
X112267856Y-100330057D01*
X112267856Y-100330057D02*
X112363094Y-100472914D01*
X112363094Y-100472914D02*
X112410713Y-100663390D01*
X112410713Y-100663390D02*
X112410713Y-101044342D01*
X112410713Y-101044342D02*
X112363094Y-101139580D01*
X112363094Y-101139580D02*
X112315475Y-101187200D01*
X112315475Y-101187200D02*
X112220237Y-101234819D01*
X112220237Y-101234819D02*
X112029761Y-101234819D01*
X112029761Y-101234819D02*
X111934523Y-101187200D01*
X111934523Y-101187200D02*
X111886904Y-101139580D01*
X111886904Y-101139580D02*
X111839285Y-101044342D01*
X111839285Y-101044342D02*
X111839285Y-100806247D01*
X111839285Y-100806247D02*
X111886904Y-100711009D01*
X111886904Y-100711009D02*
X111934523Y-100663390D01*
X111934523Y-100663390D02*
X112029761Y-100615771D01*
X112029761Y-100615771D02*
X112220237Y-100615771D01*
X112220237Y-100615771D02*
X112315475Y-100663390D01*
X112315475Y-100663390D02*
X112363094Y-100711009D01*
X112363094Y-100711009D02*
X112410713Y-100806247D01*
X195241666Y-75404819D02*
X195574999Y-74928628D01*
X195813094Y-75404819D02*
X195813094Y-74404819D01*
X195813094Y-74404819D02*
X195432142Y-74404819D01*
X195432142Y-74404819D02*
X195336904Y-74452438D01*
X195336904Y-74452438D02*
X195289285Y-74500057D01*
X195289285Y-74500057D02*
X195241666Y-74595295D01*
X195241666Y-74595295D02*
X195241666Y-74738152D01*
X195241666Y-74738152D02*
X195289285Y-74833390D01*
X195289285Y-74833390D02*
X195336904Y-74881009D01*
X195336904Y-74881009D02*
X195432142Y-74928628D01*
X195432142Y-74928628D02*
X195813094Y-74928628D01*
X194289285Y-75404819D02*
X194860713Y-75404819D01*
X194574999Y-75404819D02*
X194574999Y-74404819D01*
X194574999Y-74404819D02*
X194670237Y-74547676D01*
X194670237Y-74547676D02*
X194765475Y-74642914D01*
X194765475Y-74642914D02*
X194860713Y-74690533D01*
X112314580Y-103307142D02*
X112362200Y-103259523D01*
X112362200Y-103259523D02*
X112409819Y-103116666D01*
X112409819Y-103116666D02*
X112409819Y-103021428D01*
X112409819Y-103021428D02*
X112362200Y-102878571D01*
X112362200Y-102878571D02*
X112266961Y-102783333D01*
X112266961Y-102783333D02*
X112171723Y-102735714D01*
X112171723Y-102735714D02*
X111981247Y-102688095D01*
X111981247Y-102688095D02*
X111838390Y-102688095D01*
X111838390Y-102688095D02*
X111647914Y-102735714D01*
X111647914Y-102735714D02*
X111552676Y-102783333D01*
X111552676Y-102783333D02*
X111457438Y-102878571D01*
X111457438Y-102878571D02*
X111409819Y-103021428D01*
X111409819Y-103021428D02*
X111409819Y-103116666D01*
X111409819Y-103116666D02*
X111457438Y-103259523D01*
X111457438Y-103259523D02*
X111505057Y-103307142D01*
X112409819Y-104259523D02*
X112409819Y-103688095D01*
X112409819Y-103973809D02*
X111409819Y-103973809D01*
X111409819Y-103973809D02*
X111552676Y-103878571D01*
X111552676Y-103878571D02*
X111647914Y-103783333D01*
X111647914Y-103783333D02*
X111695533Y-103688095D01*
X111409819Y-105116666D02*
X111409819Y-104926190D01*
X111409819Y-104926190D02*
X111457438Y-104830952D01*
X111457438Y-104830952D02*
X111505057Y-104783333D01*
X111505057Y-104783333D02*
X111647914Y-104688095D01*
X111647914Y-104688095D02*
X111838390Y-104640476D01*
X111838390Y-104640476D02*
X112219342Y-104640476D01*
X112219342Y-104640476D02*
X112314580Y-104688095D01*
X112314580Y-104688095D02*
X112362200Y-104735714D01*
X112362200Y-104735714D02*
X112409819Y-104830952D01*
X112409819Y-104830952D02*
X112409819Y-105021428D01*
X112409819Y-105021428D02*
X112362200Y-105116666D01*
X112362200Y-105116666D02*
X112314580Y-105164285D01*
X112314580Y-105164285D02*
X112219342Y-105211904D01*
X112219342Y-105211904D02*
X111981247Y-105211904D01*
X111981247Y-105211904D02*
X111886009Y-105164285D01*
X111886009Y-105164285D02*
X111838390Y-105116666D01*
X111838390Y-105116666D02*
X111790771Y-105021428D01*
X111790771Y-105021428D02*
X111790771Y-104830952D01*
X111790771Y-104830952D02*
X111838390Y-104735714D01*
X111838390Y-104735714D02*
X111886009Y-104688095D01*
X111886009Y-104688095D02*
X111981247Y-104640476D01*
X195854819Y-61401666D02*
X196569104Y-61401666D01*
X196569104Y-61401666D02*
X196711961Y-61354047D01*
X196711961Y-61354047D02*
X196807200Y-61258809D01*
X196807200Y-61258809D02*
X196854819Y-61115952D01*
X196854819Y-61115952D02*
X196854819Y-61020714D01*
X195854819Y-62306428D02*
X195854819Y-62115952D01*
X195854819Y-62115952D02*
X195902438Y-62020714D01*
X195902438Y-62020714D02*
X195950057Y-61973095D01*
X195950057Y-61973095D02*
X196092914Y-61877857D01*
X196092914Y-61877857D02*
X196283390Y-61830238D01*
X196283390Y-61830238D02*
X196664342Y-61830238D01*
X196664342Y-61830238D02*
X196759580Y-61877857D01*
X196759580Y-61877857D02*
X196807200Y-61925476D01*
X196807200Y-61925476D02*
X196854819Y-62020714D01*
X196854819Y-62020714D02*
X196854819Y-62211190D01*
X196854819Y-62211190D02*
X196807200Y-62306428D01*
X196807200Y-62306428D02*
X196759580Y-62354047D01*
X196759580Y-62354047D02*
X196664342Y-62401666D01*
X196664342Y-62401666D02*
X196426247Y-62401666D01*
X196426247Y-62401666D02*
X196331009Y-62354047D01*
X196331009Y-62354047D02*
X196283390Y-62306428D01*
X196283390Y-62306428D02*
X196235771Y-62211190D01*
X196235771Y-62211190D02*
X196235771Y-62020714D01*
X196235771Y-62020714D02*
X196283390Y-61925476D01*
X196283390Y-61925476D02*
X196331009Y-61877857D01*
X196331009Y-61877857D02*
X196426247Y-61830238D01*
D12*
%TO.C,J5*%
X172630000Y-87115000D02*
X172630000Y-78485000D01*
X171660000Y-87525000D02*
X171660000Y-87115000D01*
X170940000Y-87525000D02*
X170940000Y-87115000D01*
X170030000Y-87115000D02*
X170030000Y-78485000D01*
X169120000Y-87525000D02*
X169120000Y-87115000D01*
X168400000Y-87525000D02*
X168400000Y-87115000D01*
X167490000Y-87115000D02*
X167490000Y-78485000D01*
X166580000Y-87525000D02*
X166580000Y-87115000D01*
X165860000Y-87525000D02*
X165860000Y-87115000D01*
X164950000Y-87115000D02*
X164950000Y-78485000D01*
X164040000Y-87525000D02*
X164040000Y-87115000D01*
X163320000Y-87525000D02*
X163320000Y-87115000D01*
X162410000Y-87115000D02*
X162410000Y-78485000D01*
X161500000Y-87525000D02*
X161500000Y-87115000D01*
X160780000Y-87525000D02*
X160780000Y-87115000D01*
X159870000Y-87115000D02*
X159870000Y-78485000D01*
X159751900Y-87115000D02*
X159751900Y-78485000D01*
X159633805Y-87115000D02*
X159633805Y-78485000D01*
X159515710Y-87115000D02*
X159515710Y-78485000D01*
X159397615Y-87115000D02*
X159397615Y-78485000D01*
X159279520Y-87115000D02*
X159279520Y-78485000D01*
X159161425Y-87115000D02*
X159161425Y-78485000D01*
X159043330Y-87115000D02*
X159043330Y-78485000D01*
X158960000Y-87465000D02*
X158960000Y-87115000D01*
X158925235Y-87115000D02*
X158925235Y-78485000D01*
X158807140Y-87115000D02*
X158807140Y-78485000D01*
X158689045Y-87115000D02*
X158689045Y-78485000D01*
X158570950Y-87115000D02*
X158570950Y-78485000D01*
X158452855Y-87115000D02*
X158452855Y-78485000D01*
X158334760Y-87115000D02*
X158334760Y-78485000D01*
X158240000Y-87465000D02*
X158240000Y-87115000D01*
X158216665Y-87115000D02*
X158216665Y-78485000D01*
X158098570Y-87115000D02*
X158098570Y-78485000D01*
X157980475Y-87115000D02*
X157980475Y-78485000D01*
X157862380Y-87115000D02*
X157862380Y-78485000D01*
X157744285Y-87115000D02*
X157744285Y-78485000D01*
X157626190Y-87115000D02*
X157626190Y-78485000D01*
X157508095Y-87115000D02*
X157508095Y-78485000D01*
X157390000Y-87115000D02*
X157390000Y-78485000D01*
X172630000Y-78485000D02*
X157270000Y-78485000D01*
X157270000Y-87115000D02*
X157270000Y-78485000D01*
X172630000Y-87115000D02*
X157270000Y-87115000D01*
X157270000Y-89685000D02*
X157270000Y-88575000D01*
X158600000Y-89685000D02*
X157270000Y-89685000D01*
%TO.C,S5*%
X115146000Y-37996000D02*
X111060000Y-37996000D01*
X115146000Y-37054000D02*
X115146000Y-37996000D01*
X114783000Y-37054000D02*
X115146000Y-37054000D01*
X114781000Y-33741000D02*
X114866000Y-34168000D01*
X114592000Y-33458000D02*
X114781000Y-33741000D01*
X114309000Y-33269000D02*
X114592000Y-33458000D01*
X113982000Y-33204000D02*
X114309000Y-33269000D01*
X111182000Y-33204000D02*
X113982000Y-33204000D01*
X111060000Y-37996000D02*
X110750000Y-37937000D01*
X110750000Y-37937000D02*
X110476000Y-37767000D01*
X110744000Y-33117000D02*
X111182000Y-33204000D01*
X110476000Y-37767000D02*
X110283000Y-37509000D01*
X110377000Y-32873000D02*
X110744000Y-33117000D01*
X110283000Y-37509000D02*
X110201000Y-37211000D01*
X110201000Y-37211000D02*
X110047000Y-36653000D01*
X110133000Y-32506000D02*
X110377000Y-32873000D01*
X110047000Y-36653000D02*
X109709000Y-36200000D01*
X110046000Y-32068000D02*
X110133000Y-32506000D01*
X110046000Y-31846000D02*
X110046000Y-32068000D01*
X109709000Y-36200000D02*
X109230000Y-35901000D01*
X109513000Y-31313000D02*
X110046000Y-31846000D01*
X109230000Y-35901000D02*
X108668000Y-35796000D01*
X109171000Y-31084000D02*
X109513000Y-31313000D01*
X108768000Y-31004000D02*
X109171000Y-31084000D01*
X108668000Y-35796000D02*
X106021000Y-35796000D01*
X106021000Y-35796000D02*
X105000000Y-34775000D01*
X106021000Y-31004000D02*
X108768000Y-31004000D01*
X105084000Y-31941000D02*
X106021000Y-31004000D01*
%TO.C,S27*%
X133146000Y-77496000D02*
X129060000Y-77496000D01*
X133146000Y-76554000D02*
X133146000Y-77496000D01*
X132783000Y-76554000D02*
X133146000Y-76554000D01*
X132781000Y-73241000D02*
X132866000Y-73668000D01*
X132592000Y-72958000D02*
X132781000Y-73241000D01*
X132309000Y-72769000D02*
X132592000Y-72958000D01*
X131982000Y-72704000D02*
X132309000Y-72769000D01*
X129182000Y-72704000D02*
X131982000Y-72704000D01*
X129060000Y-77496000D02*
X128750000Y-77437000D01*
X128750000Y-77437000D02*
X128476000Y-77267000D01*
X128744000Y-72617000D02*
X129182000Y-72704000D01*
X128476000Y-77267000D02*
X128283000Y-77009000D01*
X128377000Y-72373000D02*
X128744000Y-72617000D01*
X128283000Y-77009000D02*
X128201000Y-76711000D01*
X128201000Y-76711000D02*
X128047000Y-76153000D01*
X128133000Y-72006000D02*
X128377000Y-72373000D01*
X128047000Y-76153000D02*
X127709000Y-75700000D01*
X128046000Y-71568000D02*
X128133000Y-72006000D01*
X128046000Y-71346000D02*
X128046000Y-71568000D01*
X127709000Y-75700000D02*
X127230000Y-75401000D01*
X127513000Y-70813000D02*
X128046000Y-71346000D01*
X127230000Y-75401000D02*
X126668000Y-75296000D01*
X127171000Y-70584000D02*
X127513000Y-70813000D01*
X126768000Y-70504000D02*
X127171000Y-70584000D01*
X126668000Y-75296000D02*
X124021000Y-75296000D01*
X124021000Y-75296000D02*
X123000000Y-74275000D01*
X124021000Y-70504000D02*
X126768000Y-70504000D01*
X123084000Y-71441000D02*
X124021000Y-70504000D01*
%TO.C,S3*%
X79146000Y-45996000D02*
X75060000Y-45996000D01*
X79146000Y-45054000D02*
X79146000Y-45996000D01*
X78783000Y-45054000D02*
X79146000Y-45054000D01*
X78781000Y-41741000D02*
X78866000Y-42168000D01*
X78592000Y-41458000D02*
X78781000Y-41741000D01*
X78309000Y-41269000D02*
X78592000Y-41458000D01*
X77982000Y-41204000D02*
X78309000Y-41269000D01*
X75182000Y-41204000D02*
X77982000Y-41204000D01*
X75060000Y-45996000D02*
X74750000Y-45937000D01*
X74750000Y-45937000D02*
X74476000Y-45767000D01*
X74744000Y-41117000D02*
X75182000Y-41204000D01*
X74476000Y-45767000D02*
X74283000Y-45509000D01*
X74377000Y-40873000D02*
X74744000Y-41117000D01*
X74283000Y-45509000D02*
X74201000Y-45211000D01*
X74201000Y-45211000D02*
X74047000Y-44653000D01*
X74133000Y-40506000D02*
X74377000Y-40873000D01*
X74047000Y-44653000D02*
X73709000Y-44200000D01*
X74046000Y-40068000D02*
X74133000Y-40506000D01*
X74046000Y-39846000D02*
X74046000Y-40068000D01*
X73709000Y-44200000D02*
X73230000Y-43901000D01*
X73513000Y-39313000D02*
X74046000Y-39846000D01*
X73230000Y-43901000D02*
X72668000Y-43796000D01*
X73171000Y-39084000D02*
X73513000Y-39313000D01*
X72768000Y-39004000D02*
X73171000Y-39084000D01*
X72668000Y-43796000D02*
X70021000Y-43796000D01*
X70021000Y-43796000D02*
X69000000Y-42775000D01*
X70021000Y-39004000D02*
X72768000Y-39004000D01*
X69084000Y-39941000D02*
X70021000Y-39004000D01*
%TO.C,S19*%
X61146000Y-79996000D02*
X57060000Y-79996000D01*
X61146000Y-79054000D02*
X61146000Y-79996000D01*
X60783000Y-79054000D02*
X61146000Y-79054000D01*
X60781000Y-75741000D02*
X60866000Y-76168000D01*
X60592000Y-75458000D02*
X60781000Y-75741000D01*
X60309000Y-75269000D02*
X60592000Y-75458000D01*
X59982000Y-75204000D02*
X60309000Y-75269000D01*
X57182000Y-75204000D02*
X59982000Y-75204000D01*
X57060000Y-79996000D02*
X56750000Y-79937000D01*
X56750000Y-79937000D02*
X56476000Y-79767000D01*
X56744000Y-75117000D02*
X57182000Y-75204000D01*
X56476000Y-79767000D02*
X56283000Y-79509000D01*
X56377000Y-74873000D02*
X56744000Y-75117000D01*
X56283000Y-79509000D02*
X56201000Y-79211000D01*
X56201000Y-79211000D02*
X56047000Y-78653000D01*
X56133000Y-74506000D02*
X56377000Y-74873000D01*
X56047000Y-78653000D02*
X55709000Y-78200000D01*
X56046000Y-74068000D02*
X56133000Y-74506000D01*
X56046000Y-73846000D02*
X56046000Y-74068000D01*
X55709000Y-78200000D02*
X55230000Y-77901000D01*
X55513000Y-73313000D02*
X56046000Y-73846000D01*
X55230000Y-77901000D02*
X54668000Y-77796000D01*
X55171000Y-73084000D02*
X55513000Y-73313000D01*
X54768000Y-73004000D02*
X55171000Y-73084000D01*
X54668000Y-77796000D02*
X52021000Y-77796000D01*
X52021000Y-77796000D02*
X51000000Y-76775000D01*
X52021000Y-73004000D02*
X54768000Y-73004000D01*
X51084000Y-73941000D02*
X52021000Y-73004000D01*
%TO.C,S28*%
X133146000Y-94496000D02*
X129060000Y-94496000D01*
X133146000Y-93554000D02*
X133146000Y-94496000D01*
X132783000Y-93554000D02*
X133146000Y-93554000D01*
X132781000Y-90241000D02*
X132866000Y-90668000D01*
X132592000Y-89958000D02*
X132781000Y-90241000D01*
X132309000Y-89769000D02*
X132592000Y-89958000D01*
X131982000Y-89704000D02*
X132309000Y-89769000D01*
X129182000Y-89704000D02*
X131982000Y-89704000D01*
X129060000Y-94496000D02*
X128750000Y-94437000D01*
X128750000Y-94437000D02*
X128476000Y-94267000D01*
X128744000Y-89617000D02*
X129182000Y-89704000D01*
X128476000Y-94267000D02*
X128283000Y-94009000D01*
X128377000Y-89373000D02*
X128744000Y-89617000D01*
X128283000Y-94009000D02*
X128201000Y-93711000D01*
X128201000Y-93711000D02*
X128047000Y-93153000D01*
X128133000Y-89006000D02*
X128377000Y-89373000D01*
X128047000Y-93153000D02*
X127709000Y-92700000D01*
X128046000Y-88568000D02*
X128133000Y-89006000D01*
X128046000Y-88346000D02*
X128046000Y-88568000D01*
X127709000Y-92700000D02*
X127230000Y-92401000D01*
X127513000Y-87813000D02*
X128046000Y-88346000D01*
X127230000Y-92401000D02*
X126668000Y-92296000D01*
X127171000Y-87584000D02*
X127513000Y-87813000D01*
X126768000Y-87504000D02*
X127171000Y-87584000D01*
X126668000Y-92296000D02*
X124021000Y-92296000D01*
X124021000Y-92296000D02*
X123000000Y-91275000D01*
X124021000Y-87504000D02*
X126768000Y-87504000D01*
X123084000Y-88441000D02*
X124021000Y-87504000D01*
%TO.C,S7*%
X151146000Y-46996000D02*
X147060000Y-46996000D01*
X151146000Y-46054000D02*
X151146000Y-46996000D01*
X150783000Y-46054000D02*
X151146000Y-46054000D01*
X150781000Y-42741000D02*
X150866000Y-43168000D01*
X150592000Y-42458000D02*
X150781000Y-42741000D01*
X150309000Y-42269000D02*
X150592000Y-42458000D01*
X149982000Y-42204000D02*
X150309000Y-42269000D01*
X147182000Y-42204000D02*
X149982000Y-42204000D01*
X147060000Y-46996000D02*
X146750000Y-46937000D01*
X146750000Y-46937000D02*
X146476000Y-46767000D01*
X146744000Y-42117000D02*
X147182000Y-42204000D01*
X146476000Y-46767000D02*
X146283000Y-46509000D01*
X146377000Y-41873000D02*
X146744000Y-42117000D01*
X146283000Y-46509000D02*
X146201000Y-46211000D01*
X146201000Y-46211000D02*
X146047000Y-45653000D01*
X146133000Y-41506000D02*
X146377000Y-41873000D01*
X146047000Y-45653000D02*
X145709000Y-45200000D01*
X146046000Y-41068000D02*
X146133000Y-41506000D01*
X146046000Y-40846000D02*
X146046000Y-41068000D01*
X145709000Y-45200000D02*
X145230000Y-44901000D01*
X145513000Y-40313000D02*
X146046000Y-40846000D01*
X145230000Y-44901000D02*
X144668000Y-44796000D01*
X145171000Y-40084000D02*
X145513000Y-40313000D01*
X144768000Y-40004000D02*
X145171000Y-40084000D01*
X144668000Y-44796000D02*
X142021000Y-44796000D01*
X142021000Y-44796000D02*
X141000000Y-43775000D01*
X142021000Y-40004000D02*
X144768000Y-40004000D01*
X141084000Y-40941000D02*
X142021000Y-40004000D01*
%TO.C,S30*%
X151146000Y-97996000D02*
X147060000Y-97996000D01*
X151146000Y-97054000D02*
X151146000Y-97996000D01*
X150783000Y-97054000D02*
X151146000Y-97054000D01*
X150781000Y-93741000D02*
X150866000Y-94168000D01*
X150592000Y-93458000D02*
X150781000Y-93741000D01*
X150309000Y-93269000D02*
X150592000Y-93458000D01*
X149982000Y-93204000D02*
X150309000Y-93269000D01*
X147182000Y-93204000D02*
X149982000Y-93204000D01*
X147060000Y-97996000D02*
X146750000Y-97937000D01*
X146750000Y-97937000D02*
X146476000Y-97767000D01*
X146744000Y-93117000D02*
X147182000Y-93204000D01*
X146476000Y-97767000D02*
X146283000Y-97509000D01*
X146377000Y-92873000D02*
X146744000Y-93117000D01*
X146283000Y-97509000D02*
X146201000Y-97211000D01*
X146201000Y-97211000D02*
X146047000Y-96653000D01*
X146133000Y-92506000D02*
X146377000Y-92873000D01*
X146047000Y-96653000D02*
X145709000Y-96200000D01*
X146046000Y-92068000D02*
X146133000Y-92506000D01*
X146046000Y-91846000D02*
X146046000Y-92068000D01*
X145709000Y-96200000D02*
X145230000Y-95901000D01*
X145513000Y-91313000D02*
X146046000Y-91846000D01*
X145230000Y-95901000D02*
X144668000Y-95796000D01*
X145171000Y-91084000D02*
X145513000Y-91313000D01*
X144768000Y-91004000D02*
X145171000Y-91084000D01*
X144668000Y-95796000D02*
X142021000Y-95796000D01*
X142021000Y-95796000D02*
X141000000Y-94775000D01*
X142021000Y-91004000D02*
X144768000Y-91004000D01*
X141084000Y-91941000D02*
X142021000Y-91004000D01*
%TO.C,S14*%
X133146000Y-60496000D02*
X129060000Y-60496000D01*
X133146000Y-59554000D02*
X133146000Y-60496000D01*
X132783000Y-59554000D02*
X133146000Y-59554000D01*
X132781000Y-56241000D02*
X132866000Y-56668000D01*
X132592000Y-55958000D02*
X132781000Y-56241000D01*
X132309000Y-55769000D02*
X132592000Y-55958000D01*
X131982000Y-55704000D02*
X132309000Y-55769000D01*
X129182000Y-55704000D02*
X131982000Y-55704000D01*
X129060000Y-60496000D02*
X128750000Y-60437000D01*
X128750000Y-60437000D02*
X128476000Y-60267000D01*
X128744000Y-55617000D02*
X129182000Y-55704000D01*
X128476000Y-60267000D02*
X128283000Y-60009000D01*
X128377000Y-55373000D02*
X128744000Y-55617000D01*
X128283000Y-60009000D02*
X128201000Y-59711000D01*
X128201000Y-59711000D02*
X128047000Y-59153000D01*
X128133000Y-55006000D02*
X128377000Y-55373000D01*
X128047000Y-59153000D02*
X127709000Y-58700000D01*
X128046000Y-54568000D02*
X128133000Y-55006000D01*
X128046000Y-54346000D02*
X128046000Y-54568000D01*
X127709000Y-58700000D02*
X127230000Y-58401000D01*
X127513000Y-53813000D02*
X128046000Y-54346000D01*
X127230000Y-58401000D02*
X126668000Y-58296000D01*
X127171000Y-53584000D02*
X127513000Y-53813000D01*
X126768000Y-53504000D02*
X127171000Y-53584000D01*
X126668000Y-58296000D02*
X124021000Y-58296000D01*
X124021000Y-58296000D02*
X123000000Y-57275000D01*
X124021000Y-53504000D02*
X126768000Y-53504000D01*
X123084000Y-54441000D02*
X124021000Y-53504000D01*
%TO.C,S6*%
X133146000Y-43496000D02*
X129060000Y-43496000D01*
X133146000Y-42554000D02*
X133146000Y-43496000D01*
X132783000Y-42554000D02*
X133146000Y-42554000D01*
X132781000Y-39241000D02*
X132866000Y-39668000D01*
X132592000Y-38958000D02*
X132781000Y-39241000D01*
X132309000Y-38769000D02*
X132592000Y-38958000D01*
X131982000Y-38704000D02*
X132309000Y-38769000D01*
X129182000Y-38704000D02*
X131982000Y-38704000D01*
X129060000Y-43496000D02*
X128750000Y-43437000D01*
X128750000Y-43437000D02*
X128476000Y-43267000D01*
X128744000Y-38617000D02*
X129182000Y-38704000D01*
X128476000Y-43267000D02*
X128283000Y-43009000D01*
X128377000Y-38373000D02*
X128744000Y-38617000D01*
X128283000Y-43009000D02*
X128201000Y-42711000D01*
X128201000Y-42711000D02*
X128047000Y-42153000D01*
X128133000Y-38006000D02*
X128377000Y-38373000D01*
X128047000Y-42153000D02*
X127709000Y-41700000D01*
X128046000Y-37568000D02*
X128133000Y-38006000D01*
X128046000Y-37346000D02*
X128046000Y-37568000D01*
X127709000Y-41700000D02*
X127230000Y-41401000D01*
X127513000Y-36813000D02*
X128046000Y-37346000D01*
X127230000Y-41401000D02*
X126668000Y-41296000D01*
X127171000Y-36584000D02*
X127513000Y-36813000D01*
X126768000Y-36504000D02*
X127171000Y-36584000D01*
X126668000Y-41296000D02*
X124021000Y-41296000D01*
X124021000Y-41296000D02*
X123000000Y-40275000D01*
X124021000Y-36504000D02*
X126768000Y-36504000D01*
X123084000Y-37441000D02*
X124021000Y-36504000D01*
%TO.C,S15*%
X151146000Y-63996000D02*
X147060000Y-63996000D01*
X151146000Y-63054000D02*
X151146000Y-63996000D01*
X150783000Y-63054000D02*
X151146000Y-63054000D01*
X150781000Y-59741000D02*
X150866000Y-60168000D01*
X150592000Y-59458000D02*
X150781000Y-59741000D01*
X150309000Y-59269000D02*
X150592000Y-59458000D01*
X149982000Y-59204000D02*
X150309000Y-59269000D01*
X147182000Y-59204000D02*
X149982000Y-59204000D01*
X147060000Y-63996000D02*
X146750000Y-63937000D01*
X146750000Y-63937000D02*
X146476000Y-63767000D01*
X146744000Y-59117000D02*
X147182000Y-59204000D01*
X146476000Y-63767000D02*
X146283000Y-63509000D01*
X146377000Y-58873000D02*
X146744000Y-59117000D01*
X146283000Y-63509000D02*
X146201000Y-63211000D01*
X146201000Y-63211000D02*
X146047000Y-62653000D01*
X146133000Y-58506000D02*
X146377000Y-58873000D01*
X146047000Y-62653000D02*
X145709000Y-62200000D01*
X146046000Y-58068000D02*
X146133000Y-58506000D01*
X146046000Y-57846000D02*
X146046000Y-58068000D01*
X145709000Y-62200000D02*
X145230000Y-61901000D01*
X145513000Y-57313000D02*
X146046000Y-57846000D01*
X145230000Y-61901000D02*
X144668000Y-61796000D01*
X145171000Y-57084000D02*
X145513000Y-57313000D01*
X144768000Y-57004000D02*
X145171000Y-57084000D01*
X144668000Y-61796000D02*
X142021000Y-61796000D01*
X142021000Y-61796000D02*
X141000000Y-60775000D01*
X142021000Y-57004000D02*
X144768000Y-57004000D01*
X141084000Y-57941000D02*
X142021000Y-57004000D01*
%TO.C,S29*%
X151146000Y-80996000D02*
X147060000Y-80996000D01*
X151146000Y-80054000D02*
X151146000Y-80996000D01*
X150783000Y-80054000D02*
X151146000Y-80054000D01*
X150781000Y-76741000D02*
X150866000Y-77168000D01*
X150592000Y-76458000D02*
X150781000Y-76741000D01*
X150309000Y-76269000D02*
X150592000Y-76458000D01*
X149982000Y-76204000D02*
X150309000Y-76269000D01*
X147182000Y-76204000D02*
X149982000Y-76204000D01*
X147060000Y-80996000D02*
X146750000Y-80937000D01*
X146750000Y-80937000D02*
X146476000Y-80767000D01*
X146744000Y-76117000D02*
X147182000Y-76204000D01*
X146476000Y-80767000D02*
X146283000Y-80509000D01*
X146377000Y-75873000D02*
X146744000Y-76117000D01*
X146283000Y-80509000D02*
X146201000Y-80211000D01*
X146201000Y-80211000D02*
X146047000Y-79653000D01*
X146133000Y-75506000D02*
X146377000Y-75873000D01*
X146047000Y-79653000D02*
X145709000Y-79200000D01*
X146046000Y-75068000D02*
X146133000Y-75506000D01*
X146046000Y-74846000D02*
X146046000Y-75068000D01*
X145709000Y-79200000D02*
X145230000Y-78901000D01*
X145513000Y-74313000D02*
X146046000Y-74846000D01*
X145230000Y-78901000D02*
X144668000Y-78796000D01*
X145171000Y-74084000D02*
X145513000Y-74313000D01*
X144768000Y-74004000D02*
X145171000Y-74084000D01*
X144668000Y-78796000D02*
X142021000Y-78796000D01*
X142021000Y-78796000D02*
X141000000Y-77775000D01*
X142021000Y-74004000D02*
X144768000Y-74004000D01*
X141084000Y-74941000D02*
X142021000Y-74004000D01*
%TO.C,S22*%
X79146000Y-96996000D02*
X75060000Y-96996000D01*
X79146000Y-96054000D02*
X79146000Y-96996000D01*
X78783000Y-96054000D02*
X79146000Y-96054000D01*
X78781000Y-92741000D02*
X78866000Y-93168000D01*
X78592000Y-92458000D02*
X78781000Y-92741000D01*
X78309000Y-92269000D02*
X78592000Y-92458000D01*
X77982000Y-92204000D02*
X78309000Y-92269000D01*
X75182000Y-92204000D02*
X77982000Y-92204000D01*
X75060000Y-96996000D02*
X74750000Y-96937000D01*
X74750000Y-96937000D02*
X74476000Y-96767000D01*
X74744000Y-92117000D02*
X75182000Y-92204000D01*
X74476000Y-96767000D02*
X74283000Y-96509000D01*
X74377000Y-91873000D02*
X74744000Y-92117000D01*
X74283000Y-96509000D02*
X74201000Y-96211000D01*
X74201000Y-96211000D02*
X74047000Y-95653000D01*
X74133000Y-91506000D02*
X74377000Y-91873000D01*
X74047000Y-95653000D02*
X73709000Y-95200000D01*
X74046000Y-91068000D02*
X74133000Y-91506000D01*
X74046000Y-90846000D02*
X74046000Y-91068000D01*
X73709000Y-95200000D02*
X73230000Y-94901000D01*
X73513000Y-90313000D02*
X74046000Y-90846000D01*
X73230000Y-94901000D02*
X72668000Y-94796000D01*
X73171000Y-90084000D02*
X73513000Y-90313000D01*
X72768000Y-90004000D02*
X73171000Y-90084000D01*
X72668000Y-94796000D02*
X70021000Y-94796000D01*
X70021000Y-94796000D02*
X69000000Y-93775000D01*
X70021000Y-90004000D02*
X72768000Y-90004000D01*
X69084000Y-90941000D02*
X70021000Y-90004000D01*
%TO.C,S26*%
X115146000Y-88996000D02*
X111060000Y-88996000D01*
X115146000Y-88054000D02*
X115146000Y-88996000D01*
X114783000Y-88054000D02*
X115146000Y-88054000D01*
X114781000Y-84741000D02*
X114866000Y-85168000D01*
X114592000Y-84458000D02*
X114781000Y-84741000D01*
X114309000Y-84269000D02*
X114592000Y-84458000D01*
X113982000Y-84204000D02*
X114309000Y-84269000D01*
X111182000Y-84204000D02*
X113982000Y-84204000D01*
X111060000Y-88996000D02*
X110750000Y-88937000D01*
X110750000Y-88937000D02*
X110476000Y-88767000D01*
X110744000Y-84117000D02*
X111182000Y-84204000D01*
X110476000Y-88767000D02*
X110283000Y-88509000D01*
X110377000Y-83873000D02*
X110744000Y-84117000D01*
X110283000Y-88509000D02*
X110201000Y-88211000D01*
X110201000Y-88211000D02*
X110047000Y-87653000D01*
X110133000Y-83506000D02*
X110377000Y-83873000D01*
X110047000Y-87653000D02*
X109709000Y-87200000D01*
X110046000Y-83068000D02*
X110133000Y-83506000D01*
X110046000Y-82846000D02*
X110046000Y-83068000D01*
X109709000Y-87200000D02*
X109230000Y-86901000D01*
X109513000Y-82313000D02*
X110046000Y-82846000D01*
X109230000Y-86901000D02*
X108668000Y-86796000D01*
X109171000Y-82084000D02*
X109513000Y-82313000D01*
X108768000Y-82004000D02*
X109171000Y-82084000D01*
X108668000Y-86796000D02*
X106021000Y-86796000D01*
X106021000Y-86796000D02*
X105000000Y-85775000D01*
X106021000Y-82004000D02*
X108768000Y-82004000D01*
X105084000Y-82941000D02*
X106021000Y-82004000D01*
%TO.C,S23*%
X97146000Y-75996000D02*
X93060000Y-75996000D01*
X97146000Y-75054000D02*
X97146000Y-75996000D01*
X96783000Y-75054000D02*
X97146000Y-75054000D01*
X96781000Y-71741000D02*
X96866000Y-72168000D01*
X96592000Y-71458000D02*
X96781000Y-71741000D01*
X96309000Y-71269000D02*
X96592000Y-71458000D01*
X95982000Y-71204000D02*
X96309000Y-71269000D01*
X93182000Y-71204000D02*
X95982000Y-71204000D01*
X93060000Y-75996000D02*
X92750000Y-75937000D01*
X92750000Y-75937000D02*
X92476000Y-75767000D01*
X92744000Y-71117000D02*
X93182000Y-71204000D01*
X92476000Y-75767000D02*
X92283000Y-75509000D01*
X92377000Y-70873000D02*
X92744000Y-71117000D01*
X92283000Y-75509000D02*
X92201000Y-75211000D01*
X92201000Y-75211000D02*
X92047000Y-74653000D01*
X92133000Y-70506000D02*
X92377000Y-70873000D01*
X92047000Y-74653000D02*
X91709000Y-74200000D01*
X92046000Y-70068000D02*
X92133000Y-70506000D01*
X92046000Y-69846000D02*
X92046000Y-70068000D01*
X91709000Y-74200000D02*
X91230000Y-73901000D01*
X91513000Y-69313000D02*
X92046000Y-69846000D01*
X91230000Y-73901000D02*
X90668000Y-73796000D01*
X91171000Y-69084000D02*
X91513000Y-69313000D01*
X90768000Y-69004000D02*
X91171000Y-69084000D01*
X90668000Y-73796000D02*
X88021000Y-73796000D01*
X88021000Y-73796000D02*
X87000000Y-72775000D01*
X88021000Y-69004000D02*
X90768000Y-69004000D01*
X87084000Y-69941000D02*
X88021000Y-69004000D01*
%TO.C,S1*%
X43146000Y-45996000D02*
X39060000Y-45996000D01*
X43146000Y-45054000D02*
X43146000Y-45996000D01*
X42783000Y-45054000D02*
X43146000Y-45054000D01*
X42781000Y-41741000D02*
X42866000Y-42168000D01*
X42592000Y-41458000D02*
X42781000Y-41741000D01*
X42309000Y-41269000D02*
X42592000Y-41458000D01*
X41982000Y-41204000D02*
X42309000Y-41269000D01*
X39182000Y-41204000D02*
X41982000Y-41204000D01*
X39060000Y-45996000D02*
X38750000Y-45937000D01*
X38750000Y-45937000D02*
X38476000Y-45767000D01*
X38744000Y-41117000D02*
X39182000Y-41204000D01*
X38476000Y-45767000D02*
X38283000Y-45509000D01*
X38377000Y-40873000D02*
X38744000Y-41117000D01*
X38283000Y-45509000D02*
X38201000Y-45211000D01*
X38201000Y-45211000D02*
X38047000Y-44653000D01*
X38133000Y-40506000D02*
X38377000Y-40873000D01*
X38047000Y-44653000D02*
X37709000Y-44200000D01*
X38046000Y-40068000D02*
X38133000Y-40506000D01*
X38046000Y-39846000D02*
X38046000Y-40068000D01*
X37709000Y-44200000D02*
X37230000Y-43901000D01*
X37513000Y-39313000D02*
X38046000Y-39846000D01*
X37230000Y-43901000D02*
X36668000Y-43796000D01*
X37171000Y-39084000D02*
X37513000Y-39313000D01*
X36768000Y-39004000D02*
X37171000Y-39084000D01*
X36668000Y-43796000D02*
X34021000Y-43796000D01*
X34021000Y-43796000D02*
X33000000Y-42775000D01*
X34021000Y-39004000D02*
X36768000Y-39004000D01*
X33084000Y-39941000D02*
X34021000Y-39004000D01*
%TO.C,S13*%
X115146000Y-54996000D02*
X111060000Y-54996000D01*
X115146000Y-54054000D02*
X115146000Y-54996000D01*
X114783000Y-54054000D02*
X115146000Y-54054000D01*
X114781000Y-50741000D02*
X114866000Y-51168000D01*
X114592000Y-50458000D02*
X114781000Y-50741000D01*
X114309000Y-50269000D02*
X114592000Y-50458000D01*
X113982000Y-50204000D02*
X114309000Y-50269000D01*
X111182000Y-50204000D02*
X113982000Y-50204000D01*
X111060000Y-54996000D02*
X110750000Y-54937000D01*
X110750000Y-54937000D02*
X110476000Y-54767000D01*
X110744000Y-50117000D02*
X111182000Y-50204000D01*
X110476000Y-54767000D02*
X110283000Y-54509000D01*
X110377000Y-49873000D02*
X110744000Y-50117000D01*
X110283000Y-54509000D02*
X110201000Y-54211000D01*
X110201000Y-54211000D02*
X110047000Y-53653000D01*
X110133000Y-49506000D02*
X110377000Y-49873000D01*
X110047000Y-53653000D02*
X109709000Y-53200000D01*
X110046000Y-49068000D02*
X110133000Y-49506000D01*
X110046000Y-48846000D02*
X110046000Y-49068000D01*
X109709000Y-53200000D02*
X109230000Y-52901000D01*
X109513000Y-48313000D02*
X110046000Y-48846000D01*
X109230000Y-52901000D02*
X108668000Y-52796000D01*
X109171000Y-48084000D02*
X109513000Y-48313000D01*
X108768000Y-48004000D02*
X109171000Y-48084000D01*
X108668000Y-52796000D02*
X106021000Y-52796000D01*
X106021000Y-52796000D02*
X105000000Y-51775000D01*
X106021000Y-48004000D02*
X108768000Y-48004000D01*
X105084000Y-48941000D02*
X106021000Y-48004000D01*
%TO.C,S9*%
X43146000Y-62996000D02*
X39060000Y-62996000D01*
X43146000Y-62054000D02*
X43146000Y-62996000D01*
X42783000Y-62054000D02*
X43146000Y-62054000D01*
X42781000Y-58741000D02*
X42866000Y-59168000D01*
X42592000Y-58458000D02*
X42781000Y-58741000D01*
X42309000Y-58269000D02*
X42592000Y-58458000D01*
X41982000Y-58204000D02*
X42309000Y-58269000D01*
X39182000Y-58204000D02*
X41982000Y-58204000D01*
X39060000Y-62996000D02*
X38750000Y-62937000D01*
X38750000Y-62937000D02*
X38476000Y-62767000D01*
X38744000Y-58117000D02*
X39182000Y-58204000D01*
X38476000Y-62767000D02*
X38283000Y-62509000D01*
X38377000Y-57873000D02*
X38744000Y-58117000D01*
X38283000Y-62509000D02*
X38201000Y-62211000D01*
X38201000Y-62211000D02*
X38047000Y-61653000D01*
X38133000Y-57506000D02*
X38377000Y-57873000D01*
X38047000Y-61653000D02*
X37709000Y-61200000D01*
X38046000Y-57068000D02*
X38133000Y-57506000D01*
X38046000Y-56846000D02*
X38046000Y-57068000D01*
X37709000Y-61200000D02*
X37230000Y-60901000D01*
X37513000Y-56313000D02*
X38046000Y-56846000D01*
X37230000Y-60901000D02*
X36668000Y-60796000D01*
X37171000Y-56084000D02*
X37513000Y-56313000D01*
X36768000Y-56004000D02*
X37171000Y-56084000D01*
X36668000Y-60796000D02*
X34021000Y-60796000D01*
X34021000Y-60796000D02*
X33000000Y-59775000D01*
X34021000Y-56004000D02*
X36768000Y-56004000D01*
X33084000Y-56941000D02*
X34021000Y-56004000D01*
%TO.C,S4*%
X97146000Y-41996000D02*
X93060000Y-41996000D01*
X97146000Y-41054000D02*
X97146000Y-41996000D01*
X96783000Y-41054000D02*
X97146000Y-41054000D01*
X96781000Y-37741000D02*
X96866000Y-38168000D01*
X96592000Y-37458000D02*
X96781000Y-37741000D01*
X96309000Y-37269000D02*
X96592000Y-37458000D01*
X95982000Y-37204000D02*
X96309000Y-37269000D01*
X93182000Y-37204000D02*
X95982000Y-37204000D01*
X93060000Y-41996000D02*
X92750000Y-41937000D01*
X92750000Y-41937000D02*
X92476000Y-41767000D01*
X92744000Y-37117000D02*
X93182000Y-37204000D01*
X92476000Y-41767000D02*
X92283000Y-41509000D01*
X92377000Y-36873000D02*
X92744000Y-37117000D01*
X92283000Y-41509000D02*
X92201000Y-41211000D01*
X92201000Y-41211000D02*
X92047000Y-40653000D01*
X92133000Y-36506000D02*
X92377000Y-36873000D01*
X92047000Y-40653000D02*
X91709000Y-40200000D01*
X92046000Y-36068000D02*
X92133000Y-36506000D01*
X92046000Y-35846000D02*
X92046000Y-36068000D01*
X91709000Y-40200000D02*
X91230000Y-39901000D01*
X91513000Y-35313000D02*
X92046000Y-35846000D01*
X91230000Y-39901000D02*
X90668000Y-39796000D01*
X91171000Y-35084000D02*
X91513000Y-35313000D01*
X90768000Y-35004000D02*
X91171000Y-35084000D01*
X90668000Y-39796000D02*
X88021000Y-39796000D01*
X88021000Y-39796000D02*
X87000000Y-38775000D01*
X88021000Y-35004000D02*
X90768000Y-35004000D01*
X87084000Y-35941000D02*
X88021000Y-35004000D01*
%TO.C,S10*%
X61146000Y-62996000D02*
X57060000Y-62996000D01*
X61146000Y-62054000D02*
X61146000Y-62996000D01*
X60783000Y-62054000D02*
X61146000Y-62054000D01*
X60781000Y-58741000D02*
X60866000Y-59168000D01*
X60592000Y-58458000D02*
X60781000Y-58741000D01*
X60309000Y-58269000D02*
X60592000Y-58458000D01*
X59982000Y-58204000D02*
X60309000Y-58269000D01*
X57182000Y-58204000D02*
X59982000Y-58204000D01*
X57060000Y-62996000D02*
X56750000Y-62937000D01*
X56750000Y-62937000D02*
X56476000Y-62767000D01*
X56744000Y-58117000D02*
X57182000Y-58204000D01*
X56476000Y-62767000D02*
X56283000Y-62509000D01*
X56377000Y-57873000D02*
X56744000Y-58117000D01*
X56283000Y-62509000D02*
X56201000Y-62211000D01*
X56201000Y-62211000D02*
X56047000Y-61653000D01*
X56133000Y-57506000D02*
X56377000Y-57873000D01*
X56047000Y-61653000D02*
X55709000Y-61200000D01*
X56046000Y-57068000D02*
X56133000Y-57506000D01*
X56046000Y-56846000D02*
X56046000Y-57068000D01*
X55709000Y-61200000D02*
X55230000Y-60901000D01*
X55513000Y-56313000D02*
X56046000Y-56846000D01*
X55230000Y-60901000D02*
X54668000Y-60796000D01*
X55171000Y-56084000D02*
X55513000Y-56313000D01*
X54768000Y-56004000D02*
X55171000Y-56084000D01*
X54668000Y-60796000D02*
X52021000Y-60796000D01*
X52021000Y-60796000D02*
X51000000Y-59775000D01*
X52021000Y-56004000D02*
X54768000Y-56004000D01*
X51084000Y-56941000D02*
X52021000Y-56004000D01*
%TO.C,S11*%
X79146000Y-62996000D02*
X75060000Y-62996000D01*
X79146000Y-62054000D02*
X79146000Y-62996000D01*
X78783000Y-62054000D02*
X79146000Y-62054000D01*
X78781000Y-58741000D02*
X78866000Y-59168000D01*
X78592000Y-58458000D02*
X78781000Y-58741000D01*
X78309000Y-58269000D02*
X78592000Y-58458000D01*
X77982000Y-58204000D02*
X78309000Y-58269000D01*
X75182000Y-58204000D02*
X77982000Y-58204000D01*
X75060000Y-62996000D02*
X74750000Y-62937000D01*
X74750000Y-62937000D02*
X74476000Y-62767000D01*
X74744000Y-58117000D02*
X75182000Y-58204000D01*
X74476000Y-62767000D02*
X74283000Y-62509000D01*
X74377000Y-57873000D02*
X74744000Y-58117000D01*
X74283000Y-62509000D02*
X74201000Y-62211000D01*
X74201000Y-62211000D02*
X74047000Y-61653000D01*
X74133000Y-57506000D02*
X74377000Y-57873000D01*
X74047000Y-61653000D02*
X73709000Y-61200000D01*
X74046000Y-57068000D02*
X74133000Y-57506000D01*
X74046000Y-56846000D02*
X74046000Y-57068000D01*
X73709000Y-61200000D02*
X73230000Y-60901000D01*
X73513000Y-56313000D02*
X74046000Y-56846000D01*
X73230000Y-60901000D02*
X72668000Y-60796000D01*
X73171000Y-56084000D02*
X73513000Y-56313000D01*
X72768000Y-56004000D02*
X73171000Y-56084000D01*
X72668000Y-60796000D02*
X70021000Y-60796000D01*
X70021000Y-60796000D02*
X69000000Y-59775000D01*
X70021000Y-56004000D02*
X72768000Y-56004000D01*
X69084000Y-56941000D02*
X70021000Y-56004000D01*
%TO.C,S17*%
X43146000Y-79996000D02*
X39060000Y-79996000D01*
X43146000Y-79054000D02*
X43146000Y-79996000D01*
X42783000Y-79054000D02*
X43146000Y-79054000D01*
X42781000Y-75741000D02*
X42866000Y-76168000D01*
X42592000Y-75458000D02*
X42781000Y-75741000D01*
X42309000Y-75269000D02*
X42592000Y-75458000D01*
X41982000Y-75204000D02*
X42309000Y-75269000D01*
X39182000Y-75204000D02*
X41982000Y-75204000D01*
X39060000Y-79996000D02*
X38750000Y-79937000D01*
X38750000Y-79937000D02*
X38476000Y-79767000D01*
X38744000Y-75117000D02*
X39182000Y-75204000D01*
X38476000Y-79767000D02*
X38283000Y-79509000D01*
X38377000Y-74873000D02*
X38744000Y-75117000D01*
X38283000Y-79509000D02*
X38201000Y-79211000D01*
X38201000Y-79211000D02*
X38047000Y-78653000D01*
X38133000Y-74506000D02*
X38377000Y-74873000D01*
X38047000Y-78653000D02*
X37709000Y-78200000D01*
X38046000Y-74068000D02*
X38133000Y-74506000D01*
X38046000Y-73846000D02*
X38046000Y-74068000D01*
X37709000Y-78200000D02*
X37230000Y-77901000D01*
X37513000Y-73313000D02*
X38046000Y-73846000D01*
X37230000Y-77901000D02*
X36668000Y-77796000D01*
X37171000Y-73084000D02*
X37513000Y-73313000D01*
X36768000Y-73004000D02*
X37171000Y-73084000D01*
X36668000Y-77796000D02*
X34021000Y-77796000D01*
X34021000Y-77796000D02*
X33000000Y-76775000D01*
X34021000Y-73004000D02*
X36768000Y-73004000D01*
X33084000Y-73941000D02*
X34021000Y-73004000D01*
%TO.C,S24*%
X97146000Y-92996000D02*
X93060000Y-92996000D01*
X97146000Y-92054000D02*
X97146000Y-92996000D01*
X96783000Y-92054000D02*
X97146000Y-92054000D01*
X96781000Y-88741000D02*
X96866000Y-89168000D01*
X96592000Y-88458000D02*
X96781000Y-88741000D01*
X96309000Y-88269000D02*
X96592000Y-88458000D01*
X95982000Y-88204000D02*
X96309000Y-88269000D01*
X93182000Y-88204000D02*
X95982000Y-88204000D01*
X93060000Y-92996000D02*
X92750000Y-92937000D01*
X92750000Y-92937000D02*
X92476000Y-92767000D01*
X92744000Y-88117000D02*
X93182000Y-88204000D01*
X92476000Y-92767000D02*
X92283000Y-92509000D01*
X92377000Y-87873000D02*
X92744000Y-88117000D01*
X92283000Y-92509000D02*
X92201000Y-92211000D01*
X92201000Y-92211000D02*
X92047000Y-91653000D01*
X92133000Y-87506000D02*
X92377000Y-87873000D01*
X92047000Y-91653000D02*
X91709000Y-91200000D01*
X92046000Y-87068000D02*
X92133000Y-87506000D01*
X92046000Y-86846000D02*
X92046000Y-87068000D01*
X91709000Y-91200000D02*
X91230000Y-90901000D01*
X91513000Y-86313000D02*
X92046000Y-86846000D01*
X91230000Y-90901000D02*
X90668000Y-90796000D01*
X91171000Y-86084000D02*
X91513000Y-86313000D01*
X90768000Y-86004000D02*
X91171000Y-86084000D01*
X90668000Y-90796000D02*
X88021000Y-90796000D01*
X88021000Y-90796000D02*
X87000000Y-89775000D01*
X88021000Y-86004000D02*
X90768000Y-86004000D01*
X87084000Y-86941000D02*
X88021000Y-86004000D01*
%TO.C,S31*%
X170621348Y-147492462D02*
X170554880Y-147826217D01*
X170554880Y-147826217D02*
X170313050Y-148188255D01*
X170554880Y-147158708D02*
X170621348Y-147492462D01*
X170369618Y-146881522D02*
X170554880Y-147158708D01*
X168546698Y-143138098D02*
X168389720Y-143295076D01*
X168546697Y-142384323D02*
X168546698Y-143138098D01*
X168470329Y-150426956D02*
X167804235Y-151093050D01*
X168466794Y-141980565D02*
X168546697Y-142384323D01*
X168389720Y-143295076D02*
X168141525Y-143666307D01*
X168389719Y-144901623D02*
X170369618Y-146881522D01*
X168238398Y-141639031D02*
X168466794Y-141980565D01*
X168213650Y-150170276D02*
X168470329Y-150426956D01*
X168141525Y-143666307D02*
X168054552Y-144098349D01*
X168141524Y-144530393D02*
X168389719Y-144901623D01*
X168054552Y-144098349D02*
X168141524Y-144530393D01*
X167804235Y-151093050D02*
X164914996Y-148203812D01*
X166295976Y-139696610D02*
X168238398Y-141639031D01*
X165229659Y-145978547D02*
X165102380Y-145428417D01*
X165148342Y-146537868D02*
X165229659Y-145978547D01*
X165102380Y-145428417D02*
X164779232Y-144956778D01*
X164970858Y-139696610D02*
X166295976Y-139696610D01*
X164914996Y-148203812D02*
X164737513Y-147942889D01*
X164862671Y-147041328D02*
X165148342Y-146537868D01*
X164779232Y-144956778D02*
X162907520Y-143085066D01*
X164737513Y-147942889D02*
X164663974Y-147628934D01*
X164709936Y-147310028D02*
X164862671Y-147041328D01*
X164663974Y-147628934D02*
X164709936Y-147310028D01*
X162907520Y-143085066D02*
X162907520Y-141641154D01*
%TO.C,S2*%
X61146000Y-45996000D02*
X57060000Y-45996000D01*
X61146000Y-45054000D02*
X61146000Y-45996000D01*
X60783000Y-45054000D02*
X61146000Y-45054000D01*
X60781000Y-41741000D02*
X60866000Y-42168000D01*
X60592000Y-41458000D02*
X60781000Y-41741000D01*
X60309000Y-41269000D02*
X60592000Y-41458000D01*
X59982000Y-41204000D02*
X60309000Y-41269000D01*
X57182000Y-41204000D02*
X59982000Y-41204000D01*
X57060000Y-45996000D02*
X56750000Y-45937000D01*
X56750000Y-45937000D02*
X56476000Y-45767000D01*
X56744000Y-41117000D02*
X57182000Y-41204000D01*
X56476000Y-45767000D02*
X56283000Y-45509000D01*
X56377000Y-40873000D02*
X56744000Y-41117000D01*
X56283000Y-45509000D02*
X56201000Y-45211000D01*
X56201000Y-45211000D02*
X56047000Y-44653000D01*
X56133000Y-40506000D02*
X56377000Y-40873000D01*
X56047000Y-44653000D02*
X55709000Y-44200000D01*
X56046000Y-40068000D02*
X56133000Y-40506000D01*
X56046000Y-39846000D02*
X56046000Y-40068000D01*
X55709000Y-44200000D02*
X55230000Y-43901000D01*
X55513000Y-39313000D02*
X56046000Y-39846000D01*
X55230000Y-43901000D02*
X54668000Y-43796000D01*
X55171000Y-39084000D02*
X55513000Y-39313000D01*
X54768000Y-39004000D02*
X55171000Y-39084000D01*
X54668000Y-43796000D02*
X52021000Y-43796000D01*
X52021000Y-43796000D02*
X51000000Y-42775000D01*
X52021000Y-39004000D02*
X54768000Y-39004000D01*
X51084000Y-39941000D02*
X52021000Y-39004000D01*
%TO.C,S20*%
X61146000Y-96996000D02*
X57060000Y-96996000D01*
X61146000Y-96054000D02*
X61146000Y-96996000D01*
X60783000Y-96054000D02*
X61146000Y-96054000D01*
X60781000Y-92741000D02*
X60866000Y-93168000D01*
X60592000Y-92458000D02*
X60781000Y-92741000D01*
X60309000Y-92269000D02*
X60592000Y-92458000D01*
X59982000Y-92204000D02*
X60309000Y-92269000D01*
X57182000Y-92204000D02*
X59982000Y-92204000D01*
X57060000Y-96996000D02*
X56750000Y-96937000D01*
X56750000Y-96937000D02*
X56476000Y-96767000D01*
X56744000Y-92117000D02*
X57182000Y-92204000D01*
X56476000Y-96767000D02*
X56283000Y-96509000D01*
X56377000Y-91873000D02*
X56744000Y-92117000D01*
X56283000Y-96509000D02*
X56201000Y-96211000D01*
X56201000Y-96211000D02*
X56047000Y-95653000D01*
X56133000Y-91506000D02*
X56377000Y-91873000D01*
X56047000Y-95653000D02*
X55709000Y-95200000D01*
X56046000Y-91068000D02*
X56133000Y-91506000D01*
X56046000Y-90846000D02*
X56046000Y-91068000D01*
X55709000Y-95200000D02*
X55230000Y-94901000D01*
X55513000Y-90313000D02*
X56046000Y-90846000D01*
X55230000Y-94901000D02*
X54668000Y-94796000D01*
X55171000Y-90084000D02*
X55513000Y-90313000D01*
X54768000Y-90004000D02*
X55171000Y-90084000D01*
X54668000Y-94796000D02*
X52021000Y-94796000D01*
X52021000Y-94796000D02*
X51000000Y-93775000D01*
X52021000Y-90004000D02*
X54768000Y-90004000D01*
X51084000Y-90941000D02*
X52021000Y-90004000D01*
%TO.C,S8*%
X133997762Y-122216584D02*
X133969350Y-122651033D01*
X133888447Y-121894309D02*
X133997762Y-122216584D01*
X133664007Y-121638504D02*
X133888447Y-121894309D01*
X133492858Y-125511164D02*
X133249050Y-126421067D01*
X133364973Y-121491085D02*
X133664007Y-121638504D01*
X133249050Y-126421067D02*
X129302277Y-125363532D01*
X133142227Y-125417214D02*
X133492858Y-125511164D01*
X130660380Y-120766392D02*
X133364973Y-121491085D01*
X130259822Y-120568993D02*
X130660380Y-120766392D01*
X129968480Y-120238321D02*
X130259822Y-120568993D01*
X129914565Y-119160646D02*
X129857106Y-119375081D01*
X129857106Y-119375081D02*
X129827780Y-119820674D01*
X129827780Y-119820674D02*
X129968480Y-120238321D01*
X129537677Y-118507857D02*
X129914565Y-119160646D01*
X129302277Y-125363532D02*
X129018110Y-125226309D01*
X129266600Y-118198144D02*
X129537677Y-118507857D01*
X129018110Y-125226309D02*
X128797446Y-124991185D01*
X128898038Y-118016565D02*
X129266600Y-118198144D01*
X128797446Y-124991185D02*
X128677798Y-124692024D01*
X128677798Y-124692024D02*
X128675720Y-124382955D01*
X128675720Y-124382955D02*
X128671388Y-123804110D01*
X128671388Y-123804110D02*
X128462150Y-123279065D01*
X128462150Y-123279065D02*
X128076858Y-122866278D01*
X128076858Y-122866278D02*
X127561184Y-122619400D01*
X127561184Y-122619400D02*
X125004379Y-121934306D01*
X126244639Y-117305590D02*
X128898038Y-118016565D01*
X125097054Y-117968149D02*
X126244639Y-117305590D01*
X125004379Y-121934306D02*
X124282423Y-120683842D01*
%TO.C,S25*%
X115146000Y-71996000D02*
X111060000Y-71996000D01*
X115146000Y-71054000D02*
X115146000Y-71996000D01*
X114783000Y-71054000D02*
X115146000Y-71054000D01*
X114781000Y-67741000D02*
X114866000Y-68168000D01*
X114592000Y-67458000D02*
X114781000Y-67741000D01*
X114309000Y-67269000D02*
X114592000Y-67458000D01*
X113982000Y-67204000D02*
X114309000Y-67269000D01*
X111182000Y-67204000D02*
X113982000Y-67204000D01*
X111060000Y-71996000D02*
X110750000Y-71937000D01*
X110750000Y-71937000D02*
X110476000Y-71767000D01*
X110744000Y-67117000D02*
X111182000Y-67204000D01*
X110476000Y-71767000D02*
X110283000Y-71509000D01*
X110377000Y-66873000D02*
X110744000Y-67117000D01*
X110283000Y-71509000D02*
X110201000Y-71211000D01*
X110201000Y-71211000D02*
X110047000Y-70653000D01*
X110133000Y-66506000D02*
X110377000Y-66873000D01*
X110047000Y-70653000D02*
X109709000Y-70200000D01*
X110046000Y-66068000D02*
X110133000Y-66506000D01*
X110046000Y-65846000D02*
X110046000Y-66068000D01*
X109709000Y-70200000D02*
X109230000Y-69901000D01*
X109513000Y-65313000D02*
X110046000Y-65846000D01*
X109230000Y-69901000D02*
X108668000Y-69796000D01*
X109171000Y-65084000D02*
X109513000Y-65313000D01*
X108768000Y-65004000D02*
X109171000Y-65084000D01*
X108668000Y-69796000D02*
X106021000Y-69796000D01*
X106021000Y-69796000D02*
X105000000Y-68775000D01*
X106021000Y-65004000D02*
X108768000Y-65004000D01*
X105084000Y-65941000D02*
X106021000Y-65004000D01*
%TO.C,S12*%
X97146000Y-58996000D02*
X93060000Y-58996000D01*
X97146000Y-58054000D02*
X97146000Y-58996000D01*
X96783000Y-58054000D02*
X97146000Y-58054000D01*
X96781000Y-54741000D02*
X96866000Y-55168000D01*
X96592000Y-54458000D02*
X96781000Y-54741000D01*
X96309000Y-54269000D02*
X96592000Y-54458000D01*
X95982000Y-54204000D02*
X96309000Y-54269000D01*
X93182000Y-54204000D02*
X95982000Y-54204000D01*
X93060000Y-58996000D02*
X92750000Y-58937000D01*
X92750000Y-58937000D02*
X92476000Y-58767000D01*
X92744000Y-54117000D02*
X93182000Y-54204000D01*
X92476000Y-58767000D02*
X92283000Y-58509000D01*
X92377000Y-53873000D02*
X92744000Y-54117000D01*
X92283000Y-58509000D02*
X92201000Y-58211000D01*
X92201000Y-58211000D02*
X92047000Y-57653000D01*
X92133000Y-53506000D02*
X92377000Y-53873000D01*
X92047000Y-57653000D02*
X91709000Y-57200000D01*
X92046000Y-53068000D02*
X92133000Y-53506000D01*
X92046000Y-52846000D02*
X92046000Y-53068000D01*
X91709000Y-57200000D02*
X91230000Y-56901000D01*
X91513000Y-52313000D02*
X92046000Y-52846000D01*
X91230000Y-56901000D02*
X90668000Y-56796000D01*
X91171000Y-52084000D02*
X91513000Y-52313000D01*
X90768000Y-52004000D02*
X91171000Y-52084000D01*
X90668000Y-56796000D02*
X88021000Y-56796000D01*
X88021000Y-56796000D02*
X87000000Y-55775000D01*
X88021000Y-52004000D02*
X90768000Y-52004000D01*
X87084000Y-52941000D02*
X88021000Y-52004000D01*
%TO.C,S21*%
X79146000Y-79996000D02*
X75060000Y-79996000D01*
X79146000Y-79054000D02*
X79146000Y-79996000D01*
X78783000Y-79054000D02*
X79146000Y-79054000D01*
X78781000Y-75741000D02*
X78866000Y-76168000D01*
X78592000Y-75458000D02*
X78781000Y-75741000D01*
X78309000Y-75269000D02*
X78592000Y-75458000D01*
X77982000Y-75204000D02*
X78309000Y-75269000D01*
X75182000Y-75204000D02*
X77982000Y-75204000D01*
X75060000Y-79996000D02*
X74750000Y-79937000D01*
X74750000Y-79937000D02*
X74476000Y-79767000D01*
X74744000Y-75117000D02*
X75182000Y-75204000D01*
X74476000Y-79767000D02*
X74283000Y-79509000D01*
X74377000Y-74873000D02*
X74744000Y-75117000D01*
X74283000Y-79509000D02*
X74201000Y-79211000D01*
X74201000Y-79211000D02*
X74047000Y-78653000D01*
X74133000Y-74506000D02*
X74377000Y-74873000D01*
X74047000Y-78653000D02*
X73709000Y-78200000D01*
X74046000Y-74068000D02*
X74133000Y-74506000D01*
X74046000Y-73846000D02*
X74046000Y-74068000D01*
X73709000Y-78200000D02*
X73230000Y-77901000D01*
X73513000Y-73313000D02*
X74046000Y-73846000D01*
X73230000Y-77901000D02*
X72668000Y-77796000D01*
X73171000Y-73084000D02*
X73513000Y-73313000D01*
X72768000Y-73004000D02*
X73171000Y-73084000D01*
X72668000Y-77796000D02*
X70021000Y-77796000D01*
X70021000Y-77796000D02*
X69000000Y-76775000D01*
X70021000Y-73004000D02*
X72768000Y-73004000D01*
X69084000Y-73941000D02*
X70021000Y-73004000D01*
%TO.C,S16*%
X153873171Y-132782964D02*
X153733283Y-133195256D01*
X153850993Y-132443379D02*
X153873171Y-132782964D01*
X153700406Y-132138199D02*
X153850993Y-132443379D01*
X153449717Y-131918408D02*
X153700406Y-132138199D01*
X152532770Y-135834606D02*
X152061769Y-136650401D01*
X152218404Y-135653105D02*
X152532770Y-135834606D01*
X152061769Y-136650401D02*
X148523190Y-134607402D01*
X151024846Y-130518407D02*
X153449717Y-131918408D01*
X150720040Y-128774345D02*
X150609040Y-128966603D01*
X150689026Y-130224063D02*
X151024846Y-130518407D01*
X150609040Y-128966603D02*
X150465385Y-129389424D01*
X150524950Y-128046254D02*
X150720040Y-128774345D01*
X150493195Y-129829254D02*
X150689026Y-130224063D01*
X150465385Y-129389424D02*
X150493195Y-129829254D01*
X150343268Y-127676934D02*
X150524950Y-128046254D01*
X150034261Y-127406151D02*
X150343268Y-127676934D01*
X148523190Y-134607402D02*
X148284223Y-134401307D01*
X148317407Y-132937829D02*
X148251190Y-132376520D01*
X148284223Y-134401307D02*
X148131932Y-134117082D01*
X148251190Y-132376520D02*
X147985864Y-131878077D01*
X148171774Y-133498073D02*
X148317407Y-132937829D01*
X148131932Y-134117082D02*
X148093789Y-133797147D01*
X148093789Y-133797147D02*
X148171774Y-133498073D01*
X147985864Y-131878077D02*
X147551658Y-131506147D01*
X147655288Y-126032652D02*
X150034261Y-127406151D01*
X147551658Y-131506147D02*
X145259289Y-130182646D01*
X146375323Y-126375618D02*
X147655288Y-126032652D01*
X145259289Y-130182646D02*
X144885577Y-128787934D01*
%TO.C,S18*%
X43146000Y-96996000D02*
X39060000Y-96996000D01*
X43146000Y-96054000D02*
X43146000Y-96996000D01*
X42783000Y-96054000D02*
X43146000Y-96054000D01*
X42781000Y-92741000D02*
X42866000Y-93168000D01*
X42592000Y-92458000D02*
X42781000Y-92741000D01*
X42309000Y-92269000D02*
X42592000Y-92458000D01*
X41982000Y-92204000D02*
X42309000Y-92269000D01*
X39182000Y-92204000D02*
X41982000Y-92204000D01*
X39060000Y-96996000D02*
X38750000Y-96937000D01*
X38750000Y-96937000D02*
X38476000Y-96767000D01*
X38744000Y-92117000D02*
X39182000Y-92204000D01*
X38476000Y-96767000D02*
X38283000Y-96509000D01*
X38377000Y-91873000D02*
X38744000Y-92117000D01*
X38283000Y-96509000D02*
X38201000Y-96211000D01*
X38201000Y-96211000D02*
X38047000Y-95653000D01*
X38133000Y-91506000D02*
X38377000Y-91873000D01*
X38047000Y-95653000D02*
X37709000Y-95200000D01*
X38046000Y-91068000D02*
X38133000Y-91506000D01*
X38046000Y-90846000D02*
X38046000Y-91068000D01*
X37709000Y-95200000D02*
X37230000Y-94901000D01*
X37513000Y-90313000D02*
X38046000Y-90846000D01*
X37230000Y-94901000D02*
X36668000Y-94796000D01*
X37171000Y-90084000D02*
X37513000Y-90313000D01*
X36768000Y-90004000D02*
X37171000Y-90084000D01*
X36668000Y-94796000D02*
X34021000Y-94796000D01*
X34021000Y-94796000D02*
X33000000Y-93775000D01*
X34021000Y-90004000D02*
X36768000Y-90004000D01*
X33084000Y-90941000D02*
X34021000Y-90004000D01*
D11*
%TO.C,D19*%
X58950000Y-86200000D02*
X59500000Y-86200000D01*
X59100000Y-85600000D02*
X59900000Y-85600000D01*
X59500000Y-85100000D02*
X59500000Y-85600000D01*
X59500000Y-86200000D02*
X59100000Y-85600000D01*
X59500000Y-86200000D02*
X59500000Y-86600000D01*
X59900000Y-85600000D02*
X59500000Y-86200000D01*
X60050000Y-86200000D02*
X59500000Y-86200000D01*
%TO.C,D9*%
X40950000Y-69200000D02*
X41500000Y-69200000D01*
X41100000Y-68600000D02*
X41900000Y-68600000D01*
X41500000Y-68100000D02*
X41500000Y-68600000D01*
X41500000Y-69200000D02*
X41100000Y-68600000D01*
X41500000Y-69200000D02*
X41500000Y-69600000D01*
X41900000Y-68600000D02*
X41500000Y-69200000D01*
X42050000Y-69200000D02*
X41500000Y-69200000D01*
%TO.C,D15*%
X148950000Y-70200000D02*
X149500000Y-70200000D01*
X149100000Y-69600000D02*
X149900000Y-69600000D01*
X149500000Y-69100000D02*
X149500000Y-69600000D01*
X149500000Y-70200000D02*
X149100000Y-69600000D01*
X149500000Y-70200000D02*
X149500000Y-70600000D01*
X149900000Y-69600000D02*
X149500000Y-70200000D01*
X150050000Y-70200000D02*
X149500000Y-70200000D01*
%TO.C,D8*%
X129275000Y-132350000D02*
X129825000Y-132350000D01*
X129425000Y-131750000D02*
X130225000Y-131750000D01*
X129825000Y-131250000D02*
X129825000Y-131750000D01*
X129825000Y-132350000D02*
X129425000Y-131750000D01*
X129825000Y-132350000D02*
X129825000Y-132750000D01*
X130225000Y-131750000D02*
X129825000Y-132350000D01*
X130375000Y-132350000D02*
X129825000Y-132350000D01*
%TO.C,D17*%
X40950000Y-86200000D02*
X41500000Y-86200000D01*
X41100000Y-85600000D02*
X41900000Y-85600000D01*
X41500000Y-85100000D02*
X41500000Y-85600000D01*
X41500000Y-86200000D02*
X41100000Y-85600000D01*
X41500000Y-86200000D02*
X41500000Y-86600000D01*
X41900000Y-85600000D02*
X41500000Y-86200000D01*
X42050000Y-86200000D02*
X41500000Y-86200000D01*
%TO.C,D18*%
X40950000Y-103050000D02*
X41500000Y-103050000D01*
X41100000Y-102450000D02*
X41900000Y-102450000D01*
X41500000Y-101950000D02*
X41500000Y-102450000D01*
X41500000Y-103050000D02*
X41100000Y-102450000D01*
X41500000Y-103050000D02*
X41500000Y-103450000D01*
X41900000Y-102450000D02*
X41500000Y-103050000D01*
X42050000Y-103050000D02*
X41500000Y-103050000D01*
%TO.C,D14*%
X130950000Y-66700000D02*
X131500000Y-66700000D01*
X131100000Y-66100000D02*
X131900000Y-66100000D01*
X131500000Y-65600000D02*
X131500000Y-66100000D01*
X131500000Y-66700000D02*
X131100000Y-66100000D01*
X131500000Y-66700000D02*
X131500000Y-67100000D01*
X131900000Y-66100000D02*
X131500000Y-66700000D01*
X132050000Y-66700000D02*
X131500000Y-66700000D01*
%TO.C,D12*%
X94950000Y-65200000D02*
X95500000Y-65200000D01*
X95100000Y-64600000D02*
X95900000Y-64600000D01*
X95500000Y-64100000D02*
X95500000Y-64600000D01*
X95500000Y-65200000D02*
X95100000Y-64600000D01*
X95500000Y-65200000D02*
X95500000Y-65600000D01*
X95900000Y-64600000D02*
X95500000Y-65200000D01*
X96050000Y-65200000D02*
X95500000Y-65200000D01*
%TO.C,D24*%
X94950000Y-99200000D02*
X95500000Y-99200000D01*
X95100000Y-98600000D02*
X95900000Y-98600000D01*
X95500000Y-98100000D02*
X95500000Y-98600000D01*
X95500000Y-99200000D02*
X95100000Y-98600000D01*
X95500000Y-99200000D02*
X95500000Y-99600000D01*
X95900000Y-98600000D02*
X95500000Y-99200000D01*
X96050000Y-99200000D02*
X95500000Y-99200000D01*
%TO.C,D26*%
X112950000Y-95200000D02*
X113500000Y-95200000D01*
X113100000Y-94600000D02*
X113900000Y-94600000D01*
X113500000Y-94100000D02*
X113500000Y-94600000D01*
X113500000Y-95200000D02*
X113100000Y-94600000D01*
X113500000Y-95200000D02*
X113500000Y-95600000D01*
X113900000Y-94600000D02*
X113500000Y-95200000D01*
X114050000Y-95200000D02*
X113500000Y-95200000D01*
%TO.C,D13*%
X112950000Y-61200000D02*
X113500000Y-61200000D01*
X113100000Y-60600000D02*
X113900000Y-60600000D01*
X113500000Y-60100000D02*
X113500000Y-60600000D01*
X113500000Y-61200000D02*
X113100000Y-60600000D01*
X113500000Y-61200000D02*
X113500000Y-61600000D01*
X113900000Y-60600000D02*
X113500000Y-61200000D01*
X114050000Y-61200000D02*
X113500000Y-61200000D01*
%TO.C,D6*%
X130950000Y-49550000D02*
X131500000Y-49550000D01*
X131100000Y-48950000D02*
X131900000Y-48950000D01*
X131500000Y-48450000D02*
X131500000Y-48950000D01*
X131500000Y-49550000D02*
X131100000Y-48950000D01*
X131500000Y-49550000D02*
X131500000Y-49950000D01*
X131900000Y-48950000D02*
X131500000Y-49550000D01*
X132050000Y-49550000D02*
X131500000Y-49550000D01*
D12*
%TO.C,SW1*%
X201805000Y-76650000D02*
X201805000Y-75750000D01*
X201805000Y-76650000D02*
X201595000Y-76850000D01*
X201805000Y-75750000D02*
X201595000Y-75550000D01*
X201595000Y-75550000D02*
X200305000Y-75550000D01*
X200305000Y-79800000D02*
X200305000Y-74100000D01*
X200305000Y-76850000D02*
X201595000Y-76850000D01*
X199295000Y-73500000D02*
X198505000Y-73500000D01*
X198505000Y-80400000D02*
X199295000Y-80400000D01*
X197455000Y-78550000D02*
X197455000Y-78350000D01*
X197455000Y-77050000D02*
X197455000Y-75350000D01*
%TO.C,R6*%
X112471359Y-101570000D02*
X112778641Y-101570000D01*
X112471359Y-102330000D02*
X112778641Y-102330000D01*
D11*
%TO.C,D22*%
X76950000Y-103200000D02*
X77500000Y-103200000D01*
X77100000Y-102600000D02*
X77900000Y-102600000D01*
X77500000Y-102100000D02*
X77500000Y-102600000D01*
X77500000Y-103200000D02*
X77100000Y-102600000D01*
X77500000Y-103200000D02*
X77500000Y-103600000D01*
X77900000Y-102600000D02*
X77500000Y-103200000D01*
X78050000Y-103200000D02*
X77500000Y-103200000D01*
%TO.C,D30*%
X148950000Y-104200000D02*
X149500000Y-104200000D01*
X149100000Y-103600000D02*
X149900000Y-103600000D01*
X149500000Y-103100000D02*
X149500000Y-103600000D01*
X149500000Y-104200000D02*
X149100000Y-103600000D01*
X149500000Y-104200000D02*
X149500000Y-104600000D01*
X149900000Y-103600000D02*
X149500000Y-104200000D01*
X150050000Y-104200000D02*
X149500000Y-104200000D01*
%TO.C,D2*%
X58950000Y-52200000D02*
X59500000Y-52200000D01*
X59100000Y-51600000D02*
X59900000Y-51600000D01*
X59500000Y-51100000D02*
X59500000Y-51600000D01*
X59500000Y-52200000D02*
X59100000Y-51600000D01*
X59500000Y-52200000D02*
X59500000Y-52600000D01*
X59900000Y-51600000D02*
X59500000Y-52200000D01*
X60050000Y-52200000D02*
X59500000Y-52200000D01*
D12*
%TO.C,R1*%
X194695000Y-76806359D02*
X194695000Y-77113641D01*
X195455000Y-76806359D02*
X195455000Y-77113641D01*
D11*
%TO.C,D16*%
X146475000Y-141375000D02*
X147025000Y-141375000D01*
X146625000Y-140775000D02*
X147425000Y-140775000D01*
X147025000Y-140275000D02*
X147025000Y-140775000D01*
X147025000Y-141375000D02*
X146625000Y-140775000D01*
X147025000Y-141375000D02*
X147025000Y-141775000D01*
X147425000Y-140775000D02*
X147025000Y-141375000D01*
X147575000Y-141375000D02*
X147025000Y-141375000D01*
%TO.C,D7*%
X148950000Y-53200000D02*
X149500000Y-53200000D01*
X149100000Y-52600000D02*
X149900000Y-52600000D01*
X149500000Y-52100000D02*
X149500000Y-52600000D01*
X149500000Y-53200000D02*
X149100000Y-52600000D01*
X149500000Y-53200000D02*
X149500000Y-53600000D01*
X149900000Y-52600000D02*
X149500000Y-53200000D01*
X150050000Y-53200000D02*
X149500000Y-53200000D01*
%TO.C,D29*%
X148950000Y-87200000D02*
X149500000Y-87200000D01*
X149100000Y-86600000D02*
X149900000Y-86600000D01*
X149500000Y-86100000D02*
X149500000Y-86600000D01*
X149500000Y-87200000D02*
X149100000Y-86600000D01*
X149500000Y-87200000D02*
X149500000Y-87600000D01*
X149900000Y-86600000D02*
X149500000Y-87200000D01*
X150050000Y-87200000D02*
X149500000Y-87200000D01*
%TO.C,D25*%
X112950000Y-78200000D02*
X113500000Y-78200000D01*
X113100000Y-77600000D02*
X113900000Y-77600000D01*
X113500000Y-77100000D02*
X113500000Y-77600000D01*
X113500000Y-78200000D02*
X113100000Y-77600000D01*
X113500000Y-78200000D02*
X113500000Y-78600000D01*
X113900000Y-77600000D02*
X113500000Y-78200000D01*
X114050000Y-78200000D02*
X113500000Y-78200000D01*
%TO.C,D33*%
X102115000Y-102700000D02*
X102115000Y-103200000D01*
X102515000Y-103200000D02*
X102115000Y-103800000D01*
X101715000Y-103200000D02*
X102515000Y-103200000D01*
X102665000Y-103800000D02*
X102115000Y-103800000D01*
X102115000Y-103800000D02*
X101715000Y-103200000D01*
X102115000Y-103800000D02*
X102115000Y-104200000D01*
X101565000Y-103800000D02*
X102115000Y-103800000D01*
%TO.C,D11*%
X76950000Y-69200000D02*
X77500000Y-69200000D01*
X77100000Y-68600000D02*
X77900000Y-68600000D01*
X77500000Y-68100000D02*
X77500000Y-68600000D01*
X77500000Y-69200000D02*
X77100000Y-68600000D01*
X77500000Y-69200000D02*
X77500000Y-69600000D01*
X77900000Y-68600000D02*
X77500000Y-69200000D01*
X78050000Y-69200000D02*
X77500000Y-69200000D01*
%TO.C,D27*%
X130950000Y-83700000D02*
X131500000Y-83700000D01*
X131100000Y-83100000D02*
X131900000Y-83100000D01*
X131500000Y-82600000D02*
X131500000Y-83100000D01*
X131500000Y-83700000D02*
X131100000Y-83100000D01*
X131500000Y-83700000D02*
X131500000Y-84100000D01*
X131900000Y-83100000D02*
X131500000Y-83700000D01*
X132050000Y-83700000D02*
X131500000Y-83700000D01*
%TO.C,D5*%
X112950000Y-44050000D02*
X113500000Y-44050000D01*
X113100000Y-43450000D02*
X113900000Y-43450000D01*
X113500000Y-42950000D02*
X113500000Y-43450000D01*
X113500000Y-44050000D02*
X113100000Y-43450000D01*
X113500000Y-44050000D02*
X113500000Y-44450000D01*
X113900000Y-43450000D02*
X113500000Y-44050000D01*
X114050000Y-44050000D02*
X113500000Y-44050000D01*
%TO.C,D3*%
X76950000Y-52200000D02*
X77500000Y-52200000D01*
X77100000Y-51600000D02*
X77900000Y-51600000D01*
X77500000Y-51100000D02*
X77500000Y-51600000D01*
X77500000Y-52200000D02*
X77100000Y-51600000D01*
X77500000Y-52200000D02*
X77500000Y-52600000D01*
X77900000Y-51600000D02*
X77500000Y-52200000D01*
X78050000Y-52200000D02*
X77500000Y-52200000D01*
%TO.C,D20*%
X58950000Y-103200000D02*
X59500000Y-103200000D01*
X59100000Y-102600000D02*
X59900000Y-102600000D01*
X59500000Y-102100000D02*
X59500000Y-102600000D01*
X59500000Y-103200000D02*
X59100000Y-102600000D01*
X59500000Y-103200000D02*
X59500000Y-103600000D01*
X59900000Y-102600000D02*
X59500000Y-103200000D01*
X60050000Y-103200000D02*
X59500000Y-103200000D01*
%TO.C,D23*%
X94950000Y-82200000D02*
X95500000Y-82200000D01*
X95100000Y-81600000D02*
X95900000Y-81600000D01*
X95500000Y-81100000D02*
X95500000Y-81600000D01*
X95500000Y-82200000D02*
X95100000Y-81600000D01*
X95500000Y-82200000D02*
X95500000Y-82600000D01*
X95900000Y-81600000D02*
X95500000Y-82200000D01*
X96050000Y-82200000D02*
X95500000Y-82200000D01*
%TO.C,D31*%
X160950000Y-154350000D02*
X161500000Y-154350000D01*
X161100000Y-153750000D02*
X161900000Y-153750000D01*
X161500000Y-153250000D02*
X161500000Y-153750000D01*
X161500000Y-154350000D02*
X161100000Y-153750000D01*
X161500000Y-154350000D02*
X161500000Y-154750000D01*
X161900000Y-153750000D02*
X161500000Y-154350000D01*
X162050000Y-154350000D02*
X161500000Y-154350000D01*
%TO.C,U4*%
X228637500Y-97175000D02*
X228637500Y-91575000D01*
X228637500Y-97175000D02*
X226637500Y-97175000D01*
X228637500Y-91575000D02*
X226637500Y-91575000D01*
X226637500Y-97425000D02*
X226637500Y-91325000D01*
X214537500Y-97425000D02*
X226637500Y-97425000D01*
X214537500Y-97425000D02*
X214537500Y-91325000D01*
X214537500Y-91325000D02*
X226637500Y-91325000D01*
%TO.C,D21*%
X76950000Y-86200000D02*
X77500000Y-86200000D01*
X77100000Y-85600000D02*
X77900000Y-85600000D01*
X77500000Y-85100000D02*
X77500000Y-85600000D01*
X77500000Y-86200000D02*
X77100000Y-85600000D01*
X77500000Y-86200000D02*
X77500000Y-86600000D01*
X77900000Y-85600000D02*
X77500000Y-86200000D01*
X78050000Y-86200000D02*
X77500000Y-86200000D01*
%TO.C,D1*%
X40950000Y-52200000D02*
X41500000Y-52200000D01*
X41100000Y-51600000D02*
X41900000Y-51600000D01*
X41500000Y-51100000D02*
X41500000Y-51600000D01*
X41500000Y-52200000D02*
X41100000Y-51600000D01*
X41500000Y-52200000D02*
X41500000Y-52600000D01*
X41900000Y-51600000D02*
X41500000Y-52200000D01*
X42050000Y-52200000D02*
X41500000Y-52200000D01*
D12*
%TO.C,C16*%
X113475000Y-104057836D02*
X113475000Y-103842164D01*
X112755000Y-104057836D02*
X112755000Y-103842164D01*
D11*
%TO.C,D28*%
X130950000Y-100700000D02*
X131500000Y-100700000D01*
X131100000Y-100100000D02*
X131900000Y-100100000D01*
X131500000Y-99600000D02*
X131500000Y-100100000D01*
X131500000Y-100700000D02*
X131100000Y-100100000D01*
X131500000Y-100700000D02*
X131500000Y-101100000D01*
X131900000Y-100100000D02*
X131500000Y-100700000D01*
X132050000Y-100700000D02*
X131500000Y-100700000D01*
%TO.C,D10*%
X58950000Y-69200000D02*
X59500000Y-69200000D01*
X59100000Y-68600000D02*
X59900000Y-68600000D01*
X59500000Y-68100000D02*
X59500000Y-68600000D01*
X59500000Y-69200000D02*
X59100000Y-68600000D01*
X59500000Y-69200000D02*
X59500000Y-69600000D01*
X59900000Y-68600000D02*
X59500000Y-69200000D01*
X60050000Y-69200000D02*
X59500000Y-69200000D01*
%TO.C,D4*%
X94950000Y-48050000D02*
X95500000Y-48050000D01*
X95100000Y-47450000D02*
X95900000Y-47450000D01*
X95500000Y-46950000D02*
X95500000Y-47450000D01*
X95500000Y-48050000D02*
X95100000Y-47450000D01*
X95500000Y-48050000D02*
X95500000Y-48450000D01*
X95900000Y-47450000D02*
X95500000Y-48050000D01*
X96050000Y-48050000D02*
X95500000Y-48050000D01*
D12*
%TO.C,J6*%
X195070000Y-49825000D02*
X195070000Y-57505000D01*
X195070000Y-60105000D02*
X195070000Y-58775000D01*
X196400000Y-60105000D02*
X195070000Y-60105000D01*
X197730000Y-49825000D02*
X195070000Y-49825000D01*
X197730000Y-49825000D02*
X197730000Y-57505000D01*
X197730000Y-57505000D02*
X195070000Y-57505000D01*
%TD*%
M02*
