%TF.GenerationSoftware,KiCad,Pcbnew,8.0.5*%
%TF.CreationDate,2024-10-11T21:29:17+02:00*%
%TF.ProjectId,vaucasy_right,76617563-6173-4795-9f72-696768742e6b,rev?*%
%TF.SameCoordinates,Original*%
%TF.FileFunction,Paste,Bot*%
%TF.FilePolarity,Positive*%
%FSLAX46Y46*%
G04 Gerber Fmt 4.6, Leading zero omitted, Abs format (unit mm)*
G04 Created by KiCad (PCBNEW 8.0.5) date 2024-10-11 21:29:17*
%MOMM*%
%LPD*%
G01*
G04 APERTURE LIST*
G04 Aperture macros list*
%AMRoundRect*
0 Rectangle with rounded corners*
0 $1 Rounding radius*
0 $2 $3 $4 $5 $6 $7 $8 $9 X,Y pos of 4 corners*
0 Add a 4 corners polygon primitive as box body*
4,1,4,$2,$3,$4,$5,$6,$7,$8,$9,$2,$3,0*
0 Add four circle primitives for the rounded corners*
1,1,$1+$1,$2,$3*
1,1,$1+$1,$4,$5*
1,1,$1+$1,$6,$7*
1,1,$1+$1,$8,$9*
0 Add four rect primitives between the rounded corners*
20,1,$1+$1,$2,$3,$4,$5,0*
20,1,$1+$1,$4,$5,$6,$7,0*
20,1,$1+$1,$6,$7,$8,$9,0*
20,1,$1+$1,$8,$9,$2,$3,0*%
G04 Aperture macros list end*
%ADD10RoundRect,0.250000X-1.025000X-1.000000X1.025000X-1.000000X1.025000X1.000000X-1.025000X1.000000X0*%
%ADD11RoundRect,0.250000X-0.731255X-1.231215X1.248893X-0.700636X0.731255X1.231215X-1.248893X0.700636X0*%
%ADD12RoundRect,0.250000X-0.017678X-1.431891X1.431891X0.017678X0.017678X1.431891X-1.431891X-0.017678X0*%
%ADD13RoundRect,0.250000X-0.387676X-1.378525X1.387676X-0.353525X0.387676X1.378525X-1.387676X0.353525X0*%
%ADD14RoundRect,0.225000X0.375000X-0.225000X0.375000X0.225000X-0.375000X0.225000X-0.375000X-0.225000X0*%
%TA.AperFunction,Profile*%
%ADD15C,0.050000*%
%TD*%
G04 APERTURE END LIST*
D10*
%TO.C,S5*%
X128925000Y-41362500D03*
X140925000Y-43562500D03*
%TD*%
%TO.C,S27*%
X146925000Y-75362500D03*
X158925000Y-77562500D03*
%TD*%
%TO.C,S3*%
X92925000Y-33487500D03*
X104925000Y-35687500D03*
%TD*%
%TO.C,S19*%
X74925000Y-72912500D03*
X86925000Y-75112500D03*
%TD*%
%TO.C,S28*%
X146925000Y-92362500D03*
X158925000Y-94562500D03*
%TD*%
%TO.C,S7*%
X164925000Y-41362500D03*
X176925000Y-43562500D03*
%TD*%
%TO.C,S30*%
X164925000Y-92362500D03*
X176925000Y-94562500D03*
%TD*%
%TO.C,S14*%
X146925000Y-58362500D03*
X158925000Y-60562500D03*
%TD*%
%TO.C,S6*%
X146925000Y-41362500D03*
X158925000Y-43562500D03*
%TD*%
%TO.C,S15*%
X164925000Y-58362500D03*
X176925000Y-60562500D03*
%TD*%
%TO.C,S29*%
X164925000Y-75362500D03*
X176925000Y-77562500D03*
%TD*%
%TO.C,S22*%
X92925000Y-84487500D03*
X104925000Y-86687500D03*
%TD*%
%TO.C,S26*%
X128925000Y-92362500D03*
X140925000Y-94562500D03*
%TD*%
%TO.C,S23*%
X110925000Y-71437500D03*
X122925000Y-73637500D03*
%TD*%
%TO.C,S1*%
X56925000Y-42412500D03*
X68925000Y-44612500D03*
%TD*%
%TO.C,S13*%
X128925000Y-58362500D03*
X140925000Y-60562500D03*
%TD*%
%TO.C,S9*%
X56925000Y-59412500D03*
X68925000Y-61612500D03*
%TD*%
%TO.C,S4*%
X110925000Y-37437500D03*
X122925000Y-39637500D03*
%TD*%
%TO.C,S10*%
X74925000Y-55912500D03*
X86925000Y-58112500D03*
%TD*%
%TO.C,S11*%
X92925000Y-50487500D03*
X104925000Y-52687500D03*
%TD*%
%TO.C,S17*%
X56925000Y-76412500D03*
X68925000Y-78612500D03*
%TD*%
%TO.C,S24*%
X110925000Y-88437500D03*
X122925000Y-90637500D03*
%TD*%
D11*
%TO.C,S31*%
X72278846Y-115072810D03*
X84439357Y-114092020D03*
%TD*%
D10*
%TO.C,S2*%
X74925000Y-38912500D03*
X86925000Y-41112500D03*
%TD*%
%TO.C,S20*%
X74925000Y-89912500D03*
X86925000Y-92112500D03*
%TD*%
D12*
%TO.C,S8*%
X34283318Y-139167273D03*
X44324234Y-132237627D03*
%TD*%
D10*
%TO.C,S25*%
X128925000Y-75362500D03*
X140925000Y-77562500D03*
%TD*%
%TO.C,S12*%
X110925000Y-54437500D03*
X122925000Y-56637500D03*
%TD*%
%TO.C,S21*%
X92925000Y-67487500D03*
X104925000Y-69687500D03*
%TD*%
D13*
%TO.C,S16*%
X51724251Y-124583283D03*
X63216556Y-120488538D03*
%TD*%
D10*
%TO.C,S18*%
X56925000Y-93412500D03*
X68925000Y-95612500D03*
%TD*%
D14*
%TO.C,D19*%
X84637500Y-85562500D03*
X84637500Y-82262500D03*
%TD*%
%TO.C,D9*%
X66637500Y-72062500D03*
X66637500Y-68762500D03*
%TD*%
%TO.C,D15*%
X174637500Y-71012500D03*
X174637500Y-67712500D03*
%TD*%
%TO.C,D8*%
X48324360Y-142637500D03*
X48324360Y-139337500D03*
%TD*%
%TO.C,D17*%
X66637500Y-89062500D03*
X66637500Y-85762500D03*
%TD*%
%TO.C,D18*%
X66637500Y-105912500D03*
X66637500Y-102612500D03*
%TD*%
%TO.C,D14*%
X156637500Y-71012500D03*
X156637500Y-67712500D03*
%TD*%
%TO.C,D12*%
X120637500Y-67087500D03*
X120637500Y-63787500D03*
%TD*%
%TO.C,D24*%
X120637500Y-101087500D03*
X120637500Y-97787500D03*
%TD*%
%TO.C,D26*%
X138637500Y-105012500D03*
X138637500Y-101712500D03*
%TD*%
%TO.C,D13*%
X138637500Y-71012500D03*
X138637500Y-67712500D03*
%TD*%
%TO.C,D6*%
X156637500Y-53862500D03*
X156637500Y-50562500D03*
%TD*%
%TO.C,D22*%
X102637500Y-97137500D03*
X102637500Y-93837500D03*
%TD*%
%TO.C,D30*%
X174637500Y-105012500D03*
X174637500Y-101712500D03*
%TD*%
%TO.C,D2*%
X84637500Y-51562500D03*
X84637500Y-48262500D03*
%TD*%
%TO.C,D16*%
X64922328Y-131063538D03*
X64922328Y-127763538D03*
%TD*%
%TO.C,D7*%
X174637500Y-54012500D03*
X174637500Y-50712500D03*
%TD*%
%TO.C,D29*%
X174637500Y-88012500D03*
X174637500Y-84712500D03*
%TD*%
%TO.C,D25*%
X138637500Y-88012500D03*
X138637500Y-84712500D03*
%TD*%
%TO.C,D33*%
X91487500Y-104862500D03*
X91487500Y-101562500D03*
%TD*%
%TO.C,D11*%
X102637500Y-63137500D03*
X102637500Y-59837500D03*
%TD*%
%TO.C,D27*%
X156637500Y-88012500D03*
X156637500Y-84712500D03*
%TD*%
%TO.C,D5*%
X138637500Y-53862500D03*
X138637500Y-50562500D03*
%TD*%
%TO.C,D3*%
X102637500Y-46137500D03*
X102637500Y-42837500D03*
%TD*%
%TO.C,D20*%
X84637500Y-102562500D03*
X84637500Y-99262500D03*
%TD*%
%TO.C,D23*%
X120637500Y-84087500D03*
X120637500Y-80787500D03*
%TD*%
%TO.C,D31*%
X84397328Y-124588538D03*
X84397328Y-121288538D03*
%TD*%
%TO.C,D21*%
X102637500Y-80137500D03*
X102637500Y-76837500D03*
%TD*%
%TO.C,D1*%
X66637500Y-55062500D03*
X66637500Y-51762500D03*
%TD*%
%TO.C,D28*%
X156637500Y-105012500D03*
X156637500Y-101712500D03*
%TD*%
%TO.C,D10*%
X84637500Y-68562500D03*
X84637500Y-65262500D03*
%TD*%
%TO.C,D4*%
X120637500Y-49937500D03*
X120637500Y-46637500D03*
%TD*%
D15*
X50675000Y-28900000D02*
G75*
G02*
X51675000Y-27900000I1000000J0D01*
G01*
X50675000Y-28900000D02*
X50675000Y-30075000D01*
X126000000Y-34000000D02*
X126000000Y-36000000D01*
X50675000Y-30075000D02*
G75*
G02*
X49675000Y-31075000I-1000000J0D01*
G01*
X125000000Y-33000000D02*
G75*
G02*
X126000000Y-34000000I0J-1000000D01*
G01*
X81725000Y-27900000D02*
X51675000Y-27900000D01*
X49675000Y-31075000D02*
X26000000Y-31075000D01*
X107000000Y-27900000D02*
G75*
G02*
X108000000Y-28900000I0J-1000000D01*
G01*
X40475061Y-157475061D02*
X25292893Y-142292893D01*
X127000000Y-37000000D02*
G75*
G02*
X126000000Y-36000000I0J1000000D01*
G01*
X25000000Y-141585786D02*
X25000000Y-32075000D01*
X25000000Y-32075000D02*
G75*
G02*
X26000000Y-31075000I1000000J0D01*
G01*
X179000000Y-38000000D02*
X179000000Y-108000000D01*
X109000000Y-33000000D02*
X125000000Y-33000000D01*
X115707107Y-109292893D02*
X97104551Y-127895449D01*
X178000000Y-109000000D02*
X116414214Y-109000000D01*
X96869666Y-128069822D02*
X41654390Y-157649434D01*
X127000000Y-37000000D02*
X178000000Y-37000000D01*
X108000000Y-28900000D02*
X108000000Y-32000000D01*
X109000000Y-33000000D02*
G75*
G02*
X108000000Y-32000000I0J1000000D01*
G01*
X41654390Y-157649434D02*
G75*
G02*
X40475081Y-157475041I-472190J881534D01*
G01*
X97104551Y-127895449D02*
G75*
G02*
X96869667Y-128069825I-707151J707149D01*
G01*
X178000000Y-37000000D02*
G75*
G02*
X179000000Y-38000000I0J-1000000D01*
G01*
X25292893Y-142292893D02*
G75*
G02*
X25000010Y-141585786I707107J707093D01*
G01*
X81725000Y-27900000D02*
X107000000Y-27900000D01*
X179000000Y-108000000D02*
G75*
G02*
X178000000Y-109000000I-1000000J0D01*
G01*
X115707107Y-109292893D02*
G75*
G02*
X116414214Y-109000010I707093J-707107D01*
G01*
M02*
