%TF.GenerationSoftware,KiCad,Pcbnew,8.0.5*%
%TF.CreationDate,2024-10-11T21:29:17+02:00*%
%TF.ProjectId,vaucasy_right,76617563-6173-4795-9f72-696768742e6b,rev?*%
%TF.SameCoordinates,Original*%
%TF.FileFunction,Profile,NP*%
%FSLAX46Y46*%
G04 Gerber Fmt 4.6, Leading zero omitted, Abs format (unit mm)*
G04 Created by KiCad (PCBNEW 8.0.5) date 2024-10-11 21:29:17*
%MOMM*%
%LPD*%
G01*
G04 APERTURE LIST*
%TA.AperFunction,Profile*%
%ADD10C,0.050000*%
%TD*%
G04 APERTURE END LIST*
D10*
X50675000Y-28900000D02*
G75*
G02*
X51675000Y-27900000I1000000J0D01*
G01*
X50675000Y-28900000D02*
X50675000Y-30075000D01*
X126000000Y-34000000D02*
X126000000Y-36000000D01*
X50675000Y-30075000D02*
G75*
G02*
X49675000Y-31075000I-1000000J0D01*
G01*
X125000000Y-33000000D02*
G75*
G02*
X126000000Y-34000000I0J-1000000D01*
G01*
X81725000Y-27900000D02*
X51675000Y-27900000D01*
X49675000Y-31075000D02*
X26000000Y-31075000D01*
X107000000Y-27900000D02*
G75*
G02*
X108000000Y-28900000I0J-1000000D01*
G01*
X40475061Y-157475061D02*
X25292893Y-142292893D01*
X127000000Y-37000000D02*
G75*
G02*
X126000000Y-36000000I0J1000000D01*
G01*
X25000000Y-141585786D02*
X25000000Y-32075000D01*
X25000000Y-32075000D02*
G75*
G02*
X26000000Y-31075000I1000000J0D01*
G01*
X179000000Y-38000000D02*
X179000000Y-108000000D01*
X109000000Y-33000000D02*
X125000000Y-33000000D01*
X115707107Y-109292893D02*
X97104551Y-127895449D01*
X178000000Y-109000000D02*
X116414214Y-109000000D01*
X96869666Y-128069822D02*
X41654390Y-157649434D01*
X127000000Y-37000000D02*
X178000000Y-37000000D01*
X108000000Y-28900000D02*
X108000000Y-32000000D01*
X109000000Y-33000000D02*
G75*
G02*
X108000000Y-32000000I0J1000000D01*
G01*
X41654390Y-157649434D02*
G75*
G02*
X40475081Y-157475041I-472190J881534D01*
G01*
X97104551Y-127895449D02*
G75*
G02*
X96869667Y-128069825I-707151J707149D01*
G01*
X178000000Y-37000000D02*
G75*
G02*
X179000000Y-38000000I0J-1000000D01*
G01*
X25292893Y-142292893D02*
G75*
G02*
X25000010Y-141585786I707107J707093D01*
G01*
X81725000Y-27900000D02*
X107000000Y-27900000D01*
X179000000Y-108000000D02*
G75*
G02*
X178000000Y-109000000I-1000000J0D01*
G01*
X115707107Y-109292893D02*
G75*
G02*
X116414214Y-109000010I707093J-707107D01*
G01*
M02*
