%TF.GenerationSoftware,KiCad,Pcbnew,8.0.5*%
%TF.CreationDate,2024-10-11T21:29:17+02:00*%
%TF.ProjectId,vaucasy_right,76617563-6173-4795-9f72-696768742e6b,rev?*%
%TF.SameCoordinates,Original*%
%TF.FileFunction,Paste,Top*%
%TF.FilePolarity,Positive*%
%FSLAX46Y46*%
G04 Gerber Fmt 4.6, Leading zero omitted, Abs format (unit mm)*
G04 Created by KiCad (PCBNEW 8.0.5) date 2024-10-11 21:29:17*
%MOMM*%
%LPD*%
G01*
G04 APERTURE LIST*
G04 Aperture macros list*
%AMRoundRect*
0 Rectangle with rounded corners*
0 $1 Rounding radius*
0 $2 $3 $4 $5 $6 $7 $8 $9 X,Y pos of 4 corners*
0 Add a 4 corners polygon primitive as box body*
4,1,4,$2,$3,$4,$5,$6,$7,$8,$9,$2,$3,0*
0 Add four circle primitives for the rounded corners*
1,1,$1+$1,$2,$3*
1,1,$1+$1,$4,$5*
1,1,$1+$1,$6,$7*
1,1,$1+$1,$8,$9*
0 Add four rect primitives between the rounded corners*
20,1,$1+$1,$2,$3,$4,$5,0*
20,1,$1+$1,$4,$5,$6,$7,0*
20,1,$1+$1,$6,$7,$8,$9,0*
20,1,$1+$1,$8,$9,$2,$3,0*%
G04 Aperture macros list end*
%ADD10RoundRect,0.218750X-0.256250X0.218750X-0.256250X-0.218750X0.256250X-0.218750X0.256250X0.218750X0*%
%ADD11RoundRect,0.150000X0.150000X-0.512500X0.150000X0.512500X-0.150000X0.512500X-0.150000X-0.512500X0*%
%ADD12RoundRect,0.135000X0.135000X0.185000X-0.135000X0.185000X-0.135000X-0.185000X0.135000X-0.185000X0*%
%ADD13RoundRect,0.075000X0.075000X-0.700000X0.075000X0.700000X-0.075000X0.700000X-0.075000X-0.700000X0*%
%ADD14RoundRect,0.075000X0.700000X-0.075000X0.700000X0.075000X-0.700000X0.075000X-0.700000X-0.075000X0*%
%ADD15R,1.700000X1.000000*%
%ADD16RoundRect,0.140000X-0.140000X-0.170000X0.140000X-0.170000X0.140000X0.170000X-0.140000X0.170000X0*%
%ADD17RoundRect,0.135000X-0.135000X-0.185000X0.135000X-0.185000X0.135000X0.185000X-0.135000X0.185000X0*%
%ADD18R,1.000000X0.800000*%
%ADD19R,0.700000X1.500000*%
%ADD20RoundRect,0.135000X0.185000X-0.135000X0.185000X0.135000X-0.185000X0.135000X-0.185000X-0.135000X0*%
%ADD21RoundRect,0.140000X0.170000X-0.140000X0.170000X0.140000X-0.170000X0.140000X-0.170000X-0.140000X0*%
%ADD22RoundRect,0.150000X-0.150000X0.512500X-0.150000X-0.512500X0.150000X-0.512500X0.150000X0.512500X0*%
%ADD23RoundRect,0.140000X0.140000X0.170000X-0.140000X0.170000X-0.140000X-0.170000X0.140000X-0.170000X0*%
%ADD24RoundRect,0.225000X0.225000X0.250000X-0.225000X0.250000X-0.225000X-0.250000X0.225000X-0.250000X0*%
%ADD25RoundRect,0.135000X-0.185000X0.135000X-0.185000X-0.135000X0.185000X-0.135000X0.185000X0.135000X0*%
%ADD26RoundRect,0.140000X-0.170000X0.140000X-0.170000X-0.140000X0.170000X-0.140000X0.170000X0.140000X0*%
%ADD27R,0.600000X1.450000*%
%ADD28R,0.300000X1.450000*%
%ADD29RoundRect,0.225000X-0.250000X0.225000X-0.250000X-0.225000X0.250000X-0.225000X0.250000X0.225000X0*%
%ADD30R,1.400000X1.200000*%
%TA.AperFunction,Profile*%
%ADD31C,0.050000*%
%TD*%
G04 APERTURE END LIST*
D10*
%TO.C,F1*%
X33012500Y-44500000D03*
X33012500Y-46075000D03*
%TD*%
D11*
%TO.C,U3*%
X40987500Y-53320000D03*
X42887500Y-53320000D03*
X41937500Y-51045000D03*
%TD*%
D12*
%TO.C,R10*%
X35472500Y-83112500D03*
X34452500Y-83112500D03*
%TD*%
D13*
%TO.C,U1*%
X34887500Y-69712500D03*
X35387500Y-69712500D03*
X35887500Y-69712500D03*
X36387500Y-69712500D03*
X36887500Y-69712500D03*
X37387500Y-69712500D03*
X37887500Y-69712500D03*
X38387500Y-69712500D03*
X38887500Y-69712500D03*
X39387500Y-69712500D03*
X39887500Y-69712500D03*
X40387500Y-69712500D03*
X40887500Y-69712500D03*
X41387500Y-69712500D03*
X41887500Y-69712500D03*
X42387500Y-69712500D03*
D14*
X44312500Y-67787500D03*
X44312500Y-67287500D03*
X44312500Y-66787500D03*
X44312500Y-66287500D03*
X44312500Y-65787500D03*
X44312500Y-65287500D03*
X44312500Y-64787500D03*
X44312500Y-64287500D03*
X44312500Y-63787500D03*
X44312500Y-63287500D03*
X44312500Y-62787500D03*
X44312500Y-62287500D03*
X44312500Y-61787500D03*
X44312500Y-61287500D03*
X44312500Y-60787500D03*
X44312500Y-60287500D03*
D13*
X42387500Y-58362500D03*
X41887500Y-58362500D03*
X41387500Y-58362500D03*
X40887500Y-58362500D03*
X40387500Y-58362500D03*
X39887500Y-58362500D03*
X39387500Y-58362500D03*
X38887500Y-58362500D03*
X38387500Y-58362500D03*
X37887500Y-58362500D03*
X37387500Y-58362500D03*
X36887500Y-58362500D03*
X36387500Y-58362500D03*
X35887500Y-58362500D03*
X35387500Y-58362500D03*
X34887500Y-58362500D03*
D14*
X32962500Y-60287500D03*
X32962500Y-60787500D03*
X32962500Y-61287500D03*
X32962500Y-61787500D03*
X32962500Y-62287500D03*
X32962500Y-62787500D03*
X32962500Y-63287500D03*
X32962500Y-63787500D03*
X32962500Y-64287500D03*
X32962500Y-64787500D03*
X32962500Y-65287500D03*
X32962500Y-65787500D03*
X32962500Y-66287500D03*
X32962500Y-66787500D03*
X32962500Y-67287500D03*
X32962500Y-67787500D03*
%TD*%
D15*
%TO.C,SW2*%
X58412500Y-34230000D03*
X52112500Y-34230000D03*
X58412500Y-30430000D03*
X52112500Y-30430000D03*
%TD*%
D16*
%TO.C,C11*%
X36357500Y-73537500D03*
X37317500Y-73537500D03*
%TD*%
%TO.C,C5*%
X30457500Y-67737500D03*
X31417500Y-67737500D03*
%TD*%
%TO.C,C14*%
X97507500Y-119212500D03*
X98467500Y-119212500D03*
%TD*%
D17*
%TO.C,R7*%
X99397500Y-119212500D03*
X100417500Y-119212500D03*
%TD*%
D18*
%TO.C,SW1*%
X68387500Y-32980000D03*
X68387500Y-30770000D03*
X61087500Y-32980000D03*
X61087500Y-30770000D03*
D19*
X66987500Y-33630000D03*
X63987500Y-33630000D03*
X62487500Y-33630000D03*
%TD*%
D12*
%TO.C,R6*%
X103135000Y-99025000D03*
X102115000Y-99025000D03*
%TD*%
D16*
%TO.C,C9*%
X40977500Y-49332500D03*
X41937500Y-49332500D03*
%TD*%
D17*
%TO.C,R1*%
X64002500Y-35275000D03*
X65022500Y-35275000D03*
%TD*%
D20*
%TO.C,R8*%
X94487500Y-120222500D03*
X94487500Y-119202500D03*
%TD*%
D21*
%TO.C,C1*%
X34662500Y-72192500D03*
X34662500Y-71232500D03*
%TD*%
D20*
%TO.C,R13*%
X34312500Y-103707500D03*
X34312500Y-102687500D03*
%TD*%
D22*
%TO.C,U2*%
X37587500Y-47257500D03*
X36637500Y-47257500D03*
X35687500Y-47257500D03*
X35687500Y-49532500D03*
X36637500Y-49532500D03*
X37587500Y-49532500D03*
%TD*%
D17*
%TO.C,R2*%
X55852500Y-35955000D03*
X56872500Y-35955000D03*
%TD*%
%TO.C,R4*%
X33627500Y-41012500D03*
X34647500Y-41012500D03*
%TD*%
D23*
%TO.C,C17*%
X31417500Y-65862500D03*
X30457500Y-65862500D03*
%TD*%
D24*
%TO.C,C6*%
X45137500Y-57962500D03*
X43587500Y-57962500D03*
%TD*%
D21*
%TO.C,C2*%
X45887500Y-67537500D03*
X45887500Y-66577500D03*
%TD*%
D16*
%TO.C,C8*%
X41507500Y-54832500D03*
X42467500Y-54832500D03*
%TD*%
D25*
%TO.C,R14*%
X34312500Y-100197500D03*
X34312500Y-101217500D03*
%TD*%
D26*
%TO.C,C16*%
X104675000Y-101670000D03*
X104675000Y-102630000D03*
%TD*%
D23*
%TO.C,C3*%
X45342500Y-59362500D03*
X44382500Y-59362500D03*
%TD*%
D16*
%TO.C,C10*%
X34357500Y-73537500D03*
X35317500Y-73537500D03*
%TD*%
%TO.C,C13*%
X40177500Y-71262500D03*
X41137500Y-71262500D03*
%TD*%
D12*
%TO.C,R3*%
X39472500Y-41012500D03*
X38452500Y-41012500D03*
%TD*%
D16*
%TO.C,C15*%
X95507500Y-119212500D03*
X96467500Y-119212500D03*
%TD*%
D27*
%TO.C,J1*%
X39887500Y-38972500D03*
X39087500Y-38972500D03*
D28*
X37887500Y-38972500D03*
X36887500Y-38972500D03*
X36387500Y-38972500D03*
X35387500Y-38972500D03*
D27*
X34187500Y-38972500D03*
X33387500Y-38972500D03*
X33387500Y-38972500D03*
X34187500Y-38972500D03*
D28*
X34887500Y-38972500D03*
X35887500Y-38972500D03*
X37387500Y-38972500D03*
X38387500Y-38972500D03*
D27*
X39087500Y-38972500D03*
X39887500Y-38972500D03*
%TD*%
D29*
%TO.C,C12*%
X46137500Y-61287500D03*
X46137500Y-62837500D03*
%TD*%
D21*
%TO.C,C7*%
X38612500Y-72292500D03*
X38612500Y-71332500D03*
%TD*%
D23*
%TO.C,C4*%
X35567500Y-56812500D03*
X34607500Y-56812500D03*
%TD*%
D12*
%TO.C,R9*%
X37447500Y-83112500D03*
X36427500Y-83112500D03*
%TD*%
D30*
%TO.C,Y1*%
X34737500Y-76687500D03*
X36937500Y-76687500D03*
X36937500Y-74987500D03*
X34737500Y-74987500D03*
%TD*%
D31*
X50675000Y-28900000D02*
G75*
G02*
X51675000Y-27900000I1000000J0D01*
G01*
X50675000Y-28900000D02*
X50675000Y-30075000D01*
X126000000Y-34000000D02*
X126000000Y-36000000D01*
X50675000Y-30075000D02*
G75*
G02*
X49675000Y-31075000I-1000000J0D01*
G01*
X125000000Y-33000000D02*
G75*
G02*
X126000000Y-34000000I0J-1000000D01*
G01*
X81725000Y-27900000D02*
X51675000Y-27900000D01*
X49675000Y-31075000D02*
X26000000Y-31075000D01*
X107000000Y-27900000D02*
G75*
G02*
X108000000Y-28900000I0J-1000000D01*
G01*
X40475061Y-157475061D02*
X25292893Y-142292893D01*
X127000000Y-37000000D02*
G75*
G02*
X126000000Y-36000000I0J1000000D01*
G01*
X25000000Y-141585786D02*
X25000000Y-32075000D01*
X25000000Y-32075000D02*
G75*
G02*
X26000000Y-31075000I1000000J0D01*
G01*
X179000000Y-38000000D02*
X179000000Y-108000000D01*
X109000000Y-33000000D02*
X125000000Y-33000000D01*
X115707107Y-109292893D02*
X97104551Y-127895449D01*
X178000000Y-109000000D02*
X116414214Y-109000000D01*
X96869666Y-128069822D02*
X41654390Y-157649434D01*
X127000000Y-37000000D02*
X178000000Y-37000000D01*
X108000000Y-28900000D02*
X108000000Y-32000000D01*
X109000000Y-33000000D02*
G75*
G02*
X108000000Y-32000000I0J1000000D01*
G01*
X41654390Y-157649434D02*
G75*
G02*
X40475081Y-157475041I-472190J881534D01*
G01*
X97104551Y-127895449D02*
G75*
G02*
X96869667Y-128069825I-707151J707149D01*
G01*
X178000000Y-37000000D02*
G75*
G02*
X179000000Y-38000000I0J-1000000D01*
G01*
X25292893Y-142292893D02*
G75*
G02*
X25000010Y-141585786I707107J707093D01*
G01*
X81725000Y-27900000D02*
X107000000Y-27900000D01*
X179000000Y-108000000D02*
G75*
G02*
X178000000Y-109000000I-1000000J0D01*
G01*
X115707107Y-109292893D02*
G75*
G02*
X116414214Y-109000010I707093J-707107D01*
G01*
M02*
