M48
; DRILL file {KiCad 8.0.5} date 2024-10-11T21:29:14+0200
; FORMAT={-:-/ absolute / metric / decimal}
; #@! TF.CreationDate,2024-10-11T21:29:14+02:00
; #@! TF.GenerationSoftware,Kicad,Pcbnew,8.0.5
; #@! TF.FileFunction,MixedPlating,1,2
FMAT,2
METRIC
; #@! TA.AperFunction,Plated,PTH,ViaDrill
T1C0.300
; #@! TA.AperFunction,Plated,PTH,ComponentDrill
T2C0.600
; #@! TA.AperFunction,Plated,PTH,ComponentDrill
T3C0.900
; #@! TA.AperFunction,Plated,PTH,ComponentDrill
T4C1.000
; #@! TA.AperFunction,Plated,PTH,ComponentDrill
T5C1.500
; #@! TA.AperFunction,NonPlated,NPTH,ComponentDrill
T6C0.650
; #@! TA.AperFunction,NonPlated,NPTH,ComponentDrill
T7C0.800
; #@! TA.AperFunction,NonPlated,NPTH,ComponentDrill
T8C0.900
; #@! TA.AperFunction,NonPlated,NPTH,ComponentDrill
T9C1.600
; #@! TA.AperFunction,NonPlated,NPTH,ComponentDrill
T10C1.900
; #@! TA.AperFunction,NonPlated,NPTH,ComponentDrill
T11C2.200
; #@! TA.AperFunction,NonPlated,NPTH,ComponentDrill
T12C3.050
; #@! TA.AperFunction,NonPlated,NPTH,ComponentDrill
T13C5.050
%
G90
G05
T1
X26.938Y-62.237
X27.862Y-63.688
X27.962Y-61.087
X28.362Y-47.362
X28.875Y-61.987
X30.212Y-83.688
X30.462Y-66.787
X31.412Y-58.762
X31.412Y-66.888
X31.938Y-70.037
X33.137Y-100.188
X33.137Y-102.637
X33.237Y-68.737
X33.562Y-72.537
X34.188Y-40.163
X34.212Y-42.163
X34.288Y-48.412
X34.512Y-81.587
X34.605Y-67.343
X35.462Y-132.612
X35.637Y-55.738
X35.663Y-54.762
X36.012Y-82.138
X36.137Y-98.112
X36.242Y-40.962
X36.362Y-60.312
X36.587Y-72.638
X36.632Y-48.47
X36.637Y-46.312
X36.938Y-77.912
X37.362Y-96.887
X37.363Y-41.987
X37.637Y-54.787
X37.737Y-68.388
X38.237Y-81.212
X38.425Y-73.675
X38.612Y-87.388
X38.612Y-91.462
X38.812Y-68.388
X38.887Y-60.287
X39.019Y-40.177
X39.237Y-48.462
X39.387Y-82.112
X39.709Y-68.303
X39.887Y-95.887
X40.188Y-60.162
X40.188Y-49.332
X40.638Y-57.061
X40.987Y-52.063
X41.038Y-74.1
X41.112Y-60.112
X41.237Y-66.062
X41.539Y-64.535
X41.637Y-91.487
X41.837Y-74.812
X41.862Y-80.562
X42.137Y-60.012
X42.27Y-66.067
X42.562Y-56.337
X42.913Y-64.763
X42.962Y-62.036
X42.987Y-60.962
X42.988Y-63.835
X42.992Y-62.935
X43.012Y-74.812
X43.262Y-73.662
X43.663Y-87.112
X43.663Y-91.513
X43.862Y-69.74
X44.215Y-70.568
X44.637Y-68.787
X45.413Y-70.812
X45.475Y-72.55
X45.771Y-67.906
X45.925Y-70.046
X46.612Y-57.987
X47.238Y-67.571
X47.425Y-69.2
X47.562Y-78.263
X47.612Y-77.237
X47.837Y-62.762
X48.075Y-61.1
X48.112Y-64.987
X49.262Y-59.712
X50.237Y-71.462
X50.312Y-65.962
X50.618Y-78.872
X50.662Y-64.862
X51.053Y-78.084
X51.087Y-75.987
X51.537Y-37.612
X53.012Y-113.037
X53.087Y-35.987
X54.45Y-93.688
X54.525Y-59.312
X54.575Y-76.337
X55.012Y-111.012
X56.925Y-49.313
X56.925Y-66.263
X56.925Y-78.688
X58.112Y-118.912
X58.387Y-35.955
X59.762Y-31.805
X65.062Y-37.337
X66.938Y-124.912
X68.862Y-124.487
X72.675Y-55.812
X72.675Y-72.812
X72.675Y-90.112
X74.925Y-80.062
X74.925Y-63.062
X74.925Y-46.062
X88.037Y-106.562
X90.675Y-50.387
X90.675Y-67.388
X90.675Y-84.388
X92.925Y-57.638
X92.925Y-74.638
X92.925Y-40.637
X104.675Y-103.7
X106.725Y-100.275
X108.775Y-88.438
X108.8Y-54.438
X108.828Y-71.485
X110.819Y-44.694
X110.881Y-78.631
X110.925Y-61.587
X125.925Y-89.287
X126.675Y-92.263
X126.83Y-75.418
X126.866Y-58.453
X128.925Y-47.738
X128.925Y-64.888
X128.925Y-82.512
X143.925Y-72.587
X144.675Y-58.262
X144.675Y-75.263
X144.675Y-92.263
X146.925Y-48.513
X146.925Y-82.512
X146.925Y-65.512
X161.963Y-55.162
X162.713Y-58.312
X162.713Y-75.312
X162.713Y-92.312
X164.963Y-65.562
X164.963Y-82.562
X164.963Y-48.562
T4
X29.137Y-34.487
X29.137Y-37.027
X29.137Y-39.567
X29.137Y-42.107
X30.812Y-97.947
X30.812Y-100.487
X30.812Y-103.027
X30.812Y-105.567
X30.812Y-108.108
X32.237Y-88.513
X34.747Y-84.888
X34.777Y-88.513
X37.288Y-84.888
X37.317Y-88.513
X39.828Y-84.888
X39.858Y-88.513
X42.367Y-84.888
X42.398Y-88.513
X44.938Y-88.513
X94.387Y-101.962
X94.387Y-116.462
X96.887Y-116.462
X99.387Y-101.962
X99.387Y-116.462
T6
X33.747Y-37.527
X39.527Y-37.527
T7
X47.112Y-34.525
X47.112Y-41.525
T8
X63.237Y-31.87
X66.237Y-31.87
T9
X41.107Y-148.112
X55.425Y-53.562
X55.425Y-70.562
X55.425Y-87.562
X55.425Y-104.562
X56.0Y-134.989
X73.425Y-50.062
X73.425Y-67.062
X73.425Y-84.062
X73.425Y-101.062
X73.716Y-126.231
X91.425Y-44.637
X91.425Y-61.637
X91.425Y-78.638
X91.425Y-95.637
X109.425Y-48.587
X109.425Y-65.587
X109.425Y-82.587
X109.425Y-99.587
X127.425Y-52.512
X127.425Y-69.513
X127.425Y-86.513
X127.425Y-103.512
X145.425Y-52.512
X145.425Y-69.513
X145.425Y-86.513
X145.425Y-103.512
X163.425Y-52.512
X163.425Y-69.513
X163.425Y-86.513
X163.425Y-103.512
T10
X37.112Y-144.824
X44.89Y-137.046
X52.992Y-130.779
X54.925Y-48.412
X54.925Y-65.412
X54.925Y-82.412
X54.925Y-99.412
X62.518Y-125.279
X65.925Y-48.412
X65.925Y-65.412
X65.925Y-82.412
X65.925Y-99.412
X71.9Y-121.386
X72.925Y-44.913
X72.925Y-61.912
X72.925Y-78.912
X72.925Y-95.912
X82.525Y-118.539
X83.925Y-44.913
X83.925Y-61.912
X83.925Y-78.912
X83.925Y-95.912
X90.925Y-39.487
X90.925Y-56.487
X90.925Y-73.487
X90.925Y-90.487
X101.925Y-39.487
X101.925Y-56.487
X101.925Y-73.487
X101.925Y-90.487
X108.925Y-43.438
X108.925Y-60.438
X108.925Y-77.438
X108.925Y-94.438
X119.925Y-43.438
X119.925Y-60.438
X119.925Y-77.438
X119.925Y-94.438
X126.925Y-47.362
X126.925Y-64.362
X126.925Y-81.362
X126.925Y-98.362
X137.925Y-47.362
X137.925Y-64.362
X137.925Y-81.362
X137.925Y-98.362
X144.925Y-47.362
X144.925Y-64.362
X144.925Y-81.362
X144.925Y-98.362
X155.925Y-47.362
X155.925Y-64.362
X155.925Y-81.362
X155.925Y-98.362
X162.925Y-47.362
X162.925Y-64.362
X162.925Y-81.362
X162.925Y-98.362
X173.925Y-47.362
X173.925Y-64.362
X173.925Y-81.362
X173.925Y-98.362
T11
X38.6Y-121.825
X84.075Y-33.1
X109.325Y-108.1
T12
X36.829Y-136.763
X41.849Y-134.713
X54.805Y-122.92
X60.185Y-122.239
X60.425Y-42.512
X60.425Y-59.512
X60.425Y-76.513
X60.425Y-93.513
X65.425Y-44.612
X65.425Y-61.612
X65.425Y-78.612
X65.425Y-95.612
X75.685Y-114.264
X78.425Y-39.012
X78.425Y-56.012
X78.425Y-73.013
X78.425Y-90.013
X81.059Y-114.998
X83.425Y-41.112
X83.425Y-58.112
X83.425Y-75.112
X83.425Y-92.112
X96.425Y-33.587
X96.425Y-50.587
X96.425Y-67.587
X96.425Y-84.587
X101.425Y-35.688
X101.425Y-52.688
X101.425Y-69.688
X101.425Y-86.688
X114.425Y-37.538
X114.425Y-54.537
X114.425Y-71.537
X114.425Y-88.537
X119.425Y-39.637
X119.425Y-56.637
X119.425Y-73.638
X119.425Y-90.638
X132.425Y-41.462
X132.425Y-58.462
X132.425Y-75.462
X132.425Y-92.462
X137.425Y-43.562
X137.425Y-60.562
X137.425Y-77.562
X137.425Y-94.562
X150.425Y-41.462
X150.425Y-58.462
X150.425Y-75.462
X150.425Y-92.462
X155.425Y-43.562
X155.425Y-60.562
X155.425Y-77.562
X155.425Y-94.562
X168.425Y-41.462
X168.425Y-58.462
X168.425Y-75.462
X168.425Y-92.462
X173.425Y-43.562
X173.425Y-60.562
X173.425Y-77.562
X173.425Y-94.562
T13
X41.001Y-140.935
X57.755Y-128.029
X60.425Y-48.412
X60.425Y-65.412
X60.425Y-82.412
X60.425Y-99.412
X77.212Y-119.962
X78.425Y-44.913
X78.425Y-61.912
X78.425Y-78.912
X78.425Y-95.912
X96.425Y-39.487
X96.425Y-56.487
X96.425Y-73.487
X96.425Y-90.487
X114.425Y-43.438
X114.425Y-60.438
X114.425Y-77.438
X114.425Y-94.438
X132.425Y-47.362
X132.425Y-64.362
X132.425Y-81.362
X132.425Y-98.362
X150.425Y-47.362
X150.425Y-64.362
X150.425Y-81.362
X150.425Y-98.362
X168.425Y-47.362
X168.425Y-64.362
X168.425Y-81.362
X168.425Y-98.362
T2
G00X32.317Y-34.178
M15
G01X32.317Y-33.578
M16
G05
G00X32.317Y-38.608
M15
G01X32.317Y-37.508
M16
G05
G00X40.957Y-34.178
M15
G01X40.957Y-33.578
M16
G05
G00X40.957Y-38.608
M15
G01X40.957Y-37.508
M16
G05
T3
G00X44.812Y-44.025
M15
G01X44.812Y-44.425
M16
G05
G00X49.412Y-35.925
M15
G01X49.412Y-36.325
M16
G05
G00X49.412Y-38.925
M15
G01X49.412Y-39.325
M16
G05
G00X49.412Y-42.925
M15
G01X49.412Y-43.325
M16
G05
T5
G00X91.287Y-109.612
M15
G01X91.287Y-108.312
M16
G05
G00X102.487Y-109.612
M15
G01X102.487Y-108.312
M16
G05
M30
