%TF.GenerationSoftware,KiCad,Pcbnew,8.0.5*%
%TF.CreationDate,2024-10-11T21:29:17+02:00*%
%TF.ProjectId,vaucasy_right,76617563-6173-4795-9f72-696768742e6b,rev?*%
%TF.SameCoordinates,Original*%
%TF.FileFunction,Soldermask,Top*%
%TF.FilePolarity,Negative*%
%FSLAX46Y46*%
G04 Gerber Fmt 4.6, Leading zero omitted, Abs format (unit mm)*
G04 Created by KiCad (PCBNEW 8.0.5) date 2024-10-11 21:29:17*
%MOMM*%
%LPD*%
G01*
G04 APERTURE LIST*
G04 Aperture macros list*
%AMRoundRect*
0 Rectangle with rounded corners*
0 $1 Rounding radius*
0 $2 $3 $4 $5 $6 $7 $8 $9 X,Y pos of 4 corners*
0 Add a 4 corners polygon primitive as box body*
4,1,4,$2,$3,$4,$5,$6,$7,$8,$9,$2,$3,0*
0 Add four circle primitives for the rounded corners*
1,1,$1+$1,$2,$3*
1,1,$1+$1,$4,$5*
1,1,$1+$1,$6,$7*
1,1,$1+$1,$8,$9*
0 Add four rect primitives between the rounded corners*
20,1,$1+$1,$2,$3,$4,$5,0*
20,1,$1+$1,$4,$5,$6,$7,0*
20,1,$1+$1,$6,$7,$8,$9,0*
20,1,$1+$1,$8,$9,$2,$3,0*%
G04 Aperture macros list end*
%ADD10RoundRect,0.218750X-0.256250X0.218750X-0.256250X-0.218750X0.256250X-0.218750X0.256250X0.218750X0*%
%ADD11RoundRect,0.150000X0.150000X-0.512500X0.150000X0.512500X-0.150000X0.512500X-0.150000X-0.512500X0*%
%ADD12RoundRect,0.135000X0.135000X0.185000X-0.135000X0.185000X-0.135000X-0.185000X0.135000X-0.185000X0*%
%ADD13RoundRect,0.075000X0.075000X-0.700000X0.075000X0.700000X-0.075000X0.700000X-0.075000X-0.700000X0*%
%ADD14RoundRect,0.075000X0.700000X-0.075000X0.700000X0.075000X-0.700000X0.075000X-0.700000X-0.075000X0*%
%ADD15R,1.700000X1.000000*%
%ADD16RoundRect,0.140000X-0.140000X-0.170000X0.140000X-0.170000X0.140000X0.170000X-0.140000X0.170000X0*%
%ADD17R,2.000000X2.000000*%
%ADD18C,2.000000*%
%ADD19R,2.000000X3.200000*%
%ADD20R,1.700000X1.700000*%
%ADD21O,1.700000X1.700000*%
%ADD22C,1.900000*%
%ADD23C,1.600000*%
%ADD24C,3.050000*%
%ADD25C,5.050000*%
%ADD26RoundRect,0.135000X-0.135000X-0.185000X0.135000X-0.185000X0.135000X0.185000X-0.135000X0.185000X0*%
%ADD27C,2.200000*%
%ADD28R,1.000000X0.800000*%
%ADD29C,0.900000*%
%ADD30R,0.700000X1.500000*%
%ADD31RoundRect,0.135000X0.185000X-0.135000X0.185000X0.135000X-0.185000X0.135000X-0.185000X-0.135000X0*%
%ADD32RoundRect,0.140000X0.170000X-0.140000X0.170000X0.140000X-0.170000X0.140000X-0.170000X-0.140000X0*%
%ADD33RoundRect,0.150000X-0.150000X0.512500X-0.150000X-0.512500X0.150000X-0.512500X0.150000X0.512500X0*%
%ADD34RoundRect,0.140000X0.140000X0.170000X-0.140000X0.170000X-0.140000X-0.170000X0.140000X-0.170000X0*%
%ADD35C,0.800000*%
%ADD36O,1.600000X2.000000*%
%ADD37RoundRect,0.225000X0.225000X0.250000X-0.225000X0.250000X-0.225000X-0.250000X0.225000X-0.250000X0*%
%ADD38RoundRect,0.135000X-0.185000X0.135000X-0.185000X-0.135000X0.185000X-0.135000X0.185000X0.135000X0*%
%ADD39RoundRect,0.140000X-0.170000X0.140000X-0.170000X-0.140000X0.170000X-0.140000X0.170000X0.140000X0*%
%ADD40C,0.650000*%
%ADD41R,0.600000X1.450000*%
%ADD42R,0.300000X1.450000*%
%ADD43O,1.000000X2.100000*%
%ADD44O,1.000000X1.600000*%
%ADD45RoundRect,0.225000X-0.250000X0.225000X-0.250000X-0.225000X0.250000X-0.225000X0.250000X0.225000X0*%
%ADD46R,1.400000X1.200000*%
%TA.AperFunction,Profile*%
%ADD47C,0.050000*%
%TD*%
G04 APERTURE END LIST*
D10*
%TO.C,F1*%
X33012500Y-44500000D03*
X33012500Y-46075000D03*
%TD*%
D11*
%TO.C,U3*%
X40987500Y-53320000D03*
X42887500Y-53320000D03*
X41937500Y-51045000D03*
%TD*%
D12*
%TO.C,R10*%
X35472500Y-83112500D03*
X34452500Y-83112500D03*
%TD*%
D13*
%TO.C,U1*%
X34887500Y-69712500D03*
X35387500Y-69712500D03*
X35887500Y-69712500D03*
X36387500Y-69712500D03*
X36887500Y-69712500D03*
X37387500Y-69712500D03*
X37887500Y-69712500D03*
X38387500Y-69712500D03*
X38887500Y-69712500D03*
X39387500Y-69712500D03*
X39887500Y-69712500D03*
X40387500Y-69712500D03*
X40887500Y-69712500D03*
X41387500Y-69712500D03*
X41887500Y-69712500D03*
X42387500Y-69712500D03*
D14*
X44312500Y-67787500D03*
X44312500Y-67287500D03*
X44312500Y-66787500D03*
X44312500Y-66287500D03*
X44312500Y-65787500D03*
X44312500Y-65287500D03*
X44312500Y-64787500D03*
X44312500Y-64287500D03*
X44312500Y-63787500D03*
X44312500Y-63287500D03*
X44312500Y-62787500D03*
X44312500Y-62287500D03*
X44312500Y-61787500D03*
X44312500Y-61287500D03*
X44312500Y-60787500D03*
X44312500Y-60287500D03*
D13*
X42387500Y-58362500D03*
X41887500Y-58362500D03*
X41387500Y-58362500D03*
X40887500Y-58362500D03*
X40387500Y-58362500D03*
X39887500Y-58362500D03*
X39387500Y-58362500D03*
X38887500Y-58362500D03*
X38387500Y-58362500D03*
X37887500Y-58362500D03*
X37387500Y-58362500D03*
X36887500Y-58362500D03*
X36387500Y-58362500D03*
X35887500Y-58362500D03*
X35387500Y-58362500D03*
X34887500Y-58362500D03*
D14*
X32962500Y-60287500D03*
X32962500Y-60787500D03*
X32962500Y-61287500D03*
X32962500Y-61787500D03*
X32962500Y-62287500D03*
X32962500Y-62787500D03*
X32962500Y-63287500D03*
X32962500Y-63787500D03*
X32962500Y-64287500D03*
X32962500Y-64787500D03*
X32962500Y-65287500D03*
X32962500Y-65787500D03*
X32962500Y-66287500D03*
X32962500Y-66787500D03*
X32962500Y-67287500D03*
X32962500Y-67787500D03*
%TD*%
D15*
%TO.C,SW2*%
X58412500Y-34230000D03*
X52112500Y-34230000D03*
X58412500Y-30430000D03*
X52112500Y-30430000D03*
%TD*%
D16*
%TO.C,C11*%
X36357500Y-73537500D03*
X37317500Y-73537500D03*
%TD*%
D17*
%TO.C,SW3*%
X94387500Y-116462500D03*
D18*
X99387500Y-116462500D03*
X96887500Y-116462500D03*
D19*
X91287500Y-108962500D03*
X102487500Y-108962500D03*
D18*
X99387500Y-101962500D03*
X94387500Y-101962500D03*
%TD*%
D20*
%TO.C,J4*%
X30812500Y-97947500D03*
D21*
X30812500Y-100487500D03*
X30812500Y-103027500D03*
X30812500Y-105567500D03*
X30812500Y-108107500D03*
%TD*%
D16*
%TO.C,C5*%
X30457500Y-67737500D03*
X31417500Y-67737500D03*
%TD*%
D22*
%TO.C,S5*%
X126925000Y-47362500D03*
D23*
X127425000Y-52512500D03*
D24*
X132425000Y-41462500D03*
D25*
X132425000Y-47362500D03*
D24*
X137425000Y-43562500D03*
D22*
X137925000Y-47362500D03*
%TD*%
%TO.C,S27*%
X144925000Y-81362500D03*
D23*
X145425000Y-86512500D03*
D24*
X150425000Y-75462500D03*
D25*
X150425000Y-81362500D03*
D24*
X155425000Y-77562500D03*
D22*
X155925000Y-81362500D03*
%TD*%
D16*
%TO.C,C14*%
X97507500Y-119212500D03*
X98467500Y-119212500D03*
%TD*%
D22*
%TO.C,S3*%
X90925000Y-39487500D03*
D23*
X91425000Y-44637500D03*
D24*
X96425000Y-33587500D03*
D25*
X96425000Y-39487500D03*
D24*
X101425000Y-35687500D03*
D22*
X101925000Y-39487500D03*
%TD*%
%TO.C,S19*%
X72925000Y-78912500D03*
D23*
X73425000Y-84062500D03*
D24*
X78425000Y-73012500D03*
D25*
X78425000Y-78912500D03*
D24*
X83425000Y-75112500D03*
D22*
X83925000Y-78912500D03*
%TD*%
D26*
%TO.C,R7*%
X99397500Y-119212500D03*
X100417500Y-119212500D03*
%TD*%
D22*
%TO.C,S28*%
X144925000Y-98362500D03*
D23*
X145425000Y-103512500D03*
D24*
X150425000Y-92462500D03*
D25*
X150425000Y-98362500D03*
D24*
X155425000Y-94562500D03*
D22*
X155925000Y-98362500D03*
%TD*%
D27*
%TO.C,H3*%
X84075000Y-33100000D03*
%TD*%
D22*
%TO.C,S7*%
X162925000Y-47362500D03*
D23*
X163425000Y-52512500D03*
D24*
X168425000Y-41462500D03*
D25*
X168425000Y-47362500D03*
D24*
X173425000Y-43562500D03*
D22*
X173925000Y-47362500D03*
%TD*%
D28*
%TO.C,SW1*%
X68387500Y-32980000D03*
X68387500Y-30770000D03*
D29*
X66237500Y-31870000D03*
X63237500Y-31870000D03*
D28*
X61087500Y-32980000D03*
X61087500Y-30770000D03*
D30*
X66987500Y-33630000D03*
X63987500Y-33630000D03*
X62487500Y-33630000D03*
%TD*%
D22*
%TO.C,S30*%
X162925000Y-98362500D03*
D23*
X163425000Y-103512500D03*
D24*
X168425000Y-92462500D03*
D25*
X168425000Y-98362500D03*
D24*
X173425000Y-94562500D03*
D22*
X173925000Y-98362500D03*
%TD*%
D27*
%TO.C,H2*%
X38600000Y-121825000D03*
%TD*%
D12*
%TO.C,R6*%
X103135000Y-99025000D03*
X102115000Y-99025000D03*
%TD*%
D27*
%TO.C,H1*%
X109325000Y-108100000D03*
%TD*%
D22*
%TO.C,S14*%
X144925000Y-64362500D03*
D23*
X145425000Y-69512500D03*
D24*
X150425000Y-58462500D03*
D25*
X150425000Y-64362500D03*
D24*
X155425000Y-60562500D03*
D22*
X155925000Y-64362500D03*
%TD*%
D16*
%TO.C,C9*%
X40977500Y-49332500D03*
X41937500Y-49332500D03*
%TD*%
D22*
%TO.C,S6*%
X144925000Y-47362500D03*
D23*
X145425000Y-52512500D03*
D24*
X150425000Y-41462500D03*
D25*
X150425000Y-47362500D03*
D24*
X155425000Y-43562500D03*
D22*
X155925000Y-47362500D03*
%TD*%
D26*
%TO.C,R1*%
X64002500Y-35275000D03*
X65022500Y-35275000D03*
%TD*%
D20*
%TO.C,J2*%
X42367500Y-84887500D03*
D21*
X39827500Y-84887500D03*
X37287500Y-84887500D03*
X34747500Y-84887500D03*
%TD*%
D22*
%TO.C,S15*%
X162925000Y-64362500D03*
D23*
X163425000Y-69512500D03*
D24*
X168425000Y-58462500D03*
D25*
X168425000Y-64362500D03*
D24*
X173425000Y-60562500D03*
D22*
X173925000Y-64362500D03*
%TD*%
%TO.C,S29*%
X162925000Y-81362500D03*
D23*
X163425000Y-86512500D03*
D24*
X168425000Y-75462500D03*
D25*
X168425000Y-81362500D03*
D24*
X173425000Y-77562500D03*
D22*
X173925000Y-81362500D03*
%TD*%
%TO.C,S22*%
X90925000Y-90487500D03*
D23*
X91425000Y-95637500D03*
D24*
X96425000Y-84587500D03*
D25*
X96425000Y-90487500D03*
D24*
X101425000Y-86687500D03*
D22*
X101925000Y-90487500D03*
%TD*%
%TO.C,S26*%
X126925000Y-98362500D03*
D23*
X127425000Y-103512500D03*
D24*
X132425000Y-92462500D03*
D25*
X132425000Y-98362500D03*
D24*
X137425000Y-94562500D03*
D22*
X137925000Y-98362500D03*
%TD*%
%TO.C,S23*%
X108925000Y-77437500D03*
D23*
X109425000Y-82587500D03*
D24*
X114425000Y-71537500D03*
D25*
X114425000Y-77437500D03*
D24*
X119425000Y-73637500D03*
D22*
X119925000Y-77437500D03*
%TD*%
D31*
%TO.C,R8*%
X94487500Y-120222500D03*
X94487500Y-119202500D03*
%TD*%
D32*
%TO.C,C1*%
X34662500Y-72192500D03*
X34662500Y-71232500D03*
%TD*%
D22*
%TO.C,S1*%
X54925000Y-48412500D03*
D23*
X55425000Y-53562500D03*
D24*
X60425000Y-42512500D03*
D25*
X60425000Y-48412500D03*
D24*
X65425000Y-44612500D03*
D22*
X65925000Y-48412500D03*
%TD*%
%TO.C,S13*%
X126925000Y-64362500D03*
D23*
X127425000Y-69512500D03*
D24*
X132425000Y-58462500D03*
D25*
X132425000Y-64362500D03*
D24*
X137425000Y-60562500D03*
D22*
X137925000Y-64362500D03*
%TD*%
%TO.C,S9*%
X54925000Y-65412500D03*
D23*
X55425000Y-70562500D03*
D24*
X60425000Y-59512500D03*
D25*
X60425000Y-65412500D03*
D24*
X65425000Y-61612500D03*
D22*
X65925000Y-65412500D03*
%TD*%
D31*
%TO.C,R13*%
X34312500Y-103707500D03*
X34312500Y-102687500D03*
%TD*%
D22*
%TO.C,S4*%
X108925000Y-43437500D03*
D23*
X109425000Y-48587500D03*
D24*
X114425000Y-37537500D03*
D25*
X114425000Y-43437500D03*
D24*
X119425000Y-39637500D03*
D22*
X119925000Y-43437500D03*
%TD*%
D33*
%TO.C,U2*%
X37587500Y-47257500D03*
X36637500Y-47257500D03*
X35687500Y-47257500D03*
X35687500Y-49532500D03*
X36637500Y-49532500D03*
X37587500Y-49532500D03*
%TD*%
D26*
%TO.C,R2*%
X55852500Y-35955000D03*
X56872500Y-35955000D03*
%TD*%
D22*
%TO.C,S10*%
X72925000Y-61912500D03*
D23*
X73425000Y-67062500D03*
D24*
X78425000Y-56012500D03*
D25*
X78425000Y-61912500D03*
D24*
X83425000Y-58112500D03*
D22*
X83925000Y-61912500D03*
%TD*%
D26*
%TO.C,R4*%
X33627500Y-41012500D03*
X34647500Y-41012500D03*
%TD*%
D34*
%TO.C,C17*%
X31417500Y-65862500D03*
X30457500Y-65862500D03*
%TD*%
D22*
%TO.C,S11*%
X90925000Y-56487500D03*
D23*
X91425000Y-61637500D03*
D24*
X96425000Y-50587500D03*
D25*
X96425000Y-56487500D03*
D24*
X101425000Y-52687500D03*
D22*
X101925000Y-56487500D03*
%TD*%
D35*
%TO.C,U4*%
X47112500Y-34525000D03*
X47112500Y-41525000D03*
D36*
X44812500Y-44225000D03*
X49412500Y-43125000D03*
X49412500Y-39125000D03*
X49412500Y-36125000D03*
%TD*%
D37*
%TO.C,C6*%
X45137500Y-57962500D03*
X43587500Y-57962500D03*
%TD*%
D32*
%TO.C,C2*%
X45887500Y-67537500D03*
X45887500Y-66577500D03*
%TD*%
D22*
%TO.C,S17*%
X54925000Y-82412500D03*
D23*
X55425000Y-87562500D03*
D24*
X60425000Y-76512500D03*
D25*
X60425000Y-82412500D03*
D24*
X65425000Y-78612500D03*
D22*
X65925000Y-82412500D03*
%TD*%
D16*
%TO.C,C8*%
X41507500Y-54832500D03*
X42467500Y-54832500D03*
%TD*%
D22*
%TO.C,S24*%
X108925000Y-94437500D03*
D23*
X109425000Y-99587500D03*
D24*
X114425000Y-88537500D03*
D25*
X114425000Y-94437500D03*
D24*
X119425000Y-90637500D03*
D22*
X119925000Y-94437500D03*
%TD*%
%TO.C,S31*%
X71899908Y-121386005D03*
D23*
X73715789Y-126231113D03*
D24*
X75685468Y-114263538D03*
D25*
X77212500Y-119962500D03*
D24*
X81058617Y-114997886D03*
D22*
X82525092Y-118538995D03*
%TD*%
D38*
%TO.C,R14*%
X34312500Y-100197500D03*
X34312500Y-101217500D03*
%TD*%
D39*
%TO.C,C16*%
X104675000Y-101670000D03*
X104675000Y-102630000D03*
%TD*%
D34*
%TO.C,C3*%
X45342500Y-59362500D03*
X44382500Y-59362500D03*
%TD*%
D16*
%TO.C,C10*%
X34357500Y-73537500D03*
X35317500Y-73537500D03*
%TD*%
%TO.C,C13*%
X40177500Y-71262500D03*
X41137500Y-71262500D03*
%TD*%
D12*
%TO.C,R3*%
X39472500Y-41012500D03*
X38452500Y-41012500D03*
%TD*%
D22*
%TO.C,S2*%
X72925000Y-44912500D03*
D23*
X73425000Y-50062500D03*
D24*
X78425000Y-39012500D03*
D25*
X78425000Y-44912500D03*
D24*
X83425000Y-41112500D03*
D22*
X83925000Y-44912500D03*
%TD*%
%TO.C,S20*%
X72925000Y-95912500D03*
D23*
X73425000Y-101062500D03*
D24*
X78425000Y-90012500D03*
D25*
X78425000Y-95912500D03*
D24*
X83425000Y-92112500D03*
D22*
X83925000Y-95912500D03*
%TD*%
%TO.C,S8*%
X37111745Y-144824127D03*
D23*
X41106898Y-148112174D03*
D24*
X36828902Y-136763110D03*
D25*
X41000832Y-140935040D03*
D24*
X41849360Y-134712500D03*
D22*
X44889919Y-137045953D03*
%TD*%
D16*
%TO.C,C15*%
X95507500Y-119212500D03*
X96467500Y-119212500D03*
%TD*%
D40*
%TO.C,J1*%
X39527500Y-37527500D03*
X33747500Y-37527500D03*
D41*
X39887500Y-38972500D03*
X39087500Y-38972500D03*
D42*
X37887500Y-38972500D03*
X36887500Y-38972500D03*
X36387500Y-38972500D03*
X35387500Y-38972500D03*
D41*
X34187500Y-38972500D03*
X33387500Y-38972500D03*
X33387500Y-38972500D03*
X34187500Y-38972500D03*
D42*
X34887500Y-38972500D03*
X35887500Y-38972500D03*
X37387500Y-38972500D03*
X38387500Y-38972500D03*
D41*
X39087500Y-38972500D03*
X39887500Y-38972500D03*
D43*
X40957500Y-38057500D03*
D44*
X40957500Y-33877500D03*
D43*
X32317500Y-38057500D03*
D44*
X32317500Y-33877500D03*
%TD*%
D45*
%TO.C,C12*%
X46137500Y-61287500D03*
X46137500Y-62837500D03*
%TD*%
D22*
%TO.C,S25*%
X126925000Y-81362500D03*
D23*
X127425000Y-86512500D03*
D24*
X132425000Y-75462500D03*
D25*
X132425000Y-81362500D03*
D24*
X137425000Y-77562500D03*
D22*
X137925000Y-81362500D03*
%TD*%
%TO.C,S12*%
X108925000Y-60437500D03*
D23*
X109425000Y-65587500D03*
D24*
X114425000Y-54537500D03*
D25*
X114425000Y-60437500D03*
D24*
X119425000Y-56637500D03*
D22*
X119925000Y-60437500D03*
%TD*%
D32*
%TO.C,C7*%
X38612500Y-72292500D03*
X38612500Y-71332500D03*
%TD*%
D34*
%TO.C,C4*%
X35567500Y-56812500D03*
X34607500Y-56812500D03*
%TD*%
D12*
%TO.C,R9*%
X37447500Y-83112500D03*
X36427500Y-83112500D03*
%TD*%
D22*
%TO.C,S21*%
X90925000Y-73487500D03*
D23*
X91425000Y-78637500D03*
D24*
X96425000Y-67587500D03*
D25*
X96425000Y-73487500D03*
D24*
X101425000Y-69687500D03*
D22*
X101925000Y-73487500D03*
%TD*%
D20*
%TO.C,J6*%
X29137500Y-34487500D03*
D21*
X29137500Y-37027500D03*
X29137500Y-39567500D03*
X29137500Y-42107500D03*
%TD*%
D22*
%TO.C,S16*%
X52992200Y-130779435D03*
D23*
X56000213Y-134989466D03*
D24*
X54805340Y-122919885D03*
D25*
X57755340Y-128029435D03*
D24*
X60185468Y-122238538D03*
D22*
X62518480Y-125279435D03*
%TD*%
D46*
%TO.C,Y1*%
X34737500Y-76687500D03*
X36937500Y-76687500D03*
X36937500Y-74987500D03*
X34737500Y-74987500D03*
%TD*%
D22*
%TO.C,S18*%
X54925000Y-99412500D03*
D23*
X55425000Y-104562500D03*
D24*
X60425000Y-93512500D03*
D25*
X60425000Y-99412500D03*
D24*
X65425000Y-95612500D03*
D22*
X65925000Y-99412500D03*
%TD*%
D20*
%TO.C,J5*%
X32237500Y-88512500D03*
D21*
X34777500Y-88512500D03*
X37317500Y-88512500D03*
X39857500Y-88512500D03*
X42397500Y-88512500D03*
X44937500Y-88512500D03*
%TD*%
D47*
X50675000Y-28900000D02*
G75*
G02*
X51675000Y-27900000I1000000J0D01*
G01*
X50675000Y-28900000D02*
X50675000Y-30075000D01*
X126000000Y-34000000D02*
X126000000Y-36000000D01*
X50675000Y-30075000D02*
G75*
G02*
X49675000Y-31075000I-1000000J0D01*
G01*
X125000000Y-33000000D02*
G75*
G02*
X126000000Y-34000000I0J-1000000D01*
G01*
X81725000Y-27900000D02*
X51675000Y-27900000D01*
X49675000Y-31075000D02*
X26000000Y-31075000D01*
X107000000Y-27900000D02*
G75*
G02*
X108000000Y-28900000I0J-1000000D01*
G01*
X40475061Y-157475061D02*
X25292893Y-142292893D01*
X127000000Y-37000000D02*
G75*
G02*
X126000000Y-36000000I0J1000000D01*
G01*
X25000000Y-141585786D02*
X25000000Y-32075000D01*
X25000000Y-32075000D02*
G75*
G02*
X26000000Y-31075000I1000000J0D01*
G01*
X179000000Y-38000000D02*
X179000000Y-108000000D01*
X109000000Y-33000000D02*
X125000000Y-33000000D01*
X115707107Y-109292893D02*
X97104551Y-127895449D01*
X178000000Y-109000000D02*
X116414214Y-109000000D01*
X96869666Y-128069822D02*
X41654390Y-157649434D01*
X127000000Y-37000000D02*
X178000000Y-37000000D01*
X108000000Y-28900000D02*
X108000000Y-32000000D01*
X109000000Y-33000000D02*
G75*
G02*
X108000000Y-32000000I0J1000000D01*
G01*
X41654390Y-157649434D02*
G75*
G02*
X40475081Y-157475041I-472190J881534D01*
G01*
X97104551Y-127895449D02*
G75*
G02*
X96869667Y-128069825I-707151J707149D01*
G01*
X178000000Y-37000000D02*
G75*
G02*
X179000000Y-38000000I0J-1000000D01*
G01*
X25292893Y-142292893D02*
G75*
G02*
X25000010Y-141585786I707107J707093D01*
G01*
X81725000Y-27900000D02*
X107000000Y-27900000D01*
X179000000Y-108000000D02*
G75*
G02*
X178000000Y-109000000I-1000000J0D01*
G01*
X115707107Y-109292893D02*
G75*
G02*
X116414214Y-109000010I707093J-707107D01*
G01*
M02*
