%TF.GenerationSoftware,KiCad,Pcbnew,8.0.5*%
%TF.CreationDate,2024-10-11T21:26:08+02:00*%
%TF.ProjectId,vaucasy_left,76617563-6173-4795-9f6c-6566742e6b69,rev?*%
%TF.SameCoordinates,Original*%
%TF.FileFunction,Soldermask,Bot*%
%TF.FilePolarity,Negative*%
%FSLAX46Y46*%
G04 Gerber Fmt 4.6, Leading zero omitted, Abs format (unit mm)*
G04 Created by KiCad (PCBNEW 8.0.5) date 2024-10-11 21:26:08*
%MOMM*%
%LPD*%
G01*
G04 APERTURE LIST*
G04 Aperture macros list*
%AMRoundRect*
0 Rectangle with rounded corners*
0 $1 Rounding radius*
0 $2 $3 $4 $5 $6 $7 $8 $9 X,Y pos of 4 corners*
0 Add a 4 corners polygon primitive as box body*
4,1,4,$2,$3,$4,$5,$6,$7,$8,$9,$2,$3,0*
0 Add four circle primitives for the rounded corners*
1,1,$1+$1,$2,$3*
1,1,$1+$1,$4,$5*
1,1,$1+$1,$6,$7*
1,1,$1+$1,$8,$9*
0 Add four rect primitives between the rounded corners*
20,1,$1+$1,$2,$3,$4,$5,0*
20,1,$1+$1,$4,$5,$6,$7,0*
20,1,$1+$1,$6,$7,$8,$9,0*
20,1,$1+$1,$8,$9,$2,$3,0*%
G04 Aperture macros list end*
%ADD10R,2.000000X2.000000*%
%ADD11C,2.000000*%
%ADD12R,2.000000X3.200000*%
%ADD13R,1.700000X1.700000*%
%ADD14O,1.700000X1.700000*%
%ADD15C,1.900000*%
%ADD16C,1.600000*%
%ADD17C,3.050000*%
%ADD18C,5.050000*%
%ADD19RoundRect,0.250000X-1.025000X-1.000000X1.025000X-1.000000X1.025000X1.000000X-1.025000X1.000000X0*%
%ADD20C,2.200000*%
%ADD21C,0.900000*%
%ADD22C,0.800000*%
%ADD23O,1.600000X2.000000*%
%ADD24RoundRect,0.250000X-1.431891X0.017678X0.017678X-1.431891X1.431891X-0.017678X-0.017678X1.431891X0*%
%ADD25RoundRect,0.250000X-1.248893X-0.700636X0.731255X-1.231215X1.248893X0.700636X-0.731255X1.231215X0*%
%ADD26C,0.650000*%
%ADD27O,1.000000X2.100000*%
%ADD28O,1.000000X1.600000*%
%ADD29RoundRect,0.250000X-1.387676X-0.353525X0.387676X-1.378525X1.387676X0.353525X-0.387676X1.378525X0*%
%ADD30RoundRect,0.225000X0.375000X-0.225000X0.375000X0.225000X-0.375000X0.225000X-0.375000X-0.225000X0*%
%TA.AperFunction,Profile*%
%ADD31C,0.050000*%
%TD*%
G04 APERTURE END LIST*
D10*
%TO.C,SW3*%
X105015000Y-116700000D03*
D11*
X110015000Y-116700000D03*
X107515000Y-116700000D03*
D12*
X101915000Y-109200000D03*
X113115000Y-109200000D03*
D11*
X110015000Y-102200000D03*
X105015000Y-102200000D03*
%TD*%
D13*
%TO.C,J4*%
X173000000Y-108030000D03*
D14*
X173000000Y-105490000D03*
X173000000Y-102950000D03*
X173000000Y-100410000D03*
X173000000Y-97870000D03*
%TD*%
D15*
%TO.C,S5*%
X102000000Y-39350000D03*
D16*
X102500000Y-44500000D03*
D17*
X107500000Y-33450000D03*
D18*
X107500000Y-39350000D03*
D17*
X112500000Y-35550000D03*
D15*
X113000000Y-39350000D03*
D19*
X104000000Y-33350000D03*
X116000000Y-35550000D03*
%TD*%
D15*
%TO.C,S27*%
X120000000Y-78850000D03*
D16*
X120500000Y-84000000D03*
D17*
X125500000Y-72950000D03*
D18*
X125500000Y-78850000D03*
D17*
X130500000Y-75050000D03*
D15*
X131000000Y-78850000D03*
D19*
X122000000Y-72850000D03*
X134000000Y-75050000D03*
%TD*%
D15*
%TO.C,S3*%
X66000000Y-47350000D03*
D16*
X66500000Y-52500000D03*
D17*
X71500000Y-41450000D03*
D18*
X71500000Y-47350000D03*
D17*
X76500000Y-43550000D03*
D15*
X77000000Y-47350000D03*
D19*
X68000000Y-41350000D03*
X80000000Y-43550000D03*
%TD*%
D15*
%TO.C,S19*%
X48000000Y-81350000D03*
D16*
X48500000Y-86500000D03*
D17*
X53500000Y-75450000D03*
D18*
X53500000Y-81350000D03*
D17*
X58500000Y-77550000D03*
D15*
X59000000Y-81350000D03*
D19*
X50000000Y-75350000D03*
X62000000Y-77550000D03*
%TD*%
D15*
%TO.C,S28*%
X120000000Y-95850000D03*
D16*
X120500000Y-101000000D03*
D17*
X125500000Y-89950000D03*
D18*
X125500000Y-95850000D03*
D17*
X130500000Y-92050000D03*
D15*
X131000000Y-95850000D03*
D19*
X122000000Y-89850000D03*
X134000000Y-92050000D03*
%TD*%
D20*
%TO.C,H3*%
X119625000Y-33200000D03*
%TD*%
D15*
%TO.C,S7*%
X138000000Y-48350000D03*
D16*
X138500000Y-53500000D03*
D17*
X143500000Y-42450000D03*
D18*
X143500000Y-48350000D03*
D17*
X148500000Y-44550000D03*
D15*
X149000000Y-48350000D03*
D19*
X140000000Y-42350000D03*
X152000000Y-44550000D03*
%TD*%
D21*
%TO.C,SW1*%
X141500000Y-34075000D03*
X138500000Y-34075000D03*
%TD*%
D15*
%TO.C,S30*%
X138000000Y-99350000D03*
D16*
X138500000Y-104500000D03*
D17*
X143500000Y-93450000D03*
D18*
X143500000Y-99350000D03*
D17*
X148500000Y-95550000D03*
D15*
X149000000Y-99350000D03*
D19*
X140000000Y-93350000D03*
X152000000Y-95550000D03*
%TD*%
D20*
%TO.C,H2*%
X166075000Y-122075000D03*
%TD*%
%TO.C,H1*%
X93775000Y-107825000D03*
%TD*%
D15*
%TO.C,S14*%
X120000000Y-61850000D03*
D16*
X120500000Y-67000000D03*
D17*
X125500000Y-55950000D03*
D18*
X125500000Y-61850000D03*
D17*
X130500000Y-58050000D03*
D15*
X131000000Y-61850000D03*
D19*
X122000000Y-55850000D03*
X134000000Y-58050000D03*
%TD*%
D15*
%TO.C,S6*%
X120000000Y-44850000D03*
D16*
X120500000Y-50000000D03*
D17*
X125500000Y-38950000D03*
D18*
X125500000Y-44850000D03*
D17*
X130500000Y-41050000D03*
D15*
X131000000Y-44850000D03*
D19*
X122000000Y-38850000D03*
X134000000Y-41050000D03*
%TD*%
D13*
%TO.C,J2*%
X168730000Y-84950000D03*
D14*
X166190000Y-84950000D03*
X163650000Y-84950000D03*
X161110000Y-84950000D03*
%TD*%
D15*
%TO.C,S15*%
X138000000Y-65350000D03*
D16*
X138500000Y-70500000D03*
D17*
X143500000Y-59450000D03*
D18*
X143500000Y-65350000D03*
D17*
X148500000Y-61550000D03*
D15*
X149000000Y-65350000D03*
D19*
X140000000Y-59350000D03*
X152000000Y-61550000D03*
%TD*%
D15*
%TO.C,S29*%
X138000000Y-82350000D03*
D16*
X138500000Y-87500000D03*
D17*
X143500000Y-76450000D03*
D18*
X143500000Y-82350000D03*
D17*
X148500000Y-78550000D03*
D15*
X149000000Y-82350000D03*
D19*
X140000000Y-76350000D03*
X152000000Y-78550000D03*
%TD*%
D15*
%TO.C,S22*%
X66000000Y-98350000D03*
D16*
X66500000Y-103500000D03*
D17*
X71500000Y-92450000D03*
D18*
X71500000Y-98350000D03*
D17*
X76500000Y-94550000D03*
D15*
X77000000Y-98350000D03*
D19*
X68000000Y-92350000D03*
X80000000Y-94550000D03*
%TD*%
D15*
%TO.C,S26*%
X102000000Y-90350000D03*
D16*
X102500000Y-95500000D03*
D17*
X107500000Y-84450000D03*
D18*
X107500000Y-90350000D03*
D17*
X112500000Y-86550000D03*
D15*
X113000000Y-90350000D03*
D19*
X104000000Y-84350000D03*
X116000000Y-86550000D03*
%TD*%
D15*
%TO.C,S23*%
X84000000Y-77350000D03*
D16*
X84500000Y-82500000D03*
D17*
X89500000Y-71450000D03*
D18*
X89500000Y-77350000D03*
D17*
X94500000Y-73550000D03*
D15*
X95000000Y-77350000D03*
D19*
X86000000Y-71350000D03*
X98000000Y-73550000D03*
%TD*%
D15*
%TO.C,S1*%
X30000000Y-47350000D03*
D16*
X30500000Y-52500000D03*
D17*
X35500000Y-41450000D03*
D18*
X35500000Y-47350000D03*
D17*
X40500000Y-43550000D03*
D15*
X41000000Y-47350000D03*
D19*
X32000000Y-41350000D03*
X44000000Y-43550000D03*
%TD*%
D15*
%TO.C,S13*%
X102000000Y-56350000D03*
D16*
X102500000Y-61500000D03*
D17*
X107500000Y-50450000D03*
D18*
X107500000Y-56350000D03*
D17*
X112500000Y-52550000D03*
D15*
X113000000Y-56350000D03*
D19*
X104000000Y-50350000D03*
X116000000Y-52550000D03*
%TD*%
D15*
%TO.C,S9*%
X30000000Y-64350000D03*
D16*
X30500000Y-69500000D03*
D17*
X35500000Y-58450000D03*
D18*
X35500000Y-64350000D03*
D17*
X40500000Y-60550000D03*
D15*
X41000000Y-64350000D03*
D19*
X32000000Y-58350000D03*
X44000000Y-60550000D03*
%TD*%
D15*
%TO.C,S4*%
X84000000Y-43350000D03*
D16*
X84500000Y-48500000D03*
D17*
X89500000Y-37450000D03*
D18*
X89500000Y-43350000D03*
D17*
X94500000Y-39550000D03*
D15*
X95000000Y-43350000D03*
D19*
X86000000Y-37350000D03*
X98000000Y-39550000D03*
%TD*%
D15*
%TO.C,S10*%
X48000000Y-64350000D03*
D16*
X48500000Y-69500000D03*
D17*
X53500000Y-58450000D03*
D18*
X53500000Y-64350000D03*
D17*
X58500000Y-60550000D03*
D15*
X59000000Y-64350000D03*
D19*
X50000000Y-58350000D03*
X62000000Y-60550000D03*
%TD*%
D15*
%TO.C,S11*%
X66000000Y-64350000D03*
D16*
X66500000Y-69500000D03*
D17*
X71500000Y-58450000D03*
D18*
X71500000Y-64350000D03*
D17*
X76500000Y-60550000D03*
D15*
X77000000Y-64350000D03*
D19*
X68000000Y-58350000D03*
X80000000Y-60550000D03*
%TD*%
D22*
%TO.C,U4*%
X174500000Y-34550000D03*
X174500000Y-41550000D03*
D23*
X172200000Y-44250000D03*
X176800000Y-43150000D03*
X176800000Y-39150000D03*
X176800000Y-36150000D03*
%TD*%
D15*
%TO.C,S17*%
X30000000Y-81350000D03*
D16*
X30500000Y-86500000D03*
D17*
X35500000Y-75450000D03*
D18*
X35500000Y-81350000D03*
D17*
X40500000Y-77550000D03*
D15*
X41000000Y-81350000D03*
D19*
X32000000Y-75350000D03*
X44000000Y-77550000D03*
%TD*%
D15*
%TO.C,S24*%
X84000000Y-94350000D03*
D16*
X84500000Y-99500000D03*
D17*
X89500000Y-88450000D03*
D18*
X89500000Y-94350000D03*
D17*
X94500000Y-90550000D03*
D15*
X95000000Y-94350000D03*
D19*
X86000000Y-88350000D03*
X98000000Y-90550000D03*
%TD*%
D15*
%TO.C,S31*%
X157944450Y-136754847D03*
D16*
X154656403Y-140750000D03*
D17*
X166005467Y-136472004D03*
D18*
X161833537Y-140643934D03*
D17*
X168056077Y-141492462D03*
D15*
X165722624Y-144533021D03*
D24*
X163601304Y-133926420D03*
X170530950Y-143967336D03*
%TD*%
D15*
%TO.C,S2*%
X48000000Y-47350000D03*
D16*
X48500000Y-52500000D03*
D17*
X53500000Y-41450000D03*
D18*
X53500000Y-47350000D03*
D17*
X58500000Y-43550000D03*
D15*
X59000000Y-47350000D03*
D19*
X50000000Y-41350000D03*
X62000000Y-43550000D03*
%TD*%
D15*
%TO.C,S20*%
X48000000Y-98350000D03*
D16*
X48500000Y-103500000D03*
D17*
X53500000Y-92450000D03*
D18*
X53500000Y-98350000D03*
D17*
X58500000Y-94550000D03*
D15*
X59000000Y-98350000D03*
D19*
X50000000Y-92350000D03*
X62000000Y-94550000D03*
%TD*%
D15*
%TO.C,S8*%
X120593811Y-118326495D03*
D16*
X119743856Y-123430423D03*
D17*
X127433435Y-114051038D03*
D18*
X125906403Y-119750000D03*
D17*
X131719545Y-117373577D03*
D15*
X131218995Y-121173505D03*
D25*
X124078577Y-113048579D03*
X135100285Y-118279444D03*
%TD*%
D26*
%TO.C,J1*%
X165890000Y-37590000D03*
X160110000Y-37590000D03*
D27*
X167320000Y-38120000D03*
D28*
X167320000Y-33940000D03*
D27*
X158680000Y-38120000D03*
D28*
X158680000Y-33940000D03*
%TD*%
D15*
%TO.C,S25*%
X102000000Y-73350000D03*
D16*
X102500000Y-78500000D03*
D17*
X107500000Y-67450000D03*
D18*
X107500000Y-73350000D03*
D17*
X112500000Y-69550000D03*
D15*
X113000000Y-73350000D03*
D19*
X104000000Y-67350000D03*
X116000000Y-69550000D03*
%TD*%
D15*
%TO.C,S12*%
X84000000Y-60350000D03*
D16*
X84500000Y-65500000D03*
D17*
X89500000Y-54450000D03*
D18*
X89500000Y-60350000D03*
D17*
X94500000Y-56550000D03*
D15*
X95000000Y-60350000D03*
D19*
X86000000Y-54350000D03*
X98000000Y-56550000D03*
%TD*%
D15*
%TO.C,S21*%
X66000000Y-81350000D03*
D16*
X66500000Y-86500000D03*
D17*
X71500000Y-75450000D03*
D18*
X71500000Y-81350000D03*
D17*
X76500000Y-77550000D03*
D15*
X77000000Y-81350000D03*
D19*
X68000000Y-75350000D03*
X80000000Y-77550000D03*
%TD*%
D13*
%TO.C,J6*%
X155500000Y-34550000D03*
D14*
X155500000Y-37090000D03*
X155500000Y-39630000D03*
X155500000Y-42170000D03*
%TD*%
D15*
%TO.C,S16*%
X140393263Y-125250000D03*
D16*
X138251276Y-129960031D03*
D17*
X148106403Y-122890450D03*
D18*
X145156403Y-128000000D03*
D17*
X151386531Y-127209104D03*
D15*
X149919543Y-130750000D03*
D29*
X145125314Y-121053848D03*
X154417619Y-128959103D03*
%TD*%
D15*
%TO.C,S18*%
X30000000Y-98350000D03*
D16*
X30500000Y-103500000D03*
D17*
X35500000Y-92450000D03*
D18*
X35500000Y-98350000D03*
D17*
X40500000Y-94550000D03*
D15*
X41000000Y-98350000D03*
D19*
X32000000Y-92350000D03*
X44000000Y-94550000D03*
%TD*%
D30*
%TO.C,D19*%
X59500000Y-87500000D03*
X59500000Y-84200000D03*
%TD*%
%TO.C,D9*%
X41500000Y-70500000D03*
X41500000Y-67200000D03*
%TD*%
D13*
%TO.C,J5*%
X158600000Y-88575000D03*
D14*
X161140000Y-88575000D03*
X163680000Y-88575000D03*
X166220000Y-88575000D03*
X168760000Y-88575000D03*
X171300000Y-88575000D03*
%TD*%
D30*
%TO.C,D15*%
X149500000Y-71500000D03*
X149500000Y-68200000D03*
%TD*%
%TO.C,D8*%
X130218263Y-127650000D03*
X130218263Y-124350000D03*
%TD*%
%TO.C,D17*%
X41500000Y-87500000D03*
X41500000Y-84200000D03*
%TD*%
%TO.C,D18*%
X41500000Y-104350000D03*
X41500000Y-101050000D03*
%TD*%
%TO.C,D14*%
X131500000Y-68000000D03*
X131500000Y-64700000D03*
%TD*%
%TO.C,D12*%
X95500000Y-66500000D03*
X95500000Y-63200000D03*
%TD*%
%TO.C,D24*%
X95500000Y-100500000D03*
X95500000Y-97200000D03*
%TD*%
%TO.C,D26*%
X113500000Y-96500000D03*
X113500000Y-93200000D03*
%TD*%
%TO.C,D13*%
X113500000Y-62500000D03*
X113500000Y-59200000D03*
%TD*%
%TO.C,D6*%
X131500000Y-50850000D03*
X131500000Y-47550000D03*
%TD*%
%TO.C,D22*%
X77500000Y-104500000D03*
X77500000Y-101200000D03*
%TD*%
%TO.C,D30*%
X149500000Y-105500000D03*
X149500000Y-102200000D03*
%TD*%
%TO.C,D2*%
X59500000Y-53500000D03*
X59500000Y-50200000D03*
%TD*%
%TO.C,D16*%
X147418263Y-136675000D03*
X147418263Y-133375000D03*
%TD*%
%TO.C,D7*%
X149500000Y-54500000D03*
X149500000Y-51200000D03*
%TD*%
%TO.C,D29*%
X149500000Y-88500000D03*
X149500000Y-85200000D03*
%TD*%
%TO.C,D25*%
X113500000Y-79500000D03*
X113500000Y-76200000D03*
%TD*%
%TO.C,D33*%
X102115000Y-105100000D03*
X102115000Y-101800000D03*
%TD*%
%TO.C,D11*%
X77500000Y-70500000D03*
X77500000Y-67200000D03*
%TD*%
%TO.C,D27*%
X131500000Y-85000000D03*
X131500000Y-81700000D03*
%TD*%
%TO.C,D5*%
X113500000Y-45350000D03*
X113500000Y-42050000D03*
%TD*%
%TO.C,D3*%
X77500000Y-53500000D03*
X77500000Y-50200000D03*
%TD*%
%TO.C,D20*%
X59500000Y-104500000D03*
X59500000Y-101200000D03*
%TD*%
%TO.C,D23*%
X95500000Y-83500000D03*
X95500000Y-80200000D03*
%TD*%
%TO.C,D31*%
X161893263Y-149650000D03*
X161893263Y-146350000D03*
%TD*%
%TO.C,D21*%
X77500000Y-87500000D03*
X77500000Y-84200000D03*
%TD*%
%TO.C,D1*%
X41500000Y-53500000D03*
X41500000Y-50200000D03*
%TD*%
%TO.C,D28*%
X131500000Y-102000000D03*
X131500000Y-98700000D03*
%TD*%
%TO.C,D10*%
X59500000Y-70500000D03*
X59500000Y-67200000D03*
%TD*%
%TO.C,D4*%
X95500000Y-49350000D03*
X95500000Y-46050000D03*
%TD*%
D31*
X179000000Y-141585786D02*
G75*
G02*
X178707093Y-142292879I-999900J-14D01*
G01*
X155100000Y-28900000D02*
X155100000Y-30075000D01*
X78000000Y-34000000D02*
X78000000Y-36000000D01*
X78000000Y-34000000D02*
G75*
G02*
X79000000Y-33000000I1000000J0D01*
G01*
X26000000Y-109000000D02*
G75*
G02*
X25000000Y-108000000I0J1000000D01*
G01*
X96000000Y-28900000D02*
G75*
G02*
X97000000Y-27900000I1000000J0D01*
G01*
X122275000Y-27900000D02*
X154100000Y-27900000D01*
X156100000Y-31075000D02*
X178000000Y-31075000D01*
X87585786Y-109000000D02*
G75*
G02*
X88292900Y-109292886I14J-1000000D01*
G01*
X154100000Y-27900000D02*
G75*
G02*
X155100000Y-28900000I0J-1000000D01*
G01*
X96000000Y-32000000D02*
G75*
G02*
X95000000Y-33000000I-1000000J0D01*
G01*
X107130334Y-128069822D02*
G75*
G02*
X106895455Y-127895443I472366J881622D01*
G01*
X163524939Y-157475061D02*
X178707107Y-142292893D01*
X179000000Y-141585786D02*
X179000000Y-32075000D01*
X25000000Y-38000000D02*
G75*
G02*
X26000000Y-37000000I1000000J0D01*
G01*
X163524939Y-157475061D02*
G75*
G02*
X162345588Y-157649474I-707139J707061D01*
G01*
X25000000Y-38000000D02*
X25000000Y-108000000D01*
X95000000Y-33000000D02*
X79000000Y-33000000D01*
X88292893Y-109292893D02*
X106895449Y-127895449D01*
X26000000Y-109000000D02*
X87585786Y-109000000D01*
X107130334Y-128069822D02*
X162345610Y-157649434D01*
X77000000Y-37000000D02*
X26000000Y-37000000D01*
X178000000Y-31075000D02*
G75*
G02*
X179000000Y-32075000I0J-1000000D01*
G01*
X96000000Y-28900000D02*
X96000000Y-32000000D01*
X78000000Y-36000000D02*
G75*
G02*
X77000000Y-37000000I-1000000J0D01*
G01*
X122275000Y-27900000D02*
X97000000Y-27900000D01*
X156100000Y-31075000D02*
G75*
G02*
X155100000Y-30075000I0J1000000D01*
G01*
M02*
