M48
; DRILL file {KiCad 8.0.5} date 2024-10-11T21:26:06+0200
; FORMAT={-:-/ absolute / metric / decimal}
; #@! TF.CreationDate,2024-10-11T21:26:06+02:00
; #@! TF.GenerationSoftware,Kicad,Pcbnew,8.0.5
; #@! TF.FileFunction,MixedPlating,1,2
FMAT,2
METRIC
; #@! TA.AperFunction,Plated,PTH,ViaDrill
T1C0.300
; #@! TA.AperFunction,Plated,PTH,ComponentDrill
T2C0.600
; #@! TA.AperFunction,Plated,PTH,ComponentDrill
T3C0.900
; #@! TA.AperFunction,Plated,PTH,ComponentDrill
T4C1.000
; #@! TA.AperFunction,Plated,PTH,ComponentDrill
T5C1.500
; #@! TA.AperFunction,NonPlated,NPTH,ComponentDrill
T6C0.650
; #@! TA.AperFunction,NonPlated,NPTH,ComponentDrill
T7C0.800
; #@! TA.AperFunction,NonPlated,NPTH,ComponentDrill
T8C0.900
; #@! TA.AperFunction,NonPlated,NPTH,ComponentDrill
T9C1.600
; #@! TA.AperFunction,NonPlated,NPTH,ComponentDrill
T10C1.900
; #@! TA.AperFunction,NonPlated,NPTH,ComponentDrill
T11C2.200
; #@! TA.AperFunction,NonPlated,NPTH,ComponentDrill
T12C3.050
; #@! TA.AperFunction,NonPlated,NPTH,ComponentDrill
T13C5.050
%
G90
G05
T1
X47.75Y-58.25
X47.75Y-75.25
X47.75Y-92.25
X48.5Y-50.0
X48.5Y-67.0
X48.5Y-84.0
X65.75Y-58.25
X65.75Y-75.25
X65.75Y-92.25
X66.5Y-50.0
X66.5Y-67.0
X66.5Y-84.0
X83.85Y-88.35
X83.875Y-54.35
X83.903Y-71.397
X84.5Y-46.0
X84.5Y-63.0
X84.5Y-80.0
X97.1Y-92.7
X101.75Y-84.25
X101.905Y-67.405
X101.941Y-50.441
X102.5Y-42.0
X102.5Y-59.0
X102.5Y-76.0
X115.275Y-101.025
X119.75Y-55.75
X119.75Y-72.75
X119.75Y-89.75
X120.5Y-47.5
X120.5Y-64.5
X120.5Y-81.5
X131.05Y-106.025
X135.9Y-89.425
X137.75Y-59.25
X137.75Y-76.25
X137.75Y-93.25
X138.213Y-50.862
X138.5Y-67.875
X138.525Y-38.775
X138.561Y-84.8
X146.575Y-90.675
X146.575Y-109.225
X150.22Y-91.62
X151.95Y-38.6
X151.975Y-52.775
X153.325Y-34.45
X153.8Y-64.575
X154.0Y-63.225
X154.675Y-65.225
X154.912Y-61.212
X155.35Y-95.55
X156.825Y-66.85
X156.9Y-64.55
X157.775Y-58.45
X157.775Y-66.95
X158.3Y-70.1
X159.6Y-68.8
X159.925Y-72.6
X160.55Y-40.225
X160.575Y-42.225
X160.65Y-48.475
X160.875Y-81.65
X160.968Y-67.405
X162.0Y-55.8
X162.025Y-54.825
X162.25Y-60.75
X162.375Y-82.2
X162.553Y-63.4
X162.605Y-41.025
X162.675Y-64.425
X162.775Y-62.411
X162.95Y-72.7
X162.995Y-48.532
X163.0Y-46.375
X163.3Y-77.975
X163.725Y-42.05
X164.0Y-54.85
X164.15Y-56.6
X164.25Y-68.6
X164.39Y-66.3
X164.405Y-65.325
X164.6Y-81.275
X164.821Y-60.911
X164.975Y-87.45
X164.975Y-91.525
X165.0Y-73.3
X165.175Y-68.45
X165.381Y-40.24
X165.475Y-74.725
X165.6Y-48.525
X165.75Y-82.175
X165.825Y-60.925
X166.071Y-68.366
X166.55Y-80.3
X166.55Y-49.395
X166.675Y-57.075
X167.275Y-79.225
X167.35Y-52.125
X167.45Y-59.875
X168.15Y-74.3
X168.525Y-59.825
X168.896Y-80.625
X168.9Y-75.0
X169.325Y-60.85
X169.775Y-72.525
X169.775Y-79.925
X170.025Y-87.175
X170.025Y-91.575
X170.2Y-69.8
X170.575Y-70.625
X171.0Y-68.85
X171.125Y-103.3
X171.125Y-106.155
X171.775Y-70.875
X171.964Y-68.139
X172.325Y-70.075
X172.5Y-64.375
X172.975Y-58.05
X173.025Y-69.5
X174.025Y-65.325
X174.05Y-58.875
X174.775Y-69.55
T4
X105.015Y-102.2
X105.015Y-116.7
X107.515Y-116.7
X110.015Y-102.2
X110.015Y-116.7
X155.5Y-34.55
X155.5Y-37.09
X155.5Y-39.63
X155.5Y-42.17
X158.6Y-88.575
X161.11Y-84.95
X161.14Y-88.575
X163.65Y-84.95
X163.68Y-88.575
X166.19Y-84.95
X166.22Y-88.575
X168.73Y-84.95
X168.76Y-88.575
X171.3Y-88.575
X173.0Y-97.87
X173.0Y-100.41
X173.0Y-102.95
X173.0Y-105.49
X173.0Y-108.03
T6
X160.11Y-37.59
X165.89Y-37.59
T7
X174.5Y-34.55
X174.5Y-41.55
T8
X138.5Y-34.075
X141.5Y-34.075
T9
X30.5Y-52.5
X30.5Y-69.5
X30.5Y-86.5
X30.5Y-103.5
X48.5Y-52.5
X48.5Y-69.5
X48.5Y-86.5
X48.5Y-103.5
X66.5Y-52.5
X66.5Y-69.5
X66.5Y-86.5
X66.5Y-103.5
X84.5Y-48.5
X84.5Y-65.5
X84.5Y-82.5
X84.5Y-99.5
X102.5Y-44.5
X102.5Y-61.5
X102.5Y-78.5
X102.5Y-95.5
X119.744Y-123.43
X120.5Y-50.0
X120.5Y-67.0
X120.5Y-84.0
X120.5Y-101.0
X138.251Y-129.96
X138.5Y-53.5
X138.5Y-70.5
X138.5Y-87.5
X138.5Y-104.5
X154.656Y-140.75
T10
X30.0Y-47.35
X30.0Y-64.35
X30.0Y-81.35
X30.0Y-98.35
X41.0Y-47.35
X41.0Y-64.35
X41.0Y-81.35
X41.0Y-98.35
X48.0Y-47.35
X48.0Y-64.35
X48.0Y-81.35
X48.0Y-98.35
X59.0Y-47.35
X59.0Y-64.35
X59.0Y-81.35
X59.0Y-98.35
X66.0Y-47.35
X66.0Y-64.35
X66.0Y-81.35
X66.0Y-98.35
X77.0Y-47.35
X77.0Y-64.35
X77.0Y-81.35
X77.0Y-98.35
X84.0Y-43.35
X84.0Y-60.35
X84.0Y-77.35
X84.0Y-94.35
X95.0Y-43.35
X95.0Y-60.35
X95.0Y-77.35
X95.0Y-94.35
X102.0Y-39.35
X102.0Y-56.35
X102.0Y-73.35
X102.0Y-90.35
X113.0Y-39.35
X113.0Y-56.35
X113.0Y-73.35
X113.0Y-90.35
X120.0Y-44.85
X120.0Y-61.85
X120.0Y-78.85
X120.0Y-95.85
X120.594Y-118.326
X131.0Y-44.85
X131.0Y-61.85
X131.0Y-78.85
X131.0Y-95.85
X131.219Y-121.174
X138.0Y-48.35
X138.0Y-65.35
X138.0Y-82.35
X138.0Y-99.35
X140.393Y-125.25
X149.0Y-48.35
X149.0Y-65.35
X149.0Y-82.35
X149.0Y-99.35
X149.92Y-130.75
X157.944Y-136.755
X165.723Y-144.533
T11
X93.775Y-107.825
X119.625Y-33.2
X166.075Y-122.075
T12
X35.5Y-41.45
X35.5Y-58.45
X35.5Y-75.45
X35.5Y-92.45
X40.5Y-43.55
X40.5Y-60.55
X40.5Y-77.55
X40.5Y-94.55
X53.5Y-41.45
X53.5Y-58.45
X53.5Y-75.45
X53.5Y-92.45
X58.5Y-43.55
X58.5Y-60.55
X58.5Y-77.55
X58.5Y-94.55
X71.5Y-41.45
X71.5Y-58.45
X71.5Y-75.45
X71.5Y-92.45
X76.5Y-43.55
X76.5Y-60.55
X76.5Y-77.55
X76.5Y-94.55
X89.5Y-37.45
X89.5Y-54.45
X89.5Y-71.45
X89.5Y-88.45
X94.5Y-39.55
X94.5Y-56.55
X94.5Y-73.55
X94.5Y-90.55
X107.5Y-33.45
X107.5Y-50.45
X107.5Y-67.45
X107.5Y-84.45
X112.5Y-35.55
X112.5Y-52.55
X112.5Y-69.55
X112.5Y-86.55
X125.5Y-38.95
X125.5Y-55.95
X125.5Y-72.95
X125.5Y-89.95
X127.433Y-114.051
X130.5Y-41.05
X130.5Y-58.05
X130.5Y-75.05
X130.5Y-92.05
X131.72Y-117.374
X143.5Y-42.45
X143.5Y-59.45
X143.5Y-76.45
X143.5Y-93.45
X148.106Y-122.89
X148.5Y-44.55
X148.5Y-61.55
X148.5Y-78.55
X148.5Y-95.55
X151.387Y-127.209
X166.005Y-136.472
X168.056Y-141.492
T13
X35.5Y-47.35
X35.5Y-64.35
X35.5Y-81.35
X35.5Y-98.35
X53.5Y-47.35
X53.5Y-64.35
X53.5Y-81.35
X53.5Y-98.35
X71.5Y-47.35
X71.5Y-64.35
X71.5Y-81.35
X71.5Y-98.35
X89.5Y-43.35
X89.5Y-60.35
X89.5Y-77.35
X89.5Y-94.35
X107.5Y-39.35
X107.5Y-56.35
X107.5Y-73.35
X107.5Y-90.35
X125.5Y-44.85
X125.5Y-61.85
X125.5Y-78.85
X125.5Y-95.85
X125.906Y-119.75
X143.5Y-48.35
X143.5Y-65.35
X143.5Y-82.35
X143.5Y-99.35
X145.156Y-128.0
X161.834Y-140.644
T2
G00X158.68Y-34.24
M15
G01X158.68Y-33.64
M16
G05
G00X158.68Y-38.67
M15
G01X158.68Y-37.57
M16
G05
G00X167.32Y-34.24
M15
G01X167.32Y-33.64
M16
G05
G00X167.32Y-38.67
M15
G01X167.32Y-37.57
M16
G05
T3
G00X172.2Y-44.05
M15
G01X172.2Y-44.45
M16
G05
G00X176.8Y-35.95
M15
G01X176.8Y-36.35
M16
G05
G00X176.8Y-38.95
M15
G01X176.8Y-39.35
M16
G05
G00X176.8Y-42.95
M15
G01X176.8Y-43.35
M16
G05
T5
G00X101.915Y-109.85
M15
G01X101.915Y-108.55
M16
G05
G00X113.115Y-109.85
M15
G01X113.115Y-108.55
M16
G05
M30
