%TF.GenerationSoftware,KiCad,Pcbnew,8.0.5*%
%TF.CreationDate,2024-10-11T21:26:08+02:00*%
%TF.ProjectId,vaucasy_left,76617563-6173-4795-9f6c-6566742e6b69,rev?*%
%TF.SameCoordinates,Original*%
%TF.FileFunction,Paste,Bot*%
%TF.FilePolarity,Positive*%
%FSLAX46Y46*%
G04 Gerber Fmt 4.6, Leading zero omitted, Abs format (unit mm)*
G04 Created by KiCad (PCBNEW 8.0.5) date 2024-10-11 21:26:08*
%MOMM*%
%LPD*%
G01*
G04 APERTURE LIST*
G04 Aperture macros list*
%AMRoundRect*
0 Rectangle with rounded corners*
0 $1 Rounding radius*
0 $2 $3 $4 $5 $6 $7 $8 $9 X,Y pos of 4 corners*
0 Add a 4 corners polygon primitive as box body*
4,1,4,$2,$3,$4,$5,$6,$7,$8,$9,$2,$3,0*
0 Add four circle primitives for the rounded corners*
1,1,$1+$1,$2,$3*
1,1,$1+$1,$4,$5*
1,1,$1+$1,$6,$7*
1,1,$1+$1,$8,$9*
0 Add four rect primitives between the rounded corners*
20,1,$1+$1,$2,$3,$4,$5,0*
20,1,$1+$1,$4,$5,$6,$7,0*
20,1,$1+$1,$6,$7,$8,$9,0*
20,1,$1+$1,$8,$9,$2,$3,0*%
G04 Aperture macros list end*
%ADD10RoundRect,0.250000X-1.025000X-1.000000X1.025000X-1.000000X1.025000X1.000000X-1.025000X1.000000X0*%
%ADD11RoundRect,0.250000X-1.431891X0.017678X0.017678X-1.431891X1.431891X-0.017678X-0.017678X1.431891X0*%
%ADD12RoundRect,0.250000X-1.248893X-0.700636X0.731255X-1.231215X1.248893X0.700636X-0.731255X1.231215X0*%
%ADD13RoundRect,0.250000X-1.387676X-0.353525X0.387676X-1.378525X1.387676X0.353525X-0.387676X1.378525X0*%
%ADD14RoundRect,0.225000X0.375000X-0.225000X0.375000X0.225000X-0.375000X0.225000X-0.375000X-0.225000X0*%
%TA.AperFunction,Profile*%
%ADD15C,0.050000*%
%TD*%
G04 APERTURE END LIST*
D10*
%TO.C,S5*%
X104000000Y-33350000D03*
X116000000Y-35550000D03*
%TD*%
%TO.C,S27*%
X122000000Y-72850000D03*
X134000000Y-75050000D03*
%TD*%
%TO.C,S3*%
X68000000Y-41350000D03*
X80000000Y-43550000D03*
%TD*%
%TO.C,S19*%
X50000000Y-75350000D03*
X62000000Y-77550000D03*
%TD*%
%TO.C,S28*%
X122000000Y-89850000D03*
X134000000Y-92050000D03*
%TD*%
%TO.C,S7*%
X140000000Y-42350000D03*
X152000000Y-44550000D03*
%TD*%
%TO.C,S30*%
X140000000Y-93350000D03*
X152000000Y-95550000D03*
%TD*%
%TO.C,S14*%
X122000000Y-55850000D03*
X134000000Y-58050000D03*
%TD*%
%TO.C,S6*%
X122000000Y-38850000D03*
X134000000Y-41050000D03*
%TD*%
%TO.C,S15*%
X140000000Y-59350000D03*
X152000000Y-61550000D03*
%TD*%
%TO.C,S29*%
X140000000Y-76350000D03*
X152000000Y-78550000D03*
%TD*%
%TO.C,S22*%
X68000000Y-92350000D03*
X80000000Y-94550000D03*
%TD*%
%TO.C,S26*%
X104000000Y-84350000D03*
X116000000Y-86550000D03*
%TD*%
%TO.C,S23*%
X86000000Y-71350000D03*
X98000000Y-73550000D03*
%TD*%
%TO.C,S1*%
X32000000Y-41350000D03*
X44000000Y-43550000D03*
%TD*%
%TO.C,S13*%
X104000000Y-50350000D03*
X116000000Y-52550000D03*
%TD*%
%TO.C,S9*%
X32000000Y-58350000D03*
X44000000Y-60550000D03*
%TD*%
%TO.C,S4*%
X86000000Y-37350000D03*
X98000000Y-39550000D03*
%TD*%
%TO.C,S10*%
X50000000Y-58350000D03*
X62000000Y-60550000D03*
%TD*%
%TO.C,S11*%
X68000000Y-58350000D03*
X80000000Y-60550000D03*
%TD*%
%TO.C,S17*%
X32000000Y-75350000D03*
X44000000Y-77550000D03*
%TD*%
%TO.C,S24*%
X86000000Y-88350000D03*
X98000000Y-90550000D03*
%TD*%
D11*
%TO.C,S31*%
X163601304Y-133926420D03*
X170530950Y-143967336D03*
%TD*%
D10*
%TO.C,S2*%
X50000000Y-41350000D03*
X62000000Y-43550000D03*
%TD*%
%TO.C,S20*%
X50000000Y-92350000D03*
X62000000Y-94550000D03*
%TD*%
D12*
%TO.C,S8*%
X124078577Y-113048579D03*
X135100285Y-118279444D03*
%TD*%
D10*
%TO.C,S25*%
X104000000Y-67350000D03*
X116000000Y-69550000D03*
%TD*%
%TO.C,S12*%
X86000000Y-54350000D03*
X98000000Y-56550000D03*
%TD*%
%TO.C,S21*%
X68000000Y-75350000D03*
X80000000Y-77550000D03*
%TD*%
D13*
%TO.C,S16*%
X145125314Y-121053848D03*
X154417619Y-128959103D03*
%TD*%
D10*
%TO.C,S18*%
X32000000Y-92350000D03*
X44000000Y-94550000D03*
%TD*%
D14*
%TO.C,D19*%
X59500000Y-87500000D03*
X59500000Y-84200000D03*
%TD*%
%TO.C,D9*%
X41500000Y-70500000D03*
X41500000Y-67200000D03*
%TD*%
%TO.C,D15*%
X149500000Y-71500000D03*
X149500000Y-68200000D03*
%TD*%
%TO.C,D8*%
X130218263Y-127650000D03*
X130218263Y-124350000D03*
%TD*%
%TO.C,D17*%
X41500000Y-87500000D03*
X41500000Y-84200000D03*
%TD*%
%TO.C,D18*%
X41500000Y-104350000D03*
X41500000Y-101050000D03*
%TD*%
%TO.C,D14*%
X131500000Y-68000000D03*
X131500000Y-64700000D03*
%TD*%
%TO.C,D12*%
X95500000Y-66500000D03*
X95500000Y-63200000D03*
%TD*%
%TO.C,D24*%
X95500000Y-100500000D03*
X95500000Y-97200000D03*
%TD*%
%TO.C,D26*%
X113500000Y-96500000D03*
X113500000Y-93200000D03*
%TD*%
%TO.C,D13*%
X113500000Y-62500000D03*
X113500000Y-59200000D03*
%TD*%
%TO.C,D6*%
X131500000Y-50850000D03*
X131500000Y-47550000D03*
%TD*%
%TO.C,D22*%
X77500000Y-104500000D03*
X77500000Y-101200000D03*
%TD*%
%TO.C,D30*%
X149500000Y-105500000D03*
X149500000Y-102200000D03*
%TD*%
%TO.C,D2*%
X59500000Y-53500000D03*
X59500000Y-50200000D03*
%TD*%
%TO.C,D16*%
X147418263Y-136675000D03*
X147418263Y-133375000D03*
%TD*%
%TO.C,D7*%
X149500000Y-54500000D03*
X149500000Y-51200000D03*
%TD*%
%TO.C,D29*%
X149500000Y-88500000D03*
X149500000Y-85200000D03*
%TD*%
%TO.C,D25*%
X113500000Y-79500000D03*
X113500000Y-76200000D03*
%TD*%
%TO.C,D33*%
X102115000Y-105100000D03*
X102115000Y-101800000D03*
%TD*%
%TO.C,D11*%
X77500000Y-70500000D03*
X77500000Y-67200000D03*
%TD*%
%TO.C,D27*%
X131500000Y-85000000D03*
X131500000Y-81700000D03*
%TD*%
%TO.C,D5*%
X113500000Y-45350000D03*
X113500000Y-42050000D03*
%TD*%
%TO.C,D3*%
X77500000Y-53500000D03*
X77500000Y-50200000D03*
%TD*%
%TO.C,D20*%
X59500000Y-104500000D03*
X59500000Y-101200000D03*
%TD*%
%TO.C,D23*%
X95500000Y-83500000D03*
X95500000Y-80200000D03*
%TD*%
%TO.C,D31*%
X161893263Y-149650000D03*
X161893263Y-146350000D03*
%TD*%
%TO.C,D21*%
X77500000Y-87500000D03*
X77500000Y-84200000D03*
%TD*%
%TO.C,D1*%
X41500000Y-53500000D03*
X41500000Y-50200000D03*
%TD*%
%TO.C,D28*%
X131500000Y-102000000D03*
X131500000Y-98700000D03*
%TD*%
%TO.C,D10*%
X59500000Y-70500000D03*
X59500000Y-67200000D03*
%TD*%
%TO.C,D4*%
X95500000Y-49350000D03*
X95500000Y-46050000D03*
%TD*%
D15*
X179000000Y-141585786D02*
G75*
G02*
X178707093Y-142292879I-999900J-14D01*
G01*
X155100000Y-28900000D02*
X155100000Y-30075000D01*
X78000000Y-34000000D02*
X78000000Y-36000000D01*
X78000000Y-34000000D02*
G75*
G02*
X79000000Y-33000000I1000000J0D01*
G01*
X26000000Y-109000000D02*
G75*
G02*
X25000000Y-108000000I0J1000000D01*
G01*
X96000000Y-28900000D02*
G75*
G02*
X97000000Y-27900000I1000000J0D01*
G01*
X122275000Y-27900000D02*
X154100000Y-27900000D01*
X156100000Y-31075000D02*
X178000000Y-31075000D01*
X87585786Y-109000000D02*
G75*
G02*
X88292900Y-109292886I14J-1000000D01*
G01*
X154100000Y-27900000D02*
G75*
G02*
X155100000Y-28900000I0J-1000000D01*
G01*
X96000000Y-32000000D02*
G75*
G02*
X95000000Y-33000000I-1000000J0D01*
G01*
X107130334Y-128069822D02*
G75*
G02*
X106895455Y-127895443I472366J881622D01*
G01*
X163524939Y-157475061D02*
X178707107Y-142292893D01*
X179000000Y-141585786D02*
X179000000Y-32075000D01*
X25000000Y-38000000D02*
G75*
G02*
X26000000Y-37000000I1000000J0D01*
G01*
X163524939Y-157475061D02*
G75*
G02*
X162345588Y-157649474I-707139J707061D01*
G01*
X25000000Y-38000000D02*
X25000000Y-108000000D01*
X95000000Y-33000000D02*
X79000000Y-33000000D01*
X88292893Y-109292893D02*
X106895449Y-127895449D01*
X26000000Y-109000000D02*
X87585786Y-109000000D01*
X107130334Y-128069822D02*
X162345610Y-157649434D01*
X77000000Y-37000000D02*
X26000000Y-37000000D01*
X178000000Y-31075000D02*
G75*
G02*
X179000000Y-32075000I0J-1000000D01*
G01*
X96000000Y-28900000D02*
X96000000Y-32000000D01*
X78000000Y-36000000D02*
G75*
G02*
X77000000Y-37000000I-1000000J0D01*
G01*
X122275000Y-27900000D02*
X97000000Y-27900000D01*
X156100000Y-31075000D02*
G75*
G02*
X155100000Y-30075000I0J1000000D01*
G01*
M02*
