%TF.GenerationSoftware,KiCad,Pcbnew,8.0.5*%
%TF.CreationDate,2024-10-11T21:26:08+02:00*%
%TF.ProjectId,vaucasy_left,76617563-6173-4795-9f6c-6566742e6b69,rev?*%
%TF.SameCoordinates,Original*%
%TF.FileFunction,Soldermask,Top*%
%TF.FilePolarity,Negative*%
%FSLAX46Y46*%
G04 Gerber Fmt 4.6, Leading zero omitted, Abs format (unit mm)*
G04 Created by KiCad (PCBNEW 8.0.5) date 2024-10-11 21:26:08*
%MOMM*%
%LPD*%
G01*
G04 APERTURE LIST*
G04 Aperture macros list*
%AMRoundRect*
0 Rectangle with rounded corners*
0 $1 Rounding radius*
0 $2 $3 $4 $5 $6 $7 $8 $9 X,Y pos of 4 corners*
0 Add a 4 corners polygon primitive as box body*
4,1,4,$2,$3,$4,$5,$6,$7,$8,$9,$2,$3,0*
0 Add four circle primitives for the rounded corners*
1,1,$1+$1,$2,$3*
1,1,$1+$1,$4,$5*
1,1,$1+$1,$6,$7*
1,1,$1+$1,$8,$9*
0 Add four rect primitives between the rounded corners*
20,1,$1+$1,$2,$3,$4,$5,0*
20,1,$1+$1,$4,$5,$6,$7,0*
20,1,$1+$1,$6,$7,$8,$9,0*
20,1,$1+$1,$8,$9,$2,$3,0*%
G04 Aperture macros list end*
%ADD10RoundRect,0.218750X-0.256250X0.218750X-0.256250X-0.218750X0.256250X-0.218750X0.256250X0.218750X0*%
%ADD11RoundRect,0.150000X0.150000X-0.512500X0.150000X0.512500X-0.150000X0.512500X-0.150000X-0.512500X0*%
%ADD12RoundRect,0.135000X0.135000X0.185000X-0.135000X0.185000X-0.135000X-0.185000X0.135000X-0.185000X0*%
%ADD13RoundRect,0.075000X0.075000X-0.700000X0.075000X0.700000X-0.075000X0.700000X-0.075000X-0.700000X0*%
%ADD14RoundRect,0.075000X0.700000X-0.075000X0.700000X0.075000X-0.700000X0.075000X-0.700000X-0.075000X0*%
%ADD15R,1.700000X1.000000*%
%ADD16RoundRect,0.140000X-0.140000X-0.170000X0.140000X-0.170000X0.140000X0.170000X-0.140000X0.170000X0*%
%ADD17R,2.000000X2.000000*%
%ADD18C,2.000000*%
%ADD19R,2.000000X3.200000*%
%ADD20R,1.700000X1.700000*%
%ADD21O,1.700000X1.700000*%
%ADD22C,1.900000*%
%ADD23C,1.600000*%
%ADD24C,3.050000*%
%ADD25C,5.050000*%
%ADD26RoundRect,0.135000X-0.135000X-0.185000X0.135000X-0.185000X0.135000X0.185000X-0.135000X0.185000X0*%
%ADD27C,2.200000*%
%ADD28R,1.000000X0.800000*%
%ADD29C,0.900000*%
%ADD30R,0.700000X1.500000*%
%ADD31RoundRect,0.135000X-0.185000X0.135000X-0.185000X-0.135000X0.185000X-0.135000X0.185000X0.135000X0*%
%ADD32RoundRect,0.135000X0.185000X-0.135000X0.185000X0.135000X-0.185000X0.135000X-0.185000X-0.135000X0*%
%ADD33RoundRect,0.140000X0.170000X-0.140000X0.170000X0.140000X-0.170000X0.140000X-0.170000X-0.140000X0*%
%ADD34RoundRect,0.150000X-0.150000X0.512500X-0.150000X-0.512500X0.150000X-0.512500X0.150000X0.512500X0*%
%ADD35RoundRect,0.140000X0.140000X0.170000X-0.140000X0.170000X-0.140000X-0.170000X0.140000X-0.170000X0*%
%ADD36C,0.800000*%
%ADD37O,1.600000X2.000000*%
%ADD38RoundRect,0.225000X0.225000X0.250000X-0.225000X0.250000X-0.225000X-0.250000X0.225000X-0.250000X0*%
%ADD39RoundRect,0.140000X-0.170000X0.140000X-0.170000X-0.140000X0.170000X-0.140000X0.170000X0.140000X0*%
%ADD40C,0.650000*%
%ADD41R,0.600000X1.450000*%
%ADD42R,0.300000X1.450000*%
%ADD43O,1.000000X2.100000*%
%ADD44O,1.000000X1.600000*%
%ADD45RoundRect,0.225000X-0.250000X0.225000X-0.250000X-0.225000X0.250000X-0.225000X0.250000X0.225000X0*%
%ADD46R,1.400000X1.200000*%
%TA.AperFunction,Profile*%
%ADD47C,0.050000*%
%TD*%
G04 APERTURE END LIST*
D10*
%TO.C,F1*%
X159375000Y-44562500D03*
X159375000Y-46137500D03*
%TD*%
D11*
%TO.C,U3*%
X167350000Y-53382500D03*
X169250000Y-53382500D03*
X168300000Y-51107500D03*
%TD*%
D12*
%TO.C,R10*%
X161835000Y-83175000D03*
X160815000Y-83175000D03*
%TD*%
D13*
%TO.C,U1*%
X161250000Y-69775000D03*
X161750000Y-69775000D03*
X162250000Y-69775000D03*
X162750000Y-69775000D03*
X163250000Y-69775000D03*
X163750000Y-69775000D03*
X164250000Y-69775000D03*
X164750000Y-69775000D03*
X165250000Y-69775000D03*
X165750000Y-69775000D03*
X166250000Y-69775000D03*
X166750000Y-69775000D03*
X167250000Y-69775000D03*
X167750000Y-69775000D03*
X168250000Y-69775000D03*
X168750000Y-69775000D03*
D14*
X170675000Y-67850000D03*
X170675000Y-67350000D03*
X170675000Y-66850000D03*
X170675000Y-66350000D03*
X170675000Y-65850000D03*
X170675000Y-65350000D03*
X170675000Y-64850000D03*
X170675000Y-64350000D03*
X170675000Y-63850000D03*
X170675000Y-63350000D03*
X170675000Y-62850000D03*
X170675000Y-62350000D03*
X170675000Y-61850000D03*
X170675000Y-61350000D03*
X170675000Y-60850000D03*
X170675000Y-60350000D03*
D13*
X168750000Y-58425000D03*
X168250000Y-58425000D03*
X167750000Y-58425000D03*
X167250000Y-58425000D03*
X166750000Y-58425000D03*
X166250000Y-58425000D03*
X165750000Y-58425000D03*
X165250000Y-58425000D03*
X164750000Y-58425000D03*
X164250000Y-58425000D03*
X163750000Y-58425000D03*
X163250000Y-58425000D03*
X162750000Y-58425000D03*
X162250000Y-58425000D03*
X161750000Y-58425000D03*
X161250000Y-58425000D03*
D14*
X159325000Y-60350000D03*
X159325000Y-60850000D03*
X159325000Y-61350000D03*
X159325000Y-61850000D03*
X159325000Y-62350000D03*
X159325000Y-62850000D03*
X159325000Y-63350000D03*
X159325000Y-63850000D03*
X159325000Y-64350000D03*
X159325000Y-64850000D03*
X159325000Y-65350000D03*
X159325000Y-65850000D03*
X159325000Y-66350000D03*
X159325000Y-66850000D03*
X159325000Y-67350000D03*
X159325000Y-67850000D03*
%TD*%
D15*
%TO.C,SW2*%
X151975000Y-36875000D03*
X145675000Y-36875000D03*
X151975000Y-33075000D03*
X145675000Y-33075000D03*
%TD*%
D16*
%TO.C,C11*%
X162720000Y-73600000D03*
X163680000Y-73600000D03*
%TD*%
D17*
%TO.C,SW3*%
X105015000Y-116700000D03*
D18*
X110015000Y-116700000D03*
X107515000Y-116700000D03*
D19*
X101915000Y-109200000D03*
X113115000Y-109200000D03*
D18*
X110015000Y-102200000D03*
X105015000Y-102200000D03*
%TD*%
D20*
%TO.C,J4*%
X173000000Y-108030000D03*
D21*
X173000000Y-105490000D03*
X173000000Y-102950000D03*
X173000000Y-100410000D03*
X173000000Y-97870000D03*
%TD*%
D16*
%TO.C,C5*%
X156820000Y-67800000D03*
X157780000Y-67800000D03*
%TD*%
D22*
%TO.C,S5*%
X102000000Y-39350000D03*
D23*
X102500000Y-44500000D03*
D24*
X107500000Y-33450000D03*
D25*
X107500000Y-39350000D03*
D24*
X112500000Y-35550000D03*
D22*
X113000000Y-39350000D03*
%TD*%
%TO.C,S27*%
X120000000Y-78850000D03*
D23*
X120500000Y-84000000D03*
D24*
X125500000Y-72950000D03*
D25*
X125500000Y-78850000D03*
D24*
X130500000Y-75050000D03*
D22*
X131000000Y-78850000D03*
%TD*%
D16*
%TO.C,C14*%
X108135000Y-119450000D03*
X109095000Y-119450000D03*
%TD*%
D22*
%TO.C,S3*%
X66000000Y-47350000D03*
D23*
X66500000Y-52500000D03*
D24*
X71500000Y-41450000D03*
D25*
X71500000Y-47350000D03*
D24*
X76500000Y-43550000D03*
D22*
X77000000Y-47350000D03*
%TD*%
%TO.C,S19*%
X48000000Y-81350000D03*
D23*
X48500000Y-86500000D03*
D24*
X53500000Y-75450000D03*
D25*
X53500000Y-81350000D03*
D24*
X58500000Y-77550000D03*
D22*
X59000000Y-81350000D03*
%TD*%
D26*
%TO.C,R7*%
X110025000Y-119450000D03*
X111045000Y-119450000D03*
%TD*%
D22*
%TO.C,S28*%
X120000000Y-95850000D03*
D23*
X120500000Y-101000000D03*
D24*
X125500000Y-89950000D03*
D25*
X125500000Y-95850000D03*
D24*
X130500000Y-92050000D03*
D22*
X131000000Y-95850000D03*
%TD*%
D27*
%TO.C,H3*%
X119625000Y-33200000D03*
%TD*%
D22*
%TO.C,S7*%
X138000000Y-48350000D03*
D23*
X138500000Y-53500000D03*
D24*
X143500000Y-42450000D03*
D25*
X143500000Y-48350000D03*
D24*
X148500000Y-44550000D03*
D22*
X149000000Y-48350000D03*
%TD*%
D28*
%TO.C,SW1*%
X143650000Y-35185000D03*
X143650000Y-32975000D03*
D29*
X141500000Y-34075000D03*
X138500000Y-34075000D03*
D28*
X136350000Y-35185000D03*
X136350000Y-32975000D03*
D30*
X142250000Y-35835000D03*
X139250000Y-35835000D03*
X137750000Y-35835000D03*
%TD*%
D22*
%TO.C,S30*%
X138000000Y-99350000D03*
D23*
X138500000Y-104500000D03*
D24*
X143500000Y-93450000D03*
D25*
X143500000Y-99350000D03*
D24*
X148500000Y-95550000D03*
D22*
X149000000Y-99350000D03*
%TD*%
D27*
%TO.C,H2*%
X166075000Y-122075000D03*
%TD*%
D31*
%TO.C,R6*%
X113150000Y-99115000D03*
X113150000Y-100135000D03*
%TD*%
D27*
%TO.C,H1*%
X93775000Y-107825000D03*
%TD*%
D22*
%TO.C,S14*%
X120000000Y-61850000D03*
D23*
X120500000Y-67000000D03*
D24*
X125500000Y-55950000D03*
D25*
X125500000Y-61850000D03*
D24*
X130500000Y-58050000D03*
D22*
X131000000Y-61850000D03*
%TD*%
D16*
%TO.C,C9*%
X167340000Y-49395000D03*
X168300000Y-49395000D03*
%TD*%
D22*
%TO.C,S6*%
X120000000Y-44850000D03*
D23*
X120500000Y-50000000D03*
D24*
X125500000Y-38950000D03*
D25*
X125500000Y-44850000D03*
D24*
X130500000Y-41050000D03*
D22*
X131000000Y-44850000D03*
%TD*%
D26*
%TO.C,R1*%
X139265000Y-37480000D03*
X140285000Y-37480000D03*
%TD*%
D20*
%TO.C,J2*%
X168730000Y-84950000D03*
D21*
X166190000Y-84950000D03*
X163650000Y-84950000D03*
X161110000Y-84950000D03*
%TD*%
D22*
%TO.C,S15*%
X138000000Y-65350000D03*
D23*
X138500000Y-70500000D03*
D24*
X143500000Y-59450000D03*
D25*
X143500000Y-65350000D03*
D24*
X148500000Y-61550000D03*
D22*
X149000000Y-65350000D03*
%TD*%
%TO.C,S29*%
X138000000Y-82350000D03*
D23*
X138500000Y-87500000D03*
D24*
X143500000Y-76450000D03*
D25*
X143500000Y-82350000D03*
D24*
X148500000Y-78550000D03*
D22*
X149000000Y-82350000D03*
%TD*%
%TO.C,S22*%
X66000000Y-98350000D03*
D23*
X66500000Y-103500000D03*
D24*
X71500000Y-92450000D03*
D25*
X71500000Y-98350000D03*
D24*
X76500000Y-94550000D03*
D22*
X77000000Y-98350000D03*
%TD*%
%TO.C,S26*%
X102000000Y-90350000D03*
D23*
X102500000Y-95500000D03*
D24*
X107500000Y-84450000D03*
D25*
X107500000Y-90350000D03*
D24*
X112500000Y-86550000D03*
D22*
X113000000Y-90350000D03*
%TD*%
%TO.C,S23*%
X84000000Y-77350000D03*
D23*
X84500000Y-82500000D03*
D24*
X89500000Y-71450000D03*
D25*
X89500000Y-77350000D03*
D24*
X94500000Y-73550000D03*
D22*
X95000000Y-77350000D03*
%TD*%
D32*
%TO.C,R8*%
X105115000Y-120460000D03*
X105115000Y-119440000D03*
%TD*%
D33*
%TO.C,C1*%
X161025000Y-72255000D03*
X161025000Y-71295000D03*
%TD*%
D22*
%TO.C,S1*%
X30000000Y-47350000D03*
D23*
X30500000Y-52500000D03*
D24*
X35500000Y-41450000D03*
D25*
X35500000Y-47350000D03*
D24*
X40500000Y-43550000D03*
D22*
X41000000Y-47350000D03*
%TD*%
%TO.C,S13*%
X102000000Y-56350000D03*
D23*
X102500000Y-61500000D03*
D24*
X107500000Y-50450000D03*
D25*
X107500000Y-56350000D03*
D24*
X112500000Y-52550000D03*
D22*
X113000000Y-56350000D03*
%TD*%
%TO.C,S9*%
X30000000Y-64350000D03*
D23*
X30500000Y-69500000D03*
D24*
X35500000Y-58450000D03*
D25*
X35500000Y-64350000D03*
D24*
X40500000Y-60550000D03*
D22*
X41000000Y-64350000D03*
%TD*%
D31*
%TO.C,R13*%
X169500000Y-102270000D03*
X169500000Y-103290000D03*
%TD*%
D22*
%TO.C,S4*%
X84000000Y-43350000D03*
D23*
X84500000Y-48500000D03*
D24*
X89500000Y-37450000D03*
D25*
X89500000Y-43350000D03*
D24*
X94500000Y-39550000D03*
D22*
X95000000Y-43350000D03*
%TD*%
D34*
%TO.C,U2*%
X163950000Y-47320000D03*
X163000000Y-47320000D03*
X162050000Y-47320000D03*
X162050000Y-49595000D03*
X163000000Y-49595000D03*
X163950000Y-49595000D03*
%TD*%
D26*
%TO.C,R2*%
X149415000Y-38600000D03*
X150435000Y-38600000D03*
%TD*%
D22*
%TO.C,S10*%
X48000000Y-64350000D03*
D23*
X48500000Y-69500000D03*
D24*
X53500000Y-58450000D03*
D25*
X53500000Y-64350000D03*
D24*
X58500000Y-60550000D03*
D22*
X59000000Y-64350000D03*
%TD*%
D26*
%TO.C,R4*%
X159990000Y-41075000D03*
X161010000Y-41075000D03*
%TD*%
D35*
%TO.C,C17*%
X157780000Y-65925000D03*
X156820000Y-65925000D03*
%TD*%
D22*
%TO.C,S11*%
X66000000Y-64350000D03*
D23*
X66500000Y-69500000D03*
D24*
X71500000Y-58450000D03*
D25*
X71500000Y-64350000D03*
D24*
X76500000Y-60550000D03*
D22*
X77000000Y-64350000D03*
%TD*%
D36*
%TO.C,U4*%
X174500000Y-34550000D03*
X174500000Y-41550000D03*
D37*
X172200000Y-44250000D03*
X176800000Y-43150000D03*
X176800000Y-39150000D03*
X176800000Y-36150000D03*
%TD*%
D38*
%TO.C,C6*%
X171500000Y-58025000D03*
X169950000Y-58025000D03*
%TD*%
D33*
%TO.C,C2*%
X172250000Y-67600000D03*
X172250000Y-66640000D03*
%TD*%
D22*
%TO.C,S17*%
X30000000Y-81350000D03*
D23*
X30500000Y-86500000D03*
D24*
X35500000Y-75450000D03*
D25*
X35500000Y-81350000D03*
D24*
X40500000Y-77550000D03*
D22*
X41000000Y-81350000D03*
%TD*%
D16*
%TO.C,C8*%
X167870000Y-54895000D03*
X168830000Y-54895000D03*
%TD*%
D22*
%TO.C,S24*%
X84000000Y-94350000D03*
D23*
X84500000Y-99500000D03*
D24*
X89500000Y-88450000D03*
D25*
X89500000Y-94350000D03*
D24*
X94500000Y-90550000D03*
D22*
X95000000Y-94350000D03*
%TD*%
%TO.C,S31*%
X157944450Y-136754847D03*
D23*
X154656403Y-140750000D03*
D24*
X166005467Y-136472004D03*
D25*
X161833537Y-140643934D03*
D24*
X168056077Y-141492462D03*
D22*
X165722624Y-144533021D03*
%TD*%
D32*
%TO.C,R14*%
X169500000Y-105780000D03*
X169500000Y-104760000D03*
%TD*%
D39*
%TO.C,C16*%
X114350000Y-99145000D03*
X114350000Y-100105000D03*
%TD*%
D35*
%TO.C,C3*%
X171705000Y-59425000D03*
X170745000Y-59425000D03*
%TD*%
D16*
%TO.C,C10*%
X160720000Y-73600000D03*
X161680000Y-73600000D03*
%TD*%
%TO.C,C13*%
X166540000Y-71325000D03*
X167500000Y-71325000D03*
%TD*%
D12*
%TO.C,R3*%
X165835000Y-41075000D03*
X164815000Y-41075000D03*
%TD*%
D22*
%TO.C,S2*%
X48000000Y-47350000D03*
D23*
X48500000Y-52500000D03*
D24*
X53500000Y-41450000D03*
D25*
X53500000Y-47350000D03*
D24*
X58500000Y-43550000D03*
D22*
X59000000Y-47350000D03*
%TD*%
%TO.C,S20*%
X48000000Y-98350000D03*
D23*
X48500000Y-103500000D03*
D24*
X53500000Y-92450000D03*
D25*
X53500000Y-98350000D03*
D24*
X58500000Y-94550000D03*
D22*
X59000000Y-98350000D03*
%TD*%
%TO.C,S8*%
X120593811Y-118326495D03*
D23*
X119743856Y-123430423D03*
D24*
X127433435Y-114051038D03*
D25*
X125906403Y-119750000D03*
D24*
X131719545Y-117373577D03*
D22*
X131218995Y-121173505D03*
%TD*%
D16*
%TO.C,C15*%
X106135000Y-119450000D03*
X107095000Y-119450000D03*
%TD*%
D40*
%TO.C,J1*%
X165890000Y-37590000D03*
X160110000Y-37590000D03*
D41*
X166250000Y-39035000D03*
X165450000Y-39035000D03*
D42*
X164250000Y-39035000D03*
X163250000Y-39035000D03*
X162750000Y-39035000D03*
X161750000Y-39035000D03*
D41*
X160550000Y-39035000D03*
X159750000Y-39035000D03*
X159750000Y-39035000D03*
X160550000Y-39035000D03*
D42*
X161250000Y-39035000D03*
X162250000Y-39035000D03*
X163750000Y-39035000D03*
X164750000Y-39035000D03*
D41*
X165450000Y-39035000D03*
X166250000Y-39035000D03*
D43*
X167320000Y-38120000D03*
D44*
X167320000Y-33940000D03*
D43*
X158680000Y-38120000D03*
D44*
X158680000Y-33940000D03*
%TD*%
D45*
%TO.C,C12*%
X172500000Y-61600000D03*
X172500000Y-63150000D03*
%TD*%
D22*
%TO.C,S25*%
X102000000Y-73350000D03*
D23*
X102500000Y-78500000D03*
D24*
X107500000Y-67450000D03*
D25*
X107500000Y-73350000D03*
D24*
X112500000Y-69550000D03*
D22*
X113000000Y-73350000D03*
%TD*%
%TO.C,S12*%
X84000000Y-60350000D03*
D23*
X84500000Y-65500000D03*
D24*
X89500000Y-54450000D03*
D25*
X89500000Y-60350000D03*
D24*
X94500000Y-56550000D03*
D22*
X95000000Y-60350000D03*
%TD*%
D33*
%TO.C,C7*%
X164975000Y-72355000D03*
X164975000Y-71395000D03*
%TD*%
D35*
%TO.C,C4*%
X161930000Y-56875000D03*
X160970000Y-56875000D03*
%TD*%
D12*
%TO.C,R9*%
X163810000Y-83175000D03*
X162790000Y-83175000D03*
%TD*%
D22*
%TO.C,S21*%
X66000000Y-81350000D03*
D23*
X66500000Y-86500000D03*
D24*
X71500000Y-75450000D03*
D25*
X71500000Y-81350000D03*
D24*
X76500000Y-77550000D03*
D22*
X77000000Y-81350000D03*
%TD*%
D20*
%TO.C,J6*%
X155500000Y-34550000D03*
D21*
X155500000Y-37090000D03*
X155500000Y-39630000D03*
X155500000Y-42170000D03*
%TD*%
D22*
%TO.C,S16*%
X140393263Y-125250000D03*
D23*
X138251276Y-129960031D03*
D24*
X148106403Y-122890450D03*
D25*
X145156403Y-128000000D03*
D24*
X151386531Y-127209104D03*
D22*
X149919543Y-130750000D03*
%TD*%
D46*
%TO.C,Y1*%
X161100000Y-76750000D03*
X163300000Y-76750000D03*
X163300000Y-75050000D03*
X161100000Y-75050000D03*
%TD*%
D22*
%TO.C,S18*%
X30000000Y-98350000D03*
D23*
X30500000Y-103500000D03*
D24*
X35500000Y-92450000D03*
D25*
X35500000Y-98350000D03*
D24*
X40500000Y-94550000D03*
D22*
X41000000Y-98350000D03*
%TD*%
D20*
%TO.C,J5*%
X158600000Y-88575000D03*
D21*
X161140000Y-88575000D03*
X163680000Y-88575000D03*
X166220000Y-88575000D03*
X168760000Y-88575000D03*
X171300000Y-88575000D03*
%TD*%
D47*
X179000000Y-141585786D02*
G75*
G02*
X178707093Y-142292879I-999900J-14D01*
G01*
X155100000Y-28900000D02*
X155100000Y-30075000D01*
X78000000Y-34000000D02*
X78000000Y-36000000D01*
X78000000Y-34000000D02*
G75*
G02*
X79000000Y-33000000I1000000J0D01*
G01*
X26000000Y-109000000D02*
G75*
G02*
X25000000Y-108000000I0J1000000D01*
G01*
X96000000Y-28900000D02*
G75*
G02*
X97000000Y-27900000I1000000J0D01*
G01*
X122275000Y-27900000D02*
X154100000Y-27900000D01*
X156100000Y-31075000D02*
X178000000Y-31075000D01*
X87585786Y-109000000D02*
G75*
G02*
X88292900Y-109292886I14J-1000000D01*
G01*
X154100000Y-27900000D02*
G75*
G02*
X155100000Y-28900000I0J-1000000D01*
G01*
X96000000Y-32000000D02*
G75*
G02*
X95000000Y-33000000I-1000000J0D01*
G01*
X107130334Y-128069822D02*
G75*
G02*
X106895455Y-127895443I472366J881622D01*
G01*
X163524939Y-157475061D02*
X178707107Y-142292893D01*
X179000000Y-141585786D02*
X179000000Y-32075000D01*
X25000000Y-38000000D02*
G75*
G02*
X26000000Y-37000000I1000000J0D01*
G01*
X163524939Y-157475061D02*
G75*
G02*
X162345588Y-157649474I-707139J707061D01*
G01*
X25000000Y-38000000D02*
X25000000Y-108000000D01*
X95000000Y-33000000D02*
X79000000Y-33000000D01*
X88292893Y-109292893D02*
X106895449Y-127895449D01*
X26000000Y-109000000D02*
X87585786Y-109000000D01*
X107130334Y-128069822D02*
X162345610Y-157649434D01*
X77000000Y-37000000D02*
X26000000Y-37000000D01*
X178000000Y-31075000D02*
G75*
G02*
X179000000Y-32075000I0J-1000000D01*
G01*
X96000000Y-28900000D02*
X96000000Y-32000000D01*
X78000000Y-36000000D02*
G75*
G02*
X77000000Y-37000000I-1000000J0D01*
G01*
X122275000Y-27900000D02*
X97000000Y-27900000D01*
X156100000Y-31075000D02*
G75*
G02*
X155100000Y-30075000I0J1000000D01*
G01*
M02*
